<svg xmlns="http://www.w3.org/2000/svg" width="274.642" height="188.484" viewBox="0 0 274.642 188.484">
  <g id="Grupo_1125" data-name="Grupo 1125" transform="translate(-769.138 -1166)">
    <g id="Grupo_1119" data-name="Grupo 1119" transform="translate(769.845 1199.042)">
      <path id="Trazado_1398" data-name="Trazado 1398" d="M485.893,115.615c-14.511-17.085-11.1-55.5-11.1-55.5h-181s3.408,38.411-11.109,55.5-23.905,28.178-35,35.863c9.4,12.807,27.329,43.549,27.329,43.549s35.433-19.3,59.339-15.89,41.4,22.715,49.944,35.522c8.54-12.807,26.044-32.1,49.95-35.522s59.344,15.89,59.344,15.89,17.929-30.741,27.323-43.549C509.808,143.793,500.414,132.689,485.893,115.615Z" transform="translate(-247.673 -60.119)" fill="none" stroke="#96553d" stroke-width="1"/>
      <path id="Trazado_1399" data-name="Trazado 1399" d="M455.65,97.923c-12.669-11.638-9.694-37.8-9.694-37.8H287.931s2.975,26.166-9.7,37.8-20.87,19.2-30.56,24.43c8.206,8.724,23.859,29.666,23.859,29.666s30.935-13.149,51.805-10.824,36.148,15.474,43.6,24.2c7.456-8.724,22.738-21.866,43.608-24.2s51.81,10.824,51.81,10.824,15.653-20.941,23.854-29.666C476.529,117.118,468.328,109.555,455.65,97.923Z" transform="translate(-229.564 -31.741)" fill="none" stroke="#695f52" stroke-linecap="round" stroke-width="1" stroke-dasharray="6"/>
    </g>
    <rect id="Rectángulo_720" data-name="Rectángulo 720" width="107" height="58" transform="translate(827.726 1187)" fill="#f3f7fa"/>
    <g id="Grupo_1124" data-name="Grupo 1124" transform="translate(986.179 1166) rotate(90)">
      <g id="Grupo_1121" data-name="Grupo 1121">
        <path id="Trazado_1916" data-name="Trazado 1916" d="M8.905,0C4.9,19.317,1.121,50.33,0,85.587c-.084,2.652,2.782,5.918,5.414,6.257l1.515.2c3.368.435,6.187-1.176,6.341-4.569C14.822,53.517,15.844,22.574,8.905,0Z" transform="translate(30.319)" fill="#b2b2b2"/>
        <path id="Trazado_1917" data-name="Trazado 1917" d="M6.093,43.879C6.093,25.432,4.8,11.3,2.047,0,1.326,3.869.643,7.994,0,12.317L5.718,63.473C5.941,56.839,6.093,50.229,6.093,43.879Z" transform="translate(37.378 5.464)" fill="#fff" opacity="0.75"/>
        <path id="Trazado_1918" data-name="Trazado 1918" d="M26.574,43.8c.033,0,.063.011.1.011a3.1,3.1,0,0,0,.069-6.145,18.408,18.408,0,0,0-3.229-8.506,4.773,4.773,0,0,1-.093-5.346L36.16,3.867,31.259,0,17.723,21.327a4.955,4.955,0,0,1-4.243,2.248h-.028C6.034,23.576,0,31.014,0,40.157S6.034,56.738,13.452,56.738C19.856,56.738,25.224,51.195,26.574,43.8ZM5.006,40.157c0-6.383,3.788-11.575,8.447-11.575S21.9,33.774,21.9,40.157,18.11,51.733,13.452,51.733,5.006,46.54,5.006,40.157Z" transform="translate(0 87.456)" fill="#4b677c"/>
        <g id="Grupo_1120" data-name="Grupo 1120" transform="translate(0.626 88.377)" opacity="0.5">
          <path id="Trazado_1919" data-name="Trazado 1919" d="M10.1,12.2C10.1,5.474,6.028,0,1.025,0A6.78,6.78,0,0,0,0,.083C4.521.771,8.048,5.94,8.048,12.2S4.521,23.632,0,24.32a6.78,6.78,0,0,0,1.025.083C6.028,24.4,10.1,18.929,10.1,12.2Z" transform="translate(13.852 27.035)" fill="#1d1d1b"/>
          <path id="Trazado_1920" data-name="Trazado 1920" d="M2.05,39.236c0-8.8,5.754-15.956,12.827-15.956a5.588,5.588,0,0,0,4.8-2.538L32.156,1.078,30.79,0,17.627,20.742a5.588,5.588,0,0,1-4.8,2.538C5.754,23.28,0,30.438,0,39.236S5.754,55.192,12.827,55.192a10.2,10.2,0,0,0,1.021-.056C7.255,54.481,2.05,47.6,2.05,39.236Z" transform="translate(0 0)" fill="#1d1d1b"/>
        </g>
      </g>
      <g id="Grupo_1123" data-name="Grupo 1123" transform="translate(14.74 1.417)">
        <path id="Trazado_1921" data-name="Trazado 1921" d="M29.923,91.426,23.6,91.341l-7.8-.057L1.288,31.2A39.8,39.8,0,0,1,5.994.15l.1-.15Z" fill="#dadada"/>
        <path id="Trazado_1922" data-name="Trazado 1922" d="M3.167,0A38.208,38.208,0,0,0,0,8.292l21.959,63.8Z" transform="translate(2.482 3.273)" fill="#fff" opacity="0.75"/>
        <path id="Trazado_1923" data-name="Trazado 1923" d="M21.767,58.226c7.518-2.712,10.183-12.83,6.682-26.2-3.512-13.475-9.138-18.307-14.528-19.338a2.674,2.674,0,0,1-2.069-3.219L12.2,7.926a7.164,7.164,0,0,0-.06-3.352L10.963.085,4.637,0l1.7,5.808A7.164,7.164,0,0,1,6.55,8.8L6.5,9.163A9.544,9.544,0,0,1,3.238,15.2C.844,17.2-.7,20.4.315,24.942c.039.171.083.34.128.516a46.178,46.178,0,0,0,1.892,5.707,51.637,51.637,0,0,1,2.1,6.4A38.5,38.5,0,0,1,5.58,43.7a41.724,41.724,0,0,0,1.213,6.512c1.006,3.859,2.856,6.525,5.5,7.915C14.92,59.513,18.105,59.54,21.767,58.226Zm-7.14-4.52c-1.351-.712-2.355-2.315-2.994-4.756a37.448,37.448,0,0,1-1.082-5.842,43.874,43.874,0,0,0-1.27-6.8A57.2,57.2,0,0,0,7,29.357,42.468,42.468,0,0,1,5.285,24.2c-.033-.12-.059-.237-.083-.347-.928-4.171,1.915-5.567,3.689-6.032,2.472-.647,10-2.611,14.716,15.462.147.57.285,1.136.407,1.685,2.111,9.485.526,16.934-3.944,18.544C17.786,54.336,15.955,54.4,14.627,53.705Z" transform="translate(18.959 91.341)" fill="#4b677c"/>
        <g id="Grupo_1122" data-name="Grupo 1122" transform="translate(19.586 91.978)" opacity="0.5">
          <path id="Trazado_1924" data-name="Trazado 1924" d="M9.7,37.3c3.356-1.209,5.281-5.352,5.281-11.365a36.657,36.657,0,0,0-.938-7.9c-.125-.557-.264-1.128-.412-1.705C11.575,8.46,8.722,3.37,5.147,1.2A7.978,7.978,0,0,0,0,.053,8.059,8.059,0,0,1,3.3,1.2c3.574,2.169,6.427,7.259,8.48,15.13.148.577.288,1.148.413,1.705a36.718,36.718,0,0,1,.938,7.9c0,6.014-1.925,10.156-5.282,11.365a12,12,0,0,1-2.531.638A9.283,9.283,0,0,0,9.7,37.3Z" transform="translate(11.809 16.16)" fill="#1d1d1b"/>
          <path id="Trazado_1925" data-name="Trazado 1925" d="M13.813,56.938c-2.484-1.305-4.231-3.835-5.191-7.52a40.819,40.819,0,0,1-1.189-6.361l-.008-.069a39.393,39.393,0,0,0-1.162-6.215,51.789,51.789,0,0,0-2.105-6.432,46.191,46.191,0,0,1-1.885-5.677c-.052-.2-.09-.349-.122-.5a11.946,11.946,0,0,1-.3-2.59h0a8.249,8.249,0,0,1,3.013-6.534A10.128,10.128,0,0,0,8.339,8.612l.053-.36a7.657,7.657,0,0,0,.076-1.075A7.881,7.881,0,0,0,8.159,5L6.706.025,4.848,0l1.46,5a7.881,7.881,0,0,1,.31,2.18,7.657,7.657,0,0,1-.076,1.075l-.052.36a10.137,10.137,0,0,1-3.477,6.433A8.249,8.249,0,0,0,0,21.579H0a11.943,11.943,0,0,0,.3,2.59c.032.147.069.292.122.5a46.04,46.04,0,0,0,1.885,5.677,51.959,51.959,0,0,1,2.105,6.432,39.5,39.5,0,0,1,1.162,6.215l.007.069a40.926,40.926,0,0,0,1.189,6.361c.961,3.685,2.708,6.215,5.191,7.52a9.132,9.132,0,0,0,5.159.939A8.6,8.6,0,0,1,13.813,56.938Z" fill="#1d1d1b"/>
        </g>
        <path id="Trazado_1926" data-name="Trazado 1926" d="M3.818,3.168A2.3,2.3,0,0,0,0,.741Z" transform="translate(20.077 80.712)" fill="#575756"/>
        <path id="Trazado_1927" data-name="Trazado 1927" d="M3.949,2.416.15,0a2.3,2.3,0,0,0,3.8,2.416Z" transform="translate(19.461 82.205)" fill="#575756"/>
      </g>
    </g>
  </g>
</svg>
