<svg xmlns="http://www.w3.org/2000/svg" width="315.6" height="184" viewBox="0 0 315.6 184">
  <g id="Grupo_1112" data-name="Grupo 1112" transform="translate(-720.4 -705)">
    <g id="Grupo_1110" data-name="Grupo 1110" transform="translate(5)">
      <ellipse id="Elipse_503" data-name="Elipse 503" cx="15.799" cy="15.799" rx="15.799" ry="15.799" transform="translate(717.472 723.578)" fill="none" stroke="#c69f91" stroke-linecap="round" stroke-miterlimit="10" stroke-width="4.143"/>
      <path id="Trazado_1907" data-name="Trazado 1907" d="M480.767,340.154l6.443,6.237,19.579-19.252" transform="translate(246.25 394.232)" fill="none" stroke="#ed6562" stroke-linecap="round" stroke-miterlimit="10" stroke-width="3.107"/>
      <ellipse id="Elipse_504" data-name="Elipse 504" cx="15.799" cy="15.799" rx="15.799" ry="15.799" transform="translate(818.576 723.578)" fill="none" stroke="#c69f91" stroke-linecap="round" stroke-miterlimit="10" stroke-width="4.143"/>
      <ellipse id="Elipse_505" data-name="Elipse 505" cx="15.799" cy="15.799" rx="15.799" ry="15.799" transform="translate(818.576 723.578)" fill="none" stroke="#c69f91" stroke-linecap="round" stroke-miterlimit="10" stroke-width="4.143"/>
      <ellipse id="Elipse_506" data-name="Elipse 506" cx="15.799" cy="15.799" rx="15.799" ry="15.799" transform="translate(919.679 723.578)" fill="none" stroke="#c69f91" stroke-linecap="round" stroke-miterlimit="10" stroke-width="4.143"/>
      <path id="Trazado_1910" data-name="Trazado 1910" d="M480.767,340.154l6.443,6.237,19.579-19.252" transform="translate(448.458 394.232)" fill="none" stroke="#ed6562" stroke-linecap="round" stroke-miterlimit="10" stroke-width="3.107"/>
      <ellipse id="Elipse_507" data-name="Elipse 507" cx="15.799" cy="15.799" rx="15.799" ry="15.799" transform="translate(919.679 723.578)" fill="none" stroke="#c69f91" stroke-linecap="round" stroke-miterlimit="10" stroke-width="4.143"/>
      <path id="Trazado_1911" data-name="Trazado 1911" d="M480.767,340.154l6.443,6.237,19.579-19.252" transform="translate(448.458 394.232)" fill="none" stroke="#ed6562" stroke-linecap="round" stroke-miterlimit="10" stroke-width="3.107"/>
      <g id="Grupo_963" data-name="Grupo 963" transform="translate(614 -761)">
        <rect id="rectangle" width="69" height="69" transform="translate(348 1466)" fill="none"/>
        <path id="path" d="M27,4,22.975,8.025l16.1,16.1H4v5.75H39.075l-16.1,16.1L27,50,50,27Z" transform="translate(355.5 1473.5)" fill="#f4564b" fill-rule="evenodd"/>
      </g>
      <g id="Grupo_1105" data-name="Grupo 1105" transform="translate(2322 429) rotate(90)">
        <rect id="rectangle-2" data-name="rectangle" width="44" height="44" transform="translate(348 1466)" fill="none"/>
        <path id="path-2" data-name="path" d="M18.686,4l-2.57,2.57L26.4,16.85H4v3.672H26.4L16.116,30.8l2.57,2.57L33.372,18.686Z" transform="translate(351.343 1469.343)" fill="#977c72" fill-rule="evenodd"/>
      </g>
      <ellipse id="Elipse_508" data-name="Elipse 508" cx="15.799" cy="15.799" rx="15.799" ry="15.799" transform="translate(818.575 849.578)" fill="none" stroke="#c69f91" stroke-linecap="round" stroke-miterlimit="10" stroke-width="4.143"/>
      <path id="Trazado_1912" data-name="Trazado 1912" d="M480.767,340.154l6.443,6.237,19.579-19.252" transform="translate(347.354 520.232)" fill="none" stroke="#ed6562" stroke-linecap="round" stroke-miterlimit="10" stroke-width="3.107"/>
      <ellipse id="Elipse_509" data-name="Elipse 509" cx="15.799" cy="15.799" rx="15.799" ry="15.799" transform="translate(818.575 849.578)" fill="none" stroke="#c69f91" stroke-linecap="round" stroke-miterlimit="10" stroke-width="4.143"/>
      <path id="Trazado_1913" data-name="Trazado 1913" d="M480.767,340.154l6.443,6.237,19.579-19.252" transform="translate(347.354 520.232)" fill="none" stroke="#ed6562" stroke-linecap="round" stroke-miterlimit="10" stroke-width="3.107"/>
      <ellipse id="Elipse_510" data-name="Elipse 510" cx="15.799" cy="15.799" rx="15.799" ry="15.799" transform="translate(919.575 849.578)" fill="none" stroke="#c69f91" stroke-linecap="round" stroke-miterlimit="10" stroke-width="4.143"/>
      <path id="Trazado_1914" data-name="Trazado 1914" d="M480.767,340.154l6.443,6.237,19.579-19.252" transform="translate(448.354 520.232)" fill="none" stroke="#ed6562" stroke-linecap="round" stroke-miterlimit="10" stroke-width="3.107"/>
      <ellipse id="Elipse_511" data-name="Elipse 511" cx="15.799" cy="15.799" rx="15.799" ry="15.799" transform="translate(919.575 849.578)" fill="none" stroke="#c69f91" stroke-linecap="round" stroke-miterlimit="10" stroke-width="4.143"/>
      <path id="Trazado_1915" data-name="Trazado 1915" d="M480.767,340.154l6.443,6.237,19.579-19.252" transform="translate(448.354 520.232)" fill="none" stroke="#ed6562" stroke-linecap="round" stroke-miterlimit="10" stroke-width="3.107"/>
      <g id="Grupo_1106" data-name="Grupo 1106" transform="translate(517 -621)">
        <rect id="rectangle-3" data-name="rectangle" width="44" height="44" transform="translate(348 1466)" fill="none"/>
        <path id="path-3" data-name="path" d="M18.686,4l-2.57,2.57L26.4,16.85H4v3.672H26.4L16.116,30.8l2.57,2.57L33.372,18.686Z" transform="translate(351.343 1469.343)" fill="#977c72" fill-rule="evenodd"/>
      </g>
      <g id="Grupo_1107" data-name="Grupo 1107" transform="translate(-553 1169) rotate(-90)">
        <rect id="rectangle-4" data-name="rectangle" width="44" height="44" transform="translate(348 1466)" fill="none"/>
        <path id="path-4" data-name="path" d="M18.686,4l-2.57,2.57L26.4,16.85H4v3.672H26.4L16.116,30.8l2.57,2.57L33.372,18.686Z" transform="translate(351.343 1469.343)" fill="#977c72" fill-rule="evenodd"/>
      </g>
      <g id="Grupo_1109" data-name="Grupo 1109" transform="translate(413 -749)">
        <rect id="rectangle-5" data-name="rectangle" width="44" height="44" transform="translate(348 1466)" fill="none"/>
        <path id="path-5" data-name="path" d="M18.686,4l-2.57,2.57L26.4,16.85H4v3.672H26.4L16.116,30.8l2.57,2.57L33.372,18.686Z" transform="translate(351.343 1469.343)" fill="#977c72" fill-rule="evenodd"/>
      </g>
    </g>
  </g>
</svg>
