<svg id="Grupo_1136" data-name="Grupo 1136" xmlns="http://www.w3.org/2000/svg" width="146.981" height="130.566" viewBox="0 0 146.981 130.566">
  <path id="Trazado_2162" data-name="Trazado 2162" d="M157.895,68.378c.075.016-.069-.064,0,0Z" transform="translate(-127.693 -16.298)" fill="#977c72"/>
  <path id="Trazado_2163" data-name="Trazado 2163" d="M157.891,68.38h0l.007,0h0Z" transform="translate(-127.695 -16.302)" fill="#977c72"/>
  <path id="Trazado_2164" data-name="Trazado 2164" d="M264.379,16.281c-5.132-5.49-13.73-7.2-20.826-8.087A69.906,69.906,0,0,0,218.9,9.409c-8.181,1.955-15.993,5.141-24.111,7.31-6.177,1.652-12.52,2.087-18.827,2.946-10.724,1.461-21.442,3.643-31.569,7.53-7.9,3.032-16.661,7.634-20.326,15.719-4.566,10.074,2.917,20.145,9.293,27.3a.551.551,0,0,0,.112.083,31.54,31.54,0,0,0-1.523,5.56.63.63,0,0,0,.436.769,3.875,3.875,0,0,1,1.219.761A136.6,136.6,0,0,0,129.342,92.1a68.64,68.64,0,0,0-.944,25.012c.219,1.49.568,8.986,2.308,11.334.48,2.681,9.6,2.227,11.348,2.576a18.7,18.7,0,0,1,3.43,1.1,5.6,5.6,0,0,0,.688,1.234c.119.159.39,0,.269-.158a5.394,5.394,0,0,1-.537-.9c2.654,1.134,5.3,2.617,7.984,3.365,4.771,1.33,9.891,1.38,14.8,1.709q3.986.267,7.961.42c-.053.034-.11.063-.163.1-.166.112-.01.383.158.269.184-.124.373-.237.564-.345a214.017,214.017,0,0,0,25.43-.5c1.122-.093,2.277-.223,3.444-.389.011,0,.019.007.031,0l.028-.011a35.28,35.28,0,0,0,12.079-3.759l-.007.009c-.13.152.089.375.221.221.185-.215.36-.437.531-.662a18.963,18.963,0,0,0,4.05-3.257.6.6,0,0,0,.1-.7.679.679,0,0,0,.081-.24c1.489-11.185,3-21.99,2.129-33.3a85.01,85.01,0,0,0-1.607-11.023c0-.062.009-.121.009-.182a.133.133,0,0,0-.068-.121c-.353-1.649-.759-3.285-1.2-4.912a.591.591,0,0,0,.21-.3c.739-2.488,1.152-6.3-.085-8.8a.5.5,0,0,0,.085-.535c-4.231-11.109,5.36-17.094,14.3-20.973,9.21-3.995,19.952-6.139,28.061-12.306C272.39,30.485,270.023,22.318,264.379,16.281Zm-131.1,59.393c.525-2.453.82-6.139,3.472-6.777q-1.427,3.635-2.737,7.325C133.758,76.062,133.532,75.847,133.278,75.674ZM217.76,64.961c-1.917-4.861-3.782-9.719-5.587-14.621-.121-.327-.249-.663-.384-1,.121-.062.237-.124.359-.185.18-.09.022-.36-.158-.27-.109.055-.213.111-.321.166-.081-.2-.165-.389-.254-.583a.738.738,0,0,0-.147-.307,6.3,6.3,0,0,0-2.428-2.88.66.66,0,0,0-.69-.363c-.038.005-.075.016-.112.022-.02-.005-.036-.017-.056-.022a.548.548,0,0,0-.6.173,15.742,15.742,0,0,0-3.876,2.019c-.782.5-1.546,1.022-2.313,1.54-.2.134-.4.263-.6.393q-.473-2.263-.976-4.524a.568.568,0,0,0-.114-.692c-.016-.016-.033-.028-.049-.044-.014-.06-.026-.12-.039-.18a.551.551,0,0,0-.694-.427c-1.876-1.281-3.955-.807-6.129.159-4.482,1.991-7.944,6.868-13.291,6.055-4.131-.628-14.8-13.13-18.052-4.4a.552.552,0,0,0-.315.526c0,.225,0,.452,0,.678-.055.084-.111.165-.163.255a.576.576,0,0,0,.153.769c-.029,1.221-.106,2.442-.215,3.666-3.456-1.625-4.99-7.436-9.631-4.951a.639.639,0,0,0-.621.417c-2.834,7.358-9.59,12.316-12.528,19.582-.219.54-.432,1.084-.647,1.625-.167.008-.334.015-.489.038-4.32-4.81-8.544-9.874-8.973-16.629-.347-5.464,4.334-10.728,8.078-14.161,7.25-6.648,17.389-9.574,26.789-11.549,9.817-2.063,19.877-2.871,29.755-4.614,11.294-1.993,22.081-6.391,33.427-7.9A48.336,48.336,0,0,1,253.049,16.7c3.935,1.906,7.546,4.852,8.674,9.23,1.516,5.886-3.883,10.1-8.35,12.536-8.492,4.638-17.941,7.032-26.3,12.084C221.3,54.041,217.086,58.576,217.76,64.961Zm-14.5-10.132a4.266,4.266,0,0,1-1.4.279c-.051-.245-.1-.49-.153-.736a.583.583,0,0,0,.425-.063c2.9-1.64,5.128-4.369,8.46-5.1.054.106.111.207.164.317a30.794,30.794,0,0,0-5.006,3.276A14.067,14.067,0,0,0,203.261,54.828Zm4.889,3.924a.629.629,0,0,0,.043-.231c-.011-.671-.235-2.4-1.038-2.825.973-.269,1.665,1.179,1.888,1.955a2.3,2.3,0,0,1,0,1.543c-.217.457-.733.432-1.181.327A.7.7,0,0,0,208.15,58.752Zm-1.3-1.087a4.251,4.251,0,0,1,.084.66,16.688,16.688,0,0,0-4.28.092.509.509,0,0,0-.069.026c-.033-.149-.064-.3-.1-.447a11.86,11.86,0,0,1,1.616-.1C205.014,57.818,205.932,57.763,206.845,57.665Zm-2.2,7.742c.054-.035.113-.06.169-.092.056.225.114.449.173.674-.172.025-.346.044-.52.061q-.338-1.214-.652-2.432c.2-.025.4-.054.594-.09.1.494.206.987.325,1.476-.081.045-.166.082-.246.133C204.319,65.244,204.476,65.515,204.647,65.406Zm1.463,4.515.052-.02q.4,1.215.816,2.426l-.56.234q-.73-2.333-1.431-4.677c.167-.044.33-.1.5-.145q.28.936.582,1.866l-.039.015C205.842,69.693,205.923,70,206.11,69.921Zm5.251,12.233c.089-.029.182-.051.268-.085.253,1.041.465,2.087.651,3.139a8.466,8.466,0,0,1-1.263.575c-.213-1.138-.425-2.277-.644-3.414a5.232,5.232,0,0,0,.689-.12c.2.773.4,1.546.605,2.316a.157.157,0,0,0,.3-.083C211.758,83.708,211.561,82.932,211.36,82.154Zm.706,8.763c.015,0,.027.013.045.009a4.142,4.142,0,0,0,.975-.313c.082.621.168,1.243.253,1.864a4.426,4.426,0,0,1-.818.327Q212.28,91.863,212.066,90.917Zm-2.248-8.487c.086,0,.161-.021.245-.027.225,1.172.443,2.344.664,3.516a.149.149,0,0,0,.047.25c.081.431.165.863.249,1.294-.776-2.693-1.6-5.37-2.441-8.042.009,0,.016.006.027,0,.264-.087.531-.173.8-.259.213.975.409,1.953.6,2.933-.063,0-.121.018-.186.02A.156.156,0,0,0,209.818,82.429Zm2.21,8.2c-.014,0-.015.014-.026.018q-.219-.976-.417-1.958a2.9,2.9,0,0,0,1.206-.221q.127.91.249,1.822A3.952,3.952,0,0,1,212.028,90.624Zm-.508-2.253q-.229-1.138-.443-2.278a9.131,9.131,0,0,0,1.258-.563q.223,1.3.41,2.611A2.68,2.68,0,0,1,211.521,88.372Zm-1.205-6.308c-.194-1-.393-2-.611-3,.171-.056.341-.116.512-.173q.377,1.53.768,3.055A4.752,4.752,0,0,1,210.315,82.063Zm-.682-3.3c-.132-.594-.267-1.189-.413-1.781a.156.156,0,0,0-.3.082c.148.6.284,1.2.417,1.8-.269.087-.539.173-.808.261-.016.005-.02.02-.032.027q-.571-1.809-1.144-3.618.328-.094.655-.194c.138.409.277.817.411,1.227.063.191.364.109.3-.083-.135-.413-.276-.825-.415-1.236.313-.1.623-.2.929-.317q.458,1.831.907,3.664C209.972,78.649,209.8,78.708,209.633,78.763Zm-1.427-3.815q-.417-1.225-.84-2.447c.374-.156.746-.316,1.118-.477.229.865.457,1.731.675,2.6C208.844,74.74,208.526,74.847,208.206,74.948Zm-.3.093q-.324.1-.65.192-.375-1.187-.747-2.375c.189-.081.378-.159.567-.238Q207.5,73.83,207.907,75.042ZM204.9,67.585c-.12-.409-.229-.82-.345-1.23q.258-.027.513-.065.158.576.328,1.15C205.229,67.489,205.066,67.541,204.9,67.585Zm-1.158-4.271c-.132-.519-.268-1.037-.394-1.558a5.256,5.256,0,0,0,.744-.019c.076.5.159,1,.257,1.488C204.146,63.262,203.943,63.292,203.74,63.315ZM190.455,50.909a.138.138,0,0,0-.008.2c-1.277,1.01-2.655,1.881-4,2.795a12.838,12.838,0,0,1-7.911,1.06,14.079,14.079,0,0,0,2.572-.29c.122-.025.129-.143.076-.225a11.05,11.05,0,0,0,7.092-2.456c2.437-1.772,7.274-7,10.45-4.162C195.688,47.05,192.646,48.806,190.455,50.909ZM153.3,94.435a8.067,8.067,0,0,1-3.846,3.743c.288-.874.564-1.75.834-2.627a18.862,18.862,0,0,0,2.576-2.518l-.455,2.2c-.04.2.261.28.3.083q.291-1.412.582-2.823a13.216,13.216,0,0,0,.979-1.476Q153.821,92.733,153.3,94.435Zm2.43-17.632q-.212,1.7-.472,3.386a17.33,17.33,0,0,1-1.83,2.038q.274-1.781.456-3.578A18.568,18.568,0,0,0,155.731,76.8Zm-1.8,1.386c.135-1.444.229-2.9.266-4.358a20.692,20.692,0,0,0,2.022-1.741c-.106,1.382-.247,2.758-.412,4.131A16.842,16.842,0,0,1,153.931,78.189Zm1.233,2.615q-.45,2.851-.994,5.689a20.489,20.489,0,0,1-1.979,2.089q.684-2.909,1.162-5.856A19.09,19.09,0,0,0,155.164,80.8Zm-1.115,6.317q-.505,2.618-1.044,5.232A17.555,17.555,0,0,1,150.456,95c.59-1.952,1.132-3.912,1.609-5.886A23.167,23.167,0,0,0,154.048,87.122Zm.645,2.273a11.274,11.274,0,0,1-1.246,2.348q.522-2.554,1.012-5.112a12.8,12.8,0,0,0,1.262-1.862C155.409,86.317,155.071,87.86,154.693,89.394Zm1.3-5.953a10.722,10.722,0,0,1-1.4,2.506q.529-2.816.965-5.645a10.71,10.71,0,0,0,1.372-2.409C156.649,79.75,156.343,81.6,155.992,83.441Zm1.3-8.06a.147.147,0,0,0-.137.141,8.13,8.13,0,0,1-1.492,4.1q.243-1.633.441-3.271a10.252,10.252,0,0,0,1.359-2.236C157.407,74.541,157.35,74.961,157.292,75.381Zm.38-2.919c0,.008-.011.009-.013.018a8.414,8.414,0,0,1-1.473,3.235c.151-1.32.269-2.645.366-3.974a18.784,18.784,0,0,0,1.4-1.6Q157.816,71.3,157.672,72.462Zm.354-2.963a17.872,17.872,0,0,1-1.445,1.762c.049-.713.1-1.426.129-2.141a11.792,11.792,0,0,0,1.592-1.756Q158.153,68.433,158.026,69.5Zm.369-2.8a12.037,12.037,0,0,1-1.9,2.2.12.12,0,0,0-.057.049c-.146.128-.295.249-.447.367.1-.714.191-1.429.268-2.146a11.533,11.533,0,0,0,2.322-1.73Q158.486,66.067,158.4,66.7Zm.269-1.78a10.785,10.785,0,0,1-2.359,1.854c.066-.662.107-1.326.133-1.992a8.263,8.263,0,0,0,2.471-1.395Q158.785,64.153,158.665,64.918Zm-4.041-6.21c.093-.107.19-.212.288-.316,1.511.528,3.043.979,4.595,1.379q-.045.267-.088.537A19.937,19.937,0,0,1,154.624,58.708Zm-1.671,1.02c-.022-.006-.055-.012-.083-.018.007.006,0,0,.014.014l-.021-.015-.022-.005c.015.005.012,0,.021,0-.093-.073-.038-.013-.124-.2.071.151-.066-.344-.048-.2a2.8,2.8,0,0,1-.011-.487,3.814,3.814,0,0,1,.2-.95,2.193,2.193,0,0,1,.91-1.26l.079-.026c.021,0,.105-.014.135-.014a.593.593,0,0,1,.22.082,1.394,1.394,0,0,1,.339.292h0l-.088-.031c-.581-.215-.9.443-.685.888a3.293,3.293,0,0,0-.522.649.582.582,0,0,0-.058.447.518.518,0,0,0,.283.658l.039.018A1.32,1.32,0,0,1,152.953,59.728Zm3.146-2.774c-.009-.015-.02-.029-.027-.044a6.259,6.259,0,0,0,3.085-.86,16.559,16.559,0,0,0,.089,1.752,5.809,5.809,0,0,1-1.234.263c-.629-.182-1.256-.372-1.878-.575A.559.559,0,0,0,156.1,56.954ZM151.49,47.1a.6.6,0,0,0,.135-.043c3.693-2.043,5.82,3.723,8.961,5.115q-.121,1.129-.27,2.26c-2.861-1.355-6.08-7.046-9.472-5.886Q151.187,47.838,151.49,47.1Zm8.6,8.926c-.044-.014-.086-.031-.129-.045a.13.13,0,0,0-.076-.1c-1.987-.976-3.626-2.7-5.377-4.036-.954-.727-2.485-2-3.845-1.814,1.85-1.213,4.684,1.8,5.934,2.895,1.012.886,2.2,2.25,3.538,2.779C160.123,55.816,160.109,55.921,160.094,56.027Zm-.047.318q-.087.594-.182,1.189c-.1.055-.21.1-.318.15-.053-.513-.073-1.03-.077-1.548C159.658,56.213,159.852,56.281,160.046,56.345Zm-10.011-6.263a.5.5,0,0,0,.194.071c-.119.1-.048.329.121.266,1.714-.64,4.231,1.858,5.4,2.795.719.579,1.438,1.209,2.19,1.785-1.485-.92-2.855-2.125-4.239-3.065-1.1-.75-2.5-1.621-3.871-1.5C149.9,50.316,149.968,50.2,150.036,50.082Zm9.247,8.035c.015.106.039.212.058.318-.208-.056-.418-.109-.626-.166A5.531,5.531,0,0,0,159.283,58.116Zm.424.414-.033-.009c-.034-.171-.069-.342-.093-.513.076-.03.152-.061.226-.1Q159.758,58.222,159.707,58.53ZM198.33,44.451q.206.916.406,1.831c-1.57-.911-3.25-.552-5.077.323-4.719,2.261-7.074,6.426-12.774,6.581-5.833.159-9.555-5.022-14.008-7.864a4.561,4.561,0,0,0-4.044-.759c2.467-3.857,9.487,1.834,11.644,3.577a10.431,10.431,0,0,0,6.827,2.648C186.407,50.855,193.6,40.473,198.33,44.451ZM171.5,50.558a17.31,17.31,0,0,0,9.235,3.86,12.373,12.373,0,0,1-3.52.179c-2.838-.971-5.382-3.026-8.221-5.5-1.8-1.563-3.691-2.919-6-3.189C165.643,44.518,169.779,49.254,171.5,50.558Zm36.433-4.318a4.7,4.7,0,0,1,2.009,1.828c-3.289.849-5.522,3.51-8.439,5.16-.012.007-.017.017-.028.025l-.586-2.83A16.863,16.863,0,0,0,202.906,49,17.2,17.2,0,0,1,207.931,46.24Zm-79,62.506q-.015-1.053,0-2.1a21.258,21.258,0,0,0,1.47,2.342,24.628,24.628,0,0,0-1.118,4.915c-.217-2.444-.344-4.3-.354-4.594a1.636,1.636,0,0,1,.217.721c.009.2.321.2.312,0A2.177,2.177,0,0,0,128.932,108.746Zm8.5,20.531-.042-.077.127.082Zm-.368-.025c-.572-.039-1.172-.085-1.758-.141a11.779,11.779,0,0,1-.815-2.006,22.052,22.052,0,0,0,2.35,1.738C136.914,128.982,136.994,129.116,137.067,129.252Zm48.4,6.226a5.942,5.942,0,0,1-1.233,1.168.152.152,0,0,0-.058.093q-1.066-.012-2.131-.03A20.34,20.34,0,0,0,185.468,135.478Zm-.853,1.264a6.217,6.217,0,0,0,1.44-1.553,23.662,23.662,0,0,0,3.284-1.985,6.817,6.817,0,0,1-.971,1.774c-.2.05-.4.1-.6.153a.156.156,0,0,0,.082.3c.062-.018.128-.033.19-.05a7.665,7.665,0,0,1-1.6,1.371C185.837,136.754,185.225,136.747,184.615,136.743Zm8.008-.092c-.832.026-1.663.052-2.494.068a7.72,7.72,0,0,0,1.96-2.382,6.668,6.668,0,0,0,2.985-1.843A8.8,8.8,0,0,1,192.623,136.651Zm-3.011.074c-.868.014-1.737.026-2.605.029a7.942,7.942,0,0,0,1.541-1.5c1.017-.252,2.09-.464,3.117-.774A7.479,7.479,0,0,1,189.612,136.725Zm11.954-.567c-2.831.233-5.659.385-8.485.48a7.239,7.239,0,0,0,.828-.964,11.818,11.818,0,0,0,2.174-.484,3.573,3.573,0,0,1-1.557.942.156.156,0,0,0,.082.3,4.072,4.072,0,0,0,2.093-1.477,12.219,12.219,0,0,0,3.408-1.993,6.02,6.02,0,0,1-1.9,2.959c-.159.125.064.345.221.221a6.55,6.55,0,0,0,2.117-3.574,11.66,11.66,0,0,0,1.132-1.178c.126-.154-.093-.377-.221-.22a11.286,11.286,0,0,1-.772.848,14.6,14.6,0,0,0,.29-2.737.156.156,0,0,0-.312,0,13.689,13.689,0,0,1-.4,3.119,11.975,11.975,0,0,1-3.246,2.1,8.677,8.677,0,0,0,1.2-4.975c-.014-.2-.327-.2-.312,0a8.226,8.226,0,0,1-1.4,5.168,11.317,11.317,0,0,1-2.358.621,12.776,12.776,0,0,0,1.566-4c.045-.2-.256-.279-.3-.083q-.109.472-.243.942a.131.131,0,0,0-.215-.01,6.1,6.1,0,0,1-2.657,1.762,7.5,7.5,0,0,0,.674-2.9.156.156,0,0,0-.312,0,7.145,7.145,0,0,1-.79,3.054c-.986.325-2.03.54-3.031.774a6.821,6.821,0,0,0,1.128-2.788c.03-.2-.271-.281-.3-.082a6.286,6.286,0,0,1-.233.949.129.129,0,0,0-.2-.042,23.729,23.729,0,0,1-2.9,1.8,5.606,5.606,0,0,0,.631-2.418.156.156,0,0,0-.312,0,5.305,5.305,0,0,1-.813,2.662,20.566,20.566,0,0,1-3.432,1.34,3.114,3.114,0,0,0,1.807-2.752.156.156,0,0,0-.312,0,2.876,2.876,0,0,1-1.922,2.615c-.129.054-.087.2.009.254-.322.085-.645.164-.971.231a.121.121,0,0,0-.077.055c-.35-.009-.7-.014-1.048-.024.017-.011.033-.024.05-.036a17.989,17.989,0,0,0,2.2-.959c.178-.1.02-.366-.158-.269a13.527,13.527,0,0,1-1.289.6,5.456,5.456,0,0,0,1.267-2.676c.041-.2-.261-.279-.3-.082a4.634,4.634,0,0,1-1.87,3.115c-.247.094-.494.189-.739.284q-3.526-.109-7.058-.306l-1.554-.088a2.328,2.328,0,0,0,1.528-2.213.156.156,0,0,0-.312,0,2.123,2.123,0,0,1-1.886,2.1.133.133,0,0,0-.093.067q-.734-.044-1.463-.093a2.571,2.571,0,0,0,1-2.615c-.042-.2-.343-.114-.3.082a2.254,2.254,0,0,1-.928,2.325.155.155,0,0,0-.051.189q-1.155-.078-2.3-.171a.118.118,0,0,0,.063-.056,3.67,3.67,0,0,0,.272-1.577.156.156,0,0,0-.312,0,3.342,3.342,0,0,1-.229,1.42.162.162,0,0,0,.06.2c-.338-.028-.675-.06-1.011-.09a22.134,22.134,0,0,1-1.8-1.642.156.156,0,0,0-.221.22c.477.477.957.94,1.462,1.371q-1.026-.1-2.042-.219a5.6,5.6,0,0,1-1.426-1.341c-.114-.165-.385-.009-.269.157a5.185,5.185,0,0,0,1.08,1.106q-1.335-.167-2.656-.38a11.059,11.059,0,0,1-1.931-1.916c-.127-.157-.346.066-.221.221a12.22,12.22,0,0,0,1.518,1.586q-1.6-.279-3.2-.647a7.259,7.259,0,0,1-1.312-2.341c-.066-.189-.368-.108-.3.082a7.925,7.925,0,0,0,1.12,2.145c-.59-.143-1.178-.295-1.765-.46-.621-.855-1.19-1.75-1.843-2.585-.124-.159-.344.063-.221.22.561.717,1.056,1.478,1.576,2.219q-1.227-.359-2.447-.791a22.662,22.662,0,0,1-2.159-2.4c-.126-.157-.345.065-.221.221.53.661,1.066,1.306,1.648,1.906-.881-.331-1.762-.687-2.641-1.085l-.718-.323a9.988,9.988,0,0,1-.273-2.358.156.156,0,0,0-.312,0,10.787,10.787,0,0,0,.229,2.2c-.5-.217-.979-.417-1.456-.6-1.3-1.674-1.449-4.042-1.461-6.107a.156.156,0,0,0-.312,0,11.111,11.111,0,0,0,1.266,5.922,16.084,16.084,0,0,0-1.645-.477,49.085,49.085,0,0,1-1.063-5.236c-.027-.2-.327-.114-.3.082a48.546,48.546,0,0,0,1.025,5.083c-.391-.081-.8-.153-1.224-.208a22.9,22.9,0,0,0-1-5.707.156.156,0,0,0-.3.082,22.665,22.665,0,0,1,.987,5.592c-.319-.024-.854-.053-1.5-.092l-.266-.174a.146.146,0,0,0,.076-.158c-.476-2.468-.745-4.961-1-7.46-.02-.2-.333-.2-.312,0,.25,2.5.521,4.993.993,7.463q-.284-.183-.567-.368c-.315-.615-.608-1.241-.87-1.886-.075-.184-.378-.1-.3.083.2.5.433.986.666,1.469a17.846,17.846,0,0,1-2.219-1.714,15.169,15.169,0,0,1-.39-4.8c.014-.2-.3-.2-.312,0a15.574,15.574,0,0,0,.333,4.627.143.143,0,0,0-.038.233c.041.039.087.07.129.109a12.129,12.129,0,0,0,.87,2.327,12.609,12.609,0,0,1-2.546-.45.622.622,0,0,0-.592-.719c-.013,0-.026-.012-.039-.015a.625.625,0,0,0-.213-.153c-.54-.654-1.036-3.233-1.448-6.273.1.2.2.411.311.613-.005.234-.017.468-.019.7a.156.156,0,0,0,.312,0c0-.053,0-.106,0-.16.759,1.353,1.564,2.68,2.246,4.074.06.294.122.587.2.88a.157.157,0,0,0,.3-.083c-.028-.112-.049-.225-.075-.337a.16.16,0,0,0,.059-.2c-.057-.123-.125-.24-.184-.362a39.257,39.257,0,0,1-.546-7.809.156.156,0,0,0-.312,0,44.816,44.816,0,0,0,.372,6.854c-.656-1.222-1.376-2.409-2.039-3.627.054-2.249.255-4.488.479-6.728.021-.2-.292-.2-.312,0-.2,2.046-.391,4.091-.464,6.145-.153-.294-.31-.585-.451-.886-.068-.532-.132-1.074-.195-1.618.1.006.2-.061.166-.183-.916-3.145-.288-6.368.675-9.424a36.508,36.508,0,0,1,4.04,6.044c.084.183.353.025.269-.157-1.546-3.374-4.388-5.9-6-9.237q.081-2.871.4-5.706c.95,3.505,2.926,6.526,4.831,9.6.105.171.376.014.269-.158-2.012-3.247-4.13-6.434-4.986-10.214,0-.011-.013-.013-.017-.023A91.306,91.306,0,0,1,132.46,85.02c.716-2.471,1.47-5.041,2.3-7.613a.706.706,0,0,0,.159-.5c.9-2.767,1.909-5.522,3.067-8.157a.6.6,0,0,0,.348-.718L138.321,68l0-.007a48.964,48.964,0,0,1,2.586-4.969c2.612-4.338,6.145-7.978,8.733-12.268,1.964-.381,4.248,1.66,5.669,2.7a26.869,26.869,0,0,0,3.566,2.411,6.269,6.269,0,0,1-3,.742,2.24,2.24,0,0,0-2.39-1.212,3.158,3.158,0,0,0-1.81,2.149,3.483,3.483,0,0,0,.027,2.688c.553,1.052,1.818.8,2.672.33a.54.54,0,0,0,.3-.457,20.5,20.5,0,0,0,4.115,1.349c-.441.988-2,1.515-2.871,1.835a16.365,16.365,0,0,1-3.4.832c-.2.027-.114.328.082.3,1.666-.228,5.737-.906,6.494-2.908l.118.023Q159.1,62.2,159,62.86a7.66,7.66,0,0,1-2.546,1.584c0-.141.015-.282.015-.423a.156.156,0,0,0-.312,0c0,.182-.014.362-.02.543a28.862,28.862,0,0,1-4.616,1.057c-.2.036-.114.337.082.3a30.447,30.447,0,0,0,4.522-1.021q-.045,1.036-.15,2.068a18.206,18.206,0,0,1-4.454,1.652c-.2.047-.113.349.082.3a18.655,18.655,0,0,0,4.33-1.587q-.12,1.074-.272,2.145a.145.145,0,0,0,.018.069,7.068,7.068,0,0,1-3.867,1.317c-.2.007-.2.32,0,.313a7.529,7.529,0,0,0,4.572-1.776c-.033.737-.081,1.473-.133,2.208a20.158,20.158,0,0,1-2.044,1.816c.01-.55.016-1.1.011-1.654a.156.156,0,0,0-.312,0q.009.95-.014,1.9a23.053,23.053,0,0,1-3.158,1.97c-.179.093-.021.362.158.269a23.176,23.176,0,0,0,2.987-1.847c-.044,1.487-.143,2.965-.289,4.434-1.025.892-2.111,1.69-3.106,2.4-.163.116-.007.387.158.269.932-.66,1.939-1.4,2.9-2.212q-.194,1.826-.483,3.634a34.661,34.661,0,0,1-2.829,2.309c-.16.118,0,.39.158.269.834-.618,1.73-1.322,2.6-2.1-.327,1.978-.732,3.941-1.2,5.892-.777.7-1.575,1.348-2.336,1.961-.157.126.066.345.221.22.646-.519,1.318-1.07,1.982-1.65-.486,1.972-1.036,3.933-1.633,5.884a23.075,23.075,0,0,1-2.537,1.772.156.156,0,0,0,.158.27,23.865,23.865,0,0,0,2.22-1.522q-.384,1.234-.791,2.465c-.017.007-.033.016-.049.022a.164.164,0,0,0-.051.273q-.284.851-.577,1.7a8.028,8.028,0,0,1-3.833.772c-.2-.009-.2.3,0,.313a8.3,8.3,0,0,0,3.691-.679c-.114.327-.226.654-.342.981-.067.19.235.272.3.083q.219-.62.432-1.24a12.651,12.651,0,0,0,3.78-2.943c.135-.148-.085-.37-.221-.22a12.679,12.679,0,0,1-3.417,2.756q.274-.8.538-1.594a8.386,8.386,0,0,0,3.6-2.9c-.072.225-.135.453-.209.679-.253.768.954,1.094,1.205.332a124.468,124.468,0,0,0,4.943-23.632c.387-3.088.7-6.179,1.1-9.262a.133.133,0,0,0,.009-.071c.1-.8.214-1.6.331-2.393a.671.671,0,0,0,.093-.6c.057-.375.112-.751.174-1.126a.69.69,0,0,0,.082-.53c.017-.1.029-.2.046-.3q.149-.853.3-1.7c.062-.066.128-.124.185-.2a.169.169,0,0,0-.106-.271c.051-.3.1-.609.155-.914a.662.662,0,0,0,.124-.773c.147-.913.286-1.825.4-2.739a.664.664,0,0,0,.087-.752,47.608,47.608,0,0,0,.34-4.821,2.9,2.9,0,0,1,.4-.422c4.542.273,7.917,4.858,11.5,7.526-.059-.029-.12-.051-.178-.081-.179-.093-.337.177-.158.269a9.288,9.288,0,0,0,1.562.624c3.316,1.918,6.991,1.33,10.382.018.019.1.11.182.214.108.232-.164.469-.321.7-.481l.046-.019c.017-.008.019-.022.03-.033,1.436-.971,2.908-1.893,4.253-2.99a.13.13,0,0,0-.016-.217c2.2-2.032,5.266-3.722,8.259-2.628.11.515.22,1.03.328,1.546a.613.613,0,0,0,.134.633c.484,2.307.965,4.613,1.468,6.914a.682.682,0,0,0,.207.945c.718,3.243,1.492,6.476,2.414,9.686,2.3,8.015,5.132,15.861,7.246,23.933a.616.616,0,0,0,1.068.221c.062.25.128.5.192.749a.145.145,0,0,0,.068.252c.122.469.24.938.375,1.4a.157.157,0,0,0,.3-.082c-.132-.458-.248-.918-.369-1.378a4.7,4.7,0,0,0,.783-.3q.154,1.1.328,2.2c-.145.041-.284.09-.434.122-.2.041-.114.343.082.3.138-.029.266-.075.4-.111.123.753.256,1.5.408,2.253,0,.006.007.007.009.013-.051.012-.1.033-.149.045-.2.045-.114.345.082.3a9.57,9.57,0,0,0,3.54-1.766c.16-.118.005-.39-.158-.27a9.965,9.965,0,0,1-3.023,1.6l0-.007c-.152-.749-.285-1.5-.409-2.255a4.749,4.749,0,0,0,2.368-1.594c.122-.157-.1-.38-.221-.221a4.474,4.474,0,0,1-2.194,1.5q-.181-1.132-.339-2.267a4.631,4.631,0,0,0,1.778-1.8c.1-.177-.174-.335-.269-.158a4.317,4.317,0,0,1-1.554,1.62c-.085-.62-.171-1.239-.253-1.859a4.33,4.33,0,0,0,1.844-2.141c.078-.186-.225-.266-.3-.083a3.967,3.967,0,0,1-1.587,1.893q-.12-.895-.246-1.788a4.245,4.245,0,0,0,1.884-2.272c.069-.189-.233-.271-.3-.082A3.875,3.875,0,0,1,213.037,88q-.189-1.321-.416-2.634a5.5,5.5,0,0,0,1.832-1.76c.108-.171-.162-.327-.269-.158a5.113,5.113,0,0,1-1.618,1.588c-.185-1.035-.4-2.065-.648-3.089a5.578,5.578,0,0,0,1.511-1.06c.145-.141-.077-.361-.221-.22a5.276,5.276,0,0,1-1.371.971c-.118-.468-.231-.938-.369-1.4a.157.157,0,0,0-.3.083c.142.483.261.97.382,1.456-.086.035-.179.056-.267.085q-.391-1.529-.769-3.061a15.017,15.017,0,0,0,2.634-1.137.156.156,0,0,0-.158-.269,14.662,14.662,0,0,1-2.552,1.1q-.453-1.84-.91-3.678a8.954,8.954,0,0,0,2.119-1.156c.159-.119,0-.391-.158-.269a8.777,8.777,0,0,1-2.038,1.118c-.219-.871-.447-1.739-.677-2.607a20.592,20.592,0,0,0,2.873-1.492c.169-.109.012-.38-.158-.27a20.214,20.214,0,0,1-2.795,1.458c-.076-.288-.147-.578-.225-.865a.156.156,0,0,0-.3.082c.082.3.157.606.237.908-.379.165-.758.328-1.14.488q-.415-1.206-.814-2.414c1.216-.469,2.447-.894,3.659-1.372.186-.074.1-.375-.082-.3-1.216.481-2.453.907-3.673,1.378q-.3-.919-.575-1.844a28.494,28.494,0,0,0,4.368-1.749c.181-.089.022-.358-.158-.269a28.093,28.093,0,0,1-4.3,1.719q-.166-.561-.321-1.123a9.479,9.479,0,0,0,3.028-1.077.156.156,0,0,0-.158-.269,9.184,9.184,0,0,1-2.948,1.044c-.068-.255-.135-.511-.2-.766a14.556,14.556,0,0,1,2.017-.742c.191-.063.11-.364-.082-.3a15.958,15.958,0,0,0-2.015.732c-.111-.459-.206-.922-.3-1.385q.453-.093.9-.2a4.98,4.98,0,0,0,1.82-.633c.159-.124-.064-.344-.221-.221a4.878,4.878,0,0,1-1.682.553q-.433.111-.878.2c-.1-.485-.176-.976-.251-1.466a3.435,3.435,0,0,0,1.782-.818c.149-.136-.073-.357-.221-.221a3.1,3.1,0,0,1-1.606.736c-.041-.292-.1-.581-.129-.875-.022-.2-.335-.2-.312,0,.034.307.09.608.134.912a5.062,5.062,0,0,1-.773.011c-.146-.609-.285-1.218-.424-1.828a.625.625,0,0,0,.134.006,14.726,14.726,0,0,1,3.922-.057.637.637,0,0,0,.249,1.057c5.547,1.727,2.989-8.183-.9-5.893a.619.619,0,0,0-.025,1.045.667.667,0,0,0-.22.715c-.921.077-1.843.138-2.762.225-.285.027-.656.045-1.018.1-.046-.219-.1-.435-.141-.653.009,0,.014.006.022.005,1.564-.237,3.189-.671,4.1-2.074.111-.169-.16-.326-.269-.157-.86,1.327-2.44,1.707-3.909,1.929l0,0c-.033-.153-.064-.306-.1-.459a4.807,4.807,0,0,0,.9-.125c-.038.04-.079.08-.117.121-.135.149.086.371.221.221.087-.1.182-.189.271-.284a.14.14,0,0,0,.23.033c.182-.194.367-.372.55-.555a4.678,4.678,0,0,0,.952-.694.144.144,0,0,0,0-.213q.522-.472,1.058-.907a8.349,8.349,0,0,1,4.082-1.336c.2-.008.2-.32,0-.312a8.063,8.063,0,0,0-2.729.618,33.2,33.2,0,0,1,3.543-2.172c1.264,2.772,2.031,6.344,2.718,8.129,1.768,4.595,3.713,9.112,5.367,13.751a90.669,90.669,0,0,1,3,10.359,36.76,36.76,0,0,1-.548,9.436c-.03.2.272.281.3.082a45.676,45.676,0,0,0,.686-7.444q.4,1.944.712,3.9a41.564,41.564,0,0,1-1.2,5.959.157.157,0,0,0,.3.083c.272-.979.5-1.957.7-2.937a39.368,39.368,0,0,1-2.506,11.355c-.078.185.225.266.3.082,1.743-4.143,2.228-8.463,2.664-12.878q.264,1.821.459,3.655a16.911,16.911,0,0,1-1.13,7.755,16.809,16.809,0,0,0,.761-5.824c-.012-.2-.325-.2-.312,0a17.777,17.777,0,0,1-1.254,7.261c-.143.212-.288.423-.451.63a.169.169,0,0,0,.1.267,51.791,51.791,0,0,1-3.875,7.265c-.106.172.165.329.269.158a48.274,48.274,0,0,0,4.227-8.168,12.5,12.5,0,0,0,1.939-6.338q.132,1.677.216,3.366a9.024,9.024,0,0,1-1.15,4.981c-.107.171.163.328.269.158a7.377,7.377,0,0,0,.952-2.441c0,.224,0,.449-.015.671a20.771,20.771,0,0,1-2.707,6.864c-.108.171.163.328.269.158a20.421,20.421,0,0,0,2.2-4.812c-.969,6.059-4.515,11.434-8.446,16.124a.16.16,0,0,0,.032.234c-.133.069-.058.3.12.277a17.668,17.668,0,0,0,4.8-1.412,43.329,43.329,0,0,1-4.54,4.99c.213-1.139.4-2.288.6-3.437.033-.2-.267-.281-.3-.083-.225,1.3-.441,2.609-.692,3.9-1.126,1.073-2.258,2.105-3.335,3.111a13.145,13.145,0,0,0,.578-6.26c-.033-.2-.333-.115-.3.082.657,4.068-.952,8.192-3.46,11.351-.123.156.1.378.221.22a17.956,17.956,0,0,0,2.819-4.988.141.141,0,0,0,.18-.013c1.027-.962,2.11-1.952,3.192-2.978a26.71,26.71,0,0,1-1.738,5.676,9.832,9.832,0,0,1-2.16,1.066c.776-.8,1.507-1.646,2.206-2.513.125-.155-.094-.378-.221-.221a33.175,33.175,0,0,1-2.627,2.943c-.019,0-.036.013-.055.017a.13.13,0,0,0-.1.128,16.333,16.333,0,0,1-1.984,1.627c-1.722.358-3.453.615-5.143.8a12.405,12.405,0,0,0,2.261-4.188c.3-.273.59-.556.869-.86.136-.147-.084-.369-.221-.22-.158.171-.325.328-.489.489a14.641,14.641,0,0,0,.5-4.631c-.011-.2-.324-.2-.312,0a14.45,14.45,0,0,1-.629,5.047,18.273,18.273,0,0,1-3.386,2.375,10.981,10.981,0,0,0,1.329-5.17.156.156,0,0,0-.312,0,10.3,10.3,0,0,1-1.549,5.454c-.775.411-1.569.794-2.376,1.163-.183.083-.024.352.158.269q.877-.4,1.732-.829a5.146,5.146,0,0,1-.891.808c-.165.114-.009.385.158.27a5.756,5.756,0,0,0,1.428-1.44,20.127,20.127,0,0,0,3.5-2.305,11.726,11.726,0,0,1-2.214,3.816C202.753,136.05,202.154,136.108,201.566,136.157Zm21.2-13.518c-.033.082-.068.164-.1.246.135-1,.221-1.993.268-2.978l.024-.05a.147.147,0,0,0-.014-.15c.017-.4.03-.789.035-1.179a.156.156,0,0,0-.312,0c-.006.43-.021.866-.042,1.3a61.3,61.3,0,0,1-3.462,6.477c.141-.835.243-1.68.316-2.531.017-.2-.3-.2-.312,0a28.4,28.4,0,0,1-.457,3.227,18.8,18.8,0,0,1-4.321,4.728,29.372,29.372,0,0,0,1.624-5.692c3.072-2.942,6.06-6.2,7.619-10.034C223.368,118.223,223.071,120.433,222.762,122.639Zm-5.286,9.506c-.144.08-.291.155-.437.231A16.445,16.445,0,0,0,219,127.116a52.925,52.925,0,0,0,3.572-6.468,32.415,32.415,0,0,1-.411,3.408,53.256,53.256,0,0,1-4.729,7.9A.131.131,0,0,0,217.477,132.145Zm-4.234,1.834a17.177,17.177,0,0,0,.883-1.674,17.663,17.663,0,0,0,4.416-4.526,15.364,15.364,0,0,1-2.064,4.891A27.348,27.348,0,0,1,213.243,133.979Zm10.547-19.342a18.957,18.957,0,0,1-2.882,5.535.146.146,0,0,0-.166-.028,17.132,17.132,0,0,1-4.775,1.45c3.913-4.675,7.435-10.009,8.463-16.014C224.358,108.6,224.122,111.623,223.79,114.637Zm-12.551,19a9.58,9.58,0,0,0,2.4-1.04,16.631,16.631,0,0,1-.856,1.536c-1.012.325-2.045.6-3.086.838A17.654,17.654,0,0,0,211.24,133.64Zm6.558-1.665a59.318,59.318,0,0,0,4.121-6.676,20.5,20.5,0,0,1-1.888,5.193A19.778,19.778,0,0,1,217.8,131.975Zm4.668-7.827c.039-.086.084-.17.122-.256-.218,1.549-.435,3.1-.64,4.64a.579.579,0,0,0,.015.222,16.484,16.484,0,0,1-1.323,1.234A22.441,22.441,0,0,0,222.465,124.147Zm-3.273-55.429c3.326.609,3.27,4.975,2.657,8.067Q220.665,72.725,219.192,68.719Zm38.193-29.67c-6.4,2.969-13.19,5.01-19.707,7.69-9.394,3.866-19.852,10.113-16.743,21.3a4.4,4.4,0,0,0-1.354-.513C215.311,53.737,234.966,47.451,244.7,43.5c6.7-2.719,14.983-5.181,17.932-12.508,2.923-7.261-4.23-13.087-9.892-15.829-8.223-3.983-17.925-4.646-26.868-3.674a78.328,78.328,0,0,0-14.716,3.42,162.335,162.335,0,0,1-19.043,4.527C181,21.47,169.7,22.289,158.695,24.864c-8.913,2.085-17.69,5.566-24.51,11.82a27.37,27.37,0,0,0-6.962,10.173c-1.848,4.75.36,9.792,2.543,13.98,1.383,2.651,3.672,4.966,5.711,7.178a4.065,4.065,0,0,0-1.35,1.178c-5.546-6.236-11.471-13.845-9.87-22.742,1.138-6.32,6.577-10.79,11.777-13.9,12.058-7.222,27.05-9.923,40.8-11.745,8.649-1.146,16.947-2.264,25.3-4.964,9.663-3.122,19-6.32,29.225-6.819,9.343-.457,19.577.469,27.923,4.993,4.827,2.616,9.808,8.642,9.328,14.5C268.164,33.947,261.661,37.065,257.385,39.049Z" transform="translate(-122.666 -7.628)" fill="#977c72"/>
  <path id="Trazado_2165" data-name="Trazado 2165" d="M153.8,117.062c-1.352,1.762-3.5,2.411-5.617,2.673-.2.025-.2.337,0,.313,2.25-.278,4.458-.965,5.886-2.828C154.188,117.059,153.916,116.9,153.8,117.062Z" transform="translate(-126.287 -23.242)" fill="#977c72"/>
  <path id="Trazado_2166" data-name="Trazado 2166" d="M146.177,124.083a16.266,16.266,0,0,0,4.789-1.265c.182-.087.023-.357-.158-.27a15.991,15.991,0,0,1-4.714,1.234C145.9,123.81,145.98,124.111,146.177,124.083Z" transform="translate(-125.995 -24.032)" fill="#977c72"/>
  <path id="Trazado_2167" data-name="Trazado 2167" d="M145.219,125.624a7.414,7.414,0,0,0,5.121-.766c.182-.087.023-.357-.158-.269a7.072,7.072,0,0,1-4.881.734A.156.156,0,0,0,145.219,125.624Z" transform="translate(-125.87 -24.324)" fill="#977c72"/>
  <path id="Trazado_2168" data-name="Trazado 2168" d="M230.22,115.565a24.768,24.768,0,0,0,2.5-1.5c.167-.111.01-.381-.158-.269a24.93,24.93,0,0,1-2.5,1.5C229.882,115.386,230.04,115.656,230.22,115.565Z" transform="translate(-137.987 -22.781)" fill="#977c72"/>
  <path id="Trazado_2169" data-name="Trazado 2169" d="M232.353,117.587c-.644.307-1.354.443-2,.75-.182.087-.023.356.158.27.644-.307,1.354-.443,2-.75C232.692,117.771,232.534,117.5,232.353,117.587Z" transform="translate(-138.029 -23.324)" fill="#977c72"/>
  <path id="Trazado_2170" data-name="Trazado 2170" d="M231.967,121.275c.484-.219,1.017-.28,1.5-.5.183-.083.025-.352-.158-.27-.484.219-1.017.28-1.5.5C231.626,121.088,231.785,121.357,231.967,121.275Z" transform="translate(-138.236 -23.741)" fill="#977c72"/>
  <path id="Trazado_2171" data-name="Trazado 2171" d="M197.185,73.543c-2.988,1.778-6.5,2.2-9.922,2.229a.157.157,0,0,0,0,.313c.231,0,.464-.011.7-.018.006,0,.007.01.015.012a14.149,14.149,0,0,0,7.082.5c.2-.039.114-.34-.082-.3a13.441,13.441,0,0,1-6.04-.249,18.108,18.108,0,0,0,8.409-2.217A.156.156,0,0,0,197.185,73.543Z" transform="translate(-131.867 -17.035)" fill="#977c72"/>
  <path id="Trazado_2172" data-name="Trazado 2172" d="M187.556,74.459c2.758.023,6.461.626,8.611-1.546.141-.143-.079-.365-.221-.221-2.072,2.093-5.717,1.477-8.39,1.455A.156.156,0,0,0,187.556,74.459Z" transform="translate(-131.909 -16.911)" fill="#977c72"/>
  <path id="Trazado_2173" data-name="Trazado 2173" d="M194.178,70.9c.168-.11.012-.381-.158-.27-1.856,1.208-4.059.992-6.172.979a.157.157,0,0,0,0,.313C190.024,71.93,192.271,72.136,194.178,70.9Z" transform="translate(-131.95 -16.618)" fill="#977c72"/>
  <path id="Trazado_2174" data-name="Trazado 2174" d="M194.26,72.354a.156.156,0,0,0-.158-.27,12.839,12.839,0,0,1-3.964,1.234c-.2.039-.114.34.082.3A13.134,13.134,0,0,0,194.26,72.354Z" transform="translate(-132.283 -16.827)" fill="#977c72"/>
  <path id="Trazado_2175" data-name="Trazado 2175" d="M183.548,64.086c-.182-.084-.34.185-.158.269,4.39,2.035,10.521.317,14.192-2.524.159-.123-.063-.343-.221-.221C193.817,64.352,187.786,66.049,183.548,64.086Z" transform="translate(-131.324 -15.33)" fill="#977c72"/>
  <path id="Trazado_2176" data-name="Trazado 2176" d="M182.556,71.578c5.237,1.665,9.534.448,14.586-1.251.19-.063.109-.365-.082-.3-4.959,1.667-9.238,2.9-14.421,1.251C182.446,71.216,182.365,71.518,182.556,71.578Z" transform="translate(-131.201 -16.535)" fill="#977c72"/>
  <path id="Trazado_2177" data-name="Trazado 2177" d="M197.9,76.28a5.149,5.149,0,0,0-.716.141c-.2.046-.113.347.082.3a46.333,46.333,0,0,1-5.292,1.171,17.638,17.638,0,0,1-8.463-1.473c-.186-.075-.267.226-.082.3a17.793,17.793,0,0,0,9.532,1.375c1.432-.236,3.84-.559,5.048-1.551A.158.158,0,0,0,197.9,76.28Z" transform="translate(-131.326 -17.429)" fill="#977c72"/>
  <path id="Trazado_2178" data-name="Trazado 2178" d="M196.1,81.986a19.246,19.246,0,0,1-9.709,1.244c-.2-.027-.2.286,0,.313a19.373,19.373,0,0,0,9.791-1.256C196.368,82.214,196.286,81.911,196.1,81.986Z" transform="translate(-131.742 -18.242)" fill="#977c72"/>
  <path id="Trazado_2179" data-name="Trazado 2179" d="M195.557,86.945a16.182,16.182,0,0,1-7.669.249c-.2-.036-.28.265-.082.3a16.547,16.547,0,0,0,7.833-.249C195.832,87.188,195.75,86.886,195.557,86.945Z" transform="translate(-131.95 -18.951)" fill="#977c72"/>
  <path id="Trazado_2180" data-name="Trazado 2180" d="M195.349,92.2a35.789,35.789,0,0,1-7.209.495.157.157,0,0,0,0,.313,36.161,36.161,0,0,0,7.292-.507C195.63,92.456,195.545,92.155,195.349,92.2Z" transform="translate(-131.992 -19.701)" fill="#977c72"/>
  <path id="Trazado_2181" data-name="Trazado 2181" d="M193.445,94.569c-1.125,1.036-2.691.9-4.1.71-.2-.027-.282.275-.082.3,1.533.207,3.185.33,4.4-.79C193.814,94.653,193.593,94.433,193.445,94.569Z" transform="translate(-132.158 -20.034)" fill="#977c72"/>
  <path id="Trazado_2182" data-name="Trazado 2182" d="M189.264,98.33a9.544,9.544,0,0,0,3.834,0c.2-.045.114-.345-.082-.3a9.148,9.148,0,0,1-3.669,0C189.15,97.992,189.066,98.293,189.264,98.33Z" transform="translate(-132.158 -20.534)" fill="#977c72"/>
  <path id="Trazado_2183" data-name="Trazado 2183" d="M193.561,101.253a4.731,4.731,0,0,1-3.63.235c-.189-.069-.271.234-.082.3a5.044,5.044,0,0,0,3.87-.267C193.9,101.438,193.743,101.168,193.561,101.253Z" transform="translate(-132.242 -20.992)" fill="#977c72"/>
  <path id="Trazado_2184" data-name="Trazado 2184" d="M192.347,105.038a.156.156,0,0,0-.082-.3,5.764,5.764,0,0,1-2.918,0c-.2-.045-.279.255-.082.3A6.069,6.069,0,0,0,192.347,105.038Z" transform="translate(-132.158 -21.491)" fill="#977c72"/>
  <path id="Trazado_2185" data-name="Trazado 2185" d="M192.39,107.362a7.327,7.327,0,0,1-2.21.245.156.156,0,0,0,0,.312,7.616,7.616,0,0,0,2.292-.255C192.664,107.6,192.583,107.3,192.39,107.362Z" transform="translate(-132.283 -21.866)" fill="#977c72"/>
  <path id="Trazado_2186" data-name="Trazado 2186" d="M192.765,110.815a6.269,6.269,0,0,1-1.958-.244c-.192-.062-.274.24-.082.3a6.557,6.557,0,0,0,2.04.256A.157.157,0,0,0,192.765,110.815Z" transform="translate(-132.367 -22.324)" fill="#977c72"/>
  <path id="Trazado_2187" data-name="Trazado 2187" d="M192.555,112.232c-.464,0-1.094.032-1.366-.423a.156.156,0,0,0-.269.158c.338.567,1.045.577,1.635.578A.157.157,0,0,0,192.555,112.232Z" transform="translate(-132.407 -22.491)" fill="#977c72"/>
  <path id="Trazado_2188" data-name="Trazado 2188" d="M189.347,81.1c-.2-.047-.279.255-.082.3,1.849.447,3.688-.227,5.543.005.2.026.2-.287,0-.312C192.98,80.868,191.169,81.543,189.347,81.1Z" transform="translate(-132.158 -18.11)" fill="#977c72"/>
  <path id="Trazado_2189" data-name="Trazado 2189" d="M223.86,143.974c.195,3.634-.778,8.022-3.456,10.642-.144.141.077.362.221.221,2.741-2.682,3.746-7.14,3.546-10.863C224.161,143.773,223.849,143.772,223.86,143.974Z" transform="translate(-136.613 -27.072)" fill="#977c72"/>
  <path id="Trazado_2190" data-name="Trazado 2190" d="M188.275,154.766a2.61,2.61,0,0,1-1.673,2.117c-.179.092-.021.362.158.269a2.9,2.9,0,0,0,1.828-2.386C188.593,154.564,188.281,154.565,188.275,154.766Z" transform="translate(-131.783 -28.613)" fill="#977c72"/>
  <path id="Trazado_2191" data-name="Trazado 2191" d="M185.108,154.766a1.814,1.814,0,0,1-1.384,1.85.156.156,0,0,0,.082.3,2.129,2.129,0,0,0,1.613-2.151A.156.156,0,0,0,185.108,154.766Z" transform="translate(-131.367 -28.613)" fill="#977c72"/>
  <path id="Trazado_2192" data-name="Trazado 2192" d="M182.232,154.475a2.16,2.16,0,0,1-1.173,2.115c-.178.094-.021.363.158.27a2.468,2.468,0,0,0,1.327-2.385A.156.156,0,0,0,182.232,154.475Z" transform="translate(-130.991 -28.572)" fill="#977c72"/>
  <path id="Trazado_2193" data-name="Trazado 2193" d="M174.656,155.017c-.155.448-.511,1.577-1.1,1.635-.2.02-.2.333,0,.313.8-.078,1.181-1.232,1.4-1.864C175.024,154.909,174.722,154.828,174.656,155.017Z" transform="translate(-129.91 -28.655)" fill="#977c72"/>
  <path id="Trazado_2194" data-name="Trazado 2194" d="M136.938,139.016c.016,2.17.233,4.331.25,6.5a.156.156,0,0,0,.312,0c-.016-2.171-.233-4.332-.25-6.5A.156.156,0,0,0,136.938,139.016Z" transform="translate(-124.703 -26.364)" fill="#977c72"/>
  <path id="Trazado_2195" data-name="Trazado 2195" d="M132.268,130.478c-.114-.165-.385-.009-.269.157,1.714,2.471,3.288,5.033,5,7.5.114.165.385.009.269-.157C135.557,135.51,133.982,132.948,132.268,130.478Z" transform="translate(-123.994 -25.157)" fill="#977c72"/>
  <path id="Trazado_2196" data-name="Trazado 2196" d="M131.984,107.847c.779,2.471,1.973,4.781,2.75,7.251.061.192.363.11.3-.082-.777-2.471-1.972-4.781-2.75-7.251C132.225,107.573,131.924,107.655,131.984,107.847Z" transform="translate(-123.995 -21.909)" fill="#977c72"/>
  <path id="Trazado_2197" data-name="Trazado 2197" d="M137,111.473c-.8-3.185-2.446-6.067-3.25-9.251a.157.157,0,0,0-.3.083c.8,3.185,2.446,6.067,3.25,9.25A.156.156,0,0,0,137,111.473Z" transform="translate(-124.204 -21.117)" fill="#977c72"/>
  <path id="Trazado_2198" data-name="Trazado 2198" d="M236.417,108.557c1.05-3.75,1.954-7.721,1-11.585a.156.156,0,0,0-.3.082c.94,3.813.036,7.723-1,11.42A.157.157,0,0,0,236.417,108.557Z" transform="translate(-138.862 -20.367)" fill="#977c72"/>
  <path id="Trazado_2199" data-name="Trazado 2199" d="M239.945,125.89c.127,3.75-1.5,6.955-3.229,10.174-.1.177.174.335.269.157,1.756-3.267,3.4-6.529,3.272-10.33C240.25,125.689,239.937,125.688,239.945,125.89Z" transform="translate(-138.946 -24.491)" fill="#977c72"/>
  <path id="Trazado_2200" data-name="Trazado 2200" d="M206.789,56.975c.115.163.386.008.269-.158-1.983-2.8-6.1.816-8.286,3.494a24.787,24.787,0,0,1-3.931,2.7.156.156,0,0,0,.158.269,29.86,29.86,0,0,0,2.994-1.942,7.925,7.925,0,0,0-.455.729.152.152,0,0,0,.122.223,4.463,4.463,0,0,0-1.181.915.575.575,0,0,0-.131.619,94.458,94.458,0,0,0-12.19,1.194.608.608,0,0,0-.045-.063c-.851-.769-2.263-2-3.534-1.539a2.1,2.1,0,0,0-1.114,2.346,4.309,4.309,0,0,0,1.284,2.746,2.335,2.335,0,0,0,3,.118c.126-.089.247-.187.365-.287a.5.5,0,0,0,.175-.556l.365-.05c2.765.382,5.462.908,8.1-.452.179-.092.021-.362-.158-.269-2.216,1.143-4.5.9-6.821.572,3.341-.41,6.726-.645,10.078-.88a.618.618,0,0,0,.4.795,3.011,3.011,0,0,0,3.035-.52,3.525,3.525,0,0,0,1.008-2.591,2.377,2.377,0,0,0-1.066-2.164,1.632,1.632,0,0,0-1.422,0,12,12,0,0,1,1.222-1.719,12.921,12.921,0,0,0,1.252-1.247.145.145,0,0,0,.02-.16C202.451,56.916,205.349,54.939,206.789,56.975Zm-7.938,8.445a.53.53,0,0,0-.429-.147,166.318,166.318,0,0,0-17.277,1.75c-.031-.057-.062-.111-.1-.18a3.171,3.171,0,0,1-.2-.538.633.633,0,0,0,.741.447,91.763,91.763,0,0,1,17.088-1.728.59.59,0,0,0,.333-.109A2.406,2.406,0,0,1,198.851,65.419ZM180.7,65.145v-.015l0-.009c.008-.045.017-.091.028-.135a1.543,1.543,0,0,1,.047-.151c.008-.009.05-.1.066-.13s.009-.017.014-.026a.153.153,0,0,0,.035-.03.145.145,0,0,0,.021-.027.381.381,0,0,0,.069-.032c-.127.067-.043.028.027,0,.032,0,.118-.014.153-.013a2.657,2.657,0,0,1,.405.1,4.587,4.587,0,0,1,1.007.615c-.444.082-.889.161-1.329.249a.532.532,0,0,0-.43.668c-.036-.13-.074-.259-.1-.4,0-.024,0-.027-.006-.036,0-.039-.009-.08-.012-.121-.009-.087-.011-.174-.011-.261S180.7,65.228,180.7,65.145ZM198.65,63.33a.789.789,0,0,1,.314.513.6.6,0,0,0-.292-.071c-.331,0-.664.014-1,.021a2.763,2.763,0,0,1,.589-.421A.4.4,0,0,1,198.65,63.33Z" transform="translate(-130.772 -14.506)" fill="#977c72"/>
  <path id="Trazado_2201" data-name="Trazado 2201" d="M178.166,61.151c-.349-.441-.717-.9-1.1-1.348a29.715,29.715,0,0,0,3.413,1.845.145.145,0,0,0,.167-.028,15.74,15.74,0,0,0,3.882,1.255,17.363,17.363,0,0,1-8.394-2c-.178-.093-.337.177-.158.27a17.739,17.739,0,0,0,9.331,2.021.156.156,0,0,0,.147-.172,10.194,10.194,0,0,0,4.645-.583c.187-.071.106-.373-.082-.3-3.614,1.368-7.376.336-10.632-1.485a.142.142,0,0,0-.188.042,14.867,14.867,0,0,1-2.531-1.517.157.157,0,0,0-.177-.008c-1.759-1.955-3.874-3.757-6.394-4.283-.2-.041-.279.261-.082.3,3.322.694,5.918,3.657,7.932,6.211C178.07,61.53,178.29,61.308,178.166,61.151Z" transform="translate(-129.409 -14.371)" fill="#977c72"/>
  <path id="Trazado_2202" data-name="Trazado 2202" d="M193.931,86.079c.2-.029.115-.33-.082-.3-1.9.279-3.844,1.143-5.63.016-.171-.108-.327.162-.158.269C189.928,87.241,191.933,86.372,193.931,86.079Z" transform="translate(-131.992 -18.784)" fill="#977c72"/>
  <path id="Trazado_2203" data-name="Trazado 2203" d="M195.307,79.069c-2.393.946-4.956.524-7.46.493a.157.157,0,0,0,0,.313c2.535.031,5.122.453,7.542-.5C195.576,79.3,195.494,78.994,195.307,79.069Z" transform="translate(-131.95 -17.826)" fill="#977c72"/>
  <path id="Trazado_2204" data-name="Trazado 2204" d="M194.971,89.871a.156.156,0,0,0-.082-.3c-2.073.54-4.281,1.424-6.379.516-.183-.079-.342.19-.158.27C190.543,91.3,192.794,90.437,194.971,89.871Z" transform="translate(-132.032 -19.326)" fill="#977c72"/>
  <path id="Trazado_2205" data-name="Trazado 2205" d="M217.35,142.751c2.271-.892,4.8-.286,7.038-1.266.184-.081.025-.35-.158-.27-2.206.965-4.718.352-6.962,1.234C217.081,142.522,217.163,142.824,217.35,142.751Z" transform="translate(-136.157 -26.698)" fill="#977c72"/>
  <path id="Trazado_2206" data-name="Trazado 2206" d="M214.224,142.947a23.112,23.112,0,0,1-4.209.495.157.157,0,0,0,0,.313,23.625,23.625,0,0,0,4.291-.506C214.5,143.21,214.42,142.909,214.224,142.947Z" transform="translate(-135.115 -26.947)" fill="#977c72"/>
  <path id="Trazado_2207" data-name="Trazado 2207" d="M205.516,143.817h-2.5a.156.156,0,0,0,0,.312h2.5A.156.156,0,0,0,205.516,143.817Z" transform="translate(-134.116 -27.071)" fill="#977c72"/>
  <path id="Trazado_2208" data-name="Trazado 2208" d="M196.1,144.114a9.242,9.242,0,0,1-2.709.245.156.156,0,0,0,0,.312,9.508,9.508,0,0,0,2.791-.255C196.373,144.356,196.292,144.055,196.1,144.114Z" transform="translate(-132.741 -27.113)" fill="#977c72"/>
  <path id="Trazado_2209" data-name="Trazado 2209" d="M183.766,144.713c1.421.016,2.829.234,4.25.25a.157.157,0,0,0,0-.313c-1.421-.016-2.829-.233-4.25-.249A.156.156,0,0,0,183.766,144.713Z" transform="translate(-131.367 -27.155)" fill="#977c72"/>
  <path id="Trazado_2210" data-name="Trazado 2210" d="M180.264,144.4h-3.5a.156.156,0,0,0,0,.312h3.5A.156.156,0,0,0,180.264,144.4Z" transform="translate(-130.368 -27.155)" fill="#977c72"/>
  <path id="Trazado_2211" data-name="Trazado 2211" d="M172.141,143.7c-2.871-1-5.882-1.5-8.753-2.5-.19-.067-.272.236-.082.3,2.871,1,5.882,1.5,8.753,2.5C172.249,144.065,172.33,143.763,172.141,143.7Z" transform="translate(-128.452 -26.696)" fill="#977c72"/>
  <path id="Trazado_2212" data-name="Trazado 2212" d="M159.011,139.448c-.191-.064-.273.237-.082.3a4.99,4.99,0,0,1,1.931.959c.147.139.368-.082.221-.22A5.33,5.33,0,0,0,159.011,139.448Z" transform="translate(-127.828 -26.446)" fill="#977c72"/>
  <path id="Trazado_2213" data-name="Trazado 2213" d="M154.706,135.7c-.141-.144-.363.077-.221.22a17.175,17.175,0,0,1,1.977,2.469c.111.166.382.01.269-.158A17.553,17.553,0,0,0,154.706,135.7Z" transform="translate(-127.202 -25.905)" fill="#977c72"/>
  <path id="Trazado_2214" data-name="Trazado 2214" d="M151.847,134.2a13.013,13.013,0,0,1-7.419.249.156.156,0,0,0-.082.3,13.348,13.348,0,0,0,7.584-.249C152.121,134.438,152.04,134.137,151.847,134.2Z" transform="translate(-125.745 -25.697)" fill="#977c72"/>
  <path id="Trazado_2215" data-name="Trazado 2215" d="M137.788,132.78c-.147-.138-.368.082-.221.22.527.5,1.223.755,1.75,1.251.147.138.368-.083.221-.221C139.011,133.533,138.314,133.276,137.788,132.78Z" transform="translate(-124.786 -25.489)" fill="#977c72"/>
  <path id="Trazado_2216" data-name="Trazado 2216" d="M135.275,132.209c.145.14.366-.081.221-.221-.471-.454-1.03-.8-1.5-1.25-.145-.14-.366.081-.221.22C134.245,131.411,134.805,131.754,135.275,132.209Z" transform="translate(-124.245 -25.198)" fill="#977c72"/>
  <path id="Trazado_2217" data-name="Trazado 2217" d="M132.729,129.394c-.226-.432-.524-.819-.751-1.25-.093-.179-.363-.021-.269.157.226.432.524.819.751,1.25C132.553,129.73,132.823,129.571,132.729,129.394Z" transform="translate(-123.954 -24.823)" fill="#977c72"/>
  <path id="Trazado_2218" data-name="Trazado 2218" d="M127.605,122.683v.749a.156.156,0,0,0,.312,0v-.749A.156.156,0,0,0,127.605,122.683Z" transform="translate(-123.371 -24.033)" fill="#977c72"/>
</svg>
