<svg xmlns="http://www.w3.org/2000/svg" width="136.169" height="263.707" viewBox="0 0 136.169 263.707">
  <g id="Grupo_1032" data-name="Grupo 1032" transform="translate(420.376 450.903) rotate(180)">
    <g id="Grupo_1029" data-name="Grupo 1029" transform="translate(284.208 187.196)">
      <path id="Trazado_1402" data-name="Trazado 1402" d="M321.13,194.522c0-4.047-8.265-7.326-18.461-7.326s-18.461,3.279-18.461,7.326,8.265,7.324,18.461,7.324S321.13,198.567,321.13,194.522Z" transform="translate(-284.207 -187.196)" fill="#878787"/>
      <rect id="Rectángulo_701" data-name="Rectángulo 701" width="36.923" height="216.113" transform="translate(0 7.326)" fill="#575756"/>
      <path id="Trazado_1403" data-name="Trazado 1403" d="M321.13,303.3H284.208l7.879,40.268h21.164Z" transform="translate(-284.208 -79.863)" fill="#878787"/>
      <path id="Trazado_1404" data-name="Trazado 1404" d="M306.439,314.569a8.537,8.537,0,0,1-8.537,8.537h0a8.537,8.537,0,0,1-8.537-8.537V270.833A8.537,8.537,0,0,1,297.9,262.3h0a8.537,8.537,0,0,1,8.537,8.537Z" transform="translate(-279.44 -117.771)" fill="#1d1d1b"/>
    </g>
    <g id="Grupo_1030" data-name="Grupo 1030" transform="translate(347.233 187.196)">
      <path id="Trazado_1405" data-name="Trazado 1405" d="M343.956,194.522c0-4.047-6.045-7.326-13.5-7.326s-13.5,3.279-13.5,7.326,6.043,7.324,13.5,7.324S343.956,198.567,343.956,194.522Z" transform="translate(-316.957 -187.196)" fill="#878787"/>
      <rect id="Rectángulo_702" data-name="Rectángulo 702" width="26.998" height="216.113" transform="translate(0 7.326)" fill="#575756"/>
      <path id="Trazado_1406" data-name="Trazado 1406" d="M343.955,303.3h-27l5.761,40.268h15.475Z" transform="translate(-316.958 -79.863)" fill="#878787"/>
      <path id="Trazado_1407" data-name="Trazado 1407" d="M332.046,316.207a5.454,5.454,0,0,1-5.454,5.454h0a5.454,5.454,0,0,1-5.454-5.454V267.75a5.454,5.454,0,0,1,5.454-5.454h0a5.454,5.454,0,0,1,5.454,5.454Z" transform="translate(-313.093 -117.771)" fill="#1d1d1b"/>
    </g>
    <g id="Grupo_1031" data-name="Grupo 1031" transform="translate(400.636 187.196)">
      <path id="Trazado_1408" data-name="Trazado 1408" d="M364.447,194.522c0-4.047-4.419-7.326-9.868-7.326s-9.87,3.279-9.87,7.326,4.418,7.324,9.87,7.324S364.447,198.567,364.447,194.522Z" transform="translate(-344.707 -187.196)" fill="#878787"/>
      <rect id="Rectángulo_703" data-name="Rectángulo 703" width="19.74" height="216.113" transform="translate(0 7.326)" fill="#575756"/>
      <path id="Trazado_1409" data-name="Trazado 1409" d="M364.448,303.3h-19.74l4.213,40.268h11.315Z" transform="translate(-344.708 -79.863)" fill="#878787"/>
      <path id="Trazado_1410" data-name="Trazado 1410" d="M354.994,318.176a3.484,3.484,0,0,1-3.483,3.485h0a3.484,3.484,0,0,1-3.485-3.485V265.781a3.484,3.484,0,0,1,3.485-3.485h0a3.484,3.484,0,0,1,3.483,3.485Z" transform="translate(-341.64 -117.771)" fill="#1d1d1b"/>
    </g>
    <path id="Trazado_1411" data-name="Trazado 1411" d="M290.981,195.161c0-2.217,6.6-5.569,16.537-5.569,2.213,0-.872-1.4-5.773-1.4-9.942,0-16.537,3.252-16.537,5.4V409.523Z" transform="translate(0.925 0.924)" fill="#fff" opacity="0.25"/>
    <path id="Trazado_1412" data-name="Trazado 1412" d="M323.759,195.161c0-2.217,3.375-5.569,13.317-5.569,2.213,0-.872-1.4-5.773-1.4-9.942,0-13.317,3.252-13.317,5.4V409.523Z" transform="translate(31.226 0.924)" fill="#fff" opacity="0.25"/>
    <path id="Trazado_1413" data-name="Trazado 1413" d="M349.467,193.8c.081-3.739,4.388-5.163,8.179-5.4-7.857-1.924-11.993,3.252-11.993,5.4V409.725Z" transform="translate(56.802 0.722)" fill="#fff" opacity="0.25"/>
  </g>
</svg>
