<svg xmlns="http://www.w3.org/2000/svg" width="231.715" height="275.905" viewBox="0 0 231.715 275.905">
  <g id="Grupo_1200" data-name="Grupo 1200" transform="translate(-761.968 -1349.489)">
    <g id="Grupo_1103" data-name="Grupo 1103" transform="translate(784.309 1350)" opacity="0.76">
      <path id="Trazado_1891" data-name="Trazado 1891" d="M395.4,471.775,374.406,349.393H207.714L187.15,471.848a20.285,20.285,0,0,0,.4,8.628c3.471,13.133,19.817,23.328,39.882,23.328h127.7C379.467,503.8,398.322,488.8,395.4,471.775ZM226.039,374.857a8.1,8.1,0,1,1,7.719-8.093A7.912,7.912,0,0,1,226.039,374.857Zm133.229,0a8.1,8.1,0,1,1,7.72-8.093A7.912,7.912,0,0,1,359.268,374.857Z" transform="translate(-186.864 -228.909)" fill="none" stroke="#c18b52" stroke-miterlimit="10" stroke-width="1"/>
      <path id="Trazado_1892" data-name="Trazado 1892" d="M395.324,471.775,374.329,349.393H348.191c7.4,42.144,16.446,107.63,4.02,120.6-17.337,18.094-106.94,28.716-164.739,10.478,3.471,13.133,19.817,23.328,39.882,23.328h127.7C379.39,503.8,398.245,488.8,395.324,471.775Zm-36.132-96.919a8.1,8.1,0,1,1,7.72-8.093A7.912,7.912,0,0,1,359.192,374.857Z" transform="translate(-186.787 -228.909)" fill="#cea774" stroke="#c18b52" stroke-miterlimit="10" stroke-width="1" opacity="0.35" style="mix-blend-mode: multiply;isolation: isolate"/>
      <path id="Trazado_1893" data-name="Trazado 1893" d="M313.707,374.838H255.582a6.188,6.188,0,0,1-6.188-6.188h0a6.188,6.188,0,0,1,6.188-6.188h58.125a6.187,6.187,0,0,1,6.187,6.188h0A6.187,6.187,0,0,1,313.707,374.838Z" transform="translate(-178.966 -227.259)" fill="none" stroke="#c18b52" stroke-miterlimit="10" stroke-width="1" opacity="0.35" style="mix-blend-mode: multiply;isolation: isolate"/>
      <path id="Trazado_1894" data-name="Trazado 1894" d="M316.764,366.625v2.418c0,2.3-2.645,4.163-5.908,4.163H255.3a7.663,7.663,0,0,1-3.176-.657,4.071,4.071,0,0,1-2.731-3.506v-2.418c0-2.3,2.643-4.162,5.908-4.162h55.556C314.12,362.463,316.764,364.327,316.764,366.625Z" transform="translate(-178.966 -227.259)" fill="#cea774" stroke="#c18b52" stroke-miterlimit="10" stroke-width="1"/>
      <path id="Trazado_1895" data-name="Trazado 1895" d="M271.589,362.463l-12.377,10.743h-4.218a7.663,7.663,0,0,1-3.176-.657l11.618-10.086Z" transform="translate(-178.66 -227.259)" fill="none" stroke="#c18b52" stroke-miterlimit="10" stroke-width="1" style="mix-blend-mode: overlay;isolation: isolate"/>
      <path id="Trazado_1896" data-name="Trazado 1896" d="M277.556,362.463l-12.373,10.743h-5.542l12.377-10.743Z" transform="translate(-177.671 -227.259)" fill="none" stroke="#c18b52" stroke-miterlimit="10" stroke-width="1" style="mix-blend-mode: overlay;isolation: isolate"/>
      <path id="Trazado_1897" data-name="Trazado 1897" d="M282.495,362.463l-12.378,10.743H266.4l12.378-10.743Z" transform="translate(-176.817 -227.259)" fill="none" stroke="#c18b52" stroke-miterlimit="10" stroke-width="1" style="mix-blend-mode: overlay;isolation: isolate"/>
      <path id="Trazado_1898" data-name="Trazado 1898" d="M215.825,358.713c.016-.017.035-.033.052-.051h-.062C215.82,358.679,215.821,358.7,215.825,358.713Z" transform="translate(-183.207 -227.739)" fill="none" stroke="#c18b52" stroke-miterlimit="10" stroke-width="1"/>
      <path id="Trazado_1899" data-name="Trazado 1899" d="M217.717,350.033H215.4a27.782,27.782,0,0,1,1.115-5.711,11.481,11.481,0,0,0,1.591,3.015C217.946,348.19,217.81,349.091,217.717,350.033Z" transform="translate(-183.26 -229.55)" fill="none" stroke="#c18b52" stroke-miterlimit="10" stroke-width="1"/>
      <path id="Trazado_1900" data-name="Trazado 1900" d="M229.932,354.335a34.189,34.189,0,0,1-.731,7.217c-.149.682-.321,1.331-.51,1.948-.1.333-.212.657-.323.968-.482,1.3-1.944,5.245-5.843,5.245s-5.363-3.95-5.844-5.245c-.155-.431-.3-.889-.439-1.358a7.926,7.926,0,0,1,1.889-1.822c.885,4.065,2.523,6.794,4.395,6.794,1.834,0,3.444-2.622,4.339-6.548.124-.552.237-1.13.333-1.731a34.263,34.263,0,0,0,.42-5.467,33.734,33.734,0,0,0-.569-6.321,21.708,21.708,0,0,0-.792-3.023c-.926-2.705-2.255-4.4-3.731-4.4s-2.807,1.694-3.733,4.4a17.6,17.6,0,0,1-.931-3.251,5.3,5.3,0,0,1,9.326,0,12.144,12.144,0,0,1,1.182,2.464c.1.258.185.523.271.8A31.361,31.361,0,0,1,229.932,354.335Z" transform="translate(-183.153 -230.227)" fill="none" stroke="#c18b52" stroke-miterlimit="10" stroke-width="1"/>
      <path id="Trazado_1901" data-name="Trazado 1901" d="M230.059,338.721a24.579,24.579,0,0,1-1.293,8c-.087-.275-.175-.539-.271-.8a12.141,12.141,0,0,0-1.181-2.464,25.321,25.321,0,0,0,.43-4.741c0-6.49-2.276-11.751-5.092-11.751s-5.094,5.261-5.094,11.751a25.414,25.414,0,0,0,.43,4.741,17.6,17.6,0,0,0,.931,3.25c.926,2.315,2.255,3.761,3.733,3.761s2.806-1.446,3.731-3.761a21.709,21.709,0,0,1,.792,3.023,5.5,5.5,0,0,1-9.049,0,11.482,11.482,0,0,1-1.591-3.015,24.543,24.543,0,0,1-1.292-8c0-4.971,1.56-13.384,7.409-13.384S230.059,333.749,230.059,338.721Z" transform="translate(-183.279 -231.948)" fill="none" stroke="#c18b52" stroke-miterlimit="10" stroke-width="1"/>
      <path id="Trazado_1902" data-name="Trazado 1902" d="M345.785,358.728c-.017-.017-.035-.033-.053-.05h.062C345.789,358.694,345.788,358.711,345.785,358.728Z" transform="translate(-166.797 -227.737)" fill="none" stroke="#c18b52" stroke-miterlimit="10" stroke-width="1"/>
      <path id="Trazado_1903" data-name="Trazado 1903" d="M344.189,350.05h2.318a27.627,27.627,0,0,0-1.115-5.713,11.441,11.441,0,0,1-1.593,3.016C343.96,348.2,344.1,349.106,344.189,350.05Z" transform="translate(-167.041 -229.548)" fill="none" stroke="#c18b52" stroke-miterlimit="10" stroke-width="1"/>
      <path id="Trazado_1904" data-name="Trazado 1904" d="M333.2,354.35a34.111,34.111,0,0,0,.732,7.217c.147.683.32,1.331.509,1.95.1.333.212.655.323.965.482,1.3,1.945,5.246,5.843,5.246s5.363-3.95,5.844-5.246c.158-.43.3-.888.439-1.357a7.864,7.864,0,0,0-1.889-1.822c-.885,4.065-2.523,6.794-4.395,6.794-1.834,0-3.444-2.622-4.339-6.548q-.186-.828-.333-1.73a34.437,34.437,0,0,1-.42-5.468,33.7,33.7,0,0,1,.569-6.32,21.579,21.579,0,0,1,.792-3.023c.926-2.706,2.256-4.4,3.732-4.4s2.807,1.694,3.734,4.4a17.641,17.641,0,0,0,.93-3.252,5.3,5.3,0,0,0-9.326,0,12.175,12.175,0,0,0-1.182,2.464c-.1.258-.184.523-.273.8A31.4,31.4,0,0,0,333.2,354.35Z" transform="translate(-168.379 -230.225)" fill="none" stroke="#c18b52" stroke-miterlimit="10" stroke-width="1"/>
      <path id="Trazado_1905" data-name="Trazado 1905" d="M333.26,338.721a24.578,24.578,0,0,0,1.293,8c.087-.275.175-.539.273-.8a12.065,12.065,0,0,1,1.18-2.464,25.417,25.417,0,0,1-.43-4.741c0-6.49,2.279-11.751,5.093-11.751s5.093,5.261,5.093,11.751a25.411,25.411,0,0,1-.43,4.741,17.515,17.515,0,0,1-.93,3.25c-.926,2.315-2.255,3.761-3.733,3.761s-2.807-1.446-3.732-3.761a21.867,21.867,0,0,0-.792,3.023,5.5,5.5,0,0,0,9.048,0,11.484,11.484,0,0,0,1.594-3.015,24.6,24.6,0,0,0,1.291-8c0-4.971-1.56-13.384-7.409-13.384S333.26,333.749,333.26,338.721Z" transform="translate(-168.373 -231.948)" fill="none" stroke="#c18b52" stroke-miterlimit="10" stroke-width="1"/>
      <path id="Trazado_1906" data-name="Trazado 1906" d="M217.81,344.034l-.2-.008c3.164-15.239,6.338-30.518,11.97-45.4,7.791-20.573,19.685-41.4,39.968-51.127,12.406-5.95,37.639-10.444,58.1,9.206a70.659,70.659,0,0,1,10.573,13.221c14.132,22.533,19.768,48.7,21.742,73.163l-8.851.16c-.808-13.46-1.624-26.955-4.635-40.259s-8.282-26.477-17.531-38.265C318.05,250.846,297.33,239.828,275,249.1c-9.877,4.1-16.943,10.883-22.513,17.949-18.4,23.334-22.956,50.71-25.76,77.333Z" transform="translate(-182.981 -242.421)" fill="#e6d8c4" stroke="#c18b52" stroke-miterlimit="10" stroke-width="1"/>
    </g>
    <ellipse id="Elipse_512" data-name="Elipse 512" cx="30.695" cy="30.694" rx="30.695" ry="30.694" transform="translate(764.039 1515.786)" fill="none" stroke="#c69f91" stroke-linecap="round" stroke-miterlimit="10" stroke-width="4.143"/>
    <path id="Trazado_1928" data-name="Trazado 1928" d="M480.767,352.426l12.518,12.117,38.04-37.4" transform="translate(301.819 1184.361)" fill="none" stroke="#ed6562" stroke-linecap="round" stroke-miterlimit="10" stroke-width="3.107"/>
  </g>
</svg>
