<svg id="Grupo_1132" data-name="Grupo 1132" xmlns="http://www.w3.org/2000/svg" width="158.798" height="157.17" viewBox="0 0 158.798 157.17">
  <path id="Trazado_1972" data-name="Trazado 1972" d="M412.929,124.222c-.589-13.193-8.5-30.054-22.806-32.491a.433.433,0,0,0-.506-.461c-2.465.293-4.94.605-7.42.8-.047-.008-.09-.02-.137-.028a.116.116,0,0,0-.112.047,49.506,49.506,0,0,1-5.678.131c-2.07-5.968-3.81-12.068-5.516-18.1-2.674-9.452-7.477-18.276-12.7-26.534a134.148,134.148,0,0,0-17.526-22.24c-3.752-3.819-9.335-9.47-15.233-8.494a4.548,4.548,0,0,0-3.145,2.023c-6.181-.815-6.58,7.875-7.012,11.975-.916,8.718-1.613,17.456-3.031,26.113a67.931,67.931,0,0,1-2.462,10.5c-1.344,4.034-4.188,7.185-6.906,10.371-5.344,6.264-10.724,13.092-10.222,21.795a.523.523,0,0,0,.039.146c-.907.067-1.814.134-2.721.208-7.616.62-15.175,1.564-22.832,1.444a.473.473,0,0,0-.4.184c-10.7.432-11.965,18.746-12.285,27.6-.436,12.128,0,27.561,7.062,37.975,2.844,4.2,8.249,7.418,13.466,6.587a9.4,9.4,0,0,0,.934-.2.482.482,0,0,0,.58.248,68.718,68.718,0,0,1,12.768-2.1c.115.092.227.189.348.275s.249-.12.122-.209c-.043-.03-.081-.065-.123-.1,4.332-.349,8.694-.483,12.96-.732.169.11.334.224.508.327a.121.121,0,0,0,.122-.209c-.075-.044-.145-.1-.219-.141l.3-.017c1.016-.063,2.03-.141,3.044-.219.1.076.2.158.3.232.127.093.247-.118.122-.209-.022-.016-.042-.033-.064-.049,3.982-.313,7.952-.732,11.917-1.212a.55.55,0,0,0,.659-.029c.023-.019.043-.039.066-.057,5.471-.671,10.931-1.448,16.391-2.2,12.167-1.674,24.369-3.1,36.551-4.664,3.285-.422,6.525-.709,9.79-.926a.119.119,0,0,0,.216.089c.027-.037.054-.073.08-.11,1.438-.094,2.879-.178,4.333-.247a42.987,42.987,0,0,0,5.337-.594,18.965,18.965,0,0,0,2.823-.776,1.145,1.145,0,0,0,.261-.134c.3-.039.585-.1.874-.165a.464.464,0,0,0,.425-.057c.038-.022.072-.05.108-.074,5.111-1.43,9.186-6.671,11.685-10.99C412.229,141.324,413.3,132.4,412.929,124.222Zm-26.97-31.455c.342.138.687.273,1.031.405q-.232,0-.468,0c-.362-.122-.726-.239-1.093-.347Zm-5.336.968a16.348,16.348,0,0,0-3.415,1.089q-.268-.732-.53-1.466A28.833,28.833,0,0,1,380.624,93.734Zm-3.29,1.435a16.77,16.77,0,0,1,4.246-1.25,17.957,17.957,0,0,1,2.481.719,22.739,22.739,0,0,0-6.495,1.173C377.485,95.6,377.412,95.383,377.333,95.17Zm4.9-1.349a33.719,33.719,0,0,1,4.591-.286c.738.258,1.468.539,2.187.848-1.453.106-2.911.146-4.363.222A17.26,17.26,0,0,0,382.233,93.821Zm-.957-.215c-.673-.133-1.352-.235-2.031-.312,1.845-.052,3.688-.2,5.527-.4.346.095.7.182,1.039.288A30.375,30.375,0,0,0,381.276,93.606Zm-40.439-66.42a137.077,137.077,0,0,1,18.3,24.161,96.916,96.916,0,0,1,11.5,26.435,115.324,115.324,0,0,0,4.95,15c1.351,3.344,2.317,6.814,3.741,10.127a17.991,17.991,0,0,0-3.464.582,74.29,74.29,0,0,1-2.931-7.066.088.088,0,0,0-.034-.1c-3.762-10.5-5.695-21.793-9.755-32.139-3.426-8.731-8.477-16.838-14-24.382-4.533-6.193-9.708-12.761-15.913-17.519-.214-.225-.419-.461-.645-.674a.5.5,0,0,0-.443-.134c-.479-.344-.962-.678-1.453-1-5.161-3.368-7.812-.044-7.78,5.29.047,7.737,3.242,15.459,5.063,22.889,2.689,10.969,2.146,21.526-2.344,31.872-2.427,5.594-4.547,11.014-4.94,16.852a.578.578,0,0,0-.028.572,27.726,27.726,0,0,0,.221,5.174c.159,1.143.364,2.281.563,3.418-1.13.131-2.26.273-3.4.3-.73-3.991-1.445-7.813-.78-11.873a39.406,39.406,0,0,1,3.644-10.55c3.243-6.862,6.393-12.812,6.871-20.5.456-7.324-1.671-14.2-3.3-21.249-1.5-6.489-4.058-15.05-2.129-21.617C325.12,11.639,337.8,24.045,340.837,27.186ZM378.406,159.8a.5.5,0,0,0-.268.138l-.386.384a.489.489,0,0,0-.147.418q-1.16.116-2.318.257c5.823-4.633,7.622-12.986,8.026-20.1a75.344,75.344,0,0,0-5.293-31.772,4.626,4.626,0,0,1,3.306-.275.511.511,0,0,0,.22.037,72.06,72.06,0,0,1,5.483,29.528,46.31,46.31,0,0,1-1.905,13.207,15.7,15.7,0,0,1-3.715,6.306A16.662,16.662,0,0,1,378.406,159.8Zm-3.5-55.861c-1.914,1.468-.529,4.826,1.623,5.344a.346.346,0,0,0,.372-.131q.361.918.7,1.847c-2.6.5-5.043-.485-6.006-3.133-.841-2.315.183-4.831,2.656-5.355C374.458,102.994,374.676,103.471,374.9,103.943Zm7.324,3.607a.36.36,0,0,0-.137.448.631.631,0,0,0-.266-.018.539.539,0,0,0-.214-.153c-1.484-.579-3-.044-4.418.473a.525.525,0,0,0-.1.062.456.456,0,0,0-.273.258.334.334,0,0,0-.1-.044c-1.544-.372-2.841-2.96-1.356-4.062a.455.455,0,0,0,.458.087,17.98,17.98,0,0,1,4.229-.689.524.524,0,0,0,.279-.108.353.353,0,0,0,.29.049c.9-.217,1.313.894,1.511,1.575C382.228,105.757,382.606,107.3,382.226,107.549ZM371.883,96.64a.172.172,0,0,0-.131-.06c-1.652-.044-3.3-.006-4.941.091,1.2-.225,2.39-.484,3.572-.793a.177.177,0,0,0,.066-.306q.614.249,1.227.5C371.743,96.263,371.815,96.451,371.883,96.64ZM318.8,168.308q-1.838.217-3.678.42c7.219-5.766,8.777-17.494,9.017-26.039.285-10.126-2.859-20-5.82-29.563,1.244-.1,2.493-.13,3.74-.171C328.445,129.416,334.254,155.27,318.8,168.308Zm-9.332,1q-.608-.4-1.222-.793a31.788,31.788,0,0,0,3.064-1.893q.779.711,1.532,1.455a.121.121,0,0,0,.171-.171c-.491-.487-.994-.961-1.5-1.428.7-.5,1.382-1.034,2.027-1.6.24.239.481.476.721.716.11.111.281-.061.171-.171q-.354-.355-.71-.706c.539-.481,1.06-.976,1.544-1.5.6.7,1.161,1.422,1.729,2.149a15.423,15.423,0,0,1-3.478,3.224.516.516,0,0,0-.227.332Q311.377,169.132,309.466,169.312Zm-10.744.811c-.141-.1-.284-.191-.426-.286q.819-.379,1.612-.823.47.414.958.808c-.242.062-.485.126-.731.181a.1.1,0,0,0-.055.042Zm-4.452.239c.818-.374,1.627-.78,2.417-1.226.377.207.747.427,1.11.658-.362.159-.727.3-1.1.438Q295.487,170.3,294.27,170.362Zm20.833-7.32c-.488.527-1.011,1.027-1.557,1.511-.5-.5-1.008-.992-1.522-1.477q.716-.837,1.354-1.747A16.2,16.2,0,0,1,315.1,163.042Zm-1.737,1.672c-.649.565-1.331,1.1-2.039,1.6-.435-.394-.877-.778-1.323-1.156a22.5,22.5,0,0,0,1.861-1.9C312.371,163.737,312.869,164.225,313.365,164.715Zm-2.24,1.746a31.748,31.748,0,0,1-3.113,1.909q-.618-.4-1.231-.8a21.86,21.86,0,0,0,3.038-2.252Q310.481,165.879,311.125,166.46Zm-1.3-1.46c-.689-.581-1.394-1.141-2.111-1.69a20.272,20.272,0,0,0,1.983-1.981q1.023.855,2,1.767A22.075,22.075,0,0,1,309.821,165Zm-.185.159a21.544,21.544,0,0,1-3.078,2.262c-.711-.473-1.406-.968-2.075-1.5.139-.108.283-.215.42-.324.833-.656,1.74-1.363,2.62-2.128C308.241,164.02,308.947,164.579,309.636,165.159Zm-3.31,2.4a21.324,21.324,0,0,1-2.265,1.162c-.528-.438-1.059-.874-1.586-1.315.622-.431,1.224-.876,1.811-1.327C304.944,166.6,305.628,167.087,306.326,167.555Zm-2.513,1.267a21.535,21.535,0,0,1-2.656.927c-.349-.277-.689-.565-1.024-.858.732-.42,1.443-.874,2.137-1.349C302.783,167.971,303.3,168.394,303.813,168.822Zm-3.879-.106q-.532-.472-1.052-.958c.65-.451,1.273-.935,1.872-1.445q.662.525,1.314,1.064C301.377,167.846,300.665,168.3,299.934,168.716Zm-.224.124c-.542.3-1.1.58-1.658.836-.366-.236-.736-.463-1.115-.675.6-.344,1.177-.713,1.745-1.1Q299.191,168.377,299.71,168.84Zm-3.024.026c-.869-.471-1.764-.89-2.68-1.275q1.313-.773,2.575-1.634c.65.582,1.285,1.181,1.923,1.779Q297.618,168.336,296.686,168.866Zm-.254.136c-.856.477-1.731.915-2.615,1.308a19.177,19.177,0,0,0-2.415-1.286q1.178-.609,2.339-1.281C294.66,168.123,295.561,168.536,296.432,169Zm1.611.955c.095.062.19.123.284.188l-.841.045C297.672,170.115,297.858,170.039,298.043,169.957Zm3.349-.027a21.54,21.54,0,0,0,2.633-.933q.434.358.873.711-1.733.138-3.47.249Zm3.861-.251c-.33-.262-.661-.523-.986-.791a21.632,21.632,0,0,0,2.28-1.183c.4.268.812.532,1.22.794-.815.43-1.635.822-2.453,1.175ZM308,168.649q.541.348,1.08.7c-1,.094-2.013.178-3.02.262C306.709,169.315,307.357,168.992,308,168.649Zm7.915-68.051a.155.155,0,0,0-.155-.119q-3.312.014-6.617.144a.1.1,0,0,0-.055-.065,13.583,13.583,0,0,0-2.054-.78q1.883-.158,3.763-.352l3.866.643c.153.025.219-.208.065-.234l-3.03-.5c1.385-.148,2.77-.309,4.152-.5C315.846,99.42,315.865,100.007,315.916,100.6Zm-.027-2.8a.559.559,0,0,0-.152-.009c-5.775.793-11.576,1.2-17.382,1.586a.5.5,0,0,0,.346-.623c-1.533-5.939,3.963-12.359,7.246-16.794,3.775-5.1,7.546-10.179,9.212-16.406.881-3.3.929-6.9,1.367-10.272.5-3.818.963-7.623,1.165-11.469.221-4.185.525-8.366,1.023-12.527.169-1.41.5-6.881,2.118-8.475a28.107,28.107,0,0,0,.2,7.115c1.06,7.648,3.052,15.078,4.718,22.6a44.765,44.765,0,0,1,.89,12.572c-.3,4.884-1.921,8.937-4,13.312C319.654,84.712,316.321,90.718,315.889,97.794Zm6.16,9.749a.556.556,0,0,0,.5-.5.575.575,0,0,0,.012-.08v0a.125.125,0,0,0,0-.017c1.8.791,2.588,4.373.575,5.277a.306.306,0,0,0-.164.166.528.528,0,0,0-.209-.245.454.454,0,0,0-.444-.253c-1.558.055-3.117.069-4.668.237a.551.551,0,0,0-.481.416.465.465,0,0,0-.044.121,2.566,2.566,0,0,1-1.91-2.314c-.124-1.29.429-2.917,1.765-3.33.006,0,.008-.006.014-.008.019.1.039.2.056.294a.429.429,0,0,0,.3.354.469.469,0,0,0,.451.275C319.224,107.911,320.632,107.693,322.049,107.543Zm-5.191-1.249a.308.308,0,0,0-.075.007c-1.637.506-2.307,2.229-2.316,3.826a3.351,3.351,0,0,0,2.613,3.295.338.338,0,0,0,.213-.006q.294.948.585,1.9a.355.355,0,0,0-.08-.016,4.687,4.687,0,0,1-4.914-4.821c-.127-2.425,1.232-5.091,3.688-5.648Q316.715,105.565,316.857,106.294Zm6.284,6.528a.372.372,0,0,0,.364.03c2.706-1.216,1.552-5.881-.916-6.7a.362.362,0,0,0-.137-.016q-.132-.774-.256-1.544a5.55,5.55,0,0,1,4.678,4.854,4.7,4.7,0,0,1-3.077,5.115Q323.472,113.677,323.141,112.822ZM321.6,98.24c.538.009,1.075.01,1.61-.008a10.135,10.135,0,0,0,2.444,1.483c.148.053.21-.182.064-.234a8.539,8.539,0,0,1-2.123-1.27q1.636-.071,3.265-.252c1.115.491,2.188,1.07,3.264,1.648a43.972,43.972,0,0,0-7.678.877c-.232.05-.134.405.1.355a46.767,46.767,0,0,1,8.145-.93c.318.169.638.338.96.5.138.07.261-.138.122-.209-.2-.1-.4-.207-.6-.312,1.352-.043,2.707-.053,4.063-.054q.175.148.346.3c-1.073.232-2.143.468-3.212.7-3.469.747-7.066.416-10.546,1.052A32.577,32.577,0,0,1,321.6,98.24Zm8.749-41.6c-.77-7.467-3.137-14.515-4.912-21.775A38.62,38.62,0,0,1,324,24.233c.254-6.5,5.255-3.663,8.729-.925,3.107,3.417,4.9,8.083,6.485,12.292a159.2,159.2,0,0,1,5.4,17.2,174.666,174.666,0,0,1,5.139,41.365.486.486,0,0,0,.321.472l-.437.033c-.017-.041-.029-.083-.047-.125a.186.186,0,0,0-.319,0c-.027.055-.049.106-.075.16q-1.254.1-2.506.2-3.132.254-6.264.511c-.177-.063-.351-.13-.532-.185-.15-.046-.213.187-.065.234-1.084.088-2.169.174-3.252.265-3.788.322-7.578,1.043-11.381,1.334-.062-.019-.122-.044-.184-.062a.11.11,0,0,0-.144.088q-1.622.113-3.247.088c.015-.378.034-.757.069-1.138.435-4.788,2.487-9.518,4.383-13.87a59.19,59.19,0,0,0,4.058-11.488A45.913,45.913,0,0,0,330.345,56.636Zm15.916,41.776c-1.29-.665-2.514-1.434-3.791-2.095l2.968-.246a10.21,10.21,0,0,0,2.09,2.241Q346.894,98.361,346.261,98.412Zm3.314-2.672a4.909,4.909,0,0,1,.065.889c-.222-.1-.444-.2-.669-.286.047-.189.1-.378.168-.569Zm-.948.468c-.3-.116-.607-.222-.915-.321l1.034-.082C348.7,95.939,348.662,96.073,348.628,96.208Zm-.108.508c-.074-.171-.356-.17-.341.049,0,.037.011.072.014.11a3.629,3.629,0,0,0-.777-.592c-.212-.12-.43-.222-.649-.321l.316-.024c.508.143,1,.319,1.493.509C348.557,96.535,348.535,96.625,348.52,96.715Zm-.773,1.307a9.477,9.477,0,0,1-1.889-1.986l.1-.009a6.594,6.594,0,0,1,2.348,1.559c.046.219.093.437.135.656l-.649.048A.2.2,0,0,0,347.747,98.022Zm1.065-.049a.182.182,0,0,0,.064-.238c-.025-.05-.044-.1-.068-.156a5.646,5.646,0,0,1,.11-1q.36.147.714.311a7.093,7.093,0,0,1-.2,1.28l-.611.044C348.818,98.134,348.816,98.054,348.813,97.973Zm1.173-.915q.9.433,1.755.953l-1.922.135A7.563,7.563,0,0,0,349.986,97.058ZM350,96.8a5.448,5.448,0,0,0-.07-1.086l.811-.062a.117.117,0,0,0,.1.171,21.3,21.3,0,0,1,7.189,1.7c-1.955.183-3.918.327-5.874.465A22.1,22.1,0,0,0,350,96.8Zm7.574-1.33a16.428,16.428,0,0,1,6.072,1.381c-1.688.251-3.387.45-5.092.615a22.969,22.969,0,0,0-7.288-1.855c5.308-.405,10.627-.8,15.917-1.372,1.057.429,2.11.867,3.168,1.3-.023,0-.042-.017-.069-.01a61.454,61.454,0,0,1-6.194,1.261,16.9,16.9,0,0,0-6.514-1.558A.121.121,0,0,0,357.578,95.468Zm10.114-1.284q1.589-.174,3.173-.373a.363.363,0,0,0,.037-.012q.326.991.671,1.973C370.28,95.24,368.988,94.708,367.691,94.184Zm-2.073-.848c-.179-.075-.361-.145-.54-.221-.142-.06-.265.148-.121.209.052.022.1.042.156.064-3.223.321-6.455.586-9.686.837.565-12.617-1.9-25.227-4.764-37.457-1.727-7.37-3.668-15.134-6.65-22.184a104.784,104.784,0,0,1,20.225,36.007c2.23,7.2,3.985,14.843,6.338,22.19Q368.1,93.089,365.618,93.336ZM342.5,33.716c3.116,6.926,5.01,14.686,6.819,22.011,3.095,12.54,5.636,25.615,5.042,38.58l-3.794.291a.473.473,0,0,0,.248-.434,182.475,182.475,0,0,0-5.177-41.648A157.146,157.146,0,0,0,339.818,34.2a51.728,51.728,0,0,0-3.485-7.7q3.272,3.089,6.338,6.549A.552.552,0,0,0,342.5,33.716Zm-6.9,66.121,1.382,0-1.114.237C335.78,100,335.691,99.916,335.6,99.837Zm-.344-.293c-1.624-1.341-3.537-2.33-5.709-1.834-.153.035-.088.268.065.234a6.185,6.185,0,0,1,5.262,1.6c-1.425,0-2.851,0-4.272.047-1.088-.582-2.167-1.172-3.283-1.687,2.97-.345,5.932-.851,8.906-1.08q2.891-.222,5.782-.468c1.295.641,2.524,1.407,3.808,2.092l-.214.017c-1.909.162-3.805.45-5.693.8a15.881,15.881,0,0,0-5.333-1.906c-.153-.023-.219.21-.065.234a15.517,15.517,0,0,1,5.016,1.742q-.575.109-1.149.222C337.337,99.555,336.3,99.549,335.257,99.545Zm12.67-.919.565-.052c.015.105.034.209.041.316h0c0,.017,0,.032.006.049s.009.01.011.018c-1.023.126-2.047.24-3.072.336-1.3.122-2.608.187-3.913.222C343.664,99.151,345.775,98.833,347.927,98.626Zm.974.265c0-.018-.006-.036-.007-.053-.016-.1-.024-.2-.036-.3l.491-.044c-.032.115-.065.232-.1.345,0,.011,0,.017,0,.027l-.359.047C348.893,98.905,348.9,98.9,348.9,98.89Zm.841-.427q1.211-.1,2.423-.2l.26.166q-1.392.2-2.787.384C349.676,98.7,349.711,98.582,349.742,98.464Zm2.824-.226,2.5-.189q-1.143.169-2.286.334C352.711,98.334,352.639,98.285,352.566,98.238ZM304.245,77.7a33.033,33.033,0,0,0,7.776-14.776,163.442,163.442,0,0,0,3.053-20.743c.364-3.457.688-6.918,1.033-10.376.29-2.912.289-12.288,5.49-11.931a9.157,9.157,0,0,0-.509,1.535c-3.422.946-3.425,9.625-3.7,12.155-.99,9.123-1.628,18.276-2.62,27.407-.953,8.758-5.837,15.1-10.863,21.966-3.181,4.347-7.719,10.33-6.231,16.091a.466.466,0,0,0,.377.36q-2.24.152-4.48.309a.588.588,0,0,0,.011-.072C293.071,90.783,298.851,84.026,304.245,77.7Zm-13.1,23.237c5.067-.412,10.136-.693,15.2-1.105a13.47,13.47,0,0,1,2.346.807c-6.054.241-12.094.725-18.128,1.318-5.254.517-10.612,1.437-15.9,1.351a.184.184,0,0,0,0,.369c5.29.086,10.652-.824,15.9-1.35,8.38-.841,16.78-1.447,25.206-1.484a.165.165,0,0,0,.166-.149c.1,1.139.293,2.281.506,3.414-6.182,1.366-5.518,11.911,1.364,11.922a.338.338,0,0,0,.266-.113c2.316,7.572,4.447,15.187,4.952,23.158.494,7.785-.523,19.241-5.874,26.1-.565-.722-1.128-1.445-1.722-2.135a16.029,16.029,0,0,0,3.293-5.294c.053-.148-.181-.211-.234-.065a15.726,15.726,0,0,1-3.217,5.176,14.547,14.547,0,0,0-2.63-2.414c-.128-.09-.249.121-.122.209.24.166.471.342.7.524-.01.007-.022.007-.03.019-.415.6-.859,1.166-1.326,1.714q-.975-.915-2-1.773a9.718,9.718,0,0,0,1.779-3.037c.05-.148-.184-.212-.234-.065a9.608,9.608,0,0,1-1.719,2.954c-.069-.057-.135-.117-.2-.173-.12-.1-.293.072-.171.171.074.06.145.125.219.186a19.666,19.666,0,0,1-1.983,2c-.424-.321-.846-.644-1.279-.956-.127-.091-.248.119-.122.209.412.3.813.6,1.216.91-1.023.888-2.092,1.694-3.059,2.427-.412-.334-.816-.677-1.2-1.047-.113-.109-.284.062-.171.171.376.362.77.7,1.172,1.026l0,0c-.585.443-1.193.885-1.815,1.315q-.659-.549-1.331-1.081a19.374,19.374,0,0,0,2.874-3.058c.093-.126-.117-.247-.209-.123A19.092,19.092,0,0,1,300.749,166c-.407-.32-.811-.643-1.23-.948-.127-.092-.247.118-.122.209.4.288.778.6,1.163.9-.595.5-1.212.983-1.858,1.429-.636-.6-1.27-1.2-1.918-1.777a29.07,29.07,0,0,0,8.093-8.036c.085-.132-.125-.253-.209-.122a28.81,28.81,0,0,1-8.066,7.995c-.083-.073-.164-.149-.248-.222-.117-.1-.29.069-.171.171.073.063.144.129.216.193-.872.593-1.765,1.153-2.674,1.683q-.832-.342-1.676-.662c-.146-.055-.209.179-.065.234q.742.282,1.475.58-1.161.668-2.343,1.271c-.952-.418-1.925-.8-2.894-1.2,2.522-1.419,5-2.922,7.4-4.562.128-.088.008-.3-.122-.209-2.453,1.674-4.981,3.206-7.561,4.653l-.141-.059c-.124-.052-.179.11-.1.2q-.766.426-1.536.844c-.047-.037-.091-.077-.139-.113a3.01,3.01,0,0,0-1.23-.609c4.809-2.607,8.837-6.452,12.985-10.036.119-.1-.053-.273-.171-.172-4.241,3.665-8.355,7.611-13.32,10.206a1.687,1.687,0,0,0-.859.426s0,.007,0,.011c-.481.231-.973.445-1.471.649a19.6,19.6,0,0,0,1.915-3.564c.042-.1.078-.207.12-.308,2.211-2.083,4.536-4.049,6.7-6.184.112-.11-.06-.281-.171-.171-2.046,2.017-4.232,3.884-6.331,5.839a48.451,48.451,0,0,0,1.74-5.306.12.12,0,0,0,.188-.124c-.027-.1-.056-.205-.082-.308a66.839,66.839,0,0,0,.756-28.574c-1.374-6.8-4.5-13.695-7.888-19.721a25.3,25.3,0,0,0-4.456-6.006c5.742,1.16,11.766-.572,17.437-1.438,7.8-1.191,15.743.1,23.577-1.153.234-.037.134-.392-.1-.355-7.475,1.191-14.987.128-22.457,1-6.227.727-12.638,2.958-18.909,1.481-.021-.005-.034.008-.053.009a11.053,11.053,0,0,0-2.426-1.595C278.072,102.24,284.592,101.475,291.141,100.941Zm-4.983,70.031a22.492,22.492,0,0,0-2.412-.86q1.2-.622,2.39-1.264c.3.268.585.56.828.8.372.375.736.76,1.11,1.132Q287.115,170.869,286.158,170.973Zm-6.884.847a12.531,12.531,0,0,0,2.189-2.232l.1.038c.019.057.037.116.056.174.048.148.282.085.234-.065h0q.627.232,1.267.432-.9.461-1.8.913c-.141.07-.018.28.122.209q1-.5,2-1.021c.745.231,1.491.465,2.219.758-2.136.239-4.256.553-6.346.988C279.308,171.949,279.291,171.885,279.275,171.82Zm-.189.242c-.07.014-.138.032-.207.047.062-.044.124-.088.185-.133C279.07,172,279.078,172.033,279.085,172.061Zm5.275-3.995a2.163,2.163,0,0,1,1.577.614q-1.252.675-2.518,1.33c-.559-.174-1.113-.356-1.657-.567l-.054-.168A27.455,27.455,0,0,0,284.36,168.067Zm-3.161.414c-.133.184-.265.369-.406.544-.144-.072-.284-.157-.425-.237q.337-.393.684-.775C281.1,168.169,281.149,168.325,281.2,168.481Zm.04-.681c.357-.387.723-.763,1.092-1.136a16.938,16.938,0,0,1-.956,1.575C281.329,168.092,281.285,167.945,281.239,167.8Zm6.8,2.59a22.963,22.963,0,0,0-1.682-1.661q.8-.434,1.6-.879c.965.4,1.936.778,2.888,1.19-.928.47-1.859.915-2.785,1.331C288.049,170.375,288.049,170.384,288.041,170.389Zm-4.565-47.371a47.233,47.233,0,0,1,3.036,14.518,185.694,185.694,0,0,0-8.568-25.95c-.062-.143-.27-.019-.209.123a190.288,190.288,0,0,1,8.834,27c.078,1.893.077,3.8.014,5.734-.032.94-.075,2.034-.141,3.222-2.822-14.949-8.282-29.954-14.459-43.858C277.923,107.261,281.482,117.9,283.476,123.018Zm-11.892-19.362a.54.54,0,0,0,.078.014c6.226,13.984,11.737,29.107,14.568,44.158.02.11.143.1.2.039-.048.84-.109,1.727-.186,2.65-3.267-7.913-5.846-16.164-8.733-24.214-1.831-5.105-3.671-10.207-5.58-15.284a69.672,69.672,0,0,0-3.321-8.2A14.787,14.787,0,0,1,271.584,103.656Zm2.006,69.112q-1.006-4.529-2.013-9.059c-.034-.153-.268-.088-.234.065q1,4.5,2,9c-.146,0-.286.012-.435.007a14.452,14.452,0,0,1-1.592-.156,49.149,49.149,0,0,1-1.865-7.495c-.033-.153-.267-.088-.234.065a51.363,51.363,0,0,0,1.823,7.381c-12.906-2.2-14.9-21.778-15.526-32.214a103.9,103.9,0,0,1,1.026-23.416,30.149,30.149,0,0,1,2.718-8.868,29.086,29.086,0,0,0,1.467,3.278c.069.14.278.017.209-.123a27.008,27.008,0,0,1-1.517-3.459c.052-.1.1-.2.151-.291a9.506,9.506,0,0,1,3.9-4c1.2,2.943,2.031,6.016,3.286,8.938.061.143.27.019.209-.123-1.251-2.915-2.085-5.982-3.278-8.919a7.381,7.381,0,0,1,1.991-.6.1.1,0,0,0,.015.077c2.185,3.182,3.226,7.374,4.531,10.97a98.042,98.042,0,0,0,5.038,12.419c.072.138.281.016.209-.123a104.575,104.575,0,0,1-5.327-13.227c-1.206-3.323-2.208-7.192-4.231-10.146a9.29,9.29,0,0,1,2.41.032,71.071,71.071,0,0,1,3.608,8.906c1.927,5.125,3.777,10.28,5.625,15.435,2.854,7.957,5.4,16.116,8.652,23.925-.164,1.813-.4,3.737-.735,5.667a111.68,111.68,0,0,1-3.433-13.729c-.022-.154-.256-.088-.234.064.7,4.813,2.275,9.518,3.57,14.221a39.8,39.8,0,0,1-1.634,6.221,41.248,41.248,0,0,0-2.588-9.343c-.054-.146-.288-.083-.235.065a39.1,39.1,0,0,1,2.641,9.774c-.261.683-.547,1.343-.856,1.975-.523.515-1.039,1.037-1.539,1.576a61.945,61.945,0,0,1-2.486-11.054c-.017-.154-.26-.155-.242,0a62.722,62.722,0,0,0,2.539,11.264c-.278.3-.549.614-.817.927-.041-.024-.083-.044-.123-.069-.133-.083-.254.127-.122.209.027.016.054.029.08.045-.034.041-.07.078-.1.119-.1.119.071.292.171.172.049-.058.1-.113.151-.171.142.081.284.166.429.239a11.058,11.058,0,0,1-1.623,1.6c-.722-2.477-1.8-4.833-2.11-7.427-.019-.153-.262-.155-.242,0,.319,2.651,1.425,5.056,2.151,7.592a9.08,9.08,0,0,1-1.429.876,152.386,152.386,0,0,0-3.673-14.877.122.122,0,0,0-.235.065,151.481,151.481,0,0,1,3.681,14.926,8.659,8.659,0,0,1-1.579.542,91.454,91.454,0,0,1-2.222-9.155c-.033-.152-.268-.088-.234.065a91.7,91.7,0,0,0,2.22,9.148A9.509,9.509,0,0,1,273.591,172.768Zm14.619-2.2c.969-.437,1.945-.905,2.919-1.4a19.683,19.683,0,0,1,2.389,1.24c-1.7.1-3.412.206-5.115.351C288.338,170.692,288.273,170.63,288.21,170.566ZM334,166.33l-2.685.367c.192-.07.383-.138.575-.209.045.009.09.022.135.03a.122.122,0,0,0,.144-.136c1.108-.417,2.209-.871,3.294-1.367a12.547,12.547,0,0,0,2.283.813C336.5,166,335.251,166.159,334,166.33Zm5.2-.71a24.592,24.592,0,0,0,3.575-2.191q.491.079.982.154c-.933.625-1.88,1.235-2.852,1.822-.792.1-1.583.212-2.376.318a10.212,10.212,0,0,1-2.788-.841,40.333,40.333,0,0,0,3.889-2.062c.921.22,1.857.4,2.8.555a24.32,24.32,0,0,1-3.354,2.036C338.947,165.479,339.07,165.689,339.209,165.62Zm27.145-3.439.273-.128c-.039.037-.08.072-.118.108Zm.66-.158c.043.019.089.036.131.057l-.22.028C366.955,162.08,366.984,162.051,367.014,162.023Zm-1.461.258-3.27.408-.056-.02a18.263,18.263,0,0,0,2.182-1.388,14.507,14.507,0,0,1,2.111.543C366.2,161.972,365.875,162.127,365.553,162.281Zm-5.776.721q.467-.307.91-.638c.313.116.625.232.938.347l-.166.081Zm2.148-.44q-.507-.183-1.012-.371c.529-.407,1.036-.839,1.523-1.29l.324.066c.425.088.874.167,1.331.253A17.467,17.467,0,0,1,361.926,162.562Zm-1.28-.47c-.992-.369-1.983-.733-2.986-1.058.4-.3.8-.608,1.189-.93,1.088.288,2.2.514,3.3.738Q361.428,161.5,360.645,162.092Zm-.226.171q-.581.426-1.2.808l-2.879.361q-.907-.193-1.8-.429a22.672,22.672,0,0,0,2.89-1.8C358.434,161.528,359.426,161.893,360.419,162.263Zm-6.241.648q-.762-.211-1.514-.45,1.374-.875,2.677-1.829c.61.14,1.213.3,1.81.484A22.051,22.051,0,0,1,354.178,162.911Zm-.328.159c-.415.2-.835.387-1.267.554-.144.056-.081.291.065.234.532-.207,1.047-.441,1.553-.692.463.127.928.249,1.4.358q-2.961.371-5.922.745,1.39-.8,2.717-1.638Q353.118,162.865,353.85,163.07ZM346.3,164.2c.105-.059.207-.123.311-.183.689.113,1.372.239,2.046.382q-3.579.456-7.156.925,1.34-.821,2.626-1.69c.705.105,1.408.211,2.109.322l-.058.034C346.039,164.068,346.161,164.278,346.3,164.2Zm2.892.067c-.742-.169-1.5-.311-2.259-.438q1.629-.942,3.173-2,.99.371,1.994.7Q350.676,163.42,349.19,164.269Zm-2.636-.5c-.71-.114-1.425-.22-2.141-.326q1.759-1.2,3.434-2.507c.657.273,1.319.533,1.983.786Q348.237,162.813,346.554,163.77Zm-2.5-.379q-.506-.074-1.008-.154c1.2-.892,2.335-1.868,3.443-2.879q.549.238,1.1.469Q345.864,162.17,344.053,163.392Zm-8.6,1.357c-.672-.308-1.333-.651-1.976-.983.976-.647,1.917-1.336,2.817-2.027a19.852,19.852,0,0,0,2.995,1A40.527,40.527,0,0,1,335.457,164.749Zm-2.209-1.1c-.473-.242-.935-.473-1.387-.675q1.8-.844,3.649-1.6c.181.091.361.187.545.27C335.157,162.329,334.22,163.01,333.248,163.646Zm-1.645-.555a.094.094,0,0,0,.042.047c.443.2.9.422,1.369.661a26.726,26.726,0,0,1-3.272,1.817,17.333,17.333,0,0,1-1.735-.752Q329.792,163.948,331.6,163.091Zm1.648.828c.625.321,1.269.656,1.925.963-1.087.491-2.192.939-3.3,1.353a14.742,14.742,0,0,1-1.811-.5A27.632,27.632,0,0,0,333.251,163.919Zm34.317-1.9c-.12-.064-.242-.125-.368-.181l.093-.09c1.312-.585,2.635-1.147,3.954-1.715-.33.382-.66.763-1,1.138-.1.116.067.288.171.172.454-.5.9-1.015,1.336-1.529,1.7-.735,3.38-1.491,5.019-2.35a.122.122,0,0,0-.029-.222.65.65,0,0,1-.265-.947c.017-.155-.226-.153-.242,0a3.223,3.223,0,0,0-.053.945.124.124,0,0,0,.089.117,17.348,17.348,0,0,0-2.313,1.237c-.622.294-1.253.567-1.886.838a49.446,49.446,0,0,0,3.9-5.269,23.365,23.365,0,0,0,2.1-4.1,6.53,6.53,0,0,0,.638-2.454v1.594a.121.121,0,0,0,.243,0V147.44a.122.122,0,0,0-.238-.032,33.364,33.364,0,0,1-7.134,12.241c-.629.265-1.26.525-1.889.787s-1.253.531-1.874.8a21.243,21.243,0,0,0,5.285-7.564c.054-.147-.181-.21-.234-.065a21.706,21.706,0,0,1-5.7,7.917c-.116.052-.233.1-.349.156a13.67,13.67,0,0,0-2.182-.582,24.3,24.3,0,0,0,5.791-6.511c.083-.133-.127-.255-.209-.123a23.961,23.961,0,0,1-5.9,6.57c-.324-.062-.644-.124-.953-.19-.241-.051-.484-.1-.725-.149,2.584-2.455,4.659-5.45,7.058-8.212.1-.118-.068-.29-.171-.172-2.437,2.807-4.532,5.852-7.176,8.325-1.1-.223-2.2-.448-3.29-.728a52.21,52.21,0,0,0,6.384-6.717c.1-.12-.072-.292-.171-.171a51.594,51.594,0,0,1-6.5,6.819c-.517-.138-1.03-.293-1.535-.471-.148-.052-.211.183-.065.234.451.159.907.3,1.367.425q-.577.472-1.175.912-.887-.281-1.793-.5a33.379,33.379,0,0,0,4.907-4.415c.1-.115-.067-.288-.171-.171a33.419,33.419,0,0,1-5.047,4.514c-.527-.118-1.058-.225-1.6-.3-.155-.021-.153.222,0,.242.456.061.9.145,1.35.24-.867.629-1.758,1.228-2.669,1.806-.678-.22-1.349-.458-2.018-.707a67.183,67.183,0,0,0,8.737-7.4.121.121,0,0,0-.171-.171,66.614,66.614,0,0,1-8.841,7.467q-1.007-.38-2-.789c1.591-1.255,3.133-2.589,4.638-4.026.113-.108-.059-.279-.171-.171-1.529,1.459-3.1,2.817-4.724,4.092q-.563-.236-1.123-.48c2.009-1.844,3.937-3.795,6.018-5.566.12-.1-.053-.273-.171-.171-2.1,1.792-4.055,3.769-6.091,5.633q-.782-.341-1.561-.693c-.141-.064-.264.145-.122.209q.744.336,1.488.662a43.054,43.054,0,0,1-3.538,2.93c-.94-.15-1.873-.323-2.792-.534a27.642,27.642,0,0,0,6.76-5.734c.1-.119-.07-.292-.171-.171a27.671,27.671,0,0,1-6.931,5.827,19.856,19.856,0,0,1-3.065-1c.237-.183.472-.367.7-.549a54.158,54.158,0,0,0,10.191-9.981c.093-.126-.117-.247-.209-.123a53.112,53.112,0,0,1-9.389,9.328c-.5.405-1.012.816-1.539,1.224-.158-.07-.312-.151-.468-.227.184-.074.364-.153.549-.225.143-.057.081-.291-.065-.234-.259.1-.515.212-.772.317a12.976,12.976,0,0,1-2.122-1.349c-.121-.1-.293.075-.171.172a13.246,13.246,0,0,0,2,1.3c-2.549,1.055-5.034,2.247-7.486,3.5-.43-.223-.844-.466-1.25-.719a53.088,53.088,0,0,0,10.622-9.4c.106-.116-.065-.288-.171-.171a52.621,52.621,0,0,1-10.68,9.427c-.285-.183-.564-.371-.834-.565,1.187-1.722,2.461-3.387,3.553-5.172.083-.133-.127-.255-.209-.123-1.2,1.957-2.618,3.766-3.9,5.669-.087.13.123.251.209.122.067-.1.138-.2.207-.3q.364.264.748.514-.893.548-1.831,1.038c-.138.072-.016.282.122.209.663-.346,1.306-.717,1.937-1.107.392.247.8.483,1.213.7-1.691.871-3.369,1.77-5.045,2.673-.138.074-.015.283.122.209,1.723-.927,3.446-1.851,5.184-2.745a17.977,17.977,0,0,0,1.689.759,16.013,16.013,0,0,1-4.13,1.232c-.154.022-.088.256.065.234a16.225,16.225,0,0,0,4.389-1.35,15.339,15.339,0,0,0,1.711.514q-.67.244-1.342.471-4.726.639-9.454,1.224c13.662-12.878,9.3-36.455,3.389-52.823,5.851-2.059,3.863-10.538-1.933-11.44a.411.411,0,0,0-.042,0q-.117-.785-.213-1.57c3.494-.649,7.092-.45,10.6-1.06,1.19-.207,2.371-.428,3.548-.651l.216.207c.111.109.283-.062.171-.171l-.094-.09c1.145-.217,2.286-.435,3.428-.646.231,0,.461,0,.691-.006q.759.443,1.5.931c.131.087.253-.123.122-.209-.381-.251-.766-.491-1.153-.726,1.532-.019,3.062-.064,4.586-.17.844-.059,1.685-.137,2.526-.224a3.626,3.626,0,0,1,.758.33.2.2,0,0,0-.2.278,51.95,51.95,0,0,1,2.958,7.876l-.013.005c-.223.078-.127.435.1.355l.005,0a17.429,17.429,0,0,1,.472,3.369.186.186,0,0,0,.344.093c.081-.108.164-.213.246-.32a.137.137,0,0,0,.068.07.364.364,0,0,0,.284-.021c.037-.012.051-.039.072-.062.138-.061.277-.118.417-.176.379-.156.76-.307,1.142-.456q.445-.174.9-.337c.034.08.064.161.1.239.1.216.416.028.318-.186-.016-.037-.03-.074-.046-.11a.624.624,0,0,0,.289-.2.183.183,0,0,0,0-.186c-.075-.106-.257-.1-.471-.052a16.828,16.828,0,0,1-.572-1.771c.268-.346.537-.692.8-1.041a.182.182,0,0,0-.029-.224,12.87,12.87,0,0,1-1.23-1.1h.037a.184.184,0,0,0,0-.368c-.078,0-.155,0-.233,0a12.233,12.233,0,0,0-2.471-5.621c-.159-.178-.419.084-.261.26.12.132.227.271.334.41a5.134,5.134,0,0,0-1.576.349c-.08-.09-.162-.179-.247-.267a4.761,4.761,0,0,1,1-.818c.209-.112.023-.43-.186-.318a5.226,5.226,0,0,0-1.07.878,5.608,5.608,0,0,0-1.276-.957c1.412-.158,2.822-.347,4.229-.549.09.062.184.12.274.184.128.09.249-.121.122-.209l-.038-.025c1.9-.275,3.79-.567,5.686-.838q.84.351,1.673.718c.141.062.265-.146.122-.209q-.662-.29-1.328-.575c1.67-.235,3.342-.447,5.019-.61a27.944,27.944,0,0,1,2.564,1.395c.134.082.255-.128.122-.209-.727-.445-1.466-.859-2.217-1.232a57.411,57.411,0,0,1,6.764-.251.168.168,0,0,0,.178-.179c.62,1.714,1.283,3.405,2.008,5.062-2.753.638-3.812,3.334-3.148,5.959.827,3.265,4.017,4.516,7.049,3.911,1.285,3.655,2.325,7.409,3.293,11.152,1.239,4.786.905,9.921,1.138,14.822.386,8.155-1.627,19.1-9.221,23.6-.006,0-.008.009-.013.011C371.211,161.53,369.39,161.787,367.568,162.024ZM349.874,101.53c.206-.1.41-.2.615-.282.094.107.188.216.28.326a.178.178,0,0,0,.075.336h.2c.455.569.873,1.147,1.263,1.646a7.054,7.054,0,0,1-1.109.11.184.184,0,0,0,0,.369,7.493,7.493,0,0,0,1.362-.162q.657.809,1.347,1.588a7.934,7.934,0,0,0-2.049.34c-.226.072-.129.428.1.355a8.092,8.092,0,0,1,2.271-.338l.025.028q.089.385.176.772c-.88.346-1.705.814-2.582,1.169-.159-.62-.337-1.235-.534-1.851-.519-1.62-1.184-3.191-1.862-4.754.024,0,.045.006.07-.006a2.86,2.86,0,0,0,.537-.385c.057.057.114.114.171.174-.18.077-.359.159-.539.25C349.475,101.319,349.662,101.636,349.874,101.53Zm2.47-.72a8.166,8.166,0,0,1,.45.732h-1.662c-.11-.134-.223-.27-.339-.4a4.549,4.549,0,0,1,1.468-.291A.159.159,0,0,0,352.344,100.81Zm.612,10.236q.966-1.262,1.938-2.521a15.945,15.945,0,0,0,.491,1.528c-.352.133-.705.318-.831.367q-.637.247-1.269.509C353.2,110.964,353.074,111,352.956,111.046Zm.156-.813c-.684.882-.609,1.046-.759.02-.1-.715-.246-1.415-.415-2.109.874-.353,1.7-.818,2.572-1.165.085.37.172.74.265,1.105C354.224,108.8,353.667,109.517,353.112,110.233Zm1.719-3.393a.185.185,0,0,0-.078-.339c-.014-.06-.028-.121-.042-.181.4.331.911.658.459,1.255-.041.054-.082.106-.124.16C354.972,107.438,354.9,107.139,354.831,106.84Zm-1.557-3.521c-.193.062-.394.1-.593.145-.4-.5-.788-1-1.187-1.482l-.059-.072h1.536c.007,0,.009-.007.016-.008a15.887,15.887,0,0,1,1.1,3.25c-.4-.443-.779-.9-1.153-1.371.146-.038.3-.06.438-.107C353.6,103.6,353.5,103.245,353.274,103.319Zm-3.942-2.463c-.009.005-.007.014-.015.019q-.221-.509-.441-1.017a.141.141,0,0,0-.077-.069,5.787,5.787,0,0,1,.995.748A2.686,2.686,0,0,1,349.333,100.857Zm44.05,58.366-.021.025c-.062.019-.126.037-.188.055l.234-.15A.735.735,0,0,0,393.383,159.223Zm15.082-13.9a29.03,29.03,0,0,1-7.72,10.661,49.976,49.976,0,0,0,3.715-5.292.121.121,0,0,0-.209-.123,61.506,61.506,0,0,1-4.2,5.942,13.641,13.641,0,0,1-2.6,1.514,34.056,34.056,0,0,0,5.238-7.689c.072-.139-.138-.262-.209-.123a33.351,33.351,0,0,1-5.556,8.023c-.087.033-.176.061-.265.091l-.048-.042a.549.549,0,0,0-.645-.083c-.42.216-.849.4-1.28.577-.217.025-.435.042-.653.051.073-.087.146-.172.219-.259,5.064-3.662,8.4-9.346,10.916-14.969.064-.141-.146-.265-.209-.123-2.361,5.285-5.443,10.625-10.021,14.27a55.609,55.609,0,0,0,4.2-5.643c.085-.132-.126-.254-.209-.123a59.739,59.739,0,0,1-4.846,6.407c-.482.347-.975.683-1.488.991a.107.107,0,0,0-.054.093c-.347.089-.7.167-1.049.238a56.431,56.431,0,0,1,4.44-5.1c.11-.112-.062-.283-.171-.171a56.642,56.642,0,0,0-4.627,5.338v.005c-.864.16-1.741.273-2.623.354,1.788-2.368,3.849-4.567,4.972-7.353.058-.145-.176-.207-.234-.064-1.137,2.821-3.26,5.038-5.059,7.445q-.543.045-1.088.077c3.19-3.909,5.4-8.327,7.785-12.743.075-.138-.134-.26-.209-.123-2.382,4.416-4.58,8.825-7.778,12.733a.122.122,0,0,0,0,.145c-.75.041-1.5.069-2.247.091,1.527-1.924,3.643-3.274,4.922-5.4a.121.121,0,0,0-.209-.123c-1.307,2.176-3.5,3.541-5.029,5.536l-1.26.035a64.88,64.88,0,0,0,4.017-5.8.121.121,0,0,0-.209-.123,66.718,66.718,0,0,1-4.114,5.933l-.435.013c-1.08.034-2.159.105-3.235.194.783-.511,1.8-.887,2.518-1.441a13.666,13.666,0,0,0,3.594-4.9c2-4.09,2.508-8.88,2.784-13.364a71.63,71.63,0,0,0-5.543-32.589.533.533,0,0,0-.051-.076.324.324,0,0,0,.194-.055c.829-.547.443-2.191.243-2.955-.285-1.1-1.032-2.319-2.3-2.1a.565.565,0,0,0-.032-.137c-.191-.423-.366-.854-.55-1.281a4.463,4.463,0,0,1,4.6,3.095,4.543,4.543,0,0,1-1.024,5.047c-.366.3.159.823.521.521,1.689-1.409,1.837-3.788,1.214-5.765a5.164,5.164,0,0,0-5.372-3.636.353.353,0,0,0-.22.094c-.694-1.623-1.362-3.258-1.988-4.912a24.331,24.331,0,0,1,7.148-1.2,11.856,11.856,0,0,1,3.834,2.6c.108.113.28-.059.171-.171a11.888,11.888,0,0,0-3.47-2.46c1.443-.067,2.889-.112,4.327-.238a48.548,48.548,0,0,1,6.437,3.6c.131.086.253-.124.122-.209a49.47,49.47,0,0,0-6.083-3.432,23.052,23.052,0,0,0,3.236-.538.184.184,0,0,0-.1-.355,24.128,24.128,0,0,1-3.78.589q-.964-.429-1.953-.8l.358.008c.374.151.745.311,1.11.486.141.067.263-.141.122-.209-.194-.094-.394-.175-.591-.261,1.229.041,2.424.115,3.543.2.237.017.236-.351,0-.369-1.4-.1-2.914-.19-4.47-.214l-1.191-.468q.871-.1,1.742-.206a.561.561,0,0,0,.226.068c14.51,1.265,22.3,17.844,23.364,30.629A47.223,47.223,0,0,1,408.465,145.322Z" transform="translate(-254.199 -16.739)" fill="#977c72"/>
  <path id="Trazado_1973" data-name="Trazado 1973" d="M263.513,141.063c-.032-.154-.266-.088-.234.065a19.106,19.106,0,0,0,2.14,5.7.121.121,0,0,0,.209-.123A18.9,18.9,0,0,1,263.513,141.063Z" transform="translate(-256.764 -51.856)" fill="#977c72"/>
  <path id="Trazado_1974" data-name="Trazado 1974" d="M265.486,140.077c-.057-.143-.292-.08-.234.065a22.766,22.766,0,0,0,2.493,4.991c.09.126.3,0,.209-.123A22.5,22.5,0,0,1,265.486,140.077Z" transform="translate(-257.321 -51.579)" fill="#977c72"/>
  <path id="Trazado_1975" data-name="Trazado 1975" d="M293.884,207a173.82,173.82,0,0,0-5.67-21.972c-.051-.147-.285-.083-.235.065a173.564,173.564,0,0,1,5.671,21.972C293.681,207.221,293.914,207.156,293.884,207Z" transform="translate(-263.745 -64.285)" fill="#977c72"/>
  <path id="Trazado_1976" data-name="Trazado 1976" d="M291.693,214.543c-1.455-6.431-3.2-12.785-4.962-19.137a.121.121,0,0,0-.234.065c1.763,6.352,3.507,12.706,4.962,19.137C291.493,214.76,291.727,214.7,291.693,214.543Z" transform="translate(-263.327 -67.217)" fill="#977c72"/>
  <path id="Trazado_1977" data-name="Trazado 1977" d="M288.3,222.79c-1.09-5.689-2.45-11.322-3.543-17.012-.029-.154-.264-.088-.234.065,1.093,5.689,2.452,11.322,3.544,17.012C288.094,223.008,288.328,222.943,288.3,222.79Z" transform="translate(-262.769 -70.149)" fill="#977c72"/>
  <path id="Trazado_1978" data-name="Trazado 1978" d="M298.246,188.812c-.685-3.077-1.369-6.155-2.127-9.215a.121.121,0,0,0-.234.065c.758,3.06,1.441,6.138,2.127,9.215C298.046,189.029,298.28,188.964,298.246,188.812Z" transform="translate(-265.981 -62.748)" fill="#977c72"/>
  <path id="Trazado_1979" data-name="Trazado 1979" d="M453.665,189.017c-.264,7.077-5.187,15.162-10.749,19.386-.123.093,0,.3.122.21,5.663-4.3,10.6-12.386,10.87-19.6C453.913,188.86,453.671,188.86,453.665,189.017Z" transform="translate(-307.528 -65.402)" fill="#977c72"/>
  <path id="Trazado_1980" data-name="Trazado 1980" d="M443.819,211.836c1.47-2.793,3.82-4.921,5.672-7.442.093-.126-.118-.247-.209-.123-1.854,2.524-4.2,4.646-5.672,7.442C443.538,211.852,443.746,211.974,443.819,211.836Z" transform="translate(-307.734 -69.733)" fill="#977c72"/>
</svg>
