<svg xmlns="http://www.w3.org/2000/svg" width="124.878" height="131.62" viewBox="0 0 124.878 131.62">
  <g id="Grupo_1198" data-name="Grupo 1198" transform="translate(0.979 0.871)">
    <path id="Trazado_2612" data-name="Trazado 2612" d="M285.823,328.338a6.44,6.44,0,0,1-7.353,5.108,6.113,6.113,0,0,1-5.6-6.741,6.441,6.441,0,0,1,7.353-5.108A6.113,6.113,0,0,1,285.823,328.338Z" transform="translate(-241.92 -282.077)" fill="none" stroke="#977c72" stroke-linecap="round" stroke-linejoin="round" stroke-width="3"/>
    <ellipse id="Elipse_526" data-name="Elipse 526" cx="6.551" cy="5.966" rx="6.551" ry="5.966" transform="translate(86.446 40.042) rotate(-5.551)" fill="none" stroke="#977c72" stroke-linecap="round" stroke-linejoin="round" stroke-width="3"/>
    <path id="Trazado_2613" data-name="Trazado 2613" d="M342.375,366.71a30.172,30.172,0,0,1-5.688.354c-2.544-.161-9.131.713-9.58.208s-3.293,1.035-4.49,1.807-8.232,1.97-9.879,2.006-4.94,1.749-7.185,1.8a10.6,10.6,0,0,0-5.238,1.308c-1.348.776-9.131.2-11.79-.341a119.447,119.447,0,0,0-12.459-.924c-2.545-.095-14.818-3.411-16.614-4.118s-8.532-1.158-10.478-1.862-6.286-4.64-7.634-4.462a23.626,23.626,0,0,1-2.6.113c-.319.327-2.033,2.086-3.386,3.6-1.5,1.674-3.207,3.819-5.688,9.08-2.352,4.988-2.1,10.494-1.048,16.741s4.053,19.2,5.136,21.27c2.125,4.076,15.67,7.834,26,10s14.318,2.41,29.585,2.228,29.239-3.355,37.921-5.633,14.794-5.23,16.433-7.213c2.826-3.419,4.222-17.866,5.27-23.561s.749-11.51-.449-14.022S342.375,366.71,342.375,366.71Z" transform="translate(-226.939 -295.717)" fill="none" stroke="#977c72" stroke-linecap="round" stroke-linejoin="round" stroke-width="1"/>
    <path id="Trazado_2614" data-name="Trazado 2614" d="M273.707,337.845l.777-3.945s3.587,1.734,6.118,1.54,2.813-.622,2.813-.622l1.076,4.409S274.969,338.18,273.707,337.845Z" transform="translate(-242.218 -286.195)" fill="#fff" stroke="#977c72" stroke-linecap="round" stroke-linejoin="round" stroke-width="1"/>
    <g id="Grupo_1196" data-name="Grupo 1196" transform="translate(0 48.021)">
      <path id="Trazado_2615" data-name="Trazado 2615" d="M339.619,347.229c-3.657-3.918-12.6-7.832-20.248-8.719-6.57-.761-9.718.992-12.662,1.79-1.138.308-4.1,1.024-6.291,1.548a9.188,9.188,0,0,0-2.354,4.359c-1.5.331-3.443-2.314-4.191-2.895s-3.892.234-5.089.26a13.333,13.333,0,0,1-5.987-2.109c-2.4-1.441-6.885-1.194-9.281-1.441s-7.334-1.035-9.13-1.294a29.208,29.208,0,0,0-8.981-.551c-3.742.529-6.436-2.1-8.382-3.251s-6.586-.3-8.382.779-9.729,7.675-9.729,7.675-2.1.791-2.4,1.4,1.5,4.147,2.993,5.905,8.831,2.5,8.831,2.5l-.057.058a23.61,23.61,0,0,0,2.6-.113c1.348-.179,5.688,3.757,7.634,4.462s8.682,1.155,10.478,1.862,14.07,4.023,16.614,4.118a119.464,119.464,0,0,1,12.459.924c2.659.539,10.442,1.117,11.79.341a10.6,10.6,0,0,1,5.238-1.308c2.245-.049,5.538-1.762,7.185-1.8s8.681-1.234,9.879-2.006,4.042-2.312,4.49-1.807,7.035-.369,9.58-.208a30.173,30.173,0,0,0,5.688-.354,26.914,26.914,0,0,0,4.191.207,3.707,3.707,0,0,0,1.088-.372C344.566,354.587,342.046,349.829,339.619,347.229Z" transform="translate(-226.483 -334.374)" fill="none" stroke="#977c72" stroke-linecap="round" stroke-linejoin="round" stroke-width="1"/>
      <path id="Trazado_2616" data-name="Trazado 2616" d="M386.2,355.571c.9-2.409-3.143-9.038-6.137-12.108s-9.579-4.867-15.716-5.63-16.126.355-21.664,1.819a14.917,14.917,0,0,0-5.319,3.266c2.192-.523,5.153-1.24,6.291-1.548,2.944-.8,6.092-2.551,12.662-1.79,7.648.887,16.591,4.8,20.248,8.719,2.426,2.6,4.946,7.358,7.579,9.952A4.657,4.657,0,0,0,386.2,355.571Z" transform="translate(-263.428 -335.444)" fill="none" stroke="#977c72" stroke-linecap="round" stroke-linejoin="round" stroke-width="1"/>
    </g>
    <path id="Trazado_2617" data-name="Trazado 2617" d="M357.026,338.335l1.9-4.193s5.7,1.069,7.876.741l.631,3.984S359.419,337.941,357.026,338.335Z" transform="translate(-269.98 -286.275)" fill="#fff" stroke="#977c72" stroke-linecap="round" stroke-linejoin="round" stroke-width="1"/>
    <path id="Trazado_2618" data-name="Trazado 2618" d="M288.645,383.888s-9.257,9.955-10.308,22.015" transform="translate(-243.761 -302.851)" fill="none" stroke="#977c72" stroke-linecap="round" stroke-linejoin="round" stroke-width="1"/>
    <path id="Trazado_2619" data-name="Trazado 2619" d="M265.718,383.313s-12.335,7.458-14.043,21.247" transform="translate(-234.877 -302.659)" fill="none" stroke="#977c72" stroke-linecap="round" stroke-linejoin="round" stroke-width="1"/>
    <path id="Trazado_2620" data-name="Trazado 2620" d="M235.992,389.7s6.143-10.233,15.985-11.9" transform="translate(-229.652 -300.82)" fill="none" stroke="#977c72" stroke-linecap="round" stroke-linejoin="round" stroke-width="1"/>
    <path id="Trazado_2621" data-name="Trazado 2621" d="M341.294,385.52s13.445,13.122,15.088,25.751" transform="translate(-264.738 -303.394)" fill="none" stroke="#977c72" stroke-linecap="round" stroke-linejoin="round" stroke-width="1"/>
    <path id="Trazado_2622" data-name="Trazado 2622" d="M360.562,379.957s14.358.655,18.524,11.008" transform="translate(-271.158 -301.541)" fill="none" stroke="#977c72" stroke-linecap="round" stroke-linejoin="round" stroke-width="1"/>
    <path id="Trazado_2623" data-name="Trazado 2623" d="M308.456,385.65a8.758,8.758,0,0,0-2.839,7.964" transform="translate(-252.815 -303.438)" fill="none" stroke="#977c72" stroke-linecap="round" stroke-linejoin="round" stroke-width="1"/>
    <path id="Trazado_2624" data-name="Trazado 2624" d="M286.978,348.943s-1.195,7.45,2.391,11.78" transform="translate(-246.576 -291.207)" fill="none" stroke="#977c72" stroke-linecap="round" stroke-linejoin="round" stroke-width="1"/>
    <path id="Trazado_2625" data-name="Trazado 2625" d="M268.254,345.776s1.494,9.5,5.976,12.981" transform="translate(-240.401 -290.152)" fill="none" stroke="#977c72" stroke-linecap="round" stroke-linejoin="round" stroke-width="1"/>
    <path id="Trazado_2626" data-name="Trazado 2626" d="M253.467,349.672s4.482,8.4,9.86,10.513" transform="translate(-235.474 -291.45)" fill="none" stroke="#977c72" stroke-linecap="round" stroke-linejoin="round" stroke-width="1"/>
    <path id="Trazado_2627" data-name="Trazado 2627" d="M371.247,353.347s-5.008,7.2-10.685,9.856" transform="translate(-271.158 -292.674)" fill="none" stroke="#977c72" stroke-linecap="round" stroke-linejoin="round" stroke-width="1"/>
    <path id="Trazado_2628" data-name="Trazado 2628" d="M352.123,353.74s-.448,7.93-4.332,10.759" transform="translate(-266.903 -292.805)" fill="none" stroke="#977c72" stroke-linecap="round" stroke-linejoin="round" stroke-width="1"/>
    <path id="Trazado_2629" data-name="Trazado 2629" d="M376.586,364.453s7.093-1.111,10.081-3.528" transform="translate(-276.497 -295.199)" fill="none" stroke="#977c72" stroke-linecap="round" stroke-linejoin="round" stroke-width="1"/>
    <path id="Trazado_2630" data-name="Trazado 2630" stroke="#977c72" d="M228.613,349.7s9.646-10.563,17.322-11.206c2.89-.242,9.553,3.8,12.747,3.732s15.12.515,18.663,1.4,16.3,4.066,19.129,4.6,7.806-3.536,9.8-4.208c5.668-1.907,14.46-2.1,22.2.118,5.046,1.445,10.179,4.053,17.37,14.826" fill="none" transform="translate(-227.193 -287.721)" stroke-linecap="round" stroke-linejoin="round" stroke-width="0.5" stroke-dasharray="1"/>
    <path id="Trazado_2631" data-name="Trazado 2631" stroke="#977c72" d="M388.825,356.717s-3.854-9.013-8.59-12.627c-4.071-3.107-9.683-3.925-12.871-4.384s-14.552-1.673-21.328,2.324" fill="none" transform="translate(-266.318 -287.951)" stroke-linecap="round" stroke-linejoin="round" stroke-width="0.5" stroke-dasharray="1"/>
    <path id="Trazado_2632" data-name="Trazado 2632" d="M328.766,357.635a5.076,5.076,0,0,1,1.468,3.545c0,3.089-2.843,5.655-6.351,5.731s-6.351-2.366-6.351-5.456a5.213,5.213,0,0,1,1.085-3.151" transform="translate(-256.82 -294.103)" fill="none" stroke="#977c72" stroke-linecap="round" stroke-linejoin="round" stroke-width="2"/>
    <path id="Trazado_2633" data-name="Trazado 2633" d="M337.992,368.544s-10,5.28-12.831,6.045-9.683,2-13.51,2.905c-6.967,1.649-23.144-.34-26.8-.385a71.98,71.98,0,0,1-13.461-2.118,37.164,37.164,0,0,0-9.09-2.357c-6.025-.786-7.98-6.718-7.98-6.718s9.341-.223,12.283.518c4.294,1.081,14.044,3.259,19.665,4.174,3.964.646,19.791,1.52,24.562.736s9.085-1.262,14.336-1.883C326.747,369.275,333.395,367.467,337.992,368.544Z" transform="translate(-235.757 -296.852)" fill="none" stroke="#977c72" stroke-linecap="round" stroke-linejoin="round" stroke-width="1"/>
    <path id="Trazado_2634" data-name="Trazado 2634" d="M327.444,390.737a2.876,2.876,0,0,1-2.695,2.955,2.729,2.729,0,0,1-2.7-2.837,2.875,2.875,0,0,1,2.7-2.955A2.729,2.729,0,0,1,327.444,390.737Z" transform="translate(-258.327 -304.187)" fill="none" stroke="#977c72" stroke-linecap="round" stroke-linejoin="round" stroke-width="2"/>
    <path id="Trazado_2635" data-name="Trazado 2635" d="M327.444,378.181a2.876,2.876,0,0,1-2.695,2.955,2.729,2.729,0,0,1-2.7-2.837,2.876,2.876,0,0,1,2.7-2.955A2.729,2.729,0,0,1,327.444,378.181Z" transform="translate(-258.327 -300.003)" fill="none" stroke="#977c72" stroke-linecap="round" stroke-linejoin="round" stroke-width="2"/>
    <path id="Trazado_2636" data-name="Trazado 2636" d="M325.786,403.84a3.223,3.223,0,0,0-3.033-4.642,3.426,3.426,0,0,0-3.363,3.376,3.167,3.167,0,0,0,.331,1.4,6.673,6.673,0,0,0-3.657,5.885,6.436,6.436,0,0,0,6.689,6.374,6.782,6.782,0,0,0,6.689-6.665A6.327,6.327,0,0,0,325.786,403.84Zm-5.059-1.294a2.054,2.054,0,0,1,2.026-2.014,1.916,1.916,0,0,1,1.775,2.861,6.793,6.793,0,0,0-1.775-.2,6.9,6.9,0,0,0-1.776.278A1.873,1.873,0,0,1,320.727,402.546Z" transform="translate(-256.331 -307.952)" fill="none" stroke="#977c72" stroke-miterlimit="10" stroke-width="1"/>
    <path id="Trazado_2637" data-name="Trazado 2637" d="M326.415,396.721c0,1.683-.286,3.054-.638,3.061s-.639-1.351-.639-3.034.286-3.054.639-3.061S326.415,395.037,326.415,396.721Z" transform="translate(-259.355 -306.116)" fill="none" stroke="#977c72" stroke-linecap="round" stroke-linejoin="round" stroke-width="2"/>
    <path id="Trazado_2638" data-name="Trazado 2638" d="M326.342,384.513c0,1.308-.22,2.374-.491,2.379s-.492-1.05-.492-2.358.22-2.374.492-2.38S326.342,383.2,326.342,384.513Z" transform="translate(-259.428 -302.273)" fill="none" stroke="#977c72" stroke-linecap="round" stroke-linejoin="round" stroke-width="2"/>
    <path id="Trazado_2639" data-name="Trazado 2639" d="M326.342,371.234c0,1.308-.22,2.373-.491,2.379s-.492-1.049-.492-2.358.22-2.374.492-2.379S326.342,369.926,326.342,371.234Z" transform="translate(-259.428 -297.849)" fill="none" stroke="#977c72" stroke-linecap="round" stroke-linejoin="round" stroke-width="2"/>
    <path id="Trazado_2640" data-name="Trazado 2640" d="M321.856,409.811a.657.657,0,0,1-.611.679.624.624,0,0,1-.611-.653.658.658,0,0,1,.611-.68A.625.625,0,0,1,321.856,409.811Z" transform="translate(-257.854 -311.27)" fill="#302022" stroke="#977c72" stroke-miterlimit="10" stroke-width="1"/>
    <path id="Trazado_2641" data-name="Trazado 2641" d="M319.45,413.7a.658.658,0,0,1-.611.68.625.625,0,0,1-.611-.653.658.658,0,0,1,.611-.68A.624.624,0,0,1,319.45,413.7Z" transform="translate(-257.052 -312.566)" fill="#302022" stroke="#977c72" stroke-miterlimit="10" stroke-width="1"/>
    <path id="Trazado_2642" data-name="Trazado 2642" d="M322.36,417.785a.658.658,0,0,1-.611.68.624.624,0,0,1-.611-.654.657.657,0,0,1,.611-.68A.624.624,0,0,1,322.36,417.785Z" transform="translate(-258.022 -313.927)" fill="#302022" stroke="#977c72" stroke-miterlimit="10" stroke-width="1"/>
    <path id="Trazado_2643" data-name="Trazado 2643" d="M329.526,419.629a.658.658,0,0,1-.611.68.625.625,0,0,1-.611-.654.658.658,0,0,1,.611-.68A.625.625,0,0,1,329.526,419.629Z" transform="translate(-260.409 -314.542)" fill="#302022" stroke="#977c72" stroke-miterlimit="10" stroke-width="1"/>
    <path id="Trazado_2644" data-name="Trazado 2644" d="M328.276,415.508a.658.658,0,0,1-.611.68.624.624,0,0,1-.611-.653.658.658,0,0,1,.611-.68A.625.625,0,0,1,328.276,415.508Z" transform="translate(-259.993 -313.169)" fill="#302022" stroke="#977c72" stroke-miterlimit="10" stroke-width="1"/>
    <path id="Trazado_2645" data-name="Trazado 2645" d="M330.955,409.613a.658.658,0,0,1-.611.68.625.625,0,0,1-.611-.653.658.658,0,0,1,.611-.68A.625.625,0,0,1,330.955,409.613Z" transform="translate(-260.885 -311.204)" fill="#302022" stroke="#977c72" stroke-miterlimit="10" stroke-width="1"/>
    <path id="Trazado_2646" data-name="Trazado 2646" d="M324.608,412.266a.657.657,0,0,1-.611.679.624.624,0,0,1-.611-.653.658.658,0,0,1,.611-.68A.625.625,0,0,1,324.608,412.266Z" transform="translate(-258.771 -312.088)" fill="#302022" stroke="#977c72" stroke-miterlimit="10" stroke-width="1"/>
    <path id="Trazado_2647" data-name="Trazado 2647" d="M333.4,414.875a.658.658,0,0,1-.611.68.624.624,0,0,1-.611-.653.657.657,0,0,1,.611-.68A.624.624,0,0,1,333.4,414.875Z" transform="translate(-261.7 -312.958)" fill="#302022" stroke="#977c72" stroke-miterlimit="10" stroke-width="1"/>
    <path id="Trazado_2648" data-name="Trazado 2648" d="M324.924,421.729a.658.658,0,0,1-.611.68.624.624,0,0,1-.611-.653.658.658,0,0,1,.611-.68A.625.625,0,0,1,324.924,421.729Z" transform="translate(-258.876 -315.241)" fill="#302022" stroke="#977c72" stroke-miterlimit="10" stroke-width="1"/>
    <path id="Trazado_2649" data-name="Trazado 2649" d="M326.757,407.189a.658.658,0,0,1-.611.68.624.624,0,0,1-.611-.653.658.658,0,0,1,.611-.68A.624.624,0,0,1,326.757,407.189Z" transform="translate(-259.487 -310.397)" fill="#302022" stroke="#977c72" stroke-miterlimit="10" stroke-width="1"/>
    <path id="Trazado_2650" data-name="Trazado 2650" d="M285.823,328.338a6.44,6.44,0,0,1-7.353,5.108,6.113,6.113,0,0,1-5.6-6.741,6.441,6.441,0,0,1,7.353-5.108A6.113,6.113,0,0,1,285.823,328.338Z" transform="translate(-241.92 -282.077)" fill="none" stroke="#977c72" stroke-linecap="round" stroke-linejoin="round" stroke-width="2"/>
    <ellipse id="Elipse_527" data-name="Elipse 527" cx="6.551" cy="5.966" rx="6.551" ry="5.966" transform="translate(86.446 40.042) rotate(-5.551)" fill="none" stroke="#977c72" stroke-linecap="round" stroke-linejoin="round" stroke-width="2"/>
    <path id="Trazado_2651" data-name="Trazado 2651" d="M342.375,366.71a30.172,30.172,0,0,1-5.688.354c-2.544-.161-9.131.713-9.58.208s-3.293,1.035-4.49,1.807-8.232,1.97-9.879,2.006-4.94,1.749-7.185,1.8a10.6,10.6,0,0,0-5.238,1.308c-1.348.776-9.131.2-11.79-.341a119.447,119.447,0,0,0-12.459-.924c-2.545-.095-14.818-3.411-16.614-4.118s-8.532-1.158-10.478-1.862-6.286-4.64-7.634-4.462a23.626,23.626,0,0,1-2.6.113c-.319.327-2.033,2.086-3.386,3.6-1.5,1.674-3.207,3.819-5.688,9.08-2.352,4.988-2.1,10.494-1.048,16.741s3.285,19.691,4.49,21.7c1.714,2.851,16.315,7.408,26.643,9.573s16.535,2.34,31.8,2.157,27.022-3.285,35.7-5.562,14.968-4.654,16.914-6.339,3.742-18.74,4.79-24.435.749-11.51-.449-14.022S342.375,366.71,342.375,366.71Z" transform="translate(-226.939 -295.717)" fill="none" stroke="#977c72" stroke-linecap="round" stroke-linejoin="round" stroke-width="2"/>
    <path id="Trazado_2652" data-name="Trazado 2652" d="M273.707,337.845l.777-3.945s3.587,1.734,6.118,1.54,2.813-.622,2.813-.622l1.076,4.409S274.969,338.18,273.707,337.845Z" transform="translate(-242.218 -286.195)" fill="#fff" stroke="#977c72" stroke-linecap="round" stroke-linejoin="round" stroke-width="2"/>
    <g id="Grupo_1197" data-name="Grupo 1197" transform="translate(0 48.021)">
      <path id="Trazado_2653" data-name="Trazado 2653" d="M339.619,347.229c-3.657-3.918-12.6-7.832-20.248-8.719-6.57-.761-9.718.992-12.662,1.79-1.138.308-4.1,1.024-6.291,1.548a9.188,9.188,0,0,0-2.354,4.359c-1.5.331-3.443-2.314-4.191-2.895s-3.892.234-5.089.26a13.333,13.333,0,0,1-5.987-2.109c-2.4-1.441-6.885-1.194-9.281-1.441s-7.334-1.035-9.13-1.294a29.208,29.208,0,0,0-8.981-.551c-3.742.529-6.436-2.1-8.382-3.251s-6.586-.3-8.382.779-9.729,7.675-9.729,7.675-2.1.791-2.4,1.4,1.5,4.147,2.993,5.905,8.831,2.5,8.831,2.5l-.057.058a23.61,23.61,0,0,0,2.6-.113c1.348-.179,5.688,3.757,7.634,4.462s8.682,1.155,10.478,1.862,14.07,4.023,16.614,4.118a119.464,119.464,0,0,1,12.459.924c2.659.539,10.442,1.117,11.79.341a10.6,10.6,0,0,1,5.238-1.308c2.245-.049,5.538-1.762,7.185-1.8s8.681-1.234,9.879-2.006,4.042-2.312,4.49-1.807,7.035-.369,9.58-.208a30.173,30.173,0,0,0,5.688-.354,26.914,26.914,0,0,0,4.191.207,3.707,3.707,0,0,0,1.088-.372C344.566,354.587,342.046,349.829,339.619,347.229Z" transform="translate(-226.483 -334.374)" fill="none" stroke="#977c72" stroke-linecap="round" stroke-linejoin="round" stroke-width="2"/>
      <path id="Trazado_2654" data-name="Trazado 2654" d="M386.2,355.571c.9-2.409-3.143-9.038-6.137-12.108s-9.579-4.867-15.716-5.63-16.126.355-21.664,1.819a14.917,14.917,0,0,0-5.319,3.266c2.192-.523,5.153-1.24,6.291-1.548,2.944-.8,6.092-2.551,12.662-1.79,7.648.887,16.591,4.8,20.248,8.719,2.426,2.6,4.946,7.358,7.579,9.952A4.657,4.657,0,0,0,386.2,355.571Z" transform="translate(-263.428 -335.444)" fill="none" stroke="#977c72" stroke-linecap="round" stroke-linejoin="round" stroke-width="2"/>
    </g>
    <path id="Trazado_2655" data-name="Trazado 2655" d="M357.026,338.335l1.9-4.193s5.7,1.069,7.876.741l.631,3.984S359.419,337.941,357.026,338.335Z" transform="translate(-269.98 -286.275)" fill="#fff" stroke="#977c72" stroke-linecap="round" stroke-linejoin="round" stroke-width="2"/>
    <path id="Trazado_2656" data-name="Trazado 2656" d="M286.32,306.85a40.159,40.159,0,0,0-4.94-1.088c-2.368-.331-5.688-.921-5.688-.921s.3-6.724,1.348-9.434,3.443-5,4.64-6.519,4.64-10.549,6.736-13.73,7.768-10.061,13.49-11.786a20.648,20.648,0,0,1,15.4,1.009A26.943,26.943,0,0,1,328.08,274.6c2.173,3.558,4.49,11.546,4.49,11.546s5.239,3.469,6.287,7.178,2.695,10.988,2.695,10.988a22.516,22.516,0,0,0-5.239,1.606c-2.844,1.256-4.49,1.889-4.49,1.889a62.063,62.063,0,0,1-2.994-7.249,27.649,27.649,0,0,1-.418-10.483,15.5,15.5,0,0,0-1.677-8.43c-1.646-3.547-3.593-7.236-5.987-9.722s-6-5.364-10.628-5.74a17.164,17.164,0,0,0-14.07,5.829,38.738,38.738,0,0,0-6.586,10.293c-1.347,3.313-2.1,6.165-1.8,7.055s1.946,4.734,1.2,8.184S286.32,306.85,286.32,306.85Z" transform="translate(-242.88 -262.357)" fill="#fff" stroke="#977c72" stroke-linecap="round" stroke-linejoin="round" stroke-width="1"/>
    <path id="Trazado_2657" data-name="Trazado 2657" stroke="#977c72" d="M286.553,305.784l-8.216-1.444a53.092,53.092,0,0,1,.575-5.36,10.616,10.616,0,0,1,.5-1.974c.792-1.962,3.58-5.612,4.312-7.27,0,0,3.745-8.42,4.754-10.194,1.5-2.637,5.007-7.933,8.19-10.589a14.88,14.88,0,0,1,7.486-3.968c3.585-.772,8.148-1,11.449.461s8.262,4.336,11.033,8.327c3.2,4.612,5.889,13.926,5.889,13.926s4.476,3.719,5.262,5.7,2.984,10.708,2.984,10.708l-7.108,2.5s-2.908-7.016-2.908-9.368.191-6.766.349-8.73c0,0-1.632-5.236-2.418-6.825s-3.105-6.68-4.835-8.758a22.248,22.248,0,0,0-8.043-5.838c-2.791-1-6.445-1.976-9.9-1.118s-8.017,3.31-12.262,9.007c-3.508,4.709-4.008,5.849-5.384,10.229-1.332,4.24-1.022,4.882-1.022,4.882s1.73,4.822,1.336,6.909c-.168.894-.564,2.638-.962,4.337C287.085,303.6,286.553,305.784,286.553,305.784Z" fill="none" transform="translate(-243.761 -263.03)" stroke-linecap="round" stroke-linejoin="round" stroke-width="0.5" stroke-dasharray="1"/>
    <path id="Trazado_2658" data-name="Trazado 2658" stroke="#977c72" d="M285,311.648l2.866,5.436-8.775-1.905Z" fill="none" transform="translate(-244.012 -278.781)" stroke-linecap="round" stroke-linejoin="round" stroke-width="0.5" stroke-dasharray="1"/>
    <path id="Trazado_2659" data-name="Trazado 2659" stroke="#977c72" d="M358.745,318.617l7.715-2.684-5.077-3.249Z" fill="none" transform="translate(-270.552 -279.126)" stroke-linecap="round" stroke-linejoin="round" stroke-width="0.5" stroke-dasharray="1"/>
    <path id="Trazado_2660" data-name="Trazado 2660" d="M286.32,306.919a17.923,17.923,0,0,0-4.94-1.088,34.9,34.9,0,0,1-5.688-.921s.3-6.724,1.348-9.434,3.443-5,4.64-6.519,4.64-10.549,6.736-13.73,7.971-10.473,13.49-11.786,10.908-1.282,15.4,1.009a27.047,27.047,0,0,1,10.777,10.215,100.778,100.778,0,0,1,4.49,11.546s5.239,3.469,6.287,7.178,2.695,10.988,2.695,10.988a22.516,22.516,0,0,0-5.239,1.606c-2.844,1.256-4.49,1.889-4.49,1.889a62.063,62.063,0,0,1-2.994-7.249,20.769,20.769,0,0,1-.149-9.1c.449-1.2-.3-6.263-1.946-9.81s-3.593-7.236-5.987-9.722-6-5.364-10.628-5.74a17.164,17.164,0,0,0-14.07,5.829,38.738,38.738,0,0,0-6.586,10.293c-1.347,3.313-2.1,6.165-1.8,7.055s1.946,4.734,1.2,8.184S286.32,306.919,286.32,306.919Z" transform="translate(-242.88 -262.426)" fill="none" stroke="#977c72" stroke-linecap="round" stroke-linejoin="round" stroke-width="2"/>
    <path id="Trazado_2661" data-name="Trazado 2661" d="M319.144,346.29s.17,8.755,0,10.19l10.289,1.051s.373-.61.093-2.595c-.266-1.894-1.707-6.947-1.707-6.947S325.576,344.958,319.144,346.29Z" transform="translate(-257.358 -290.21)" fill="#fff" stroke="#977c72" stroke-linecap="round" stroke-linejoin="round" stroke-width="1"/>
    <path id="Trazado_2662" data-name="Trazado 2662" stroke="#977c72" d="M321.039,348.116l6.371,1.037,1.473,7.093-7.356-.575Z" fill="#fff" transform="translate(-257.989 -290.932)" stroke-linecap="round" stroke-linejoin="round" stroke-width="0.5" stroke-dasharray="1"/>
  </g>
</svg>
