<svg xmlns="http://www.w3.org/2000/svg" width="472.363" height="261.386" viewBox="0 0 472.363 261.386">
  <g id="Grupo_1118" data-name="Grupo 1118" transform="translate(-620.838 -622.943)">
    <path id="Trazado_1400" data-name="Trazado 1400" d="M649.05,153.624c-24.449-28.787-18.708-93.505-18.708-93.505H325.367s5.741,64.719-18.717,93.505c-24.45,28.769-40.278,47.477-58.977,60.426,15.838,21.579,46.046,73.375,46.046,73.375s59.7-32.523,99.98-26.773c40.287,5.768,69.762,38.273,84.151,59.852,14.389-21.579,43.882-54.084,84.16-59.852C602.289,254.9,662,287.426,662,287.426s30.209-51.8,46.037-73.375C689.346,201.1,673.517,182.393,649.05,153.624Z" transform="translate(373.165 562.824)" fill="#d5d5d5"/>
    <path id="Trazado_1398" data-name="Trazado 1398" d="M649.05,153.624c-24.449-28.787-18.708-93.505-18.708-93.505H325.367s5.741,64.719-18.717,93.505c-24.45,28.769-40.278,47.477-58.977,60.426,15.838,21.579,46.046,73.375,46.046,73.375s59.7-32.523,99.98-26.773c40.287,5.768,69.762,38.273,84.151,59.852,14.389-21.579,43.882-54.084,84.16-59.852C602.289,254.9,662,287.426,662,287.426s30.209-51.8,46.037-73.375C689.346,201.1,673.517,182.393,649.05,153.624Z" transform="translate(385.165 563.824)" fill="#9b8278"/>
    <path id="Trazado_1399" data-name="Trazado 1399" d="M535.932,127.272C518.373,106.6,522.5,60.119,522.5,60.119H303.471s4.123,46.479-13.442,67.153-28.927,34.1-42.356,43.4c11.374,15.5,33.069,52.7,33.069,52.7s42.876-23.357,71.8-19.227,50.1,27.487,60.435,42.984c10.334-15.5,31.515-38.842,60.442-42.984s71.809,19.227,71.809,19.227,21.7-37.2,33.063-52.7C564.871,161.369,553.5,147.933,535.932,127.272Z" transform="translate(450.036 584.545)" fill="none" stroke="rgba(199,173,139,0.65)" stroke-linecap="round" stroke-width="3" stroke-dasharray="10"/>
  </g>
</svg>
