<svg xmlns="http://www.w3.org/2000/svg" width="94.878" height="151.519" viewBox="0 0 94.878 151.519">
  <g id="Grupo_1134" data-name="Grupo 1134" transform="translate(0 0)">
    <path id="Trazado_1998" data-name="Trazado 1998" d="M41.862,380.715c.114-.438.254-.868.4-1.3.1-.306-.379-.436-.481-.132-.144.429-.285.858-.4,1.3A.25.25,0,0,0,41.862,380.715Z" transform="translate(-24.843 -293.515)" fill="#977c72"/>
    <path id="Trazado_1999" data-name="Trazado 1999" d="M40.064,383.79a7.365,7.365,0,0,1,.672-1.236c.178-.27-.254-.519-.43-.252a8.017,8.017,0,0,0-.724,1.356C39.459,383.955,39.942,384.082,40.064,383.79Z" transform="translate(-24.441 -294.197)" fill="#977c72"/>
    <path id="Trazado_2000" data-name="Trazado 2000" d="M38.668,387.311a2.324,2.324,0,0,1,.363-1.171c.172-.274-.26-.524-.43-.252a2.844,2.844,0,0,0-.433,1.423C38.157,387.632,38.656,387.631,38.668,387.311Z" transform="translate(-24.132 -294.992)" fill="#977c72"/>
    <path id="Trazado_2001" data-name="Trazado 2001" d="M38.8,389.987a.25.25,0,0,0-.5,0,6.348,6.348,0,0,0,.107,1.362c.068.314.549.18.481-.132A5.765,5.765,0,0,1,38.8,389.987Z" transform="translate(-24.161 -295.874)" fill="#977c72"/>
    <path id="Trazado_2002" data-name="Trazado 2002" d="M39.2,393.257q.148.448.3.9c.1.3.583.174.482-.132s-.2-.6-.3-.9S39.1,392.95,39.2,393.257Z" transform="translate(-24.358 -296.586)" fill="#977c72"/>
    <path id="Trazado_2003" data-name="Trazado 2003" d="M41.821,393.1a4.761,4.761,0,0,0-1.148.738c-.235.22.118.572.352.352a4.317,4.317,0,0,1,1.047-.661C42.359,393.386,42.107,392.956,41.821,393.1Z" transform="translate(-24.671 -296.612)" fill="#977c72"/>
    <path id="Trazado_2004" data-name="Trazado 2004" d="M44.4,392.145a.932.932,0,0,1,.31-.411c.271-.171.022-.6-.251-.43a1.38,1.38,0,0,0-.489.589C43.823,392.179,44.253,392.432,44.4,392.145Z" transform="translate(-25.413 -296.211)" fill="#977c72"/>
    <path id="Trazado_2005" data-name="Trazado 2005" d="M45.521,388.126c-.086.336-.188.667-.3,1-.1.306.378.435.481.132.112-.329.214-.66.3-1A.249.249,0,0,0,45.521,388.126Z" transform="translate(-25.694 -295.476)" fill="#977c72"/>
    <path id="Trazado_2006" data-name="Trazado 2006" d="M45.481,384.924a5.26,5.26,0,0,1,.091,1.132.249.249,0,0,0,.5,0,5.835,5.835,0,0,0-.108-1.264C45.893,384.477,45.413,384.61,45.481,384.924Z" transform="translate(-25.753 -294.735)" fill="#977c72"/>
    <path id="Trazado_2007" data-name="Trazado 2007" d="M45.777,383.229a3.127,3.127,0,0,1-.191-.931c-.01-.321-.509-.321-.5,0a3.6,3.6,0,0,0,.209,1.064C45.4,383.664,45.88,383.535,45.777,383.229Z" transform="translate(-25.668 -294.168)" fill="#977c72"/>
    <path id="Trazado_2008" data-name="Trazado 2008" d="M112.337,385.1c.087-.4.112-.8.2-1.2.069-.313-.412-.446-.481-.132-.088.4-.112.8-.2,1.2C111.787,385.279,112.268,385.412,112.337,385.1Z" transform="translate(-40.482 -294.509)" fill="#977c72"/>
    <path id="Trazado_2009" data-name="Trazado 2009" d="M112.06,388.768a1.3,1.3,0,0,1,0-.765.25.25,0,0,0-.481-.132,1.811,1.811,0,0,0,0,1.029A.249.249,0,0,0,112.06,388.768Z" transform="translate(-40.406 -295.419)" fill="#977c72"/>
    <path id="Trazado_2010" data-name="Trazado 2010" d="M112.718,389.922c-.1-.3-.587-.173-.481.132a4.832,4.832,0,0,0,1.061,1.805c.223.233.575-.12.353-.352A4.232,4.232,0,0,1,112.718,389.922Z" transform="translate(-40.565 -295.875)" fill="#977c72"/>
    <path id="Trazado_2011" data-name="Trazado 2011" d="M115.428,392.969c-.264-.185-.512.247-.252.43a7.621,7.621,0,0,1,.948.859.25.25,0,0,0,.352-.353A8.375,8.375,0,0,0,115.428,392.969Z" transform="translate(-41.196 -296.58)" fill="#977c72"/>
    <path id="Trazado_2012" data-name="Trazado 2012" d="M118.114,394.767c-.282-.154-.534.277-.251.43a.7.7,0,0,1,.31.31c.154.282.584.031.43-.252A1.161,1.161,0,0,0,118.114,394.767Z" transform="translate(-41.789 -296.981)" fill="#977c72"/>
    <path id="Trazado_2013" data-name="Trazado 2013" d="M118.843,394.438a9.46,9.46,0,0,0,.5-1c.138-.289-.291-.542-.43-.252a9.537,9.537,0,0,1-.5,1C118.241,394.458,118.672,394.709,118.843,394.438Z" transform="translate(-41.93 -296.61)" fill="#977c72"/>
    <path id="Trazado_2014" data-name="Trazado 2014" d="M120.35,390.243a4.828,4.828,0,0,0-.424,1.058c-.1.307.383.437.481.132a4.307,4.307,0,0,1,.373-.938C120.948,390.22,120.517,389.97,120.35,390.243Z" transform="translate(-42.272 -295.959)" fill="#977c72"/>
    <path id="Trazado_2015" data-name="Trazado 2015" d="M120.687,388.478a.25.25,0,0,0,.5,0v-.8a.25.25,0,0,0-.5,0Z" transform="translate(-42.444 -295.363)" fill="#977c72"/>
    <path id="Trazado_2016" data-name="Trazado 2016" d="M119.936,386.015c.176.266.608.016.43-.252a4.283,4.283,0,0,1-.474-.838c-.113-.3-.6-.169-.482.131A4.866,4.866,0,0,0,119.936,386.015Z" transform="translate(-42.157 -294.767)" fill="#977c72"/>
    <path id="Trazado_2017" data-name="Trazado 2017" d="M117.9,383.065c.121.207.279.388.4.6a.249.249,0,0,0,.43-.252c-.119-.208-.279-.389-.4-.6A.249.249,0,0,0,117.9,383.065Z" transform="translate(-41.817 -294.309)" fill="#977c72"/>
    <path id="Trazado_2018" data-name="Trazado 2018" d="M116.753,381.8c.266.183.515-.25.252-.43a.586.586,0,0,1-.175-.483c-.016-.32-.514-.321-.5,0A1.074,1.074,0,0,0,116.753,381.8Z" transform="translate(-41.477 -293.856)" fill="#977c72"/>
    <path id="Trazado_2019" data-name="Trazado 2019" d="M117.979,390.232a1.969,1.969,0,0,0-.239-1.156c-.008-.054-.013-.111-.025-.16a.218.218,0,0,0-.213-.177,1.437,1.437,0,0,0-.186-.2,1.142,1.142,0,0,0-1.387.128,1.387,1.387,0,0,0-.456,1.436c.153.563.7,1.264,1.352,1.1a.859.859,0,0,0,.172-.077A.953.953,0,0,0,117.979,390.232Zm-1.421.293c-.03-.015-.059-.033-.089-.051a1.577,1.577,0,0,0,.4.121c-.007.008-.011.018-.018.026l-.007,0A1.455,1.455,0,0,1,116.559,390.525Zm.694-1.312a1.857,1.857,0,0,1-.107.913c-.437-.017-.78-.146-.717-.646a.2.2,0,0,0-.048-.166c.009-.005.017-.013.026-.017a.235.235,0,0,0,.058-.366c.025-.012.046-.03.072-.039A.582.582,0,0,1,117.253,389.213Z" transform="translate(-41.276 -295.567)" fill="#977c72"/>
    <path id="Trazado_2020" data-name="Trazado 2020" d="M40.7,387.738a1.079,1.079,0,0,0-.075,1.229,1.643,1.643,0,0,0,.472.848,1.166,1.166,0,0,0,1.085.366c.514-.141.643-.764.686-1.216a1.489,1.489,0,0,0-.819-1.432A1.084,1.084,0,0,0,40.7,387.738Zm1.653,1.284a.233.233,0,0,0-.111.066.656.656,0,0,1-.947-.052.547.547,0,0,1,.043-.342.261.261,0,0,0-.051-.288.7.7,0,0,1,.2-.1.252.252,0,0,0,.113-.407,1.07,1.07,0,0,1,.429.21A1.007,1.007,0,0,1,42.352,389.022Z" transform="translate(-24.642 -295.352)" fill="#977c72"/>
    <path id="Trazado_2021" data-name="Trazado 2021" d="M79.215,419.262a1.327,1.327,0,0,0-.314.417,1.292,1.292,0,0,0,.138,1.506,1.349,1.349,0,0,0,2.271-.8A1.288,1.288,0,0,0,79.215,419.262Zm1.562,1.252a.772.772,0,0,1-.372.44.213.213,0,0,0,.042-.246c.125-.2-.181-.464-.407-.289a1.4,1.4,0,0,1-.142.1.587.587,0,0,1-.065-.79s0-.009.005-.012a.26.26,0,0,0,.114-.264A.834.834,0,0,1,80.777,420.514Z" transform="translate(-33.131 -302.357)" fill="#977c72"/>
    <path id="Trazado_2022" data-name="Trazado 2022" d="M78.612,417.989a11.4,11.4,0,0,1,.6-1.1c.174-.272-.257-.521-.43-.252a11.234,11.234,0,0,0-.6,1.1C78.039,418.024,78.469,418.277,78.612,417.989Z" transform="translate(-33.005 -301.817)" fill="#977c72"/>
    <path id="Trazado_2023" data-name="Trazado 2023" d="M77.269,419.588a4.183,4.183,0,0,0-.523,1.157.25.25,0,0,0,.482.132,3.73,3.73,0,0,1,.472-1.037C77.874,419.569,77.442,419.319,77.269,419.588Z" transform="translate(-32.691 -302.471)" fill="#977c72"/>
    <path id="Trazado_2024" data-name="Trazado 2024" d="M76.723,424.326a2.959,2.959,0,0,1,.091-.831.25.25,0,0,0-.481-.132,3.459,3.459,0,0,0-.108.963A.249.249,0,0,0,76.723,424.326Z" transform="translate(-32.577 -303.295)" fill="#977c72"/>
    <path id="Trazado_2025" data-name="Trazado 2025" d="M77.077,426.888c-.136-.29-.566-.037-.43.252a7.455,7.455,0,0,0,.4.8c.17.272.6.023.43-.252A7.369,7.369,0,0,1,77.077,426.888Z" transform="translate(-32.665 -304.088)" fill="#977c72"/>
    <path id="Trazado_2026" data-name="Trazado 2026" d="M79.008,431.347a2.593,2.593,0,0,0-.563-1.307c-.217-.237-.569.116-.352.353a2.144,2.144,0,0,1,.434,1.086C78.591,431.794,79.072,431.66,79.008,431.347Z" transform="translate(-32.977 -304.798)" fill="#977c72"/>
    <path id="Trazado_2027" data-name="Trazado 2027" d="M78.924,433.361a5.25,5.25,0,0,1,.091,1.131.25.25,0,0,0,.5,0,5.868,5.868,0,0,0-.109-1.263C79.336,432.915,78.856,433.048,78.924,433.361Z" transform="translate(-33.175 -305.484)" fill="#977c72"/>
    <path id="Trazado_2028" data-name="Trazado 2028" d="M79.743,416.874a1.192,1.192,0,0,1,.548.486c.181.261.614.013.43-.253a1.773,1.773,0,0,0-.846-.714C79.575,416.277,79.447,416.759,79.743,416.874Z" transform="translate(-33.321 -301.784)" fill="#977c72"/>
    <path id="Trazado_2029" data-name="Trazado 2029" d="M81.684,417.923c-.177-.266-.608-.016-.43.252a6.439,6.439,0,0,0,.737.948c.224.231.577-.121.352-.352A5.816,5.816,0,0,1,81.684,417.923Z" transform="translate(-33.684 -302.102)" fill="#977c72"/>
    <path id="Trazado_2030" data-name="Trazado 2030" d="M83.741,422.02a3.458,3.458,0,0,0-.108-.963.25.25,0,0,0-.481.132,2.952,2.952,0,0,1,.09.83A.25.25,0,0,0,83.741,422.02Z" transform="translate(-34.112 -302.784)" fill="#977c72"/>
    <path id="Trazado_2031" data-name="Trazado 2031" d="M84.05,424.647a5.58,5.58,0,0,1,.091,1.231.25.25,0,0,0,.5,0,6.2,6.2,0,0,0-.109-1.363C84.461,424.2,83.98,424.334,84.05,424.647Z" transform="translate(-34.312 -303.55)" fill="#977c72"/>
    <path id="Trazado_2032" data-name="Trazado 2032" d="M84.169,427.912v1.2a.25.25,0,0,0,.5,0v-1.2A.25.25,0,0,0,84.169,427.912Z" transform="translate(-34.34 -304.29)" fill="#977c72"/>
    <path id="Trazado_2033" data-name="Trazado 2033" d="M83.58,431.179c-.107.43-.21.862-.3,1.3-.065.314.416.448.481.132.089-.434.191-.865.3-1.3A.25.25,0,0,0,83.58,431.179Z" transform="translate(-34.142 -305.029)" fill="#977c72"/>
    <path id="Trazado_2034" data-name="Trazado 2034" d="M77.592,449.775a2.184,2.184,0,0,0-.465.808c-.107.3.375.433.482.132a1.575,1.575,0,0,1,.335-.587C78.163,449.892,77.812,449.539,77.592,449.775Z" transform="translate(-32.774 -309.178)" fill="#977c72"/>
    <path id="Trazado_2035" data-name="Trazado 2035" d="M83.619,449.431a2.328,2.328,0,0,0-.563-.809.25.25,0,0,0-.352.353,1.735,1.735,0,0,1,.435.587C83.255,449.858,83.737,449.729,83.619,449.431Z" transform="translate(-33.998 -308.923)" fill="#977c72"/>
    <path id="Trazado_2036" data-name="Trazado 2036" d="M83.308,451.1a.868.868,0,0,1,.075.605c-.075.313.405.444.481.132a1.43,1.43,0,0,0-.126-.99C83.6,450.558,83.174,450.811,83.308,451.1Z" transform="translate(-34.143 -309.405)" fill="#977c72"/>
    <path id="Trazado_2037" data-name="Trazado 2037" d="M27.554,444.01a1.775,1.775,0,0,1-.674-.165c-.29-.132-.544.3-.251.43a2.442,2.442,0,0,0,.925.233C27.875,444.523,27.874,444.025,27.554,444.01Z" transform="translate(-21.543 -307.874)" fill="#977c72"/>
    <path id="Trazado_2038" data-name="Trazado 2038" d="M30.926,445.268l-.9-.3c-.306-.1-.436.38-.132.48s.6.2.9.3S31.23,445.368,30.926,445.268Z" transform="translate(-22.258 -308.126)" fill="#977c72"/>
    <path id="Trazado_2039" data-name="Trazado 2039" d="M32.649,446.662a.249.249,0,0,0-.251.43,3.19,3.19,0,0,1,.648.559.249.249,0,0,0,.352-.352A3.7,3.7,0,0,0,32.649,446.662Z" transform="translate(-22.825 -308.497)" fill="#977c72"/>
    <path id="Trazado_2040" data-name="Trazado 2040" d="M34.959,449.4a2.546,2.546,0,0,0-.464-.908c-.212-.244-.563.11-.352.352a1.943,1.943,0,0,1,.335.687C34.581,449.834,35.063,449.7,34.959,449.4Z" transform="translate(-23.224 -308.892)" fill="#977c72"/>
    <path id="Trazado_2041" data-name="Trazado 2041" d="M35.884,452.462a2.237,2.237,0,0,1-.165-.971.249.249,0,0,0-.5,0,2.807,2.807,0,0,0,.233,1.223C35.587,453.006,36.017,452.753,35.884,452.462Z" transform="translate(-23.478 -309.523)" fill="#977c72"/>
    <path id="Trazado_2042" data-name="Trazado 2042" d="M36.58,456.395a3.377,3.377,0,0,1-.091-.931.25.25,0,0,0-.5,0,3.908,3.908,0,0,0,.108,1.064A.25.25,0,0,0,36.58,456.395Z" transform="translate(-23.649 -310.404)" fill="#977c72"/>
    <path id="Trazado_2043" data-name="Trazado 2043" d="M36.848,459.617a1.973,1.973,0,0,0-.135-.826c-.128-.293-.558-.04-.43.252a1.426,1.426,0,0,1,.067.573A.25.25,0,0,0,36.848,459.617Z" transform="translate(-23.708 -311.167)" fill="#977c72"/>
    <path id="Trazado_2044" data-name="Trazado 2044" d="M124.129,458.089a5.241,5.241,0,0,0-.109,1.162.25.25,0,0,0,.5,0,4.628,4.628,0,0,1,.091-1.03C124.681,457.907,124.2,457.774,124.129,458.089Z" transform="translate(-43.183 -311)" fill="#977c72"/>
    <path id="Trazado_2045" data-name="Trazado 2045" d="M124.393,455.333a1.828,1.828,0,0,0-.124,1.289.249.249,0,0,0,.481-.132,1.278,1.278,0,0,1,.074-.9C124.952,455.293,124.523,455.039,124.393,455.333Z" transform="translate(-43.224 -310.4)" fill="#977c72"/>
    <path id="Trazado_2046" data-name="Trazado 2046" d="M124.993,452a3.239,3.239,0,0,0-.335,1.323.25.25,0,0,0,.5,0,2.589,2.589,0,0,1,.267-1.071C125.561,451.966,125.131,451.712,124.993,452Z" transform="translate(-43.325 -309.661)" fill="#977c72"/>
    <path id="Trazado_2047" data-name="Trazado 2047" d="M125.671,449.646a1.515,1.515,0,0,0-.37.973c-.016.321.483.32.5,0a.956.956,0,0,1,.225-.621C126.233,449.756,125.882,449.4,125.671,449.646Z" transform="translate(-43.467 -309.148)" fill="#977c72"/>
    <path id="Trazado_2048" data-name="Trazado 2048" d="M127.263,447.016a.935.935,0,0,0-.682.841c-.024.321.475.319.5,0a.411.411,0,0,1,.316-.36C127.692,447.382,127.563,446.9,127.263,447.016Z" transform="translate(-43.751 -308.579)" fill="#977c72"/>
    <path id="Trazado_2049" data-name="Trazado 2049" d="M129.2,445.507a5.037,5.037,0,0,0-.748.537c-.235.221.118.573.352.353a4.4,4.4,0,0,1,.647-.459C129.717,445.764,129.467,445.332,129.2,445.507Z" transform="translate(-44.149 -308.239)" fill="#977c72"/>
    <path id="Trazado_2050" data-name="Trazado 2050" d="M131.707,444.459c-.367.092-.735.181-1.1.3-.3.1-.175.579.132.48.361-.116.729-.206,1.1-.3A.249.249,0,0,0,131.707,444.459Z" transform="translate(-44.607 -308.014)" fill="#977c72"/>
    <path id="Trazado_2051" data-name="Trazado 2051" d="M134.1,443.817a2.5,2.5,0,0,1-.732.089.25.25,0,0,0,0,.5,2.942,2.942,0,0,0,.864-.108A.249.249,0,0,0,134.1,443.817Z" transform="translate(-45.204 -307.871)" fill="#977c72"/>
    <path id="Trazado_2052" data-name="Trazado 2052" d="M136.961,443.56a4.575,4.575,0,0,1-1.029.092.249.249,0,0,0,0,.5,5.19,5.19,0,0,0,1.162-.109C137.407,443.969,137.273,443.489,136.961,443.56Z" transform="translate(-45.773 -307.815)" fill="#977c72"/>
    <path id="Trazado_2053" data-name="Trazado 2053" d="M139.55,443.424a2.318,2.318,0,0,0-.864.107c-.295.118-.167.6.132.481a1.938,1.938,0,0,1,.732-.09A.249.249,0,0,0,139.55,443.424Z" transform="translate(-46.401 -307.786)" fill="#977c72"/>
    <path id="Trazado_2054" data-name="Trazado 2054" d="M114.709,404.749a1.177,1.177,0,0,1-.185.051,33.751,33.751,0,0,0-1.035-8.6c-.53-2.349-1.276-4.6-1.962-6.857a.151.151,0,0,0,.1-.226c-.1-.16-.205-.31-.307-.466a33.777,33.777,0,0,1-1.527-7.639c-.195-3.219-.181-6.766-2.1-9.5a.5.5,0,0,0,.03-.568.488.488,0,0,0,.06-.352c-1.044-5.2-3.047-10.281-2.53-15.661a26.133,26.133,0,0,0-.068-.591c-1.464-2.5-6.486.209-8.476.77-.105-.1-.21-.19-.316-.277,1.4-1.775.233-5.2-2.168-5.325a.446.446,0,0,0-.261.068c-.913-7.36-3-14.686-4.245-22-1.495-8.8-1.843-17.713-3.1-26.54-1.122-7.867-3.578-15.447-8.294-21.892-3.024-4.133-6.887-9.151-12.271-9.966-5.071-.766-8.312,4.29-10.259,8.12a136.884,136.884,0,0,0-8.242,20.781c-2.81,8.954-5.256,18.088-7.373,27.229-1.089,4.7-2.013,9.445-2.955,14.18-.637,3.2-1.763,6.434-1.66,9.709a2.273,2.273,0,0,0-1.89,1.486A2.682,2.682,0,0,0,34.7,354.01a.437.437,0,0,0,.406.047,1.571,1.571,0,0,0,.223.243,13.575,13.575,0,0,0-3.311-.736.62.62,0,0,0-.111-.507c-1.71-2.188-3.971-3.841-5.943-5.774a.515.515,0,0,0-.6-.078,6.577,6.577,0,0,0-1.8,1.267.506.506,0,0,0,.1.783,53.658,53.658,0,0,1,5.265,4.3,14.713,14.713,0,0,0-1.58.222.463.463,0,0,0-.236.773c-.724,5.1-.865,10.26-2.49,15.2a.437.437,0,0,0,.011.312c-.039.025-.082.044-.121.068a.512.512,0,0,0-.06.805l0,0a70.221,70.221,0,0,0-4.077,23.172.173.173,0,0,0-.24.19,5.139,5.139,0,0,0,.154.573c.019.163.042.324.072.486,0,1.164.023,2.319.071,3.458.3,7.209,1.76,16.361,9.017,19.7a14.574,14.574,0,0,0,3.621,1.064c0,.012.006.023.01.036a.26.26,0,0,0,.468.047,43.923,43.923,0,0,0,4.4.373c.236.012.472.016.708.026l.261.236c.151.136.366-.075.239-.216,4.711.191,9.443.2,14.153.176q6.1-.027,12.192.056c.026.007.049.019.075.026a.138.138,0,0,0,.134-.026q6.445.08,12.895.227c10.344.224,24.418.566,32.429-7.189a11.835,11.835,0,0,0,3.466-8.031,1.48,1.48,0,0,0,.34-.087C115.135,405.112,115.007,404.63,114.709,404.749Zm-1.148-1.909c-.6,0-1.212.012-1.831.033a.153.153,0,0,0,0-.227c-.256-.249-.524-.494-.8-.738-.2-1.177-.443-2.348-.65-3.524q1.052,1.138,2.053,2.326c.061.255.121.511.184.766a.164.164,0,0,0,.316-.086c-.011-.046-.021-.09-.033-.136l.026.03c.134.163.365-.069.232-.232s-.285-.328-.424-.494q-.251-1.061-.463-2.126c.252.321.516.632.762.958a.173.173,0,0,0,.253.023A26.091,26.091,0,0,1,113.561,402.841Zm-16.443-4.116a22.083,22.083,0,0,0,5.687,6.547,8.913,8.913,0,0,0-1.055.9,5.711,5.711,0,0,0-.9,1.239,35.1,35.1,0,0,1-7.862-7.02c-.136-.162-.367.072-.232.233A35.382,35.382,0,0,0,100.7,407.7a10.059,10.059,0,0,0-.416.923,7.852,7.852,0,0,0-.486-.757c-.124-.168-.408,0-.283.166a8.643,8.643,0,0,1,.622,1.01c-.093.27-.18.545-.259.83-1.186-1.169-2.469-2.239-3.562-3.5-.139-.16-.37.072-.232.232,1.134,1.31,2.47,2.418,3.692,3.638-.01.04-.018.08-.027.119a.235.235,0,0,0-.123-.034,3.3,3.3,0,0,1-.933-.09.249.249,0,0,0-.132.48,3.772,3.772,0,0,0,1.065.108c.006,0,.011,0,.017,0-.065.3-.124.609-.174.92a6.914,6.914,0,0,0-1.488-.329c-4.021-2.81-7.905-5.8-11.8-8.788-.168-.128-.331.156-.166.283,3.738,2.863,7.465,5.737,11.313,8.449-.57-.034-1.141-.034-1.7-.034q-.494-.387-.975-.786a3.845,3.845,0,0,1,.721.082c.313.071.446-.409.132-.481a5.215,5.215,0,0,0-1.164-.109.223.223,0,0,0-.188.091,19.754,19.754,0,0,1-2.752-2.816c-.129-.167-.36.068-.232.233a22.939,22.939,0,0,0,3.932,3.785q-1.8-.008-3.608-.009c-.251-.186-.51-.359-.757-.552-.165-.128-.4.1-.232.233.142.111.293.21.437.318-1.086,0-2.172-.009-3.259-.011-.29-.233-.574-.473-.86-.711a4.361,4.361,0,0,0,.907-.071c.316-.058.182-.538-.132-.481a3.169,3.169,0,0,1-1.264,0,.241.241,0,0,0-.156.019,62.162,62.162,0,0,1-6.607-6.607c-.138-.16-.369.072-.232.233a62.3,62.3,0,0,0,6.7,6.685.212.212,0,0,0,.166.152l.022,0c.31.263.624.521.939.776-.941,0-1.881,0-2.821-.012h-.082c-.195-.186-.391-.371-.584-.559h.9a.249.249,0,0,0,0-.5h-1.2a.23.23,0,0,0-.145.051c-.753-.749-1.492-1.513-2.2-2.312-.14-.158-.371.075-.232.233.952,1.075,1.957,2.1,2.988,3.091-1.574,0-3.15.038-4.726.107-.216-.138-.431-.282-.647-.423a.247.247,0,0,0-.223-.348h-.3a20.314,20.314,0,0,1-3.2-2.621c2.567-3.624,1.162-10.34-3.279-11.952a20.6,20.6,0,0,0,.317-6.106,9.488,9.488,0,0,0-1.453-4.358c.079-3.553-.6-7.044-.675-10.587a108.6,108.6,0,0,0,16.61-2.428c4.051-.929,8.672-2.148,13.133-2.246a.479.479,0,0,0-.005.068c.686,5.586,2.1,11.05,2.719,16.643a66.01,66.01,0,0,0,1.417,7.371,8.789,8.789,0,0,1-.73-1.788.164.164,0,0,0-.316.086,9.461,9.461,0,0,0,1.275,2.713,42.153,42.153,0,0,1,1.023,6.409,12.715,12.715,0,0,1-3.992-4.464c-.095-.189-.377-.023-.283.166a13.118,13.118,0,0,0,4.3,4.721c.025.53.039,1.062.027,1.6a.456.456,0,0,0,.084.275,10.275,10.275,0,0,0-1.769.951,21.843,21.843,0,0,1-5.679-6.514C97.3,398.374,97.016,398.539,97.117,398.725Zm2.572,19.528c-1.265-1.4-3.175-2.051-4.284-3.608-.121-.17-.406-.007-.283.166,1.092,1.533,2.916,2.208,4.2,3.533-1.057.247-2.137.45-3.23.614a.131.131,0,0,0-.043-.092c-1.37-1.192-3.018-2-4.388-3.191-.159-.137-.391.094-.232.233,1.335,1.16,2.93,1.962,4.277,3.1-1.171.165-2.355.291-3.54.383a27.558,27.558,0,0,1-4.924-2.417.164.164,0,0,0-.166.283,32.36,32.36,0,0,0,4.29,2.19c-2.205.146-4.4.187-6.52.182-.362-.164-.719-.332-1.075-.5-1.9-1.407-4.655-2.814-5.843-4.971.826-.038,1.653-.071,2.479-.1,2.377,2.779,5.927,4.057,9.195,5.466.192.083.359-.2.166-.282-3.151-1.359-6.566-2.6-8.921-5.2.584-.023,1.166-.047,1.75-.068a65.757,65.757,0,0,0,6.741,3.557c.191.089.358-.195.166-.282a69.2,69.2,0,0,1-6.277-3.3c1.113-.036,2.227-.055,3.34-.071,1.9,1.722,3.833,3.418,5.661,5.222.15.148.382-.084.231-.233-1.748-1.726-3.59-3.354-5.414-5,.216,0,.431-.011.646-.012,2.246,1.615,4.354,3.4,6.531,5.11.165.128.4-.1.232-.233-2.078-1.628-4.1-3.33-6.226-4.89q1.084-.02,2.191-.073c.07.049.143.092.214.141a4.29,4.29,0,0,0,2.02,2.26,35.311,35.311,0,0,0,4.526,2.421c.189.093.356-.19.166-.283-1.055-.521-2.12-1.02-3.152-1.586-.967-.53-2.666-1.375-3.152-2.544a50.39,50.39,0,0,0,7.07,4.016c.191.088.357-.194.166-.282a50.2,50.2,0,0,1-7.3-4.167c1.089-.051,2.187-.1,3.282-.114,1.564,1.033,3.135,2.053,4.614,3.21.164.128.4-.1.231-.233-1.372-1.072-2.824-2.027-4.277-2.984a25.5,25.5,0,0,1,3.5.223c.138.111.278.221.415.335.161.133.392-.1.233-.231.089.016.18.025.269.042a11.679,11.679,0,0,0,.444,4.085.539.539,0,0,0,.093.156Zm-18.382,1.341c-1.772-.844-3.763-1.5-5.465-2.505l-.287-.187a9.021,9.021,0,0,1-1.577-1.226.153.153,0,0,0-.246.042q-.977-.632-1.941-1.283,1.86-.076,3.723-.16A33.226,33.226,0,0,0,83,419.125a11.064,11.064,0,0,1-5.167-2.653c-.148-.152-.379.079-.232.233a11.923,11.923,0,0,0,5.655,2.833.159.159,0,0,0,.191-.2l.152.073c.049.037.1.072.149.109a.125.125,0,0,0,.125.023l.177.085C83.116,419.623,82.2,419.609,81.308,419.594Zm-6.37-.134c-.77-.019-1.54-.035-2.309-.055-2.477-1.572-4.976-3.091-7.359-4.76q1.419-.037,2.839-.079A39.383,39.383,0,0,0,74.938,419.46Zm-6.385-.153c-1.043-.782-2.207-1.407-3.248-2.2-.169-.128-.332.157-.166.283.906.686,1.906,1.25,2.838,1.9l-.732-.014c-2.4-1.5-4.9-2.935-7.313-4.483q1.283-.043,2.568-.08c2.4,1.706,5.024,3.157,7.513,4.62Zm-3.614-.066a44.026,44.026,0,0,1-3.59-2.768c-.159-.138-.391.093-.232.233,1.034.9,2.135,1.724,3.251,2.524l-.685-.007a34.932,34.932,0,0,1-6.157-4.328q.921-.041,1.841-.074c2.381,1.544,4.855,2.972,7.242,4.45C66.051,419.26,65.495,419.248,64.939,419.241ZM59.62,419a33.915,33.915,0,0,0-4.861-3.961l.184-.011c1.982,1.45,4.013,2.838,6.071,4.188-.464,0-.927-.006-1.39,0A.15.15,0,0,0,59.62,419ZM53.4,414.118c-.128-.083-.254-.169-.381-.252l.368,0c.1.078.2.159.3.236ZM43.788,419.4q-1.126-.017-2.249-.058a.144.144,0,0,0-.029-.239,24.77,24.77,0,0,1-5.091-3.371c.894-.09,1.79-.144,2.687-.181A38.365,38.365,0,0,0,43.788,419.4ZM21.42,390.923a13.413,13.413,0,0,0,1.786,3.68c.121.172.4.008.283-.165a13.8,13.8,0,0,1-2-4.469c.006-.093.015-.187.022-.279.881,2.888,2.863,5.429,4.483,7.971a.164.164,0,0,0,.282-.013c-.037,1.034-.04,2.057-.018,3.073A18.929,18.929,0,0,1,21.4,391.59C21.409,391.367,21.407,391.147,21.42,390.923Zm2.069-.076a9.839,9.839,0,0,1-1.7-4.037c0-.006-.005-.007-.006-.012.03-.263.067-.526.1-.789a15.452,15.452,0,0,0,2.525,5.8c.117.174.4.01.283-.166a13.655,13.655,0,0,1-2.623-7.11c.01-.067.016-.134.026-.2.759,3.281,2.591,6.341,4.442,9.227-.106,1.312-.2,2.628-.247,3.936v0c-1.769-2.775-4-5.561-4.687-8.812.025-.291.04-.581.068-.872a11.647,11.647,0,0,0,1.542,3.2C23.321,391.19,23.6,391.026,23.489,390.848Zm3.971,13.176a48.97,48.97,0,0,1,.025-8.978c.136.211.272.422.406.632a62.545,62.545,0,0,0-.072,8.442C27.7,404.088,27.582,404.054,27.46,404.024Zm.948-19.9c.106.246.219.491.328.736-.05.623-.114,1.246-.154,1.87-.074,1.148-.167,2.3-.262,3.458q-.189-.321-.373-.643c.054-.657.1-1.31.145-1.952C28.166,386.429,28.28,385.273,28.409,384.121Zm-2.646-8.395c-.294-1-.577-2-.843-3,0-.024,0-.048-.006-.072.167-.483.32-.976.5-1.449a.4.4,0,0,0-.047-.4c.154-.087.305-.177.468-.252-.405,2.026.662,4.18,1.488,5.968.27.584.563,1.162.864,1.737-.164,1.1-.324,2.192-.472,3.29-.728-1.9-1.365-3.841-1.947-5.8v0Zm4.129-2.306c.033.086.069.172.105.259q-.4,2.892-.731,5.79c-.068-.117-.132-.236-.2-.353C29.346,377.218,29.633,375.321,29.892,373.42Zm.1-.74c.126-.968.244-1.938.341-2.911.071,0,.14,0,.212,0q-.228,1.618-.451,3.234C30.054,372.9,30.021,372.788,29.989,372.68Zm-1.722,5.011c-1.139-2.065-2.642-4.859-2.1-7.187a.146.146,0,0,0-.015-.082,9.946,9.946,0,0,1,3.182-.634C29.064,372.435,28.663,375.063,28.267,377.691Zm.718,1.99c.073.125.141.253.216.377q-.233,2.055-.408,4.119c-.1-.24-.21-.478-.31-.719C28.631,382.2,28.8,380.937,28.985,379.681Zm-.71,11.062c-.122,1.459-.244,2.923-.345,4.388l-.4-.625c.117-1.478.251-2.947.373-4.392C28.022,390.324,28.148,390.534,28.275,390.743Zm.917,1.47q.519.8,1.059,1.594c.119.174.4.009.283-.166q-.665-.972-1.3-1.967c.1-1.209.2-2.417.271-3.62.027-.441.072-.879.1-1.32.572,1.176,1.176,2.34,1.838,3.484a.165.165,0,0,0,.284-.166c-.752-1.3-1.436-2.617-2.072-3.957q.177-2.326.418-4.643c.564.863,1.148,1.711,1.77,2.518.128.165.412,0,.283-.165-.716-.929-1.375-1.9-2-2.893q.3-2.815.661-5.626c.857,1.516,1.906,2.975,2.513,4.3.089.191.37.025.283-.166-.656-1.426-1.842-3.031-2.727-4.684q.32-2.442.664-4.888c0-.009,0-.016,0-.025a43.28,43.28,0,0,1,8.9,1.9c7.266,2.2,14.241,3.674,21.869,3.588.177,0,.355-.01.531-.012.041,3.5.286,6.989.324,10.487a11.008,11.008,0,0,0-.913,3.052c-.293,2.194,1.263,4.588,1.875,6.836-4.57,1.208-6.311,6.209-4.77,10.426a8.029,8.029,0,0,0,3.119,3.7.41.41,0,0,0-.087.59,2.17,2.17,0,0,1,.51,1.021,9.088,9.088,0,0,1-.05,1.142l-.333.023c-.156-.127-.315-.25-.47-.379a4.167,4.167,0,0,1,.5-.071c.321-.014.321-.513,0-.5-.238.01-.463.084-.7.1a.241.241,0,0,0-.2.122,32.522,32.522,0,0,1-2.81-2.681c-.143-.156-.375.077-.232.233A33.7,33.7,0,0,0,62,412.6c-.531.032-1.063.058-1.594.085q-.159-.137-.315-.275a.248.248,0,0,0-.058-.486h-.471a18.557,18.557,0,0,1-3.375-4.187.164.164,0,0,0-.283.166,18.61,18.61,0,0,0,3.219,4.049.252.252,0,0,0,.114.471h.375c.107.1.219.191.328.287-.215.01-.43.025-.644.034-.772.032-1.544.048-2.316.068a29.538,29.538,0,0,1-7.307-7.2c-.118-.174-.4-.01-.283.166a29.462,29.462,0,0,0,7.074,7.05q-1.9.046-3.8.067c-.254-.2-.512-.391-.763-.591.184.016.37.019.558.019a.25.25,0,0,0,0-.5,3.327,3.327,0,0,1-.933-.09.22.22,0,0,0-.234.064A60.6,60.6,0,0,1,43,403.711c-.135-.163-.366.07-.232.232a62.343,62.343,0,0,0,9.366,8.953l-.616.008c-.993-.632-1.988-1.26-2.968-1.906-.177-.118-.341.167-.166.282.327.216.657.427.986.639h-.4a.25.25,0,0,0,0,.5h.9a.229.229,0,0,0,.171-.071l.886.564q-1.793.019-3.585.051c-.264-.214-.524-.432-.785-.649a3.655,3.655,0,0,0,.986-.1.249.249,0,0,0-.132-.48,3.8,3.8,0,0,1-1.032.09.228.228,0,0,0-.226.16c-1.058-.885-2.106-1.786-3.129-2.72-2.96-2.7-6.515-5.149-8.5-8.705-.1-.184-.386-.019-.283.166,1.822,3.266,4.884,5.4,7.6,7.875q2.484,2.258,5.05,4.378c-.763.015-1.525.026-2.288.051-.148,0-.307,0-.459.008a21.985,21.985,0,0,1-3.532-3.473c-.132-.166-.362.068-.232.233a21.667,21.667,0,0,0,3.255,3.249c-1.173.013-2.421,0-3.685.035a43.778,43.778,0,0,1-10.48-12.522.164.164,0,0,0-.283.166,44.174,44.174,0,0,0,10.256,12.37c-.676.023-1.349.064-2.014.132-.082-.1-.168-.2-.249-.3-.127-.165-.412,0-.283.165.05.065.1.125.153.188a15.209,15.209,0,0,0-2.5.493c-.132-.17-.274-.333-.4-.51-.01-.115-.022-.23-.032-.345a.222.222,0,0,0,.055,0,3.051,3.051,0,0,0,1.506-.762c.233-.222-.119-.573-.352-.352a2.562,2.562,0,0,1-1.258.626,11.745,11.745,0,0,0-1.671-5.451,6.913,6.913,0,0,0-3.587-2.536.376.376,0,0,0,.01-.075A77.4,77.4,0,0,1,29.192,392.213Zm69.851-32.278c1.939,2.67-1.028,5.96-2.168,8.645-2.162-1.553-4.984-2.781-5.956-5.346-.688-1.814,0-5.7.538-7.593q.237-.095.5-.181c-.026.258-.057.516-.065.777a.25.25,0,0,0,.5,0c.009-.312.051-.619.077-.929a4.316,4.316,0,0,1,1.765-.157c.09.217.183.432.261.653.107.3.588.172.481-.132-.047-.132-.1-.261-.156-.39a.376.376,0,0,0,.261-.15.484.484,0,0,0,.079.066c.012.007.023.017.035.024a.465.465,0,0,0,.325.22C96.912,356.441,98.125,358.671,99.043,359.934Zm-4.98-8.719a.447.447,0,0,0,.147-.329c1.377.3,1.639,2.051,1.25,3.389a.483.483,0,0,0-.394.164.5.5,0,0,0-.2-.153,4,4,0,0,0-2.071,0,9,9,0,0,0-2.39.727.483.483,0,0,0-.157.118.462.462,0,0,0-.1-.016c-.619.029-.831-.935-.92-1.4a2.539,2.539,0,0,1,.1-1.355.413.413,0,0,0,.342.334A4.931,4.931,0,0,0,94.063,351.215ZM89.1,356.254c-1.951.335-3.905.7-5.86,1.075a.387.387,0,0,0-.394-.173c-.855.1-1.709.216-2.562.342l-5.081.678a.513.513,0,0,0-.373.24c-2.993.531-5.985,1.053-9,1.3-7.81.633-15.429-3.226-23.141-4.262,2.709-1.381,1.043-5.57-1.909-5.926.234-1.933.132-3.929.208-5.864a90.071,90.071,0,0,1,1.765-12.5c1.2-6.618,2.632-13.192,4.354-19.694,3.114-11.757,6.762-24.065,12.605-34.766,1-1.821,2.819-4.358,5.135-4.552,1.844-.154,3.736,1.079,5.228,2.014,2.911,1.825,5.077,4.739,6.961,7.534,4.387,6.51,6.021,14.467,7.037,22.116,1.1,8.244,1.4,16.551,2.151,24.826.678,7.429,2.333,14.725,2.993,22.155C86.773,351.449,87.118,355.079,89.1,356.254Zm-25.9,4.387a28.939,28.939,0,0,1-10.477-1.611c-1.991-.666-3.918-1.35-5.885-1.871C52.293,358.324,57.612,360.161,63.2,360.641Zm-22.3-9.79a.479.479,0,0,0,.061-.012.484.484,0,0,0,.312.333c1.335.474,1.655,3.409.228,3.5a.419.419,0,0,0-.22-.187,5.932,5.932,0,0,0-2.6-.715,5.646,5.646,0,0,0-2.591.114.507.507,0,0,0-.2-.4c-.466-.355-.721-2.694.089-2.639a.325.325,0,0,0,.049-.007.579.579,0,0,0,.55-.335A13.787,13.787,0,0,0,40.9,350.851ZM36.232,354.9a3.857,3.857,0,0,1,2.211-.16c.249.022.583.047.927.1a.246.246,0,0,0-.02.1v1a.25.25,0,0,0,.5,0v-1l0-.012a2.935,2.935,0,0,1,.571.187.469.469,0,0,0,.135.345c-.011,2.911,1.355,5.658.026,8.519-.871,1.873-3.2,2.985-4.833,4.308-1.412-2.231-2.468-4.487-1.762-7.194C34.536,358.975,35.626,357.022,36.232,354.9Zm.436,13.89a.212.212,0,0,0,.174.244c.536.114,1.053.3,1.593.4.314.058.448-.422.132-.481-.54-.1-1.057-.285-1.593-.4h-.013c1.808-1.432,3.773-2.56,4.8-4.764a8.037,8.037,0,0,0,.243-4.9,5.569,5.569,0,0,1,.724.078c.314.058.448-.422.132-.481a6.788,6.788,0,0,0-.944-.094c-.065-.36-.128-.721-.185-1.078,4.646.221,8.766,2.111,13.157,3.448a26.046,26.046,0,0,0,10.2.714.165.165,0,0,0,.1.1,12.37,12.37,0,0,0,7.266.531c.206-.044.119-.36-.087-.317l-.024,0c-.007-.149-.121-.288-.3-.219a3.837,3.837,0,0,1-1.33.289.231.231,0,0,0-.23.189,11.72,11.72,0,0,1-4.786-.643c.356-.039.712-.077,1.068-.122,3.213-.409,6.38-1.166,9.543-1.884a17.829,17.829,0,0,0,3.51.519,5.842,5.842,0,0,1-.73.047.249.249,0,0,0,0,.5,5.215,5.215,0,0,0,1.164-.109.238.238,0,0,0,.1-.409c.412.017.824.024,1.236.029a.214.214,0,0,0,.191.089,5.3,5.3,0,0,0,1.164-.208.249.249,0,0,0-.132-.48,4.761,4.761,0,0,1-1.032.19.239.239,0,0,0-.177.08,23.154,23.154,0,0,1-4.571-.411q.937-.21,1.874-.41c1.246-.263,2.5-.468,3.752-.656l.2-.026c.006,0,.01,0,.016-.005,2.358-.351,4.722-.636,7.076-1.032a.479.479,0,0,0,.163-.064c-.079.4-.15.812-.209,1.232a.2.2,0,0,0-.071.03.427.427,0,0,1-.272.066.249.249,0,0,0,0,.5,1.3,1.3,0,0,0,.279-.029,14.25,14.25,0,0,0,.129,4.649c.567,2.41,3.161,3.822,5.287,5.174a.25.25,0,0,0-.039.009.837.837,0,0,1-.373.066.25.25,0,0,0,0,.5,1.442,1.442,0,0,0,.625-.135.2.2,0,0,0,.125-.221c.366.239.712.478,1.026.721-2.045.22-4.073.588-6.015.959-9.483,1.811-18.6,3.489-28.3,3.735-8.344.212-15.659-2.133-23.614-4.1-.9-.222-1.923-.471-3.013-.7a.493.493,0,0,0,.317-.128C36.206,369.179,36.436,368.985,36.667,368.795Zm40.319,42.327h1.147c.15.1.3.195.45.29-2.379.112-4.76.282-7.141.471-.008-.2-.019-.393-.04-.589.01,0,.016.013.026.016l.007,0a.221.221,0,0,0,.236-.066h0c-.112.093.053,0,.1-.012.1-.03.2-.056.3-.083a3.358,3.358,0,0,1,.728-.13c.321-.011.322-.509,0-.5a4.1,4.1,0,0,0-.86.149,1.758,1.758,0,0,0-.586.205q-.047-.336-.1-.67a5.39,5.39,0,0,0,3.237-1.935,18.363,18.363,0,0,0,2.893,2.351h-.394A.25.25,0,0,0,76.987,411.122Zm15.367,1.22c.172.121.344.241.517.36-1.078.038-2.147.089-3.195.117q-.32-.233-.636-.47c.693.012,1.384.023,2.077.029C91.505,412.38,91.921,412.365,92.354,412.342Zm3.85-.156.679.524c-1.143-.067-2.3-.06-3.459-.026-.184-.124-.371-.245-.554-.37C93.94,412.249,95.091,412.163,96.2,412.186Zm3.123.563c-.009.082-.014.165-.021.247-.6-.11-1.215-.188-1.832-.239l-.708-.549a7.787,7.787,0,0,1,2.514.508Zm-10.184.086c-1.049.022-2.1.053-3.144.084-.224-.205-.448-.409-.671-.615q1.573.009,3.148.037C88.7,412.508,88.921,412.669,89.144,412.834Zm-3.616.1q-1.894.057-3.789.126-.521-.321-1.069-.656c1.394-.075,2.787-.1,4.18-.1C85.074,412.514,85.3,412.722,85.528,412.93Zm-4.7-.076c.115.077.234.146.349.222q-3.1.113-6.2.24c-.177-.169-.356-.328-.531-.5,1.908-.138,3.815-.272,5.723-.39C80.388,412.566,80.611,412.71,80.827,412.854Zm-3.261,1.324a11.792,11.792,0,0,0,4.055,3.871,31.233,31.233,0,0,1-5.621-3.8Zm-9.037-2.226a.16.16,0,0,0-.253.188q-1.7.138-3.406.263a.249.249,0,0,0-.007-.1,3.4,3.4,0,0,1-.089-.931.25.25,0,0,0-.5,0,3.964,3.964,0,0,0,.107,1.063l0,0c-.184.014-.368.026-.552.039a8.822,8.822,0,0,0,.043-1.154,2.322,2.322,0,0,0-.4-1.076.519.519,0,0,0,.189-.1,3.924,3.924,0,0,0,1.459-2.424c.114-.009.228-.019.342-.026a9.626,9.626,0,0,1-.088,1.419c-.049.314.431.449.481.132a10.543,10.543,0,0,0,.106-1.573c.643-.02,1.289-.022,1.93-.067v.005a1.781,1.781,0,0,1,.266.672c.028.317.528.321.5,0a1.992,1.992,0,0,0-.239-.726c.216-.025.431-.06.645-.1A8.353,8.353,0,0,0,69.9,408.7c.118.156.231.316.34.478a.5.5,0,0,0-.1.4c0,.019.006.039.01.058a.546.546,0,0,0,.068.4,13.757,13.757,0,0,1,.233,1.919l-1.737.14C68.652,412.053,68.589,412.005,68.53,411.952Zm-6.941,1.693c.551-.025,1.1-.05,1.653-.079.055.042.11.088.165.13-.563.014-1.127.031-1.69.047Zm-.38.112c-.909.027-1.818.056-2.726.092l-.121-.081q1.369-.04,2.737-.1Zm6.485-13.322c.63-.009,1.611.025,2.087-.482a.472.472,0,0,0,.134-.383c1.829-.3,2.746,1.835,3.025,3.287a3.685,3.685,0,0,1-2.759,4.525,3.906,3.906,0,0,1-.322-.56.41.41,0,0,0-.222-.218.463.463,0,0,0-.511-.182,30.668,30.668,0,0,1-4.281.323.451.451,0,0,0-.089.028.488.488,0,0,0-.581.471c0,.044-.016.081-.019.124-2.937-1.659-2.831-6.429.016-8.127a.426.426,0,0,0,.051.042c-.517.062-.479.924.112.987A28.538,28.538,0,0,0,67.692,400.436Zm-3.437-2.324a.554.554,0,0,0-.176.04c-4.129,1.849-4,8.146-.2,10.177a2.928,2.928,0,0,1-.322.492.442.442,0,0,0-.577.461c-.036-.48-.724-.893-1.232-1.365a7.353,7.353,0,0,1-1.962-3.732c-.84-3.227,1.462-6.626,4.514-7.54A4.129,4.129,0,0,1,64.255,398.112Zm7.092,11.046a1.55,1.55,0,0,0-.11-.271,5.2,5.2,0,0,0-.425-.649,4.648,4.648,0,0,0,3.129-5.352c-.279-1.934-1.449-4.13-3.474-4.309a9.826,9.826,0,0,0,.664-1.566C75.91,398.824,76.528,407.673,71.348,409.157Zm-1.026-12.912,0,.01a9,9,0,0,1-1.151,2.585.424.424,0,0,0-.063.387c-.01.009-.021.011-.031.022a.7.7,0,0,1-.337.164,6.05,6.05,0,0,0,.415-1.136.249.249,0,0,0-.481-.132,5.412,5.412,0,0,1-.373,1.036.247.247,0,0,0,.052.294,14.005,14.005,0,0,1-1.4-.036c-.255,0-.51-.019-.766-.03.026-.078.054-.156.081-.234.1-.305-.38-.435-.482-.132-.038.114-.076.23-.117.345-.276-.018-.552-.045-.827-.071a.449.449,0,0,0,.1-.142,4.609,4.609,0,0,0,.189-2.9.547.547,0,0,0-.16-.609c-.251-.834-.615-1.659-.936-2.472a9.115,9.115,0,0,1-.089-6.608.444.444,0,0,0,.216-.4c0-.048,0-.1,0-.146a12.157,12.157,0,0,1,2.244-3.392c2.486,2.306,4.121,4.583,4.388,8.114A16.155,16.155,0,0,1,70.321,396.245Zm-1.492-12.569a.234.234,0,0,0,.033-.121,5.249,5.249,0,0,0-.109-1.162c-.072-.314-.552-.18-.482.132a3.6,3.6,0,0,1,.079.633c-.513-.538-1.06-1.058-1.629-1.569a.545.545,0,0,0-.126-.075.5.5,0,0,0-.049-.029c-.012,0-.023-.006-.034-.01a.445.445,0,0,0-.493.114c-.292.3-.573.622-.849.959v-.985a.25.25,0,0,0-.5,0v1a.24.24,0,0,0,.305.232l-.023.03a.236.236,0,0,0-.282.236v.125c-.2.267-.385.541-.564.823-.083-2.912-.254-5.821-.287-8.735l.434-.01a11.181,11.181,0,0,0-.08,1.118.25.25,0,0,0,.5,0,11.191,11.191,0,0,1,.081-1.13q1.555-.048,3.108-.134v1.163a.25.25,0,0,0,.5,0v-1.189c.079,0,.157-.012.236-.016.075,3.053.584,6.068.668,9.116Q69.053,383.928,68.829,383.676Zm-34.6,30.2-.012,0,0-.021ZM34.3,414.9c.2-.069.394-.138.6-.2.063.07.131.136.2.206-.261.034-.522.068-.784.109Zm1.194-.045c-.08-.083-.161-.166-.239-.25a16.862,16.862,0,0,1,2.554-.413c.125.143.254.283.383.422C37.294,414.659,36.4,414.742,35.5,414.851Zm2.726-.691c.815-.06,1.639-.09,2.456-.1.206.156.415.308.624.459-.9.011-1.792.033-2.687.076C38.483,414.451,38.353,414.306,38.223,414.16Zm2.993-.1c1.18-.007,2.334,0,3.389-.035l.265-.007c.221.164.444.324.668.484-1.226.005-2.453.005-3.678.014C41.644,414.36,41.427,414.213,41.215,414.056ZM45.408,414q1.333-.041,2.665-.068c.211.17.423.339.636.507-.872.034-1.745.049-2.618.056C45.861,414.334,45.636,414.165,45.408,414Zm3.129-.075q1.946-.031,3.891-.051l.441.286c-.552.041-1.1.081-1.657.129-.68.06-1.361.1-2.042.132C48.96,414.255,48.747,414.091,48.537,413.925Zm5.377-.068c1.295-.016,2.589-.036,3.884-.068h.02l.122.086q-1.878.077-3.753.2C54.1,414,54.006,413.925,53.914,413.856Zm16.575,5.384c-2.451-1.45-5.049-2.874-7.445-4.536l1.681-.044c2.346,1.667,4.811,3.18,7.267,4.731l-1.429-.036A.143.143,0,0,0,70.489,419.24Zm-3.158-5.825a.159.159,0,0,0-.253.184q-1.578.044-3.156.084c-.062-.047-.121-.1-.184-.145,1.918-.106,3.835-.232,5.751-.367.149.116.3.225.454.339q-1.211.042-2.423.077C67.457,413.529,67.393,413.473,67.33,413.415Zm2.655-.28q2.063-.147,4.126-.3a.142.142,0,0,0,.035.147c.121.123.247.231.369.35q-1.993.079-3.988.156l-.064,0C70.3,413.374,70.144,413.255,69.985,413.135Zm32.73-42.63c-.074,2.043.935,3.98,1.7,5.847.079.193.4.109.316-.086-.738-1.808-1.757-3.727-1.689-5.721a16.363,16.363,0,0,1,2.929.708.469.469,0,0,0,.479.485h.207a.455.455,0,0,0,.044.093,11.2,11.2,0,0,1,1.906,5.752q-.084.49-.143.977a42.729,42.729,0,0,1-1.871-4.82.164.164,0,0,0-.316.086,48.085,48.085,0,0,0,2.115,5.383,21.721,21.721,0,0,0-.056,2.913,16.572,16.572,0,0,1-2-6.478c-.008-.21-.336-.211-.328,0,.1,2.659,1.268,5,2.386,7.356.058.726.146,1.449.258,2.169l-.883-1.043c-.054-.784-.094-1.572-.1-2.368a.163.163,0,0,0-.327,0q.012.973.068,1.933a23.5,23.5,0,0,1-2.821-4.01c-.1-.187-.381-.022-.283.166a25.186,25.186,0,0,0,3.148,4.4,39.962,39.962,0,0,0,.766,5.45c-1.294-1.37-2.594-2.733-3.923-4.069a.164.164,0,0,0-.232.233c1.456,1.464,2.879,2.958,4.3,4.459a40.252,40.252,0,0,0,1.341,4.588c-1.691-1.966-3.408-3.91-5-5.956-.016-.022-.037-.02-.055-.029-.019-.086-.04-.172-.06-.258-1.356-6-2.044-12.18-3.077-18.239,0-.019-.015-.031-.019-.049Q102.1,370.423,102.716,370.5Zm5.968,9.152a.164.164,0,0,0,.061-.01c.038.819.065,1.633.112,2.421.03.5.085,1,.152,1.488-.1-.212-.2-.426-.3-.638A22.454,22.454,0,0,1,108.684,379.657Zm1.369,17.257c-.027-.206-.356-.208-.328,0,.021.156.05.31.073.466-1.324-1.4-2.691-2.751-4.083-4.082-.309-1.244-.633-2.48-.927-3.705,1.685,2.123,3.485,4.15,5.241,6.213.079.207.151.415.234.62a.173.173,0,0,0,.311.019c.394.469.773.951,1.156,1.429.133.717.285,1.432.447,2.147q-.969-1.129-1.985-2.216C110.144,397.508,110.092,397.212,110.052,396.914Zm-4.02,5.767c-.1-.055-.189-.117-.285-.174a33.746,33.746,0,0,0-.685-5.36c.184.2.374.4.569.591A23.328,23.328,0,0,1,106.032,402.681Zm-.172-8.785c1.376,1.323,2.725,2.672,4.029,4.062.2,1.207.443,2.406.658,3.609-1.215-1.053-2.549-2.084-3.781-3.2C106.547,396.871,106.22,395.379,105.86,393.9Zm4.456,1.746a40.2,40.2,0,0,1-1.523-4.85l1.523,1.617c.026.1.053.2.08.294a.155.155,0,0,0,.261.068l.546.58a30.608,30.608,0,0,0,.415,3.859C111.188,396.684,110.756,396.16,110.316,395.643Zm1.235-1.922c.125.132.248.265.374.4a49.53,49.53,0,0,1,1.216,5.008c-.356-.47-.731-.924-1.1-1.382A32.288,32.288,0,0,1,111.551,393.721Zm-.026-.507c-.005-.153-.006-.308-.009-.462q.1.333.2.668Zm-.308-1.419a.132.132,0,0,0-.031.068c-.008.333,0,.664,0,.994l-.577-.613c-.536-1.976-1.061-3.949-1.436-5.935.19.231.379.462.563.7C110.175,388.606,110.707,390.187,111.216,391.794Zm-1.082-.056q-.74-.788-1.482-1.574a39.422,39.422,0,0,1-.843-5.481c.314.369.629.738.942,1.109C109.094,387.779,109.6,389.755,110.134,391.738Zm-6.713-3.722c.548,3.054,1.506,6.083,2.1,9.148q-.3-.318-.587-.647c-.656-3.145-1.52-6.258-1.891-9.483-.641-5.592-2.033-11.056-2.719-16.643a.441.441,0,0,0-.021-.064c.1,0,.2,0,.3,0a.5.5,0,0,0-.075.364C101.517,376.465,102.388,382.254,103.421,388.016Zm2.342,15.76c0-.292,0-.584,0-.873.084.049.169.093.253.139-.012.223-.028.447-.05.67C105.9,403.734,105.829,403.753,105.763,403.776Zm1.072-4.915c1.255,1.109,2.592,2.147,3.8,3.217.047.28.1.56.138.841a22.322,22.322,0,0,0-3.787.517A21.743,21.743,0,0,0,106.835,398.861Zm4.262,4.04c-.023-.159-.052-.315-.078-.473.163.149.325.3.482.452l0,0C111.37,402.887,111.233,402.894,111.1,402.9Zm-2.039-17.245c-.1-.587-.187-1.175-.254-1.766.094.2.19.406.28.611a.129.129,0,0,0,.093.082q.154.836.361,1.657C109.377,386.045,109.219,385.849,109.057,385.656Zm-4.767-30.842a.5.5,0,0,0-.037.124c-.028.289-.045.577-.058.864-.2-.009-.391-.014-.587-.014a.249.249,0,0,0,0,.5c.191,0,.381,0,.57.011-.1,4.374,1.261,8.574,2.256,12.818q-.383-.13-.766-.256c-.305-.1-.436.379-.131.48l.9.3a.229.229,0,0,0,.124.005c.064.282.124.563.183.845a16.787,16.787,0,0,0-3.624-.885.153.153,0,0,0-.261-.032,26.125,26.125,0,0,0-5.275-.049c0-.007.008-.01.01-.017.815-2.662,4.612-6.552,2.667-9.555-.5-.77-1.128-1.807-1.835-2.8a2.455,2.455,0,0,1,.5-.069.25.25,0,0,0,0-.5,3.014,3.014,0,0,0-.81.146c-.211-.284-.429-.557-.651-.816C99.289,355.248,103.379,353.426,104.29,354.814ZM38.463,338.336q1.127-5.665,2.347-11.31c1.682-7.731,3.847-15.352,6.036-22.95a194.5,194.5,0,0,1,7.867-21.908c2.285-5.409,5.507-13.7,12.9-11.633,5.553,1.551,10.593,9.607,13.12,14.261,3.869,7.123,4.967,15.632,5.747,23.564.686,6.976,1.322,13.906,2.5,20.822,1.187,6.986,3.254,13.971,4.064,21a.5.5,0,0,0,.035.109.514.514,0,0,0,.077.393,3.943,3.943,0,0,1-2.862,1.1.419.419,0,0,0,.009-.072c-.672-8.735-2.609-17.306-3.339-26.041-.753-9.026-1.134-18.063-2.668-27.006-1.192-6.948-3.537-14.052-7.939-19.661-2.78-3.543-8.059-9.373-13.216-7.5-4.072,1.48-6.443,8.66-7.915,12.214-2.845,6.874-5.121,14.054-7.281,21.168-2.089,6.885-3.757,13.885-5.181,20.936-.9,4.472-1.734,8.973-2.4,13.487-.514,3.493-.066,7.092-.628,10.557a8.867,8.867,0,0,1-2.906-.32.515.515,0,0,0-.223-.186c-.024-.01-.047-.012-.071-.021C36.344,345.758,37.781,341.767,38.463,338.336Zm-12.94,9.9.044.041a.679.679,0,0,0-.083-.022Zm-.586.731L24.7,348.8q.124-.1.252-.2l-.005.009A.714.714,0,0,0,24.937,348.97Zm5.636,4.038a.468.468,0,0,0,.008.2,17.855,17.855,0,0,0-2.5-2.646c-.472-.422-.957-.83-1.435-1.246a1.971,1.971,0,0,1-.251-.274A51.35,51.35,0,0,1,30.573,353.009ZM26.024,368.5a7.649,7.649,0,0,0,1.138-.48c.289-.142.036-.573-.251-.43-.24.118-.482.227-.729.325a103.056,103.056,0,0,0,1.748-12.041,2.028,2.028,0,0,1,.7-.083.25.25,0,0,0,0-.5,3.275,3.275,0,0,0-.63.056c.03-.229.059-.458.092-.686a14.324,14.324,0,0,1,6.985.608c-.055.17-.114.338-.174.507-.231-.023-.458-.076-.691-.086-.321-.015-.32.484,0,.5a4.852,4.852,0,0,1,.52.065,34.354,34.354,0,0,0-1.953,5.657c-.5,2.679,1.024,5.239,2.421,7.376a.543.543,0,0,0,.183.17c-3.2-.643-6.9-1.037-9.656.061C25.832,369.177,25.932,368.837,26.024,368.5Zm-1.332,4.8a14.4,14.4,0,0,0,.752,2.511c.642,2.169,1.36,4.3,2.18,6.4-.168,1.3-.317,2.608-.424,3.92-.047.578-.1,1.168-.156,1.76a28.682,28.682,0,0,1-3.134-9.58c-.026-.206-.354-.209-.328,0a29.539,29.539,0,0,0,3.408,10.181c-.139,1.488-.289,3.009-.419,4.542-1.91-2.993-3.755-6.173-4.336-9.589.043-.265.093-.526.139-.79A25.372,25.372,0,0,0,24,386.894c.089.191.371.025.283-.166a21.745,21.745,0,0,1-1.766-4.923q.167-.9.355-1.8a21.656,21.656,0,0,0,1.259,3.96c.091.191.373.025.283-.165a23.858,23.858,0,0,1-1.312-4.215.136.136,0,0,0-.111-.1A62.21,62.21,0,0,1,24.692,373.3Zm.533,29.717c.153.146.385-.086.232-.233a18.852,18.852,0,0,1-4.024-5.2.128.128,0,0,0,.078-.175c-.05-.126-.1-.253-.148-.379,0-.054,0-.107,0-.16.454.618.97,1.2,1.473,1.762.141.158.372-.074.232-.232a19.064,19.064,0,0,1-1.714-2.116q-.039-1.657.006-3.348a20.92,20.92,0,0,0,4.918,8.3c.03.87.082,1.73.17,2.575-.985-.191-1.977-.319-2.91-.423-.453-.642-.931-1.261-1.408-1.886-.2-.259-.377-.531-.56-.8-.07-.833-.122-1.657-.163-2.462A20.026,20.026,0,0,0,25.225,403.013Zm-3.6-1.674c.486.668.991,1.324,1.476,1.994-.444-.047-.867-.093-1.267-.139C21.753,402.575,21.684,401.954,21.626,401.338Zm.529,3.876a8.856,8.856,0,0,1,1.292-.075.249.249,0,0,0,0-.5,9.451,9.451,0,0,0-1.377.087c-.03-.173-.06-.346-.087-.521,3.832.44,8.809.865,10.434,4.922a17.169,17.169,0,0,1,.913,5.268.586.586,0,0,0,.03.416,18.481,18.481,0,0,0,.586,3.868c-.2-.029-.394-.054-.591-.086a.255.255,0,0,0-.447-.083C26.063,417.222,23.306,411.443,22.155,405.215Zm12.745,13.6a.442.442,0,0,0,.024-.329,15.373,15.373,0,0,1-.5-2.492c.518-.083,1.036-.157,1.556-.216a24.407,24.407,0,0,0,5.263,3.553c-1.036-.043-2.07-.1-3.1-.183-.94-.858-1.86-1.736-2.719-2.68-.143-.156-.374.076-.232.233.766.842,1.583,1.629,2.418,2.4C36.706,419.027,35.8,418.936,34.9,418.819Zm20.609.446a10.036,10.036,0,0,1-1.976-1.96c-.124-.169-.409-.005-.283.166A10.052,10.052,0,0,0,55,419.276c-2.642.058-5.31.129-7.979.145a12.247,12.247,0,0,1-2.854-1.509c-.17-.128-.332.158-.166.282a11.12,11.12,0,0,0,2.182,1.232q-.929,0-1.857-.012c-.01-.013-.01-.03-.026-.042a40.053,40.053,0,0,1-4.756-3.833q1.574-.054,3.151-.057a33.4,33.4,0,0,0,7.725,3.79c.2.067.287-.25.087-.317a32.815,32.815,0,0,1-7.2-3.473c1.216,0,2.434.006,3.651-.009,1.836,1.212,3.736,2.338,5.555,3.516.178.116.342-.169.166-.282-1.685-1.092-3.442-2.137-5.15-3.249q1.175-.021,2.348-.089,1.5,1.165,3.035,2.291c.171.125.334-.159.166-.282q-1.377-1-2.727-2.038c.289-.019.578-.029.866-.054,1.006-.086,2.013-.156,3.02-.219a34.7,34.7,0,0,1,5.133,4.141h-.1C58.02,419.216,56.767,419.239,55.509,419.265Zm6.1-.049c-2.084-1.361-4.141-2.761-6.151-4.22q.783-.043,1.567-.079a43.754,43.754,0,0,0,5.923,4.3C62.5,419.216,62.058,419.217,61.611,419.216Zm14.048.26a36.8,36.8,0,0,1-5.048-3.272c2.153.537,3.947,2.079,5.828,3.185a.164.164,0,0,0,.166-.282c-2.056-1.21-4-2.94-6.42-3.34a.148.148,0,0,0-.1.023q-.759-.6-1.492-1.24.968-.029,1.934-.063l.726-.03c.988.683,2,1.336,3.007,1.989-.118,0-.23.11-.14.227a11.238,11.238,0,0,0,2.982,2.582c.179.114.343-.17.166-.282a10.943,10.943,0,0,1-2.8-2.393c.307.2.613.4.918.6.081.052.158.109.241.158.864.572,1.716,1.159,2.54,1.787.168.128.331-.156.166-.282-.2-.155-.412-.3-.619-.451.925.409,1.87.784,2.779,1.188l-1.888-.037C77.623,419.524,76.641,419.5,75.659,419.476Zm34.206-6.383a21.067,21.067,0,0,1-9.195,4.9.484.484,0,0,0-.025-.185,11.636,11.636,0,0,1-.311-4.964.493.493,0,0,0,.086-.611c.058-.367.131-.729.212-1.089.033.037.069.07.1.107.139.16.37-.073.232-.233-.078-.089-.164-.17-.244-.257a13.217,13.217,0,0,1,.892-2.51c.205.121.406.248.615.364.184.1.35-.18.165-.282-.216-.12-.424-.251-.636-.377a6.937,6.937,0,0,1,.7-1.086,5.806,5.806,0,0,1,1.079-1.034c.053.041.1.083.156.122.17.127.333-.158.166-.282l-.039-.03c2.671-1.78,6.794-1.8,9.757-1.811A12.52,12.52,0,0,1,109.866,413.093Z" transform="translate(-20.129 -269.103)" fill="#977c72"/>
    <path id="Trazado_2055" data-name="Trazado 2055" d="M77.109,409.264v-.7a.25.25,0,0,0-.5,0v.7A.25.25,0,0,0,77.109,409.264Z" transform="translate(-32.663 -299.997)" fill="#977c72"/>
    <path id="Trazado_2056" data-name="Trazado 2056" d="M77.49,410.744a.25.25,0,0,0-.5,0,5.167,5.167,0,0,0,.11,1.163c.072.313.553.18.482-.132A4.494,4.494,0,0,1,77.49,410.744Z" transform="translate(-32.747 -300.481)" fill="#977c72"/>
    <path id="Trazado_2057" data-name="Trazado 2057" d="M81.616,409.015a6.186,6.186,0,0,1,.089,1.33.25.25,0,0,0,.5,0,6.866,6.866,0,0,0-.107-1.462C82.028,408.569,81.548,408.7,81.616,409.015Z" transform="translate(-33.772 -300.081)" fill="#977c72"/>
    <path id="Trazado_2058" data-name="Trazado 2058" d="M81.733,412.281v1.1a.25.25,0,0,0,.5,0v-1.1A.25.25,0,0,0,81.733,412.281Z" transform="translate(-33.799 -300.822)" fill="#977c72"/>
    <path id="Trazado_2059" data-name="Trazado 2059" d="M32.027,395.5a6.179,6.179,0,0,0-1.365.207c-.313.077-.18.557.132.481a5.607,5.607,0,0,1,1.232-.19A.249.249,0,0,0,32.027,395.5Z" transform="translate(-22.427 -297.152)" fill="#977c72"/>
    <path id="Trazado_2060" data-name="Trazado 2060" d="M35.259,395.758H34.064a.249.249,0,0,0,0,.5h1.194A.249.249,0,0,0,35.259,395.758Z" transform="translate(-23.168 -297.209)" fill="#977c72"/>
    <path id="Trazado_2061" data-name="Trazado 2061" d="M36.433,396.756a2.283,2.283,0,0,0,.864.11.25.25,0,0,0,0-.5,1.918,1.918,0,0,1-.731-.091C36.268,396.155,36.138,396.637,36.433,396.756Z" transform="translate(-23.71 -297.319)" fill="#977c72"/>
    <path id="Trazado_2062" data-name="Trazado 2062" d="M45.785,398.552c.361.116.73.207,1.1.3a.249.249,0,0,0,.132-.48c-.368-.091-.736-.182-1.1-.3C45.61,397.974,45.48,398.455,45.785,398.552Z" transform="translate(-25.784 -297.719)" fill="#977c72"/>
    <path id="Trazado_2063" data-name="Trazado 2063" d="M48.86,399.45c.361.114.73.205,1.1.3a.249.249,0,0,0,.132-.481c-.367-.093-.735-.184-1.1-.3C48.685,398.873,48.555,399.354,48.86,399.45Z" transform="translate(-26.466 -297.919)" fill="#977c72"/>
    <path id="Trazado_2064" data-name="Trazado 2064" d="M51.681,400.346l.9.3c.306.1.436-.38.132-.48l-.9-.3C51.508,399.763,51.377,400.245,51.681,400.346Z" transform="translate(-27.092 -298.117)" fill="#977c72"/>
    <path id="Trazado_2065" data-name="Trazado 2065" d="M55.871,400.67a1.806,1.806,0,0,1-.671-.265c-.284-.149-.536.28-.251.43a2.38,2.38,0,0,0,.922.332C56.192,401.2,56.189,400.7,55.871,400.67Z" transform="translate(-27.828 -298.233)" fill="#977c72"/>
    <path id="Trazado_2066" data-name="Trazado 2066" d="M59.349,401.211a5.275,5.275,0,0,1-1.131-.191.249.249,0,0,0-.132.481,5.953,5.953,0,0,0,1.264.209C59.67,401.72,59.669,401.221,59.349,401.211Z" transform="translate(-28.512 -298.374)" fill="#977c72"/>
    <path id="Trazado_2067" data-name="Trazado 2067" d="M62.975,401.631a6.362,6.362,0,0,0-1.363-.108.25.25,0,0,0,0,.5,5.775,5.775,0,0,1,1.231.09C63.156,402.18,63.289,401.7,62.975,401.631Z" transform="translate(-29.281 -298.488)" fill="#977c72"/>
    <path id="Trazado_2068" data-name="Trazado 2068" d="M66.914,401.661a7.238,7.238,0,0,1-1.329.092.25.25,0,0,0,0,.5,7.85,7.85,0,0,0,1.461-.111C67.363,402.082,67.229,401.6,66.914,401.661Z" transform="translate(-30.163 -298.517)" fill="#977c72"/>
    <path id="Trazado_2069" data-name="Trazado 2069" d="M71.037,402.165H69.942a.25.25,0,0,0,0,.5h1.095A.25.25,0,0,0,71.037,402.165Z" transform="translate(-31.13 -298.63)" fill="#977c72"/>
    <path id="Trazado_2070" data-name="Trazado 2070" d="M74.142,402.265a3.3,3.3,0,0,1-.933-.091.249.249,0,0,0-.132.48,3.714,3.714,0,0,0,1.065.109A.249.249,0,0,0,74.142,402.265Z" transform="translate(-31.84 -298.63)" fill="#977c72"/>
    <path id="Trazado_2071" data-name="Trazado 2071" d="M83.413,401.787a2.59,2.59,0,0,1-1.363.2c-.314-.053-.45.429-.132.48a3.036,3.036,0,0,0,1.627-.2C83.842,402.154,83.713,401.672,83.413,401.787Z" transform="translate(-33.8 -298.543)" fill="#977c72"/>
    <path id="Trazado_2072" data-name="Trazado 2072" d="M86.986,401.4c-.363.083-.734.117-1.1.2-.314.071-.181.551.132.48.363-.082.734-.115,1.1-.2C87.431,401.814,87.3,401.333,86.986,401.4Z" transform="translate(-34.682 -298.46)" fill="#977c72"/>
    <path id="Trazado_2073" data-name="Trazado 2073" d="M90.676,400.892q-.6.15-1.2.3a.249.249,0,0,0,.132.48l1.2-.3A.25.25,0,0,0,90.676,400.892Z" transform="translate(-35.479 -298.346)" fill="#977c72"/>
    <path id="Trazado_2074" data-name="Trazado 2074" d="M94,400.66a.983.983,0,0,1-.8.075.249.249,0,0,0-.132.48,1.482,1.482,0,0,0,1.188-.125A.249.249,0,0,0,94,400.66Z" transform="translate(-36.276 -298.289)" fill="#977c72"/>
    <path id="Trazado_2075" data-name="Trazado 2075" d="M97.937,400.251a2.978,2.978,0,0,1-.83.09.25.25,0,0,0,0,.5,3.451,3.451,0,0,0,.962-.109A.249.249,0,0,0,97.937,400.251Z" transform="translate(-37.158 -298.203)" fill="#977c72"/>
    <path id="Trazado_2076" data-name="Trazado 2076" d="M100.472,399.867a3.447,3.447,0,0,1-.933.09.25.25,0,0,0,0,.5,3.917,3.917,0,0,0,1.065-.109A.249.249,0,0,0,100.472,399.867Z" transform="translate(-37.697 -298.118)" fill="#977c72"/>
    <path id="Trazado_2077" data-name="Trazado 2077" d="M103.931,399.225a3.265,3.265,0,0,1-.932.092.249.249,0,0,0,0,.5,3.755,3.755,0,0,0,1.064-.109A.249.249,0,0,0,103.931,399.225Z" transform="translate(-38.465 -297.975)" fill="#977c72"/>
    <path id="Trazado_2078" data-name="Trazado 2078" d="M105.815,399.155a4.837,4.837,0,0,1,1.337-.474.249.249,0,0,0-.132-.48,5.2,5.2,0,0,0-1.456.524C105.29,398.892,105.54,399.323,105.815,399.155Z" transform="translate(-39.061 -297.749)" fill="#977c72"/>
    <path id="Trazado_2079" data-name="Trazado 2079" d="M109.6,398.184c.537-.114,1.059-.285,1.6-.4.315-.067.181-.547-.132-.48-.536.114-1.058.285-1.6.4C109.153,397.771,109.287,398.251,109.6,398.184Z" transform="translate(-39.914 -297.551)" fill="#977c72"/>
    <path id="Trazado_2080" data-name="Trazado 2080" d="M113.189,397.7c.362-.116.729-.207,1.1-.3a.249.249,0,0,0-.131-.48c-.368.091-.736.182-1.1.3C112.751,397.317,112.882,397.8,113.189,397.7Z" transform="translate(-40.712 -297.465)" fill="#977c72"/>
    <path id="Trazado_2081" data-name="Trazado 2081" d="M122.144,396.256a3.412,3.412,0,0,0-1.528,0,.249.249,0,0,0,.132.48,2.872,2.872,0,0,1,1.264,0C122.326,396.794,122.46,396.313,122.144,396.256Z" transform="translate(-42.389 -297.3)" fill="#977c72"/>
    <path id="Trazado_2082" data-name="Trazado 2082" d="M124.013,396.768a7.09,7.09,0,0,1,1.231.191c.314.064.447-.416.132-.48a7.844,7.844,0,0,0-1.363-.209A.25.25,0,0,0,124.013,396.768Z" transform="translate(-43.128 -297.322)" fill="#977c72"/>
    <path id="Trazado_2083" data-name="Trazado 2083" d="M127.217,397.12a2,2,0,0,0,.823.234c.322.015.321-.483,0-.5a1.352,1.352,0,0,1-.571-.166C127.182,396.547,126.93,396.976,127.217,397.12Z" transform="translate(-43.865 -297.409)" fill="#977c72"/>
    <path id="Trazado_2084" data-name="Trazado 2084" d="M32.908,379.954a3.45,3.45,0,0,0,.966-.11.249.249,0,0,0-.132-.48,2.948,2.948,0,0,1-.833.091A.25.25,0,0,0,32.908,379.954Z" transform="translate(-22.912 -293.568)" fill="#977c72"/>
    <path id="Trazado_2085" data-name="Trazado 2085" d="M35.662,380.1a3.792,3.792,0,0,0,1.064.107.25.25,0,0,0,0-.5,3.343,3.343,0,0,1-.931-.089A.249.249,0,0,0,35.662,380.1Z" transform="translate(-23.537 -293.626)" fill="#977c72"/>
    <path id="Trazado_2086" data-name="Trazado 2086" d="M51.3,385.353c.33.11.66.213,1,.3a.249.249,0,0,0,.132-.48c-.337-.087-.668-.191-1-.3C51.122,384.77,50.992,385.252,51.3,385.353Z" transform="translate(-27.007 -294.79)" fill="#977c72"/>
    <path id="Trazado_2087" data-name="Trazado 2087" d="M54.566,385.968a4.624,4.624,0,0,0,1.456.626c.313.072.445-.409.132-.48a4.249,4.249,0,0,1-1.337-.575C54.547,385.363,54.3,385.8,54.566,385.968Z" transform="translate(-27.745 -294.932)" fill="#977c72"/>
    <path id="Trazado_2088" data-name="Trazado 2088" d="M62,388.44a7.135,7.135,0,0,1,1.228.189c.314.064.448-.417.132-.48a7.877,7.877,0,0,0-1.36-.208A.25.25,0,0,0,62,388.44Z" transform="translate(-29.367 -295.474)" fill="#977c72"/>
    <path id="Trazado_2089" data-name="Trazado 2089" d="M65.969,389.082h1.2a.25.25,0,0,0,0-.5h-1.2A.25.25,0,0,0,65.969,389.082Z" transform="translate(-30.248 -295.616)" fill="#977c72"/>
    <path id="Trazado_2090" data-name="Trazado 2090" d="M69.877,389.564a4.8,4.8,0,0,1,1.564,0c.314.047.449-.433.131-.481a5.565,5.565,0,0,0-1.828,0C69.429,389.14,69.562,389.62,69.877,389.564Z" transform="translate(-31.099 -295.711)" fill="#977c72"/>
    <path id="Trazado_2091" data-name="Trazado 2091" d="M74.492,389.784c.426-.1.864-.12,1.294-.2.316-.059.182-.539-.132-.481-.43.079-.868.1-1.294.2C74.046,389.375,74.179,389.856,74.492,389.784Z" transform="translate(-32.124 -295.731)" fill="#977c72"/>
    <path id="Trazado_2092" data-name="Trazado 2092" d="M78.653,389.817a2.631,2.631,0,0,0,.964-.109c.3-.117.167-.6-.132-.481a2.254,2.254,0,0,1-.832.092A.249.249,0,0,0,78.653,389.817Z" transform="translate(-33.063 -295.755)" fill="#977c72"/>
    <path id="Trazado_2093" data-name="Trazado 2093" d="M81.6,389.592h1.3a.249.249,0,0,0,0-.5H81.6A.249.249,0,0,0,81.6,389.592Z" transform="translate(-33.717 -295.73)" fill="#977c72"/>
    <path id="Trazado_2094" data-name="Trazado 2094" d="M88.263,387.74a4.711,4.711,0,0,0,1.664-.208c.3-.11.17-.592-.132-.48a4.329,4.329,0,0,1-1.531.19A.249.249,0,0,0,88.263,387.74Z" transform="translate(-35.195 -295.273)" fill="#977c72"/>
    <path id="Trazado_2095" data-name="Trazado 2095" d="M92.236,386.975a6.479,6.479,0,0,0,1.363-.208c.312-.076.18-.556-.132-.48a5.9,5.9,0,0,1-1.231.189A.249.249,0,0,0,92.236,386.975Z" transform="translate(-36.077 -295.105)" fill="#977c72"/>
    <path id="Trazado_2096" data-name="Trazado 2096" d="M103.129,385.276a4.545,4.545,0,0,0,1.561-.309c.3-.113.168-.6-.132-.48a4.165,4.165,0,0,1-1.429.29A.25.25,0,0,0,103.129,385.276Z" transform="translate(-38.494 -294.704)" fill="#977c72"/>
    <path id="Trazado_2097" data-name="Trazado 2097" d="M106.844,384.67a3.128,3.128,0,0,0,1.322-.233c.293-.13.04-.559-.251-.43a2.569,2.569,0,0,1-1.071.164A.249.249,0,0,0,106.844,384.67Z" transform="translate(-39.318 -294.596)" fill="#977c72"/>
    <path id="Trazado_2098" data-name="Trazado 2098" d="M122.648,381.461a1.821,1.821,0,0,1,.788-.335.249.249,0,0,0-.132-.481,2.312,2.312,0,0,0-1.008.463C122.055,381.322,122.409,381.674,122.648,381.461Z" transform="translate(-42.783 -293.853)" fill="#977c72"/>
    <path id="Trazado_2099" data-name="Trazado 2099" d="M125.1,380.814a4.389,4.389,0,0,1,1.229-.19.25.25,0,0,0,0-.5,4.924,4.924,0,0,0-1.362.208C124.667,380.428,124.8,380.909,125.1,380.814Z" transform="translate(-43.356 -293.74)" fill="#977c72"/>
    <path id="Trazado_2100" data-name="Trazado 2100" d="M40.848,452.921a2.042,2.042,0,0,1,1.2-.174c.314.053.449-.428.132-.48a2.625,2.625,0,0,0-1.588.224C40.305,452.626,40.558,453.055,40.848,452.921Z" transform="translate(-24.642 -309.74)" fill="#977c72"/>
    <path id="Trazado_2101" data-name="Trazado 2101" d="M44.057,452.635h1a.249.249,0,0,0,0-.5h-1A.249.249,0,0,0,44.057,452.635Z" transform="translate(-25.385 -309.72)" fill="#977c72"/>
    <path id="Trazado_2102" data-name="Trazado 2102" d="M46.748,453.02h1a.25.25,0,0,0,0-.5h-1A.25.25,0,0,0,46.748,453.02Z" transform="translate(-25.983 -309.805)" fill="#977c72"/>
    <path id="Trazado_2103" data-name="Trazado 2103" d="M50.14,453.011a3.018,3.018,0,0,0,1.33,0c.314-.068.181-.549-.132-.48a2.411,2.411,0,0,1-1.065,0C49.959,452.463,49.826,452.943,50.14,453.011Z" transform="translate(-26.749 -309.806)" fill="#977c72"/>
    <path id="Trazado_2104" data-name="Trazado 2104" d="M63.47,453.008a2.293,2.293,0,0,0,.863.109.25.25,0,0,0,0-.5,1.931,1.931,0,0,1-.731-.09C63.3,452.408,63.175,452.89,63.47,453.008Z" transform="translate(-29.71 -309.802)" fill="#977c72"/>
    <path id="Trazado_2105" data-name="Trazado 2105" d="M67.506,453.148h.9a.25.25,0,0,0,0-.5h-.9A.25.25,0,0,0,67.506,453.148Z" transform="translate(-30.589 -309.833)" fill="#977c72"/>
    <path id="Trazado_2106" data-name="Trazado 2106" d="M91.61,450.727c-.434.009-.861.09-1.294.1a.249.249,0,0,0,0,.5c.433-.01.86-.091,1.294-.1A.25.25,0,0,0,91.61,450.727Z" transform="translate(-35.651 -309.407)" fill="#977c72"/>
    <path id="Trazado_2107" data-name="Trazado 2107" d="M96.977,451.354h1.6a.25.25,0,0,0,0-.5h-1.6A.25.25,0,0,0,96.977,451.354Z" transform="translate(-37.129 -309.435)" fill="#977c72"/>
    <path id="Trazado_2108" data-name="Trazado 2108" d="M108.638,450.585h1.1a.249.249,0,0,0,0-.5h-1.1A.249.249,0,0,0,108.638,450.585Z" transform="translate(-39.716 -309.265)" fill="#977c72"/>
    <path id="Trazado_2109" data-name="Trazado 2109" d="M111.968,450.713h.9a.249.249,0,0,0,0-.5h-.9A.249.249,0,0,0,111.968,450.713Z" transform="translate(-40.455 -309.293)" fill="#977c72"/>
    <path id="Trazado_2110" data-name="Trazado 2110" d="M118.762,450.713h1a.249.249,0,0,0,0-.5h-1A.249.249,0,0,0,118.762,450.713Z" transform="translate(-41.963 -309.293)" fill="#977c72"/>
    <path id="Trazado_2111" data-name="Trazado 2111" d="M63.086,458.12c-.174-.121-.338.163-.166.283,1.346.928,2.774,1.73,4.119,2.659.175.121.338-.163.166-.282C65.86,459.849,64.432,459.048,63.086,458.12Z" transform="translate(-29.609 -311.041)" fill="#977c72"/>
    <path id="Trazado_2112" data-name="Trazado 2112" d="M57.106,459.488c-.177-.117-.341.167-.166.282a24.456,24.456,0,0,0,2.392,1.461c.188.1.354-.187.166-.283A24.351,24.351,0,0,1,57.106,459.488Z" transform="translate(-28.281 -311.345)" fill="#977c72"/>
    <path id="Trazado_2113" data-name="Trazado 2113" d="M104.715,460.762a14.35,14.35,0,0,1-6.573-3.815c-.142-.156-.373.075-.232.233a14.677,14.677,0,0,0,6.717,3.9C104.831,461.14,104.916,460.824,104.715,460.762Z" transform="translate(-37.38 -310.775)" fill="#977c72"/>
    <path id="Trazado_2114" data-name="Trazado 2114" d="M27.17,410.325c-.934-1.625-1.772-3.4-1.446-5.324.035-.206-.281-.294-.316-.086-.344,2.015.493,3.864,1.478,5.576A.164.164,0,0,0,27.17,410.325Z" transform="translate(-21.283 -299.214)" fill="#977c72"/>
    <path id="Trazado_2115" data-name="Trazado 2115" d="M28.832,402.24a5.445,5.445,0,0,1-.528-2.747c.023-.21-.3-.208-.328,0a5.624,5.624,0,0,0,.539,2.835C28.6,402.519,28.914,402.434,28.832,402.24Z" transform="translate(-21.865 -298.003)" fill="#977c72"/>
    <path id="Trazado_2116" data-name="Trazado 2116" d="M30.626,401.884a4.34,4.34,0,0,0-.272-1.237c-.067-.2-.383-.114-.316.086a4.076,4.076,0,0,1,.261,1.151C30.306,402.095,30.634,402.1,30.626,401.884Z" transform="translate(-22.326 -298.268)" fill="#977c72"/>
    <path id="Trazado_2117" data-name="Trazado 2117" d="M76.042,444.026c.426.417.9.78,1.328,1.2.152.148.384-.084.232-.232-.427-.417-.9-.78-1.328-1.2C76.123,443.647,75.891,443.878,76.042,444.026Z" transform="translate(-32.526 -307.858)" fill="#977c72"/>
    <path id="Trazado_2118" data-name="Trazado 2118" d="M83.692,445.358c.156.142.388-.09.232-.233-1.3-1.183-2.484-2.477-3.722-3.723a.164.164,0,0,0-.232.233C81.207,442.879,82.393,444.174,83.692,445.358Z" transform="translate(-33.398 -307.327)" fill="#977c72"/>
    <path id="Trazado_2119" data-name="Trazado 2119" d="M86.518,443.593c.132.165.363-.069.232-.233-.545-.682-1.082-1.367-1.569-2.093-.117-.175-.4-.011-.283.166C85.4,442.182,85.955,442.89,86.518,443.593Z" transform="translate(-34.495 -307.291)" fill="#977c72"/>
    <path id="Trazado_2120" data-name="Trazado 2120" d="M87.441,390.394c.207-.025.209-.353,0-.328-7.4.89-15.723,2.182-22.65-1.307-.188-.095-.354.188-.166.282C71.622,392.566,79.97,391.292,87.441,390.394Z" transform="translate(-29.985 -295.651)" fill="#977c72"/>
    <path id="Trazado_2121" data-name="Trazado 2121" d="M66.986,393.932a.171.171,0,0,0-.1-.2c-1.9-.765-3.79-1.563-5.717-2.26-.2-.072-.285.244-.087.316,1.927.7,3.816,1.5,5.717,2.26a.122.122,0,0,0,.157-.051.15.15,0,0,0,.107.184,87.838,87.838,0,0,0,13.87,2.266c.21.023.208-.305,0-.328a87.206,87.206,0,0,1-13.782-2.253A.14.14,0,0,0,66.986,393.932Z" transform="translate(-29.192 -296.255)" fill="#977c72"/>
    <path id="Trazado_2122" data-name="Trazado 2122" d="M81.346,397.543c-4.946,0-10.344.095-14.674-2.635-.179-.114-.344.17-.166.282,4.375,2.758,9.845,2.678,14.84,2.681A.164.164,0,0,0,81.346,397.543Z" transform="translate(-30.404 -297.014)" fill="#977c72"/>
    <path id="Trazado_2123" data-name="Trazado 2123" d="M78.216,402.259l-1.449-.231a3.018,3.018,0,0,0,.772-.1.249.249,0,0,0-.132-.48,2.947,2.947,0,0,1-.83.091.252.252,0,0,0-.167.432q-.6-.1-1.189-.2a.249.249,0,0,0-.305-.226,3.444,3.444,0,0,1-.535.075,37.946,37.946,0,0,1-8.222-2.27c-.192-.082-.359.2-.165.283a37.031,37.031,0,0,0,7.661,2.185.24.24,0,0,0,.23.317,5.456,5.456,0,0,0,1.027-.089c1.068.186,2.141.356,3.217.528C78.335,402.608,78.424,402.293,78.216,402.259Z" transform="translate(-30.288 -298.003)" fill="#977c72"/>
    <path id="Trazado_2124" data-name="Trazado 2124" d="M78.911,399.314c.209-.02.211-.349,0-.328a11.445,11.445,0,0,1-6.432-1.173c-.188-.1-.354.188-.166.283A11.762,11.762,0,0,0,78.911,399.314Z" transform="translate(-31.691 -297.66)" fill="#977c72"/>
    <path id="Trazado_2125" data-name="Trazado 2125" d="M77.864,395.472a.164.164,0,0,0,.087-.316c-2.414-.707-4.669-1.838-7.044-2.658-.2-.069-.286.247-.087.316C73.195,393.634,75.45,394.765,77.864,395.472Z" transform="translate(-31.353 -296.483)" fill="#977c72"/>
    <path id="Trazado_2126" data-name="Trazado 2126" d="M71.463,398.435a16,16,0,0,0,4.691,2.143c.205.051.293-.265.088-.316a15.742,15.742,0,0,1-4.613-2.109C71.449,398.04,71.285,398.323,71.463,398.435Z" transform="translate(-31.503 -297.734)" fill="#977c72"/>
    <path id="Trazado_2127" data-name="Trazado 2127" d="M56.81,387.175c3.28,1.359,6.594,2.625,9.971,3.722.2.065.287-.251.087-.317-2.427-.787-4.82-1.666-7.191-2.6a.259.259,0,0,0-.073-.349,3.665,3.665,0,0,0-1.255-.523.243.243,0,0,0-.3.216c-.382-.156-.766-.308-1.148-.466C56.7,386.779,56.618,387.1,56.81,387.175Z" transform="translate(-28.245 -295.231)" fill="#977c72"/>
    <path id="Trazado_2128" data-name="Trazado 2128" d="M56.39,391.749a25.116,25.116,0,0,0,7.916,4.164c.2.071.285-.246.087-.317a24.625,24.625,0,0,1-7.771-4.08C56.461,391.382,56.229,391.612,56.39,391.749Z" transform="translate(-28.164 -296.258)" fill="#977c72"/>
    <path id="Trazado_2129" data-name="Trazado 2129" d="M96.854,394.169a.164.164,0,0,0,0-.328c-3.775-.09-7.559.315-11.256-.66a.164.164,0,0,0-.088.316C89.234,394.479,93.049,394.078,96.854,394.169Z" transform="translate(-34.612 -296.635)" fill="#977c72"/>
    <path id="Trazado_2130" data-name="Trazado 2130" d="M89.951,388.374c3.552.478,7.111.166,10.679.139a.164.164,0,0,0,0-.328c-3.536.026-7.071.347-10.592-.127C89.832,388.03,89.743,388.346,89.951,388.374Z" transform="translate(-35.597 -295.5)" fill="#977c72"/>
    <path id="Trazado_2131" data-name="Trazado 2131" d="M88.278,395.234c-2.421-.378-4.823-.828-7.21-1.364.394.032.788.066,1.183.091.212.013.21-.314,0-.328q-1.773-.112-3.532-.326c-.27-.068-.542-.13-.811-.2a.143.143,0,0,0-.166.072c-.744-.1-1.486-.209-2.226-.337-.207-.036-.3.28-.088.316q1.6.275,3.216.469c3.15.8,6.333,1.422,9.546,1.923C88.4,395.582,88.486,395.266,88.278,395.234Z" transform="translate(-32.374 -296.561)" fill="#977c72"/>
  </g>
</svg>
