<svg xmlns="http://www.w3.org/2000/svg" width="351.939" height="550.829" viewBox="0 0 351.939 550.829">
  <g id="Grupo_1395" data-name="Grupo 1395" transform="translate(-748.373 -671.735)">
    <g id="Grupo_1091" data-name="Grupo 1091" transform="translate(437.392 628.043)">
      <path id="Trazado_1203" data-name="Trazado 1203" d="M615.617,146.725a69.191,69.191,0,0,1-138.381,0c0-38.214,30.978-63.97,69.19-63.97S615.617,108.511,615.617,146.725Z" transform="translate(11.793 18.805)" fill="#f7dc86"/>
      <g id="Grupo_957" data-name="Grupo 957" transform="translate(453.367 44.692)">
        <g id="Grupo_947" data-name="Grupo 947" transform="translate(71.714 78.584)">
          <path id="Trazado_1204" data-name="Trazado 1204" d="M560.994,127.1a29.813,29.813,0,1,0-51.581,20.339A52.823,52.823,0,0,1,519.786,163l1.6,3.813v5.652h19.586v-5.652l1.068-2.541a61.422,61.422,0,0,1,11.286-17.243A29.625,29.625,0,0,0,560.994,127.1Z" transform="translate(-501.366 -97.29)" fill="#fff"/>
          <rect id="Rectángulo_660" data-name="Rectángulo 660" width="21.015" height="14.677" transform="translate(19.306 69.717)" fill="#272727"/>
          <g id="Grupo_946" data-name="Grupo 946" transform="translate(16.639 24.466)">
            <path id="Trazado_1205" data-name="Trazado 1205" d="M529.288,165.566h-5.969L512.5,115.136l2.332-.5,10.411,48.548h2.059l9.21-49.517,2.341.435Z" transform="translate(-512.503 -113.666)" fill="#272727"/>
          </g>
          <path id="Trazado_1206" data-name="Trazado 1206" d="M527.534,155.544a4.67,4.67,0,1,1-4.669-4.669A4.669,4.669,0,0,1,527.534,155.544Z" transform="translate(-493.052 -70.817)" fill="#272727"/>
        </g>
        <g id="Grupo_956" data-name="Grupo 956">
          <g id="Grupo_948" data-name="Grupo 948" transform="translate(104.777)">
            <line id="Línea_42" data-name="Línea 42" y2="50.751" fill="none" stroke="#272727" stroke-linecap="round" stroke-miterlimit="10" stroke-width="2"/>
          </g>
          <g id="Grupo_949" data-name="Grupo 949" transform="translate(0 104.776)">
            <path id="Trazado_1207" data-name="Trazado 1207" d="M593.625,114.821" transform="translate(-384.071 -114.821)" fill="none" stroke="#272727" stroke-linecap="round" stroke-miterlimit="10" stroke-width="2"/>
            <path id="Trazado_1208" data-name="Trazado 1208" d="M453.367,114.821" transform="translate(-453.367 -114.821)" fill="none" stroke="#272727" stroke-linecap="round" stroke-miterlimit="10" stroke-width="2"/>
          </g>
          <g id="Grupo_950" data-name="Grupo 950" transform="translate(30.689 30.688)">
            <line id="Línea_43" data-name="Línea 43" x1="35.887" y1="35.887" fill="none" stroke="#272727" stroke-linecap="round" stroke-miterlimit="10" stroke-width="2"/>
          </g>
          <g id="Grupo_951" data-name="Grupo 951" transform="translate(142.979 30.688)">
            <line id="Línea_44" data-name="Línea 44" y1="35.887" x2="35.887" fill="none" stroke="#272727" stroke-linecap="round" stroke-miterlimit="10" stroke-width="2"/>
          </g>
          <g id="Grupo_952" data-name="Grupo 952" transform="translate(128.35 18.962)">
            <line id="Línea_45" data-name="Línea 45" x1="12.916" y2="30.086" fill="none" stroke="#272727" stroke-linecap="round" stroke-miterlimit="10" stroke-width="2"/>
          </g>
          <g id="Grupo_953" data-name="Grupo 953" transform="translate(160.379 70.072)">
            <line id="Línea_46" data-name="Línea 46" x1="30.465" y2="11.995" fill="none" stroke="#272727" stroke-linecap="round" stroke-miterlimit="10" stroke-width="2"/>
          </g>
          <g id="Grupo_954" data-name="Grupo 954" transform="translate(19.337 68.521)">
            <line id="Línea_47" data-name="Línea 47" x1="28.731" y1="11.916" fill="none" stroke="#272727" stroke-linecap="round" stroke-miterlimit="10" stroke-width="2"/>
          </g>
          <g id="Grupo_955" data-name="Grupo 955" transform="translate(68.088 19.048)">
            <line id="Línea_48" data-name="Línea 48" x1="12.337" y1="28.553" fill="none" stroke="#272727" stroke-linecap="round" stroke-miterlimit="10" stroke-width="2"/>
          </g>
        </g>
      </g>
      <path id="Trazado_1209" data-name="Trazado 1209" d="M614.393,150.919a69.191,69.191,0,0,1-138.381,0c0-38.214,30.978-63.97,69.191-63.97S614.393,112.705,614.393,150.919Z" transform="translate(11.188 20.877)" fill="none" stroke="#2e2e2d" stroke-miterlimit="10" stroke-width="2"/>
    </g>
    <g id="Grupo_1199" data-name="Grupo 1199" transform="translate(699.926 404.564)">
      <path id="Trazado_2664" data-name="Trazado 2664" d="M132.815,591.476a97.88,97.88,0,0,1-29.707,18.23L169.8,631.265v1.9l2.944-.952,2.943.952v-1.9l66.693-21.559a97.88,97.88,0,0,1-29.707-18.23,95.765,95.765,0,0,1-9.453-9.789q-1.243-17.761-2.489-35.523H144.756q-1.245,17.762-2.489,35.523A95.645,95.645,0,0,1,132.815,591.476Z" transform="translate(6.394 13.618)" fill="#d9bf9b"/>
      <path id="Trazado_2665" data-name="Trazado 2665" d="M298.162,623.56c-8.687-9.314-20.866-11.688-28.073-12.405l-45.048-21.218-45.9,37.235-45.9-37.235L88.189,611.155c-7.208.717-19.387,3.091-28.074,12.405-5.8,6.216-8.954,14.561-10.772,51.576-.546,11.114-1.043,26.329-.854,44.557l51.125-.082q.98,18.934,1.959,37.866l76.789-.426v.018l.777-.009.776.009v-.018l75.733-.553q.489-18.443.98-36.888l53.006.246c.292-18.372-.172-33.659-.7-44.721C307.16,637.878,303.8,629.6,298.162,623.56Z" transform="translate(0 18.738)" fill="#9a6440"/>
      <path id="Trazado_2666" data-name="Trazado 2666" d="M66.043,620.022c-12.372,10.2-12.139,25.513-12.079,27.42a54.933,54.933,0,0,1,8.814-16.648,56.505,56.505,0,0,1,25.462-18.28A34.025,34.025,0,0,0,66.043,620.022Z" transform="translate(0.644 21.378)" fill="#fff" opacity="0.32"/>
      <path id="Trazado_2667" data-name="Trazado 2667" d="M234.847,713.42h12.088q-5.34-35.055-10.68-70.111Z" transform="translate(21.803 24.981)" fill="#fff" opacity="0.22"/>
      <path id="Trazado_2668" data-name="Trazado 2668" d="M128.84,751.2c6.835-.7,14-1.269,21.484-1.653,6.8-.349,13.354-.521,19.647-.551q.55-49.759,1.1-99.521l-55.024-46.884Q122.443,676.9,128.84,751.2Z" transform="translate(7.907 20.219)" fill="#fff" opacity="0.14"/>
      <path id="Trazado_2669" data-name="Trazado 2669" d="M172.56,737.714a368.2,368.2,0,0,0-57.691,7.334q-12.479-44.495-24.959-88.99,2.448,27.95,4.9,55.9l6.977,36.29c-.366.123-.555.2-.55.237s.208.022.591-.023l.082.424q2.95-.452,5.917-.9,3.788-.568,7.557-1.12c4-.6,9.56-1.374,16.209-2.065a364.05,364.05,0,0,1,41.949-1.866c31.265.184,61.058,3.914,74.1,5.712q.06-.908.122-1.817l4.017-34.954,1.022-43.088-12.516,73.017A325.052,325.052,0,0,0,172.56,737.714Z" transform="translate(4.85 26.472)" opacity="0.15"/>
      <path id="Trazado_2670" data-name="Trazado 2670" d="M227.931,509.69c-.375-1.976-1.469-5.071-3.178-6.486,1.73-13.589,1.417-23.054-2.305-31.448-.66-1.488-16.91-36.6-50.321-37.216-26.01-.482-45.12,20.258-52.418,37.216-3.162,7.35-3.222,16.733-1.4,30.971-2.136,1.021-3.494,4.715-3.921,6.963-1.148,6.042,2.1,13.752,7.575,16.44.481,2.817.99,5.759,1.524,8.846,1.4,8.116,3.551,18.419,11.687,27.625a44.782,44.782,0,0,0,13.554,10.342,40.792,40.792,0,0,0-5.054,18.346c-.462,18.618,12.8,40.593,27.535,40.375,14.447-.213,26.318-21.692,26.653-39.313a43.467,43.467,0,0,0-3.966-18.679,42.338,42.338,0,0,0,11.4-7.884c9.329-9.082,12.038-20.33,13.812-29.75.684-3.627,1.327-7.046,1.929-10.3C226.1,522.767,229.03,515.472,227.931,509.69Z" transform="translate(7.686 0.561)" fill="#d9bf9b"/>
      <path id="Trazado_2671" data-name="Trazado 2671" d="M116.348,508.58c-4.291-18.839,3.341-42.316,3.341-42.316,4.172-12.831,7.153-21.569,14.809-24.011a15.565,15.565,0,0,1,8.77,0,19.307,19.307,0,0,1,5.011-7.517c8.229-7.441,21.145-4.759,27.979-3.341,5.437,1.129,38.742,8.8,48.857,38.419a67.771,67.771,0,0,1,.364,35.426,26.065,26.065,0,0,1-2.785,6.681,21.89,21.89,0,0,1-5.011,5.568c.55-35.954-5.871-46.191-12.25-48.441-8.843-3.119-15.605,9.826-33.406,10.58-19.308.817-27.966-13.822-37.306-10.023-6.214,2.529-12.269,13.018-9.828,49.9a15.365,15.365,0,0,1-5.43-4.175A15.821,15.821,0,0,1,116.348,508.58Z" transform="translate(7.789 0)" fill="#333"/>
      <rect id="Rectángulo_724" data-name="Rectángulo 724" width="8.285" height="104.075" transform="translate(91.621 625.317) rotate(-19.098)" fill="#523300"/>
      <rect id="Rectángulo_725" data-name="Rectángulo 725" width="8.284" height="104.075" transform="translate(228.641 721.93) rotate(-160.902)" fill="#523300"/>
      <path id="Trazado_2674" data-name="Trazado 2674" d="M227.765,747.94H112.128l5.877-61.816c3.117-3.253,21.782-22.087,51.749-21.972,30.11.116,48.679,19.276,51.748,22.549Z" transform="translate(7.449 27.419)" fill="#523300"/>
      <path id="Trazado_2675" data-name="Trazado 2675" d="M246.863,742.593q-10.507-1.694-21.545-2.938A456.553,456.553,0,0,0,96.009,743.9l170.93,41.783a129.792,129.792,0,0,0,35.453-79.4l-51.327-.246Q248.963,724.313,246.863,742.593Z" transform="translate(5.563 32.318)" fill="#d9bf9b"/>
      <path id="Trazado_2676" data-name="Trazado 2676" d="M106.806,744.061q-3.693-19.015-7.388-38.029l-49.291.246A186.682,186.682,0,0,0,60.29,769.524c24.058,3.706,49.235,6.936,75.468,9.514,48.549,4.771,94.242,6.672,136.549,6.644-32.51-10.367-67.475-20.179-104.785-28.889Q136.318,749.508,106.806,744.061Z" transform="translate(0.195 32.318)" fill="#d9bf9b"/>
      <path id="Trazado_2677" data-name="Trazado 2677" d="M295.914,738.506c.292-18.372-.172-33.659-.7-44.721-1.774-37.258-5.137-45.534-10.772-51.576-8.687-9.314-20.866-11.688-28.073-12.405l-23.562-11.1c.093-.335.187-.679.278-1.01l-36.02-21.276c-.018.027-.039.055-.057.082-.372-.429-.757-.862-1.112-1.286q-.866-12.372-1.734-24.744a41.117,41.117,0,0,0,5.1-4.212c9.329-9.082,12.038-20.33,13.812-29.75.684-3.626,1.327-7.046,1.929-10.3,5.054-2.973,7.99-10.267,6.891-16.051a14.5,14.5,0,0,0-2.243-5.455,67.748,67.748,0,0,0-.47-34.981c-10.115-29.622-43.42-37.289-48.857-38.418-1.326-.276-2.884-.6-4.589-.885V814.848c32.533,2.165,63.61,3.083,93.043,3.063h0a129.792,129.792,0,0,0,35.453-79.4l-40.629-.194h.35Z" transform="translate(13.719 0.08)" fill="#530000" opacity="0.1"/>
    </g>
  </g>
</svg>
