<svg xmlns="http://www.w3.org/2000/svg" width="576.613" height="84.623" viewBox="0 0 576.613 84.623">
  <g id="Grupo_1466" data-name="Grupo 1466" transform="translate(-250 -1747)">
    <g id="Grupo_1331" data-name="Grupo 1331" transform="translate(426 1775)">
      <g id="Grupo_1327" data-name="Grupo 1327" transform="translate(7.156 43.429)">
        <path id="Trazado_2872" data-name="Trazado 2872" d="M215.963,153.636l2.723-.447-.309-1.4-2.654.46Z" transform="translate(-214.408 -150.712)" fill="#c49c55"/>
        <rect id="Rectángulo_846" data-name="Rectángulo 846" width="2.693" height="1.405" transform="translate(2.894 1.384) rotate(170.167)" fill="#c49c55"/>
      </g>
      <path id="Trazado_2873" data-name="Trazado 2873" d="M249.473,139.165h-8.7a29.108,29.108,0,0,1-9.77-1.606c-6.007-2.138-10.279-5.843-12.767-11.16a19.5,19.5,0,0,1-1.3-12.383l4.081-19.03a172.605,172.605,0,0,1,47.442,0l4.352,19.842a19.441,19.441,0,0,1-1.574,12.929q-3.325,6.5-11.129,9.518A29.5,29.5,0,0,1,249.473,139.165Z" transform="translate(-207.556 -83.628)" fill="#9a8363"/>
      <path id="Trazado_2874" data-name="Trazado 2874" d="M249.234,141.365h-8.778a29.6,29.6,0,0,1-9.857-1.606c-6.06-2.138-10.368-5.843-12.878-11.161a19.337,19.337,0,0,1-1.307-12.382L220.806,96.1a217.843,217.843,0,0,0,47.442,0l4.531,20.927a19.287,19.287,0,0,1-1.588,12.929q-3.353,6.5-11.227,9.518A30,30,0,0,1,249.234,141.365Z" transform="translate(-207.342 -84.742)" fill="#b4a181"/>
      <path id="Rectángulo_847" data-name="Rectángulo 847" d="M2.5,0H43.086a2.5,2.5,0,0,1,2.5,2.5V14.8a5.439,5.439,0,0,1-5.439,5.439H5.439A5.439,5.439,0,0,1,0,14.8V2.5A2.5,2.5,0,0,1,2.5,0Z" transform="translate(14.493 9.527)" fill="#9a8363"/>
      <path id="Rectángulo_848" data-name="Rectángulo 848" d="M2.5,0H43.086a2.5,2.5,0,0,1,2.5,2.5V14.8a5.439,5.439,0,0,1-5.439,5.439H5.439A5.439,5.439,0,0,1,0,14.8V2.5A2.5,2.5,0,0,1,2.5,0Z" transform="translate(14.493 7.086)" fill="#d8c7ab"/>
      <g id="Grupo_1328" data-name="Grupo 1328" transform="translate(54.932)">
        <path id="Trazado_2875" data-name="Trazado 2875" d="M295.118,84.113h-1.186q-.609-5.144,1.218-7.095h.6c.314,0,.525.26.386.483A9.6,9.6,0,0,0,295.118,84.113Z" transform="translate(-293.779 -77.018)" fill="#c49c55"/>
        <path id="Trazado_2876" data-name="Trazado 2876" d="M298.421,88.207h-1.314a29.349,29.349,0,0,0-1.026-11.189h.666a.786.786,0,0,1,.788.5A30.265,30.265,0,0,1,298.421,88.207Z" transform="translate(-294.711 -77.018)" fill="#f2ce7c"/>
      </g>
      <g id="Grupo_1329" data-name="Grupo 1329" transform="translate(16.378)">
        <path id="Trazado_2877" data-name="Trazado 2877" d="M232.743,84.113h1.27q.652-5.144-1.3-7.095h-.641c-.336,0-.562.26-.413.483A9.049,9.049,0,0,1,232.743,84.113Z" transform="translate(-230.06 -77.018)" fill="#c49c55"/>
        <path id="Trazado_2878" data-name="Trazado 2878" d="M229.15,88.207h1.408a27.493,27.493,0,0,1,1.1-11.189h-.713a.845.845,0,0,0-.844.5A28.336,28.336,0,0,0,229.15,88.207Z" transform="translate(-229.007 -77.018)" fill="#f2ce7c"/>
      </g>
      <g id="Grupo_1330" data-name="Grupo 1330" transform="translate(0 6.651)">
        <rect id="Rectángulo_849" data-name="Rectángulo 849" width="2.693" height="1.405" transform="translate(20.175)" fill="#f2ce7c"/>
        <rect id="Rectángulo_850" data-name="Rectángulo 850" width="2.693" height="1.405" transform="translate(20.175 2.367)" fill="#f2ce7c"/>
        <rect id="Rectángulo_851" data-name="Rectángulo 851" width="2.693" height="1.405" transform="translate(20.175 4.597)" fill="#f2ce7c"/>
        <rect id="Rectángulo_852" data-name="Rectángulo 852" width="2.693" height="1.405" transform="translate(20.175 9.342)" fill="#f2ce7c"/>
        <rect id="Rectángulo_853" data-name="Rectángulo 853" width="2.693" height="1.408" transform="translate(21.583 1.078) rotate(90)" fill="#f2ce7c"/>
        <rect id="Rectángulo_854" data-name="Rectángulo 854" width="2.693" height="1.408" transform="translate(21.583 5.739) rotate(90)" fill="#f2ce7c"/>
        <rect id="Rectángulo_855" data-name="Rectángulo 855" width="2.693" height="1.405" transform="translate(22.868 3.309) rotate(90)" fill="#f2ce7c"/>
        <rect id="Rectángulo_856" data-name="Rectángulo 856" width="2.693" height="1.405" transform="translate(22.868 6.85) rotate(90)" fill="#f2ce7c"/>
        <rect id="Rectángulo_857" data-name="Rectángulo 857" width="2.693" height="1.405" transform="translate(20.175 11.628)" fill="#f2ce7c"/>
        <rect id="Rectángulo_858" data-name="Rectángulo 858" width="2.693" height="1.405" transform="translate(20.175 13.859)" fill="#f2ce7c"/>
        <rect id="Rectángulo_859" data-name="Rectángulo 859" width="2.693" height="1.405" transform="translate(20.175 18.603)" fill="#f2ce7c"/>
        <rect id="Rectángulo_860" data-name="Rectángulo 860" width="2.693" height="1.408" transform="translate(21.583 10.339) rotate(90)" fill="#f2ce7c"/>
        <rect id="Rectángulo_861" data-name="Rectángulo 861" width="2.693" height="1.408" transform="translate(21.583 15) rotate(90)" fill="#f2ce7c"/>
        <rect id="Rectángulo_862" data-name="Rectángulo 862" width="2.693" height="1.405" transform="translate(22.868 12.57) rotate(90)" fill="#f2ce7c"/>
        <rect id="Rectángulo_863" data-name="Rectángulo 863" width="2.693" height="1.405" transform="translate(22.868 16.111) rotate(90)" fill="#f2ce7c"/>
        <rect id="Rectángulo_864" data-name="Rectángulo 864" width="2.693" height="1.405" transform="translate(20.175 20.97)" fill="#f2ce7c"/>
        <rect id="Rectángulo_865" data-name="Rectángulo 865" width="2.693" height="1.405" transform="translate(20.175 23.201)" fill="#f2ce7c"/>
        <rect id="Rectángulo_866" data-name="Rectángulo 866" width="2.693" height="1.405" transform="translate(20.175 27.946)" fill="#f2ce7c"/>
        <rect id="Rectángulo_867" data-name="Rectángulo 867" width="2.693" height="1.408" transform="translate(21.583 19.681) rotate(90)" fill="#f2ce7c"/>
        <rect id="Rectángulo_868" data-name="Rectángulo 868" width="2.693" height="1.408" transform="translate(21.583 24.343) rotate(90)" fill="#f2ce7c"/>
        <rect id="Rectángulo_869" data-name="Rectángulo 869" width="2.693" height="1.405" transform="translate(22.868 21.912) rotate(90)" fill="#f2ce7c"/>
        <rect id="Rectángulo_870" data-name="Rectángulo 870" width="2.693" height="1.405" transform="translate(22.868 25.454) rotate(90)" fill="#f2ce7c"/>
        <rect id="Rectángulo_871" data-name="Rectángulo 871" width="2.693" height="1.405" transform="translate(19.303 32.195) rotate(14.435)" fill="#f2ce7c"/>
        <rect id="Rectángulo_872" data-name="Rectángulo 872" width="2.693" height="1.408" transform="translate(21.564 29.056) rotate(104.436)" fill="#f2ce7c"/>
        <rect id="Rectángulo_873" data-name="Rectángulo 873" width="2.693" height="1.405" transform="translate(22.532 30.453) rotate(104.436)" fill="#f2ce7c"/>
        <rect id="Rectángulo_874" data-name="Rectángulo 874" width="2.693" height="1.405" transform="translate(17.825 36.554) rotate(20.098)" fill="#f2ce7c"/>
        <rect id="Rectángulo_875" data-name="Rectángulo 875" width="2.693" height="1.408" transform="matrix(-0.344, 0.939, -0.939, -0.344, 20.386, 33.654)" fill="#f2ce7c"/>
        <rect id="Rectángulo_876" data-name="Rectángulo 876" width="2.693" height="1.405" transform="translate(21.211 35.139) rotate(110.099)" fill="#f2ce7c"/>
        <rect id="Rectángulo_877" data-name="Rectángulo 877" width="2.693" height="1.405" transform="matrix(0.715, 0.699, -0.699, 0.715, 15.44, 39.56)" fill="#f2ce7c"/>
        <rect id="Rectángulo_878" data-name="Rectángulo 878" width="2.693" height="1.408" transform="matrix(-0.699, 0.715, -0.715, -0.699, 18.964, 37.966)" fill="#f2ce7c"/>
        <rect id="Rectángulo_879" data-name="Rectángulo 879" width="2.693" height="1.405" transform="translate(19.108 39.659) rotate(134.322)" fill="#f2ce7c"/>
        <rect id="Rectángulo_880" data-name="Rectángulo 880" width="2.693" height="1.405" transform="translate(12.071 41.146) rotate(73.645)" fill="#f2ce7c"/>
        <rect id="Rectángulo_881" data-name="Rectángulo 881" width="2.693" height="1.408" transform="translate(15.924 41.482) rotate(163.646)" fill="#f2ce7c"/>
        <rect id="Rectángulo_882" data-name="Rectángulo 882" width="2.693" height="1.405" transform="translate(15.22 43.029) rotate(163.646)" fill="#f2ce7c"/>
        <rect id="Rectángulo_883" data-name="Rectángulo 883" width="2.693" height="1.405" transform="matrix(0.031, 1, -1, 0.031, 7.793, 41.596)" fill="#f2ce7c"/>
        <rect id="Rectángulo_884" data-name="Rectángulo 884" width="2.693" height="1.408" transform="matrix(-1, 0.031, -0.031, -1, 11.437, 42.892)" fill="#f2ce7c"/>
        <rect id="Rectángulo_885" data-name="Rectángulo 885" width="2.693" height="1.405" transform="matrix(-1, 0.031, -0.031, -1, 10.367, 44.211)" fill="#f2ce7c"/>
        <rect id="Rectángulo_886" data-name="Rectángulo 886" width="2.693" height="1.405" transform="matrix(-0.117, 0.993, -0.993, -0.117, 3.486, 41.333)" fill="#f2ce7c"/>
        <path id="Trazado_2879" data-name="Trazado 2879" d="M208.755,157.811l2.743.177-.233,1.536-2.675-.315Z" transform="translate(-204.365 -116.372)" fill="#f2ce7c"/>
        <rect id="Rectángulo_887" data-name="Rectángulo 887" width="2.693" height="1.405" transform="translate(5.646 44.3) rotate(-173.278)" fill="#f2ce7c"/>
        <rect id="Rectángulo_888" data-name="Rectángulo 888" width="2.693" height="1.405" transform="translate(6.43 40.097) rotate(-99.832)" fill="#c49c55"/>
        <rect id="Rectángulo_889" data-name="Rectángulo 889" width="3.061" height="1.606" transform="translate(3.366 43.802) rotate(176.164)" fill="#f2ce7c"/>
        <path id="Trazado_2880" data-name="Trazado 2880" d="M205.5,154.616l-.038-2.706-1.557.229.063,2.639Z" transform="translate(-202.471 -113.983)" fill="#c49c55"/>
        <rect id="Rectángulo_890" data-name="Rectángulo 890" width="3.08" height="1.605" transform="matrix(0.067, 0.998, -0.998, 0.067, 1.601, 39.267)" fill="#f2ce7c"/>
        <path id="Trazado_2881" data-name="Trazado 2881" d="M208.441,154.894l2.723-.447-.309-1.4-2.654.46Z" transform="translate(-204.208 -114.443)" fill="#c49c55"/>
        <rect id="Rectángulo_891" data-name="Rectángulo 891" width="2.693" height="1.405" transform="translate(5.572 38.911) rotate(170.168)" fill="#c49c55"/>
      </g>
      <path id="Trazado_2882" data-name="Trazado 2882" d="M265.594,127.359a15.893,15.893,0,0,1-11.458,0,.855.855,0,0,1-.548-.8v-9.035h12.557v9.033A.855.855,0,0,1,265.594,127.359Z" transform="translate(-222.579 -93.413)" fill="#f2ce7c"/>
      <rect id="Rectángulo_892" data-name="Rectángulo 892" width="12.557" height="5.727" transform="translate(31.009 24.11)" fill="#ad823d"/>
      <rect id="Rectángulo_893" data-name="Rectángulo 893" width="14.206" height="3.39" rx="0.461" transform="translate(30.184 24.11)" fill="#f2ce7c"/>
      <rect id="Rectángulo_894" data-name="Rectángulo 894" width="14.206" height="3.39" rx="0.461" transform="translate(30.184 24.11)" fill="#c49c55"/>
      <path id="Trazado_2883" data-name="Trazado 2883" d="M254.719,117.522h-2.243a.274.274,0,0,0-.274.274v2.624C253,119.415,253.839,118.452,254.719,117.522Z" transform="translate(-222.018 -93.413)" fill="#f2ce7c"/>
      <path id="Trazado_2884" data-name="Trazado 2884" d="M273.235,117.522h-.348c-1.077,1.1-2.089,2.265-3.139,3.39h3.487a.275.275,0,0,0,.275-.274V117.8A.275.275,0,0,0,273.235,117.522Z" transform="translate(-229.12 -93.413)" fill="#f2ce7c"/>
      <path id="Trazado_2885" data-name="Trazado 2885" d="M264.161,117.522h-3.427a46.36,46.36,0,0,0-3.26,3.39h3.4A46.451,46.451,0,0,0,264.161,117.522Z" transform="translate(-224.152 -93.413)" fill="#f2ce7c"/>
    </g>
    <g id="Grupo_1341" data-name="Grupo 1341" transform="translate(250 1752)">
      <g id="Grupo_1336" data-name="Grupo 1336" transform="translate(0 2.778)">
        <g id="Grupo_1333" data-name="Grupo 1333" transform="translate(32.634)">
          <g id="Grupo_1332" data-name="Grupo 1332">
            <path id="Trazado_2886" data-name="Trazado 2886" d="M254.836,374.284a1.441,1.441,0,0,1-1.575-1.249l0-.04c-1.74-15.767,1.8-27.722,9.475-31.981a10.981,10.981,0,0,1,11.092.165c6.088,3.548,11.753,13.958,9.395,32.536l0,.03a1.442,1.442,0,0,1-1.606,1.223l-.21-.023a1.42,1.42,0,0,1-1.284-1.569h0c2.2-17.3-2.921-26.868-7.969-29.809a7.6,7.6,0,0,0-7.776-.129c-5.118,2.841-9.909,12.027-8.005,29.286h0a1.412,1.412,0,0,1-1.31,1.54Z" transform="translate(-252.822 -339.591)" fill="#2b2b37"/>
          </g>
        </g>
        <path id="Trazado_2887" data-name="Trazado 2887" d="M213.341,372.2H272.2a3.541,3.541,0,0,1,3.452,2.751L287.626,427.2a1.754,1.754,0,0,1-1.709,2.145H199.75a1.753,1.753,0,0,1-1.71-2.141l11.846-52.247A3.542,3.542,0,0,1,213.341,372.2Z" transform="translate(-197.997 -352.789)" fill="#898a82"/>
        <path id="Trazado_2888" data-name="Trazado 2888" d="M217.635,375.634h54.647a3.289,3.289,0,0,1,3.205,2.554L286.6,426.7a1.628,1.628,0,0,1-1.587,1.992h-80a1.628,1.628,0,0,1-1.587-1.988l11-48.506A3.288,3.288,0,0,1,217.635,375.634Z" transform="translate(-200.18 -354.18)" fill="#2b2b37"/>
        <g id="Grupo_1335" data-name="Grupo 1335" transform="translate(40.001 26.549)">
          <rect id="Rectángulo_895" data-name="Rectángulo 895" width="11.766" height="2.792" transform="translate(0 0)" fill="#666664"/>
          <g id="Grupo_1334" data-name="Grupo 1334" transform="translate(0.916)">
            <rect id="Rectángulo_896" data-name="Rectángulo 896" width="9.944" height="2.792" rx="0.747" transform="translate(0 0)" fill="#c49c55"/>
            <path id="Trazado_2889" data-name="Trazado 2889" d="M268.856,384.194h-1.628a.453.453,0,0,0-.49.4v1.92C267.407,385.721,268.136,384.96,268.856,384.194Z" transform="translate(-266.738 -384.194)" fill="#f2ce7c"/>
            <path id="Trazado_2890" data-name="Trazado 2890" d="M275.586,384.194h-2.479l-2.575,2.792h2.9Z" transform="translate(-268.274 -384.194)" fill="#f2ce7c"/>
            <path id="Trazado_2891" data-name="Trazado 2891" d="M281.722,384.306l-1.985,2.726h1.716a.453.453,0,0,0,.49-.4v-1.987C281.944,384.5,281.722,384.306,281.722,384.306Z" transform="translate(-271.999 -384.239)" fill="#f2ce7c"/>
          </g>
        </g>
      </g>
      <g id="Grupo_1337" data-name="Grupo 1337" transform="translate(26.841 28.382)">
        <path id="Trazado_2892" data-name="Trazado 2892" d="M253.435,401.593h-9.751a.579.579,0,0,1-.594-.563V389.6a7.7,7.7,0,0,1,1.1-4.065,5,5,0,0,1,4.367-2.639h0a4.976,4.976,0,0,1,4.368,2.64,7.735,7.735,0,0,1,1.1,4.065V401.03A.58.58,0,0,1,253.435,401.593Z" transform="translate(-243.09 -382.722)" fill="#71726d"/>
        <path id="Trazado_2893" data-name="Trazado 2893" d="M253.277,399.652h-8.42a.513.513,0,0,1-.513-.513V388.717a7.317,7.317,0,0,1,.952-3.7,4.3,4.3,0,0,1,3.771-2.405h0a4.273,4.273,0,0,1,3.771,2.406,7.354,7.354,0,0,1,.952,3.705v10.421A.513.513,0,0,1,253.277,399.652Z" transform="translate(-243.598 -382.607)" fill="#959691"/>
      </g>
      <g id="Grupo_1338" data-name="Grupo 1338" transform="translate(54.134 28.382)">
        <path id="Trazado_2894" data-name="Trazado 2894" d="M299.288,401.593h-9.751a.58.58,0,0,1-.595-.563V389.6a7.7,7.7,0,0,1,1.1-4.065,5,5,0,0,1,4.367-2.639h0a4.976,4.976,0,0,1,4.368,2.64,7.735,7.735,0,0,1,1.1,4.065V401.03A.579.579,0,0,1,299.288,401.593Z" transform="translate(-288.943 -382.722)" fill="#71726d"/>
        <path id="Trazado_2895" data-name="Trazado 2895" d="M299.131,399.652h-8.42a.514.514,0,0,1-.514-.513V388.717a7.318,7.318,0,0,1,.952-3.7,4.3,4.3,0,0,1,3.771-2.405h0a4.275,4.275,0,0,1,3.771,2.406,7.354,7.354,0,0,1,.952,3.705v10.421A.513.513,0,0,1,299.131,399.652Z" transform="translate(-289.451 -382.607)" fill="#959691"/>
      </g>
      <g id="Grupo_1339" data-name="Grupo 1339" transform="translate(30.412)">
        <path id="Trazado_2896" data-name="Trazado 2896" d="M251.1,369.617a1.441,1.441,0,0,1-1.575-1.249l0-.04c-1.739-15.767,1.8-27.722,9.476-31.981a10.98,10.98,0,0,1,11.092.165c6.088,3.548,11.754,13.958,9.395,32.536l0,.03a1.442,1.442,0,0,1-1.606,1.223l-.21-.023a1.42,1.42,0,0,1-1.284-1.57h0c2.2-17.3-2.92-26.867-7.969-29.809a7.6,7.6,0,0,0-7.776-.128c-5.118,2.841-9.909,12.027-8,29.286h0a1.411,1.411,0,0,1-1.311,1.54Z" transform="translate(-249.088 -334.924)" fill="#b0b1ac"/>
      </g>
      <path id="Trazado_2897" data-name="Trazado 2897" d="M253.279,412.937V394.711a15.83,15.83,0,0,1,.709-4.264l.7-2.048a1.211,1.211,0,0,0-1.391-1.592l-.02.005-1.308,3.634a10.766,10.766,0,0,0-.635,3.643v18.893Z" transform="translate(-219.586 -355.91)" fill="#898a82"/>
      <path id="Trazado_2898" data-name="Trazado 2898" d="M253.1,396.911a1.04,1.04,0,0,1-1.58.2c.579-1.636-2.843-5.71-4.326-8.034a1.5,1.5,0,0,1,1.124-2.242h.025c.807,2.728,4.354,6.257,4.97,8.692A1.692,1.692,0,0,1,253.1,396.911Z" transform="translate(-217.83 -355.937)" fill="#bababa"/>
      <g id="Grupo_1340" data-name="Grupo 1340" transform="translate(28.37 55.216)">
        <path id="Trazado_2899" data-name="Trazado 2899" d="M253.219,439.175a8.4,8.4,0,0,1-6.561-.008,1.646,1.646,0,0,1-1-1.54v-8.947a.569.569,0,0,1,.569-.568h7.39a.569.569,0,0,1,.569.568v8.971A1.637,1.637,0,0,1,253.219,439.175Z" transform="translate(-245.658 -427.859)" fill="#71726d"/>
        <path id="Trazado_2900" data-name="Trazado 2900" d="M253.066,437.013a3.9,3.9,0,0,1-4.038-.007,1.473,1.473,0,0,1-.615-1.3v-8.02h5.249v8.04A1.475,1.475,0,0,1,253.066,437.013Z" transform="translate(-246.773 -427.688)" fill="#bababa"/>
        <path id="Trazado_2901" data-name="Trazado 2901" d="M253.158,438.519a7.646,7.646,0,0,1-5.732-.007,1.4,1.4,0,0,1-.89-1.3v-7.663a.357.357,0,0,1,.357-.357h6.769a.357.357,0,0,1,.357.357v7.683A1.384,1.384,0,0,1,253.158,438.519Z" transform="translate(-246.014 -428.296)" fill="#959691"/>
      </g>
    </g>
    <g id="Grupo_1367" data-name="Grupo 1367" transform="translate(748 1765)">
      <path id="Trazado_2931" data-name="Trazado 2931" d="M582.412,207.6c-.43-.665-1.9-2.434-3.039-1.437a3.948,3.948,0,0,0-.862,2.758l-.086,1.948h1.712l.1-2.255a1.344,1.344,0,0,1,.2-.817c17.118,26.881,23.606,47.444,1.879,47.65H536.708c-21.72-.206-15.177-20.755,1.929-47.622a1.467,1.467,0,0,1,.18.789l.1,2.255h1.712l-.086-1.948a3.948,3.948,0,0,0-.862-2.758c-1.138-1-2.609.773-3.039,1.437-21.572,31.912-22.128,49.038-.173,50.379v.011h44.181a34.472,34.472,0,0,0,5.137-.342C604.482,254.838,602.872,237.87,582.412,207.6Z" transform="translate(-520.228 -193.032)" fill="#251d1a"/>
      <path id="Trazado_2932" data-name="Trazado 2932" d="M586.471,218.688H542.618L533.2,233.742a4.381,4.381,0,0,0-.409,3.807l8.58,23.852a4.381,4.381,0,0,0,4.122,2.9H583.6a4.38,4.38,0,0,0,4.122-2.9l8.58-23.852a4.381,4.381,0,0,0-.409-3.807Z" transform="translate(-525.208 -198.222)" fill="#241c19"/>
      <path id="Trazado_2933" data-name="Trazado 2933" d="M557.973,207.941h1.4q.721-5.678-1.44-7.831h-.708c-.371,0-.62.287-.455.533A9.99,9.99,0,0,1,557.973,207.941Z" transform="translate(-534.999 -190.702)" fill="#c49c55"/>
      <path id="Trazado_2934" data-name="Trazado 2934" d="M612.918,207.941h-1.309q-.671-5.678,1.345-7.831h.661c.346,0,.579.287.426.533A10.594,10.594,0,0,0,612.918,207.941Z" transform="translate(-557.148 -190.702)" fill="#c49c55"/>
      <g id="Grupo_1362" data-name="Grupo 1362" transform="translate(19.716)">
        <g id="Grupo_1361" data-name="Grupo 1361">
          <path id="Trazado_2935" data-name="Trazado 2935" d="M555.911,213.343c-1.033-15.963,6.241-22.39,11.736-25.292a10.615,10.615,0,0,1,9.745-.26c5.553,2.733,13.064,10.076,12.581,25.552h2.512c.213-16.621-6.19-24.114-12.945-27.438a14.937,14.937,0,0,0-13.709.13c-8.145,4.3-13.015,12.925-12.431,27.308Z" transform="translate(-553.352 -184.304)" fill="#332e2b"/>
        </g>
      </g>
      <path id="Trazado_2936" data-name="Trazado 2936" d="M591.883,213.127H550.822a1.345,1.345,0,0,0-1.344,1.345v43.179a4.368,4.368,0,0,0,2.873,1.088h38.108a4.364,4.364,0,0,0,2.77-1V214.472A1.345,1.345,0,0,0,591.883,213.127Z" transform="translate(-532.068 -195.971)" fill="#c49c55"/>
      <path id="Trazado_2937" data-name="Trazado 2937" d="M593.228,218.688h-43.75v44.523a4.366,4.366,0,0,0,2.873,1.088h38.108a4.364,4.364,0,0,0,2.77-1Z" transform="translate(-532.068 -198.222)" fill="#332e2b"/>
      <path id="Trazado_2938" data-name="Trazado 2938" d="M616.564,212.46h-1.45a32.406,32.406,0,0,0-1.132-12.35h.735a.868.868,0,0,1,.87.555A33.4,33.4,0,0,1,616.564,212.46Z" transform="translate(-558.177 -190.702)" fill="#f2ce7c"/>
      <path id="Trazado_2939" data-name="Trazado 2939" d="M554.008,212.46h1.553a30.355,30.355,0,0,1,1.213-12.35h-.788a.932.932,0,0,0-.931.555A31.265,31.265,0,0,0,554.008,212.46Z" transform="translate(-533.837 -190.702)" fill="#f2ce7c"/>
      <g id="Grupo_1363" data-name="Grupo 1363" transform="translate(35.469 16.723)">
        <path id="Trazado_2940" data-name="Trazado 2940" d="M587.552,239.19h-7.736V212.781a19.824,19.824,0,0,1,7.736,0Z" transform="translate(-579.816 -212.4)" fill="#251d1a"/>
        <path id="Trazado_2941" data-name="Trazado 2941" d="M579.816,238.506v10.886h7.736V238.506A8.747,8.747,0,0,0,579.816,238.506Z" transform="translate(-579.816 -222.602)" fill="#c49c55"/>
        <path id="Trazado_2942" data-name="Trazado 2942" d="M579.816,248.785v1.169h4c.882-1.048,1.777-2.09,2.557-3.21.4-.572.79-1.146,1.183-1.72v-5.957c-.061-.029-.122-.048-.183-.074C584.886,242.277,582.231,245.467,579.816,248.785Z" transform="translate(-579.816 -223.164)" fill="#f2ce7c"/>
        <path id="Trazado_2943" data-name="Trazado 2943" d="M584.253,237.646a8.916,8.916,0,0,0-4.437.868v4.8C581.293,241.426,582.8,239.549,584.253,237.646Z" transform="translate(-579.816 -222.61)" fill="#f2ce7c"/>
      </g>
      <g id="Grupo_1366" data-name="Grupo 1366" transform="translate(18.73 21.344)">
        <g id="Grupo_1364" data-name="Grupo 1364">
          <path id="Trazado_2944" data-name="Trazado 2944" d="M556.315,224.422H551.7v-4.259h4.62Zm-3.792-.827h2.964v-2.6h-2.964Z" transform="translate(-551.695 -220.163)" fill="#f2ce7c"/>
        </g>
        <g id="Grupo_1365" data-name="Grupo 1365" transform="translate(36.472)">
          <path id="Trazado_2945" data-name="Trazado 2945" d="M617.589,224.422h-4.62v-4.259h4.62Zm-3.792-.827h2.965v-2.6H613.8Z" transform="translate(-612.969 -220.163)" fill="#f2ce7c"/>
        </g>
      </g>
    </g>
    <g id="Grupo_1383" data-name="Grupo 1383" transform="translate(578 1747)">
      <g id="Grupo_1373" data-name="Grupo 1373" transform="translate(17.584 1.466)">
        <g id="Grupo_1372" data-name="Grupo 1372">
          <g id="Grupo_1369" data-name="Grupo 1369" transform="translate(2.65)">
            <g id="Grupo_1368" data-name="Grupo 1368">
              <path id="Trazado_2946" data-name="Trazado 2946" d="M402.4,358.065c-1.009-15.584,6.093-21.86,11.458-24.693a10.363,10.363,0,0,1,9.513-.254c5.422,2.668,12.755,9.837,12.283,24.946H438.1c.208-16.227-6.043-23.543-12.639-26.788a14.581,14.581,0,0,0-13.384.127c-7.952,4.2-12.707,12.619-12.136,26.661Z" transform="translate(-399.896 -329.714)" fill="#3b3b39"/>
            </g>
          </g>
          <g id="Grupo_1370" data-name="Grupo 1370" transform="translate(0 28.351)">
            <path id="Trazado_2947" data-name="Trazado 2947" d="M402.432,384.912h-4.017a.359.359,0,0,1-.359-.359v-5.222l1.142-1.987h2.452l1.141,1.818v5.391A.359.359,0,0,1,402.432,384.912Z" transform="translate(-396.502 -377.344)" fill="#3b3b39"/>
            <path id="Trazado_2948" data-name="Trazado 2948" d="M460.412,412.5h0a2.368,2.368,0,0,1-2.368-2.368V393.611h4.736v16.517A2.368,2.368,0,0,1,460.412,412.5Z" transform="translate(-420.783 -383.928)" fill="#3b3b39"/>
            <path id="Trazado_2949" data-name="Trazado 2949" d="M400.5,412.5h0a2.368,2.368,0,0,1-2.368-2.368V393.611h4.736v16.517A2.368,2.368,0,0,1,400.5,412.5Z" transform="translate(-396.532 -383.928)" fill="#3b3b39"/>
            <path id="Trazado_2950" data-name="Trazado 2950" d="M406.011,392.027h.767a.872.872,0,0,0,.872-.872v-4.5a.872.872,0,0,0-.872-.872h-.767Z" transform="translate(-399.722 -380.759)" fill="#3b3b39"/>
            <path id="Trazado_2951" data-name="Trazado 2951" d="M396.243,392.027H397V385.78h-.756a.8.8,0,0,0-.8.8v4.651A.8.8,0,0,0,396.243,392.027Z" transform="translate(-395.445 -380.759)" fill="#3b3b39"/>
          </g>
          <g id="Grupo_1371" data-name="Grupo 1371" transform="translate(35.707 28.351)">
            <path id="Trazado_2952" data-name="Trazado 2952" d="M462.42,384.912H458.4a.359.359,0,0,1-.359-.359v-5.222l1.142-1.987h2.452l1.142,1.818v5.391A.359.359,0,0,1,462.42,384.912Z" transform="translate(-456.49 -377.344)" fill="#3b3b39"/>
            <path id="Trazado_2953" data-name="Trazado 2953" d="M466,392.027h.766a.872.872,0,0,0,.872-.872v-4.5a.872.872,0,0,0-.872-.872H466Z" transform="translate(-459.71 -380.759)" fill="#3b3b39"/>
            <path id="Trazado_2954" data-name="Trazado 2954" d="M456.231,392.027h.756V385.78h-.756a.8.8,0,0,0-.8.8v4.651A.8.8,0,0,0,456.231,392.027Z" transform="translate(-455.433 -380.759)" fill="#3b3b39"/>
          </g>
        </g>
      </g>
      <g id="Grupo_1378" data-name="Grupo 1378" transform="translate(0 30.212)">
        <path id="Rectángulo_922" data-name="Rectángulo 922" d="M6.707,0H77.819a6.707,6.707,0,0,1,6.707,6.707V36.22a15.6,15.6,0,0,1-15.6,15.6H15.6A15.6,15.6,0,0,1,0,36.22V6.707A6.707,6.707,0,0,1,6.707,0Z" transform="translate(0 2.085)" fill="#c8c5bc"/>
        <path id="Rectángulo_923" data-name="Rectángulo 923" d="M0,0H84.526a0,0,0,0,1,0,0V31.435A14.728,14.728,0,0,1,69.8,46.162H14.728A14.728,14.728,0,0,1,0,31.435V0A0,0,0,0,1,0,0Z" transform="translate(0 7.747)" fill="#706961"/>
        <g id="Grupo_1377" data-name="Grupo 1377" transform="translate(0.025 6.287)">
          <g id="Grupo_1374" data-name="Grupo 1374" transform="translate(0 0.108)">
            <rect id="Rectángulo_924" data-name="Rectángulo 924" width="2.707" height="1.412" transform="translate(1.412 0.1) rotate(89.777)" fill="#f2ce7c"/>
            <rect id="Rectángulo_925" data-name="Rectángulo 925" width="2.707" height="1.412" transform="translate(3.791 0.091) rotate(89.777)" fill="#f2ce7c"/>
            <rect id="Rectángulo_926" data-name="Rectángulo 926" width="2.707" height="1.412" transform="matrix(0.004, 1, -1, 0.004, 6.033, 0.082)" fill="#f2ce7c"/>
            <rect id="Rectángulo_927" data-name="Rectángulo 927" width="2.707" height="1.412" transform="matrix(0.004, 1, -1, 0.004, 10.802, 0.064)" fill="#f2ce7c"/>
            <rect id="Rectángulo_928" data-name="Rectángulo 928" width="2.707" height="1.415" transform="translate(1.084 0.102) rotate(-0.223)" fill="#f2ce7c"/>
            <rect id="Rectángulo_929" data-name="Rectángulo 929" width="2.707" height="1.415" transform="translate(5.769 0.083) rotate(-0.223)" fill="#f2ce7c"/>
            <rect id="Rectángulo_930" data-name="Rectángulo 930" width="2.707" height="1.412" transform="translate(3.331 1.388) rotate(-0.223)" fill="#f2ce7c"/>
            <rect id="Rectángulo_931" data-name="Rectángulo 931" width="2.707" height="1.412" transform="translate(6.89 1.374) rotate(-0.223)" fill="#f2ce7c"/>
            <rect id="Rectángulo_932" data-name="Rectángulo 932" width="2.707" height="1.412" transform="translate(13.099 0.055) rotate(89.777)" fill="#f2ce7c"/>
            <rect id="Rectángulo_933" data-name="Rectángulo 933" width="2.707" height="1.412" transform="matrix(0.004, 1, -1, 0.004, 15.341, 0.046)" fill="#f2ce7c"/>
            <rect id="Rectángulo_934" data-name="Rectángulo 934" width="2.707" height="1.412" transform="translate(20.11 0.028) rotate(89.777)" fill="#f2ce7c"/>
            <rect id="Rectángulo_935" data-name="Rectángulo 935" width="2.707" height="1.415" transform="translate(10.392 0.065) rotate(-0.223)" fill="#f2ce7c"/>
            <rect id="Rectángulo_936" data-name="Rectángulo 936" width="2.707" height="1.415" transform="translate(15.077 0.047) rotate(-0.223)" fill="#f2ce7c"/>
            <rect id="Rectángulo_937" data-name="Rectángulo 937" width="2.707" height="1.412" transform="translate(12.639 1.352) rotate(-0.223)" fill="#f2ce7c"/>
            <rect id="Rectángulo_938" data-name="Rectángulo 938" width="2.707" height="1.412" transform="translate(16.199 1.338) rotate(-0.223)" fill="#f2ce7c"/>
            <rect id="Rectángulo_939" data-name="Rectángulo 939" width="2.707" height="1.412" transform="translate(22.489 0.018) rotate(89.777)" fill="#f2ce7c"/>
            <rect id="Rectángulo_940" data-name="Rectángulo 940" width="2.707" height="1.412" transform="translate(24.731 0.01) rotate(89.777)" fill="#f2ce7c"/>
            <rect id="Rectángulo_941" data-name="Rectángulo 941" width="2.707" height="1.415" transform="translate(19.782 0.029) rotate(-0.223)" fill="#f2ce7c"/>
            <rect id="Rectángulo_942" data-name="Rectángulo 942" width="2.707" height="1.415" transform="translate(24.467 0.011) rotate(-0.223)" fill="#f2ce7c"/>
            <rect id="Rectángulo_943" data-name="Rectángulo 943" width="2.707" height="1.412" transform="translate(22.029 1.315) rotate(-0.223)" fill="#f2ce7c"/>
            <rect id="Rectángulo_944" data-name="Rectángulo 944" width="2.707" height="1.412" transform="translate(25.588 1.301) rotate(-0.223)" fill="#f2ce7c"/>
          </g>
          <g id="Grupo_1375" data-name="Grupo 1375" transform="translate(28.219 0.051)">
            <rect id="Rectángulo_945" data-name="Rectángulo 945" width="2.707" height="1.412" transform="translate(1.412 0.1) rotate(89.777)" fill="#f2ce7c"/>
            <rect id="Rectángulo_946" data-name="Rectángulo 946" width="2.707" height="1.412" transform="translate(3.791 0.091) rotate(89.777)" fill="#f2ce7c"/>
            <rect id="Rectángulo_947" data-name="Rectángulo 947" width="2.707" height="1.412" transform="translate(6.033 0.082) rotate(89.777)" fill="#f2ce7c"/>
            <rect id="Rectángulo_948" data-name="Rectángulo 948" width="2.707" height="1.412" transform="translate(10.802 0.064) rotate(89.777)" fill="#f2ce7c"/>
            <rect id="Rectángulo_949" data-name="Rectángulo 949" width="2.707" height="1.415" transform="translate(1.084 0.102) rotate(-0.223)" fill="#f2ce7c"/>
            <rect id="Rectángulo_950" data-name="Rectángulo 950" width="2.707" height="1.415" transform="translate(5.769 0.083) rotate(-0.223)" fill="#f2ce7c"/>
            <rect id="Rectángulo_951" data-name="Rectángulo 951" width="2.707" height="1.412" transform="matrix(1, -0.004, 0.004, 1, 3.331, 1.388)" fill="#f2ce7c"/>
            <rect id="Rectángulo_952" data-name="Rectángulo 952" width="2.707" height="1.412" transform="translate(6.89 1.374) rotate(-0.223)" fill="#f2ce7c"/>
            <rect id="Rectángulo_953" data-name="Rectángulo 953" width="2.707" height="1.412" transform="translate(13.099 0.055) rotate(89.777)" fill="#f2ce7c"/>
            <rect id="Rectángulo_954" data-name="Rectángulo 954" width="2.707" height="1.412" transform="translate(15.341 0.046) rotate(89.777)" fill="#f2ce7c"/>
            <rect id="Rectángulo_955" data-name="Rectángulo 955" width="2.707" height="1.412" transform="translate(20.11 0.028) rotate(89.777)" fill="#f2ce7c"/>
            <rect id="Rectángulo_956" data-name="Rectángulo 956" width="2.707" height="1.415" transform="translate(10.392 0.065) rotate(-0.223)" fill="#f2ce7c"/>
            <rect id="Rectángulo_957" data-name="Rectángulo 957" width="2.707" height="1.415" transform="translate(15.077 0.047) rotate(-0.224)" fill="#f2ce7c"/>
            <rect id="Rectángulo_958" data-name="Rectángulo 958" width="2.707" height="1.412" transform="matrix(1, -0.004, 0.004, 1, 12.639, 1.352)" fill="#f2ce7c"/>
            <rect id="Rectángulo_959" data-name="Rectángulo 959" width="2.707" height="1.412" transform="translate(16.199 1.338) rotate(-0.223)" fill="#f2ce7c"/>
            <rect id="Rectángulo_960" data-name="Rectángulo 960" width="2.707" height="1.412" transform="matrix(0.004, 1, -1, 0.004, 22.489, 0.018)" fill="#f2ce7c"/>
            <rect id="Rectángulo_961" data-name="Rectángulo 961" width="2.707" height="1.412" transform="translate(24.731 0.01) rotate(89.777)" fill="#f2ce7c"/>
            <rect id="Rectángulo_962" data-name="Rectángulo 962" width="2.707" height="1.415" transform="translate(19.782 0.029) rotate(-0.223)" fill="#f2ce7c"/>
            <rect id="Rectángulo_963" data-name="Rectángulo 963" width="2.707" height="1.415" transform="translate(24.467 0.011) rotate(-0.223)" fill="#f2ce7c"/>
            <rect id="Rectángulo_964" data-name="Rectángulo 964" width="2.707" height="1.412" transform="translate(22.029 1.315) rotate(-0.224)" fill="#f2ce7c"/>
            <rect id="Rectángulo_965" data-name="Rectángulo 965" width="2.707" height="1.412" transform="translate(25.588 1.302) rotate(-0.223)" fill="#f2ce7c"/>
          </g>
          <g id="Grupo_1376" data-name="Grupo 1376" transform="translate(56.176)">
            <rect id="Rectángulo_966" data-name="Rectángulo 966" width="2.707" height="1.412" transform="matrix(0.004, 1, -1, 0.004, 1.412, 0.1)" fill="#f2ce7c"/>
            <rect id="Rectángulo_967" data-name="Rectángulo 967" width="2.707" height="1.412" transform="matrix(0.004, 1, -1, 0.004, 3.791, 0.091)" fill="#f2ce7c"/>
            <rect id="Rectángulo_968" data-name="Rectángulo 968" width="2.707" height="1.412" transform="translate(6.033 0.082) rotate(89.777)" fill="#f2ce7c"/>
            <rect id="Rectángulo_969" data-name="Rectángulo 969" width="2.707" height="1.412" transform="matrix(0.004, 1, -1, 0.004, 10.802, 0.064)" fill="#f2ce7c"/>
            <rect id="Rectángulo_970" data-name="Rectángulo 970" width="2.707" height="1.415" transform="translate(1.084 0.102) rotate(-0.223)" fill="#f2ce7c"/>
            <rect id="Rectángulo_971" data-name="Rectángulo 971" width="2.707" height="1.415" transform="translate(5.769 0.083) rotate(-0.223)" fill="#f2ce7c"/>
            <rect id="Rectángulo_972" data-name="Rectángulo 972" width="2.707" height="1.412" transform="translate(3.331 1.388) rotate(-0.223)" fill="#f2ce7c"/>
            <rect id="Rectángulo_973" data-name="Rectángulo 973" width="2.707" height="1.412" transform="translate(6.89 1.374) rotate(-0.224)" fill="#f2ce7c"/>
            <rect id="Rectángulo_974" data-name="Rectángulo 974" width="2.707" height="1.412" transform="matrix(0.004, 1, -1, 0.004, 13.099, 0.055)" fill="#f2ce7c"/>
            <rect id="Rectángulo_975" data-name="Rectángulo 975" width="2.707" height="1.412" transform="matrix(0.004, 1, -1, 0.004, 15.341, 0.046)" fill="#f2ce7c"/>
            <rect id="Rectángulo_976" data-name="Rectángulo 976" width="2.707" height="1.412" transform="translate(20.11 0.028) rotate(89.777)" fill="#f2ce7c"/>
            <rect id="Rectángulo_977" data-name="Rectángulo 977" width="2.707" height="1.415" transform="translate(10.392 0.065) rotate(-0.223)" fill="#f2ce7c"/>
            <rect id="Rectángulo_978" data-name="Rectángulo 978" width="2.707" height="1.415" transform="translate(15.077 0.047) rotate(-0.223)" fill="#f2ce7c"/>
            <rect id="Rectángulo_979" data-name="Rectángulo 979" width="2.707" height="1.412" transform="matrix(1, -0.004, 0.004, 1, 12.639, 1.352)" fill="#f2ce7c"/>
            <rect id="Rectángulo_980" data-name="Rectángulo 980" width="2.707" height="1.412" transform="translate(16.199 1.338) rotate(-0.223)" fill="#f2ce7c"/>
            <rect id="Rectángulo_981" data-name="Rectángulo 981" width="2.707" height="1.412" transform="matrix(0.004, 1, -1, 0.004, 22.489, 0.018)" fill="#f2ce7c"/>
            <rect id="Rectángulo_982" data-name="Rectángulo 982" width="2.707" height="1.412" transform="matrix(0.004, 1, -1, 0.004, 24.731, 0.01)" fill="#f2ce7c"/>
            <rect id="Rectángulo_983" data-name="Rectángulo 983" width="2.707" height="1.415" transform="translate(19.782 0.029) rotate(-0.223)" fill="#f2ce7c"/>
            <rect id="Rectángulo_984" data-name="Rectángulo 984" width="2.707" height="1.415" transform="translate(24.467 0.011) rotate(-0.223)" fill="#f2ce7c"/>
            <rect id="Rectángulo_985" data-name="Rectángulo 985" width="2.707" height="1.412" transform="translate(22.029 1.315) rotate(-0.223)" fill="#f2ce7c"/>
            <rect id="Rectángulo_986" data-name="Rectángulo 986" width="2.707" height="1.412" transform="translate(25.588 1.302) rotate(-0.224)" fill="#f2ce7c"/>
          </g>
        </g>
        <path id="Rectángulo_987" data-name="Rectángulo 987" d="M3.869,0H65.008a3.869,3.869,0,0,1,3.869,3.869V53.91a0,0,0,0,1,0,0H0a0,0,0,0,1,0,0V3.869A3.869,3.869,0,0,1,3.869,0Z" transform="translate(7.972)" fill="#b4a181"/>
        <rect id="Rectángulo_988" data-name="Rectángulo 988" width="58.931" height="46.125" rx="2.644" transform="translate(12.945 3.892)" fill="#e8e3e0"/>
      </g>
      <g id="Grupo_1382" data-name="Grupo 1382" transform="translate(21.005)">
        <g id="Grupo_1379" data-name="Grupo 1379" transform="translate(2.65)">
          <path id="Trazado_2955" data-name="Trazado 2955" d="M408.142,355.6c-1.009-15.585,6.093-21.86,11.458-24.693a10.364,10.364,0,0,1,9.514-.254c5.421,2.668,12.755,9.836,12.283,24.946h2.452c.208-16.227-6.043-23.543-12.639-26.788a14.582,14.582,0,0,0-13.385.127c-7.952,4.2-12.706,12.618-12.136,26.661Z" transform="translate(-405.643 -327.251)" fill="#706961"/>
        </g>
        <g id="Grupo_1380" data-name="Grupo 1380" transform="translate(0 28.351)">
          <path id="Trazado_2956" data-name="Trazado 2956" d="M408.179,382.449h-4.017a.359.359,0,0,1-.36-.36v-5.221l1.142-1.987H407.4l1.142,1.818v5.39A.36.36,0,0,1,408.179,382.449Z" transform="translate(-402.249 -374.881)" fill="#706961"/>
          <path id="Trazado_2957" data-name="Trazado 2957" d="M466.159,401.937h0a2.368,2.368,0,0,1-2.368-2.368v-8.421h4.736v8.421A2.368,2.368,0,0,1,466.159,401.937Z" transform="translate(-426.53 -381.465)" fill="#706961"/>
          <path id="Trazado_2958" data-name="Trazado 2958" d="M406.171,402.139h0a2.368,2.368,0,0,1-2.368-2.368V391.35h4.736v8.421A2.368,2.368,0,0,1,406.171,402.139Z" transform="translate(-402.249 -381.547)" fill="#706961"/>
          <path id="Rectángulo_989" data-name="Rectángulo 989" d="M0,0H.173A1.465,1.465,0,0,1,1.638,1.465V4.782A1.465,1.465,0,0,1,.173,6.247H0a0,0,0,0,1,0,0V0A0,0,0,0,1,0,0Z" transform="translate(6.289 5.021)" fill="#f2ce7c"/>
          <path id="Rectángulo_990" data-name="Rectángulo 990" d="M1.341,0h.213a0,0,0,0,1,0,0V6.247a0,0,0,0,1,0,0H1.341A1.341,1.341,0,0,1,0,4.906V1.341A1.341,1.341,0,0,1,1.341,0Z" transform="translate(0 5.021)" fill="#f2ce7c"/>
        </g>
        <g id="Grupo_1381" data-name="Grupo 1381" transform="translate(35.707 28.351)">
          <path id="Trazado_2959" data-name="Trazado 2959" d="M468.167,382.449h-4.017a.359.359,0,0,1-.359-.36v-5.221l1.142-1.987h2.452l1.142,1.818v5.39A.36.36,0,0,1,468.167,382.449Z" transform="translate(-462.237 -374.881)" fill="#706961"/>
          <path id="Rectángulo_991" data-name="Rectángulo 991" d="M0,0H.173A1.465,1.465,0,0,1,1.638,1.465V4.782A1.465,1.465,0,0,1,.173,6.247H0a0,0,0,0,1,0,0V0A0,0,0,0,1,0,0Z" transform="translate(6.29 5.021)" fill="#f2ce7c"/>
          <path id="Rectángulo_992" data-name="Rectángulo 992" d="M1.341,0h.213a0,0,0,0,1,0,0V6.247a0,0,0,0,1,0,0H1.341A1.341,1.341,0,0,1,0,4.906V1.341A1.341,1.341,0,0,1,1.341,0Z" transform="translate(0 5.021)" fill="#f2ce7c"/>
        </g>
      </g>
    </g>
  </g>
</svg>
