<svg xmlns="http://www.w3.org/2000/svg" width="400" height="373.399" viewBox="0 0 400 373.399">
  <g id="Grupo_1240" data-name="Grupo 1240" transform="translate(-95.438 -85.596)">
    <g id="Grupo_1202" data-name="Grupo 1202" transform="translate(127.241 218.453)">
      <g id="Grupo_1201" data-name="Grupo 1201" transform="translate(33.894 95.701)">
        <path id="Trazado_2679" data-name="Trazado 2679" d="M179.193,246.9v3.028c0,2.925-1.933,5.852-5.8,8.083-7.732,4.465-20.269,4.465-28,0-3.865-2.232-5.8-5.157-5.8-8.083V246.9Z" transform="translate(-139.594 -235.465)" fill="#1a1a1a"/>
        <ellipse id="Elipse_528" data-name="Elipse 528" cx="19.8" cy="11.432" rx="19.8" ry="11.432" fill="#4d4d4d"/>
      </g>
      <path id="Trazado_2680" data-name="Trazado 2680" d="M148.9,197.21v74.051a2.98,2.98,0,0,0,1.745,2.43,9.288,9.288,0,0,0,8.406,0,2.928,2.928,0,0,0,1.739-2.489l.006-74.324a3.178,3.178,0,0,1-1.738,2.1,9.514,9.514,0,0,1-8.513,0A3.425,3.425,0,0,1,148.9,197.21Z" transform="translate(-101.159 -164.165)" fill="#1a1a1a"/>
      <path id="Trazado_2681" data-name="Trazado 2681" d="M124.9,208.736c5.66-1.009,16.874-4.664,25.705-5.182.982-.06,1.931-.073,2.84-.046,1.994.064,6.663.763,7.173,2.62a3.425,3.425,0,0,0,1.646,1.772,9.514,9.514,0,0,0,8.513,0,3.178,3.178,0,0,0,1.738-2.1v-.079l.027-.245c0-.027,2.5-26.237,2.5-26.237l-9.11-.637Z" transform="translate(-112.87 -173.082)" fill="#4d4d4d"/>
      <path id="Trazado_2682" data-name="Trazado 2682" d="M147.943,203.193c7.643-4.652,6.814-8.646,17.478-13.5l.656-.3c.551-.238,1.129-.484,1.745-.729.04-.021.086-.034.126-.054,1.394-.558,2.953-1.128,4.7-1.712,6.588-2.208,8.659-7.47,2.76-10.324l-.238-.119a16.929,16.929,0,0,0-13.949-.119,35.888,35.888,0,0,0-7.213,3.993c-.039.027-.073.054-.112.08-.431.286-.83.556-1.2.809a29.823,29.823,0,0,1-10.1,4.917C100.447,199.125,115.581,222.893,147.943,203.193Z" transform="translate(-116.813 -174.891)" fill="gray"/>
      <path id="Trazado_2683" data-name="Trazado 2683" d="M141.062,179.278c1.36,5.932,7.839,8,13.185,8.3l-.65.3c.777-.359,1.613-.717,2.522-1.082-3.464-.2-12.946-1.387-14.047-8.2C141.641,178.884,141.432,179.025,141.062,179.278Z" transform="translate(-104.984 -173.082)" fill="#1a1a1a"/>
      <path id="Trazado_2684" data-name="Trazado 2684" d="M148.828,197.713a1.84,1.84,0,0,0,.113.729,3.425,3.425,0,0,0,1.646,1.772,9.514,9.514,0,0,0,8.513,0,3.178,3.178,0,0,0,1.738-2.1,1.706,1.706,0,0,0,.027-.324,2.985,2.985,0,0,0-1.765-2.428,9.514,9.514,0,0,0-8.513,0A3.006,3.006,0,0,0,148.828,197.713Z" transform="translate(-101.196 -165.397)" fill="#4d4d4d"/>
      <path id="Trazado_2685" data-name="Trazado 2685" d="M142.173,200.847c.982-.06,1.931-.073,2.84-.046a15.479,15.479,0,0,0,2.263-2.058,4.473,4.473,0,0,1,1.473-1.241,3.971,3.971,0,0,1,2.5.146,7.9,7.9,0,0,0,1.567.332c2,.18,4.472-.955,6.3-2.885s3.078-5.017,1.924-6.657c-.869-1.233-2.555-1.174-4.035-1.12-.4.013-.809.033-1.187.019-.192-.006-.763-.027-.969-.245-.18-.186-.412-.842.6-2.946-.616.245-1.195.491-1.745.729-.424,1.241-.51,2.382.173,3.12a2.616,2.616,0,0,0,1.9.67c.412.006.844-.006,1.274-.019,1.2-.04,2.449-.086,2.9.556.577.817-.079,3.172-1.8,4.977a7.089,7.089,0,0,1-5.228,2.482,7.314,7.314,0,0,1-1.315-.286,5.243,5.243,0,0,0-3.27-.138,5.3,5.3,0,0,0-2.037,1.592A10.817,10.817,0,0,1,142.173,200.847Z" transform="translate(-104.442 -170.376)" fill="#1a1a1a"/>
    </g>
    <g id="Grupo_1239" data-name="Grupo 1239" transform="translate(95.438 85.596)">
      <path id="Trazado_2686" data-name="Trazado 2686" d="M380.236,310.963c-5.28,2.186-13.42,2.477-22.587-1.424s-11.233-13.527-23.139-18.327c-1.812-.731-3.749-1.342-5.687-1.933-8.133-2.489-16.293-4.675-15.146-14.231.342-2.7,1.936-4.864,22.719-3.854,17.438.847,49.079,28.333,50.2,32.8C386.6,303.991,384.165,309.34,380.236,310.963Z" transform="translate(10.976 4.823)" fill="#754c24" opacity="0.2" style="mix-blend-mode: multiply;isolation: isolate"/>
      <ellipse id="Elipse_529" data-name="Elipse 529" cx="53.258" cy="30.749" rx="53.258" ry="30.749" transform="translate(0 292.393)" fill="#754c24" opacity="0.2" style="mix-blend-mode: multiply;isolation: isolate"/>
      <path id="Trazado_2687" data-name="Trazado 2687" d="M185.368,244.015c-9.376-5.413-24.582-5.413-33.96,0-5.484,3.166-7.735,7.481-6.807,11.6-40.39,13.08-25.271,36.08,6.721,16.6a29.016,29.016,0,0,0,6.852-5.868c8.9,2.418,19.837,1.518,27.195-2.73C194.748,258.209,194.748,249.431,185.368,244.015Z" transform="translate(-83.35 -10.293)" fill="#754c24" opacity="0.2" style="mix-blend-mode: multiply;isolation: isolate"/>
      <path id="Trazado_2688" data-name="Trazado 2688" d="M365.966,342.679l-.254-.01A2.772,2.772,0,0,1,363.5,338.3c11.2-15.167,6.1-33.393-15.337-45.768-18.321-10.577-44.05-14.265-67.544-11.071-8.807,1.2-17.2-3.245-21.964-10.747-2.532-3.987-6.567-7.728-12.111-10.928-20.6-11.892-54.108-11.788-74.48.311-19.492,11.577-18.991,31.2.68,42.469,9.225,5.285,21.01,8.171,33.038,8.667a21.228,21.228,0,0,1,19.988,16.305c.022.091.052.182.073.272L200.774,338.39a18.513,18.513,0,0,1-10.317,10.779c-11.912,4.913-20.973,12.27-20.209,17.851.052.442.112.85.186,1.256a5.859,5.859,0,0,0,2.754,3.157c.187.115.381.229.576.336a16.123,16.123,0,0,0,4.377,1.6c8.171,1.768,18.872-1.412,26.347-4.99,3.517-1.69,4.782-3.779,6.247-6.188,6.061-9.931,10.088-7.515,19.373-10.873q.4-.138.786-.3.52-.2,1.018-.421a15.527,15.527,0,0,1,14.036.638l.274.158c16.947,9.786,40.233,13.676,62.225,11.68a7.757,7.757,0,0,1,8.33,7.417c.348,4.426,4.859,7.465,13.036,7.82,14.018.613,43.71-11.486,53.68-21.342C393.816,346.762,380.468,343.315,365.966,342.679Z" transform="translate(-65.058 -4.931)" fill="#754c24" opacity="0.2" style="mix-blend-mode: multiply;isolation: isolate"/>
      <g id="Grupo_1206" data-name="Grupo 1206" transform="translate(2.73 202.151)">
        <g id="Grupo_1205" data-name="Grupo 1205">
          <path id="Trazado_2689" data-name="Trazado 2689" d="M141.957,310.34l3.07-5.318-41.935-24.212-2.119,5.868Z" transform="translate(-95.467 -192.513)" fill="#c7b299"/>
          <rect id="Rect치ngulo_727" data-name="Rect치ngulo 727" width="51.713" height="6.141" transform="matrix(0.866, -0.5, 0.5, 0.866, 45.874, 114.505)" fill="#c7b299"/>
          <path id="Trazado_2690" data-name="Trazado 2690" d="M104.716,294.036l39.816-22.988-3.07-5.318-39.473,22.79Z" transform="translate(-94.972 -199.871)" fill="#c7b299"/>
          <path id="Trazado_2691" data-name="Trazado 2691" d="M172.89,295.562l1.217-6.388-42.932-24.786-3.069,5.318Z" transform="translate(-82.231 -200.525)" fill="#c7b299"/>
          <g id="Grupo_1204" data-name="Grupo 1204">
            <g id="Grupo_1203" data-name="Grupo 1203" transform="translate(0 22.41)">
              <path id="Trazado_2692" data-name="Trazado 2692" d="M131.878,318.253c-2.5,0-4.533,1.391-4.533,3.108s2.029,3.108,4.533,3.108,4.532-1.391,4.532-3.108S134.381,318.253,131.878,318.253Z" transform="translate(-82.602 -196.658)" fill="#c7b299"/>
              <path id="Trazado_2693" data-name="Trazado 2693" d="M131.878,287.772c-2.5,0-4.533,1.391-4.533,3.108s2.029,3.108,4.533,3.108,4.532-1.393,4.532-3.108S134.381,287.772,131.878,287.772Z" transform="translate(-82.602 -211.528)" fill="#e3d1b3"/>
              <path id="Trazado_2694" data-name="Trazado 2694" d="M106.338,300.935c0-1.717-2.031-3.11-4.533-3.11s-4.532,1.393-4.532,3.11,2.028,3.108,4.532,3.108S106.338,302.65,106.338,300.935Z" transform="translate(-97.272 -206.623)" fill="#c7b299"/>
              <path id="Trazado_2695" data-name="Trazado 2695" d="M167.331,305.114c0-1.718-2.029-3.11-4.532-3.11s-4.535,1.391-4.535,3.11,2.031,3.107,4.535,3.107S167.331,306.829,167.331,305.114Z" transform="translate(-67.518 -204.585)" fill="#c7b299"/>
              <path id="Trazado_2696" data-name="Trazado 2696" d="M132.326,248.219c-3.257,0-5.9,1.811-5.9,4.046s2.642,4.044,5.9,4.044,5.9-1.811,5.9-4.044S135.583,248.219,132.326,248.219Z" transform="translate(-83.05 -230.823)" fill="#e3d1b3"/>
              <path id="Trazado_2697" data-name="Trazado 2697" d="M121.174,240.571c0-2.233-2.641-4.044-5.9-4.044s-5.9,1.811-5.9,4.044,2.642,4.045,5.9,4.045S121.174,242.806,121.174,240.571Z" transform="translate(-91.368 -236.527)" fill="#e3d1b3"/>
              <path id="Trazado_2698" data-name="Trazado 2698" d="M155.277,240.571c0-2.233-2.642-4.044-5.9-4.044s-5.9,1.811-5.9,4.044,2.642,4.045,5.9,4.045S155.277,242.806,155.277,240.571Z" transform="translate(-74.732 -236.527)" fill="#e3d1b3"/>
              <path id="Trazado_2699" data-name="Trazado 2699" d="M165.478,335.73h9.067l-19.268-96.485h-11.8Z" transform="translate(-74.731 -235.201)" fill="#c7b299"/>
              <path id="Trazado_2700" data-name="Trazado 2700" d="M106.339,329.513H97.272l18.007-90.268h11.8Z" transform="translate(-97.272 -235.201)" fill="#c7b299"/>
              <path id="Trazado_2701" data-name="Trazado 2701" d="M127.9,354.2h8.85l1.474-103.263h-11.8Z" transform="translate(-83.05 -229.497)" fill="#c7b299"/>
            </g>
            <ellipse id="Elipse_530" data-name="Elipse 530" cx="43.737" cy="25.252" rx="43.737" ry="25.252" transform="translate(5.539 7.367)" fill="#1a1a1a"/>
            <path id="Trazado_2702" data-name="Trazado 2702" d="M113.805,228.86c-17.08,9.861-17.08,25.853,0,35.713s44.774,9.861,61.853,0,17.082-25.851,0-35.713S130.886,219,113.805,228.86Z" transform="translate(-95.456 -221.465)" fill="#c7b299"/>
          </g>
        </g>
      </g>
      <g id="Grupo_1210" data-name="Grupo 1210" transform="translate(46.107 218.437)">
        <g id="Grupo_1207" data-name="Grupo 1207" transform="translate(11.54 1.929)">
          <path id="Trazado_2703" data-name="Trazado 2703" d="M160.551,236.367a3.664,3.664,0,0,0-.978-.8,8,8,0,0,0-7.24,0l-13.52,7.805-4.63,1.19v1.483l7.238,4.179,18.152-10.479a2.544,2.544,0,0,0,1.5-2.089v-1.485Z" transform="translate(-134.183 -233.221)" fill="#534741"/>
          <path id="Trazado_2704" data-name="Trazado 2704" d="M152.333,234.573l-18.15,10.48,7.238,4.179,18.152-10.48c2-1.153,2-3.025,0-4.179A8.008,8.008,0,0,0,152.333,234.573Z" transform="translate(-134.183 -233.708)" fill="#998675"/>
        </g>
        <g id="Grupo_1208" data-name="Grupo 1208" transform="translate(0 1.434)">
          <path id="Trazado_2705" data-name="Trazado 2705" d="M162.786,234.573a8.008,8.008,0,0,0-7.24,0L127.6,250.711l.1,8.3,35.086-20.257C164.785,237.6,164.785,235.727,162.786,234.573Z" transform="translate(-125.856 -233.213)" fill="#9d9d9c"/>
          <path id="Trazado_2706" data-name="Trazado 2706" d="M126.444,245.9l-.018,8.369,1.843-.831-.1-8.3Z" transform="translate(-126.427 -227.638)" fill="#9d9d9c"/>
          <path id="Trazado_2707" data-name="Trazado 2707" d="M162.788,234.241a8,8,0,0,0-7.24,0l-27.957,16.14.1,8.3,35.092-20.26C164.787,237.266,164.787,235.4,162.788,234.241Z" transform="translate(-125.858 -233.375)" fill="#fff"/>
          <path id="Trazado_2708" data-name="Trazado 2708" d="M126.444,246.057l-.018,8.369,1.838-1.322-.1-8.3Z" transform="translate(-126.427 -227.799)" fill="#e6e6e6"/>
        </g>
        <g id="Grupo_1209" data-name="Grupo 1209" transform="translate(11.54)">
          <path id="Trazado_2709" data-name="Trazado 2709" d="M160.551,235.071a3.694,3.694,0,0,0-.978-.8,8.008,8.008,0,0,0-7.24,0l-13.52,7.807-4.63,1.189v1.485l7.238,4.179,18.152-10.48a2.542,2.542,0,0,0,1.5-2.089v-1.485Z" transform="translate(-134.183 -231.924)" fill="#534741"/>
          <path id="Trazado_2710" data-name="Trazado 2710" d="M152.333,233.277l-18.15,10.479,7.238,4.179,18.152-10.479c2-1.155,2-3.025,0-4.179A8,8,0,0,0,152.333,233.277Z" transform="translate(-134.183 -232.411)" fill="#998675"/>
        </g>
        <ellipse id="Elipse_531" data-name="Elipse 531" cx="1.44" cy="0.831" rx="1.44" ry="0.831" transform="translate(31.989 1.929)" fill="#534741"/>
        <path id="Trazado_2711" data-name="Trazado 2711" d="M128.053,253.113l14.142-9.854,1.447.868Z" transform="translate(-125.634 -227.119)" fill="#e6e6e6"/>
      </g>
      <path id="Trazado_2712" data-name="Trazado 2712" d="M167.058,335.588a4.712,4.712,0,0,0,.179,1.254A5.8,5.8,0,0,0,169.86,340c.179.113.365.228.549.335,7.921,4.577,20.782.869,29.273-3.394,3.351-1.69,4.554-3.779,5.953-6.188,5.774-9.931,9.61-7.514,18.457-10.872,6.441-2.446,10.611-7.075,5.1-10.759l-.243-.143c-4.306-2.48-9.226-2.822-14.922-1.1a45.212,45.212,0,0,0-8.555,3.73c-4.891,2.595-7.023,3.371-13.495,5.374-4.428,1.369-8.606,2.66-12.406,4.949C173.724,325.457,167.058,330.974,167.058,335.588Z" transform="translate(-60.498 22.321)"/>
      <path id="Trazado_2713" data-name="Trazado 2713" d="M167.072,339.443c.051.442.107.848.179,1.254a5.8,5.8,0,0,0,2.623,3.159c.179.113.365.228.549.335a14.9,14.9,0,0,0,4.17,1.6c7.786,1.768,17.981-1.412,25.1-4.99,3.351-1.69,4.554-3.779,5.953-6.188,5.774-9.931,9.61-7.514,18.457-10.872q.384-.141.748-.3c4.078-1.675,7.194-4.1,7.094-6.5-.436-10.65-6.494-10.956-8.9-18.036l-26.887,11.9a18.285,18.285,0,0,1-9.829,10.781C174.978,326.5,166.344,333.861,167.072,339.443Z" transform="translate(-60.512 18.466)" fill="#998675"/>
      <path id="Trazado_2714" data-name="Trazado 2714" d="M212.6,301.419l-19.922,11.5a5.578,5.578,0,0,1-5.03,0c-1.382-.8-1.382-2.105,0-2.9l19.924-11.5a5.575,5.575,0,0,1,5.029,0C213.979,299.314,213.979,300.622,212.6,301.419Z" transform="translate(-50.962 17.983)" fill="#c7b299"/>
      <path id="Trazado_2715" data-name="Trazado 2715" d="M172.118,340.656c7.778,1.768,17.973-1.412,25.1-4.99,3.351-1.69,4.554-3.779,5.953-6.188,5.774-9.931,9.61-7.514,18.457-10.872q.384-.141.748-.3c-7.835,1.546-16.255-.15-19.184-8.085-.263-.713-1.974-1.391-2.175.057-.6,4.242.122,8.69-1.268,12.74C195.166,336.307,179.077,340.372,172.118,340.656Z" transform="translate(-58.03 23.597)" fill="#998675" opacity="0.3" style="mix-blend-mode: multiply;isolation: isolate"/>
      <path id="Trazado_2716" data-name="Trazado 2716" d="M201.551,298.984a.777.777,0,0,0,0,1.471,2.818,2.818,0,0,0,2.549,0,.777.777,0,0,0,0-1.471A2.818,2.818,0,0,0,201.551,298.984Z" transform="translate(-43.929 18.355)" fill="#534741" style="mix-blend-mode: multiply;isolation: isolate"/>
      <path id="Trazado_2717" data-name="Trazado 2717" d="M188.323,306.415a.776.776,0,0,0,0,1.471,2.818,2.818,0,0,0,2.549,0,.777.777,0,0,0,0-1.471A2.818,2.818,0,0,0,188.323,306.415Z" transform="translate(-50.382 21.98)" fill="#534741" style="mix-blend-mode: multiply;isolation: isolate"/>
      <g id="Grupo_1233" data-name="Grupo 1233" transform="translate(98.29)">
        <g id="Grupo_1214" data-name="Grupo 1214" transform="translate(0 163.816)">
          <g id="Grupo_1213" data-name="Grupo 1213">
            <path id="Trazado_2718" data-name="Trazado 2718" d="M203.414,279.062l2.879-4.988-39.333-22.71-1.988,5.5Z" transform="translate(-159.806 -168.544)" fill="#c7b299"/>
            <rect id="Rect치ngulo_728" data-name="Rect치ngulo 728" width="48.505" height="5.76" transform="matrix(0.866, -0.5, 0.5, 0.866, 43.029, 107.402)" fill="#c7b299"/>
            <path id="Trazado_2719" data-name="Trazado 2719" d="M168.482,263.768l37.346-21.562-2.879-4.988-37.025,21.376Z" transform="translate(-159.342 -175.445)" fill="#c7b299"/>
            <path id="Trazado_2720" data-name="Trazado 2720" d="M232.427,265.2l1.141-5.992L193.3,235.96l-2.879,4.988Z" transform="translate(-147.391 -176.059)" fill="#c7b299"/>
            <g id="Grupo_1212" data-name="Grupo 1212">
              <g id="Grupo_1211" data-name="Grupo 1211" transform="translate(0 21.019)">
                <path id="Trazado_2721" data-name="Trazado 2721" d="M193.959,286.484c-2.348,0-4.251,1.3-4.251,2.915s1.9,2.915,4.251,2.915,4.252-1.3,4.252-2.915S196.308,286.484,193.959,286.484Z" transform="translate(-147.739 -172.43)" fill="#c7b299"/>
                <path id="Trazado_2722" data-name="Trazado 2722" d="M193.959,257.893c-2.348,0-4.251,1.306-4.251,2.916s1.9,2.916,4.251,2.916,4.252-1.306,4.252-2.916S196.308,257.893,193.959,257.893Z" transform="translate(-147.739 -186.378)" fill="#e3d1b3"/>
                <path id="Trazado_2723" data-name="Trazado 2723" d="M170,270.239c0-1.61-1.9-2.916-4.252-2.916s-4.252,1.306-4.252,2.916,1.9,2.916,4.252,2.916S170,271.849,170,270.239Z" transform="translate(-161.5 -181.778)" fill="#c7b299"/>
                <path id="Trazado_2724" data-name="Trazado 2724" d="M227.214,274.158c0-1.61-1.9-2.915-4.252-2.915s-4.252,1.3-4.252,2.915,1.9,2.916,4.252,2.916S227.214,275.768,227.214,274.158Z" transform="translate(-133.591 -179.866)" fill="#754c24"/>
                <path id="Trazado_2725" data-name="Trazado 2725" d="M194.379,220.794c-3.055,0-5.533,1.7-5.533,3.794s2.479,3.793,5.533,3.793,5.533-1.7,5.533-3.793S197.434,220.794,194.379,220.794Z" transform="translate(-148.159 -204.477)" fill="#e3d1b3"/>
                <path id="Trazado_2726" data-name="Trazado 2726" d="M183.919,213.621c0-2.1-2.477-3.794-5.532-3.794s-5.535,1.7-5.535,3.794,2.479,3.794,5.535,3.794S183.919,215.717,183.919,213.621Z" transform="translate(-155.962 -209.827)" fill="#e3d1b3"/>
                <path id="Trazado_2727" data-name="Trazado 2727" d="M215.907,213.621c0-2.1-2.479-3.794-5.533-3.794s-5.533,1.7-5.533,3.794,2.477,3.794,5.533,3.794S215.907,215.717,215.907,213.621Z" transform="translate(-140.357 -209.827)" fill="#e3d1b3"/>
                <path id="Trazado_2728" data-name="Trazado 2728" d="M225.475,302.876h8.5l-18.072-90.5H204.84Z" transform="translate(-140.357 -208.583)" fill="#c7b299"/>
                <path id="Trazado_2729" data-name="Trazado 2729" d="M170,297.045h-8.5l16.89-84.668h11.066Z" transform="translate(-161.5 -208.583)" fill="#c7b299"/>
                <path id="Trazado_2730" data-name="Trazado 2730" d="M190.229,320.2h8.3l1.383-96.857H188.846Z" transform="translate(-148.159 -203.233)" fill="#c7b299"/>
              </g>
              <path id="Trazado_2731" data-name="Trazado 2731" d="M177.008,207.281c-16.021,9.248-16.021,24.247,0,33.5s42,9.248,58.017,0,16.021-24.249,0-33.5S193.027,198.031,177.008,207.281Z" transform="translate(-159.796 -193.434)" fill="#1a1a1a"/>
              <ellipse id="Elipse_532" data-name="Elipse 532" cx="41.024" cy="23.685" rx="41.024" ry="23.685" transform="translate(5.196)" fill="#c7b299"/>
            </g>
          </g>
        </g>
        <path id="Trazado_2732" data-name="Trazado 2732" d="M225.334,146l21.121-35.647c21.534,20.287,40.837,40.606,53.278,61.024a75.46,75.46,0,0,1,6.175,8.133L278.63,195.3l-7.17-9.086Z" transform="translate(-130.359 -73.521)" fill="#608eb7"/>
        <path id="Trazado_2733" data-name="Trazado 2733" d="M255.425,291.041v7.348c4.538,4.249,9.019,8.223,12.635,7.994,6.267,13.861,15.048,21.273,25.917,23.337,11.709.35,16.375-4.382,16.375-11.215-.9-10.574-18.839-18.585-21.545-30.059-2.437-7.649-5.285-16.606-3.858-26.2H259.164Z" transform="translate(-115.679 0.58)" fill="#1a1a1a"/>
        <path id="Trazado_2734" data-name="Trazado 2734" d="M201.466,185.553c.787-2.949,1.927-6.487,3.224-11.559.021-.059,33.165-1.22,33.165-1.22l8.415-.295c16.061,6.508,24.869,12.248,61,48.4,1.848,1.808,3.735,3.734,5.721,5.721,5.347,6.762,4.069,12.227,3.815,16.848,0,.137-.021.274-.021.412,0,0-1.994,69.975-1.985,85.776-6.651,6.676-23.652,6.472-31.39-3.083-3.538-.589-8.891-60.744-5.846-72.883-6.329-5.858-13.879-10.143-21.763-13.84-22.981-10.754-48.774-16.415-54.909-40.655-.177-.845-.295-1.652-.393-2.4A25.687,25.687,0,0,1,201.466,185.553Z" transform="translate(-142.593 -43.211)" fill="#666"/>
        <path id="Trazado_2735" data-name="Trazado 2735" d="M221.242,308.336l-1.522,15.956c1.863,3.828,6.387,8.647,10.187,10.315,6.969,13.5,16.618,20.461,28.625,21.66,10.653.945,17.277-2.706,18.05-9.283-1.031-14.569-21.785-20.956-24.106-32.819l-4.325-46.339-12.473,8.491Z" transform="translate(-133.098 3.303)" fill="#1a1a1a"/>
        <path id="Trazado_2736" data-name="Trazado 2736" d="M173.371,206.633c8.262,32.55,40.246,40.386,64.992,63.263-.176.741-.353,1.482-.494,2.223-1.446,6.92-1.659,14.475-1.165,22.806.071,1.129.107,2.3.141,3.495,1.306,31,4.767,50.731,7.026,60.579,1.659,9.815,33.679,6.32,31.313,0-.141-10.449,2.083-86.491,2.26-92.881.07-3.706.141-6.036.141-6.036a23.091,23.091,0,0,0-3.566-13.38l-4.8-7.625L255.7,217.753l-13.556-21.428-5.968-9.5-8.295-13.2-.918-.036-8.862-.317-40.6-1.518c-.812,3.141-1.553,6.283-2.26,9.425C173.16,190.781,172,199.643,173.371,206.633Z" transform="translate(-155.999 -43.564)" fill="#666"/>
        <path id="Trazado_2737" data-name="Trazado 2737" d="M174.075,217.7c.073.457.17.891.265,1.324,5.535,7.435,16.964,12.127,30.2,12.97,18.192,1.155,39.847-4.861,54.526-20.647,2.888-5.822,5.774-11.212,8.494-16.459,1.4-2.647,2.744-5.27,4.019-7.893,6.593-13.33,11.718-26.493,13.138-43.842.144-1.635.241-3.343.312-5.077.409-10.251,6.329-18.769,3.682-29.428-8.976-8.182-20.621-12.056-33.472-8.664a41.329,41.329,0,0,0-7.34,2.7c-6.255,2.936-12.752,7.628-19.274,14.389-15.785,3.441-26.565,10.8-34.577,20.406a71.352,71.352,0,0,0-9.65,16.915,95.934,95.934,0,0,0-5.438,18.1C175.664,188.918,172.632,208.915,174.075,217.7Z" transform="translate(-155.545 -79.177)" fill="#3f668a"/>
        <path id="Trazado_2738" data-name="Trazado 2738" d="M173.39,223.089l14.191,7.131a20.036,20.036,0,0,0,7.521,15.674l34.772,27.925a45.408,45.408,0,0,1,16.981,35.408v34.35c24.923,3.424,52.106-5.225,68.487-18.04,6.671-5.224,11.544-11.156,13.733-17.263a117.482,117.482,0,0,0,.494-40.809,14.465,14.465,0,0,0-3.919-7.767c-23.264-24.183-45.717-47.411-64.427-52.39,7.661-12.956,13.486-23.652,15.957-34.244a47.116,47.116,0,0,0,1.376-12.92c-.247-23.865-7.838-43-22.559-57.508H244.525c21.005,14.828,29.618,33.856,26.229,56.908l-37.738,7.414c3.141-22.029-.177-39.4-14.4-48.789l-8.473,3.99c12.886,14.332,19.275,30.182,9.885,49.706l-18.04,28.595L194.4,212.428l-5.048,8.014L173.92,212.5Z" transform="translate(-155.7 -77.284)" fill="#333"/>
        <path id="Trazado_2739" data-name="Trazado 2739" d="M185.111,181.181l3.566,8.155,9.6,21.958c17.616,19.311,41.268,26.9,80.878,34.6l12,29.654,18.464,26.9c6.671-5.224,11.544-11.156,13.733-17.263a117.483,117.483,0,0,0,.494-40.809,14.465,14.465,0,0,0-3.919-7.767c-23.264-24.183-45.717-47.412-64.427-52.39,7.661-12.956,13.486-23.652,15.957-34.244-1.1,1.553-18.251,26.125-30.325,29.726-12.426,3.706-32.585-6.566-32.585-6.566l-12.285,4.236Z" transform="translate(-149.982 -54.191)" fill="#333" opacity="0.5" style="mix-blend-mode: multiply;isolation: isolate"/>
        <g id="Grupo_1231" data-name="Grupo 1231" transform="translate(23.548 55.667)">
          <path id="Trazado_2740" data-name="Trazado 2740" d="M189.194,134.122c-7.744,17.411-17.378,46.742-7.985,73.91,12.764,17.341,46.11,29.916,81.331,28.659-2.349-5.731,5.407-12.7,8.295-16.078-50.567-18.863-46.864-23.073-60.231-28.956,4.182-11.623,8.836-32.782,8.888-49.407C215.734,114.777,199.773,121.147,189.194,134.122Z" transform="translate(-177.327 -123.011)" fill="#608eb7"/>
          <g id="Grupo_1218" data-name="Grupo 1218" transform="translate(119.825 122.429)">
            <g id="Grupo_1216" data-name="Grupo 1216" transform="translate(5.462 2.889)">
              <g id="Grupo_1215" data-name="Grupo 1215" transform="translate(35.704 147.301)">
                <path id="Trazado_2741" data-name="Trazado 2741" d="M327.247,314.337v3.188c0,3.083-2.035,6.166-6.109,8.516-8.144,4.7-21.352,4.7-29.5,0-4.074-2.351-6.109-5.434-6.109-8.515v-3.19Z" transform="translate(-285.532 -302.293)" fill="#1a1a1a"/>
                <path id="Trazado_2742" data-name="Trazado 2742" d="M291.641,309.77c-8.146,4.7-8.146,12.328,0,17.031s21.352,4.7,29.5,0,8.146-12.328,0-17.031S299.786,305.066,291.641,309.77Z" transform="translate(-285.532 -306.242)" fill="#4d4d4d"/>
              </g>
              <path id="Trazado_2743" data-name="Trazado 2743" d="M295.338,230.752V355.245a3.141,3.141,0,0,0,1.839,2.559,9.789,9.789,0,0,0,8.857,0,3.083,3.083,0,0,0,1.83-2.622l.007-124.781a3.347,3.347,0,0,1-1.832,2.215,10.021,10.021,0,0,1-8.967,0A3.614,3.614,0,0,1,295.338,230.752Z" transform="translate(-245.043 -195.939)" fill="#1a1a1a"/>
              <path id="Trazado_2744" data-name="Trazado 2744" d="M270.049,242.893c5.962-1.062,17.775-4.914,27.079-5.459,1.034-.064,2.034-.077,2.992-.049,2.1.068,7.018.8,7.555,2.761a3.614,3.614,0,0,0,1.735,1.866,10.021,10.021,0,0,0,8.967,0,3.347,3.347,0,0,0,1.832-2.215c0-.085.028-.344.028-.344,0-.027,2.628-27.638,2.628-27.638l-9.6-.671Z" transform="translate(-257.38 -205.334)" fill="#4d4d4d"/>
              <path id="Trazado_2745" data-name="Trazado 2745" d="M294.327,237.052c8.052-4.9,7.177-9.107,18.411-14.224l.692-.315c.58-.251,1.189-.51,1.839-.768,1.6-.644,3.243-1.245,5.088-1.86,6.941-2.327,9.122-7.871,2.909-10.876l-.253-.126c-4.654-2.16-9.492-2.181-14.692-.125a37.741,37.741,0,0,0-7.6,4.208c-.573.384-.992.671-1.384.936a31.435,31.435,0,0,1-10.638,5.181C244.293,232.769,260.236,257.806,294.327,237.052Z" transform="translate(-261.534 -207.239)" fill="gray"/>
              <path id="Trazado_2746" data-name="Trazado 2746" d="M287.078,211.861c1.433,6.249,8.259,8.424,13.89,8.747l-.684.315c.818-.378,1.7-.756,2.656-1.14-3.648-.21-13.638-1.461-14.8-8.64C287.688,211.444,287.469,211.595,287.078,211.861Z" transform="translate(-249.073 -205.334)" fill="#1a1a1a"/>
              <path id="Trazado_2747" data-name="Trazado 2747" d="M295.26,231.281a1.967,1.967,0,0,0,.118.769,3.614,3.614,0,0,0,1.735,1.866,10.021,10.021,0,0,0,8.967,0,3.347,3.347,0,0,0,1.832-2.215,1.912,1.912,0,0,0,.028-.344,3.144,3.144,0,0,0-1.86-2.558,10.021,10.021,0,0,0-8.967,0A3.165,3.165,0,0,0,295.26,231.281Z" transform="translate(-245.083 -197.238)" fill="#4d4d4d"/>
              <path id="Trazado_2748" data-name="Trazado 2748" d="M288.249,234.583c1.034-.064,2.034-.077,2.992-.049a16.469,16.469,0,0,0,2.384-2.168,4.7,4.7,0,0,1,1.552-1.306,4.176,4.176,0,0,1,2.635.153,8.378,8.378,0,0,0,1.65.35c2.1.189,4.71-1.006,6.64-3.041s3.243-5.283,2.028-7.011c-.917-1.3-2.691-1.236-4.251-1.181-.427.015-.852.036-1.251.021-.2-.006-.8-.027-1.021-.257-.189-.2-.433-.888.629-3.1-.65.257-1.259.516-1.839.768-.446,1.308-.537,2.51.183,3.285a2.75,2.75,0,0,0,2.006.707c.433.007.888-.007,1.342-.021,1.265-.042,2.58-.091,3.055.588.608.859-.083,3.34-1.894,5.242a7.465,7.465,0,0,1-5.508,2.614,7.706,7.706,0,0,1-1.385-.3,5.528,5.528,0,0,0-3.446-.147A5.624,5.624,0,0,0,292.6,231.4,11.38,11.38,0,0,1,288.249,234.583Z" transform="translate(-248.502 -202.482)" fill="#1a1a1a"/>
            </g>
            <g id="Grupo_1217" data-name="Grupo 1217">
              <path id="Trazado_2749" data-name="Trazado 2749" d="M269.49,252.338c10.741,1.244,22.03-8.719,28.392-2.8,3.665,3.391-1.727,21.757,2.97,28.224,10.172,6.487,22.074-3.729,29.151-7.372,1.958-10.532-1.622-27.129-2.086-36.144-.126-2.59,0-4.529.568-5.539a18.636,18.636,0,0,0,2.422-11.142,8.68,8.68,0,0,0-.695-2.613l-9.9-6.192-61.357,28.224S257.147,250.886,269.49,252.338Z" transform="translate(-257.374 -203.609)" fill="#754c24"/>
              <path id="Trazado_2750" data-name="Trazado 2750" d="M295.975,223.414a46.112,46.112,0,0,0,3.56,4.423,13.4,13.4,0,0,0,3.517,2.843,10.169,10.169,0,0,0,6.761.969c-.126-2.59,0-4.529.568-5.539a18.636,18.636,0,0,0,2.422-11.142l-.463-.885Z" transform="translate(-239.27 -201.012)" fill="#603813"/>
              <path id="Trazado_2751" data-name="Trazado 2751" d="M257.863,237.642l1.591-.47c2.614-4.112,8.024-8.286,12.947-11.245,4.416-2.656,9.266-4.156,14.4-5.743,7.524-2.324,9.992-3.235,15.673-6.243a52.692,52.692,0,0,1,9.934-4.334c6.618-2,12.333-1.607,17.335,1.281l.274.165a9.955,9.955,0,0,1,1.345.958l1.8-1.4.037,4.8c-.006,3.026-3.822,6.127-9.115,8.14-10.271,3.9-14.728,1.088-21.434,12.623-1.622,2.8-3.023,5.221-6.914,7.183-9.855,4.953-24.792,9.256-33.987,3.947-.214-.124-.43-.256-.638-.391-2.3-1.482-3.245-3.242-3.245-5.13C257.863,241.781,257.863,237.642,257.863,237.642Z" transform="translate(-257.863 -203.804)"/>
              <path id="Trazado_2752" data-name="Trazado 2752" d="M286.8,217.537a76.917,76.917,0,0,0,16.215-6.551c.418-.222,0-1.955.057-2.8,2.708-.741,5.34-1.379,9.052-2.178,6.761-1.457,12.617-.655,17.619,2.233l.274.164c6.654,3.99,1.878,7.912-6.072,10.936a24.987,24.987,0,0,1-9.367,1.338c-.025.966.006,1.808-.015,2.885-4.4,1.141-7.716,2.748-11.907,9.958-1.622,2.8-3.022,5.221-6.914,7.183-9.855,4.953-24.792,9.256-33.987,3.947-.214-.125-.43-.256-.638-.391-8.817-5.691,2.09-15.453,11.284-20.98C276.817,220.624,281.667,219.125,286.8,217.537Z" transform="translate(-257.863 -205.297)" fill="#998675"/>
              <path id="Trazado_2753" data-name="Trazado 2753" d="M299.773,219.73l-11.5-12.491-.057,2.8,11.547,12.576Z" transform="translate(-243.058 -204.35)" fill="#6b5e52"/>
            </g>
          </g>
          <g id="Grupo_1230" data-name="Grupo 1230" transform="translate(83.23 96.821)">
            <g id="Grupo_1229" data-name="Grupo 1229" transform="translate(2.271 3.846)">
              <g id="Grupo_1219" data-name="Grupo 1219" transform="translate(47.551 49.722)">
                <path id="Trazado_2754" data-name="Trazado 2754" d="M266.753,226.688v1.933a3.325,3.325,0,0,0,1.961,2.733,10.461,10.461,0,0,0,9.469,0,3.325,3.325,0,0,0,1.961-2.733v-1.933Z" transform="translate(-266.753 -222.822)" fill="#333"/>
                <path id="Trazado_2755" data-name="Trazado 2755" d="M278.182,225.222c2.616,1.509,2.616,3.958,0,5.466a10.461,10.461,0,0,1-9.469,0c-2.614-1.509-2.614-3.958,0-5.466A10.461,10.461,0,0,1,278.182,225.222Z" transform="translate(-266.753 -224.09)" fill="#e6e6e6"/>
              </g>
              <g id="Grupo_1221" data-name="Grupo 1221">
                <g id="Grupo_1220" data-name="Grupo 1220" style="isolation: isolate">
                  <path id="Trazado_2756" data-name="Trazado 2756" d="M293.915,223.21l-.485.277a3.787,3.787,0,0,0-1.711,2.962v3.6a1.208,1.208,0,0,0,.509,1.114L235.3,198.854a1.209,1.209,0,0,1-.509-1.116v-3.6a3.784,3.784,0,0,1,1.713-2.962l.484-.277a1.2,1.2,0,0,1,1.2-.116l56.926,32.31A1.2,1.2,0,0,0,293.915,223.21Z" transform="translate(-234.793 -190.671)" fill="#754c24"/>
                </g>
              </g>
              <g id="Grupo_1225" data-name="Grupo 1225" transform="translate(50.477 7.723)">
                <g id="Grupo_1224" data-name="Grupo 1224" style="isolation: isolate">
                  <g id="Grupo_1222" data-name="Grupo 1222">
                    <path id="Trazado_2757" data-name="Trazado 2757" d="M269.448,199.724l5.884-3.4-.728-.46-5.884,3.4Z" transform="translate(-268.72 -195.862)" fill="#706f6f"/>
                  </g>
                  <path id="Trazado_2758" data-name="Trazado 2758" d="M273.946,224.535c0-3.575-3.194-18.292-4.737-24.962l5.884-3.4c1.543,6.67,4.95,21.292,4.95,24.868,0,8.17-4.487,11.651-5.544,20.13l-3.293,1.9C272.261,234.572,273.946,232.712,273.946,224.535Z" transform="translate(-268.481 -195.711)" fill="#ccc"/>
                  <g id="Grupo_1223" data-name="Grupo 1223" transform="translate(0.001 3.403)">
                    <path id="Trazado_2759" data-name="Trazado 2759" d="M271.145,224.688q0-.473-.007-.979c-.153-9.686-2.36-25.226-2.418-25.56l.728.46c1.543,6.67,4.737,21.386,4.737,24.962,0,8.2-1.705,10.05-2.75,18.614l-.869-.44C270.934,232.523,271.145,232.305,271.145,224.688Z" transform="translate(-268.72 -198.149)" fill="#4d4d4d"/>
                  </g>
                </g>
              </g>
              <g id="Grupo_1228" data-name="Grupo 1228" transform="translate(56.926 32.311)">
                <g id="Grupo_1226" data-name="Grupo 1226">
                  <path id="Trazado_2760" data-name="Trazado 2760" d="M276.961,213.614c0-1.089-.769-1.538-1.711-1l-.485.277a3.787,3.787,0,0,0-1.711,2.962v3.6c0,1.089.771,1.54,1.711,1l.485-.277a3.788,3.788,0,0,0,1.711-2.965Z" transform="translate(-273.054 -212.387)" fill="#754c24"/>
                </g>
                <g id="Grupo_1227" data-name="Grupo 1227">
                  <path id="Trazado_2761" data-name="Trazado 2761" d="M276.961,213.614c0-1.089-.769-1.538-1.711-1l-.485.277a3.787,3.787,0,0,0-1.711,2.962v3.6c0,1.089.771,1.54,1.711,1l.485-.277a3.788,3.788,0,0,0,1.711-2.965Z" transform="translate(-273.054 -212.387)" fill="#754c24"/>
                </g>
              </g>
            </g>
            <path id="Trazado_2762" data-name="Trazado 2762" d="M233.736,203.13c-2.087-8.106,2.9-17.371,12.688-14.515l14.06,6.41,7.026,13.239-7.194-4.083c-4.284.887-3.568,3.421-3.014,8,0,0,8.7,4.947,7.319,4.154s-7.89,4.954-7.89,4.954l-15.353-5.951Z" transform="translate(-233.266 -188.086)" fill="#d9bf9b"/>
          </g>
          <path id="Trazado_2763" data-name="Trazado 2763" d="M303.426,196.712a39.571,39.571,0,0,1,8.153,11.412l9.912,14.477c1.275,2.473-1.024,3.468-2.767,1.561l-3.321-4.3,4.242,8.64c1.268,2.732-1.259,4.071-3.232,2l-8.746-12.495,4.766,14.37c.943,3.145-2.175,3.922-3.6,1.125l-6.985-14.387-1.57-.339.839,14.329c.4,2.8-3.01,3.275-3.58-.068l-3.623-16.149-3.178-3.593-4.111,5.661-1.6,5.81a3.75,3.75,0,0,1-2.375,3.035,1.55,1.55,0,0,1-1.961-1.088l1.228-4.931.9-8.149,7.027-14.506-2.007-5.371,9.747-3.422Z" transform="translate(-126.902 -90.169)" fill="#d9bf9b"/>
          <path id="Trazado_2764" data-name="Trazado 2764" d="M310.8,210.708c-4.578.013-8.961,2.577-13.106,8.21l-36.543-46.3,27.278-15.792C297.992,171.031,304.842,190.077,310.8,210.708Z" transform="translate(-136.432 -106.513)" fill="#608eb7"/>
        </g>
        <g id="Grupo_1232" data-name="Grupo 1232" transform="translate(84.734)">
          <path id="Trazado_2765" data-name="Trazado 2765" d="M232.162,105.408c-.548,0-9.031,6.35-9.031,6.35-12.407,7.03,1.794,40.791,19.953,32.325l16.93-11.767Z" transform="translate(-218.451 -75.931)" fill="#d9bf9b"/>
          <path id="Trazado_2766" data-name="Trazado 2766" d="M254.29,144.98c-3.282,9.177-2.532,20.59-10.027,22.706-8.347,1.116-14.28-11.778-16.442-24.71l1.629-34.817,43.18,3.333C270.064,124.418,264.745,137.276,254.29,144.98Z" transform="translate(-213.879 -74.589)" fill="#3f668a" opacity="0.3" style="mix-blend-mode: multiply;isolation: isolate"/>
          <path id="Trazado_2767" data-name="Trazado 2767" d="M249.787,86.1c-15.191.152-23.866,7.308-24.453,23.166.436,16.668,1.275,26.723,9.309,38.105,5.011,6.3,11.827,10.832,19.59,10.437,9.24-.469,22.9-22.624,24.215-38.662C280.7,102.944,266.885,90.524,249.787,86.1Z" transform="translate(-215.093 -85.352)" fill="#d9bf9b"/>
          <path id="Trazado_2768" data-name="Trazado 2768" d="M277.8,131.087c-3.435,8.1-23.591,6.63-32.438-3.3l-.989,5.944-8.143-6.764-7.087,9.214-2.562-3.644c-6.45-12.943-6.121-34.24,12.254-44.943C263.4,77.73,293.856,106.324,277.8,131.087Z" transform="translate(-216.34 -85.596)"/>
          <path id="Trazado_2769" data-name="Trazado 2769" d="M230.962,121.859a13.278,13.278,0,0,1-2.007-5.3,6,6,0,0,1,1.771-5.14,4.273,4.273,0,0,1,5.309-.265,4.607,4.607,0,0,1,1.519,3.525,13.1,13.1,0,0,1-.714,3.827q-.5,1.7-.994,3.4a3.045,3.045,0,0,1-1.26,2.023,2.176,2.176,0,0,1-2.177-.305A5.574,5.574,0,0,1,230.962,121.859Z" transform="translate(-213.345 -73.521)" fill="#d9bf9b"/>
        </g>
      </g>
      <path id="Trazado_2770" data-name="Trazado 2770" d="M282.555,240.639l4.718,3.6c9.415-2.337,16.387-9.247,22.327-18.071a13.4,13.4,0,0,1-3.517-2.843C300.079,230.824,292.875,238.512,282.555,240.639Z" transform="translate(-4.154 -18.405)" fill="#42210b"/>
      <g id="Grupo_1236" data-name="Grupo 1236" transform="translate(319.783 213.099)">
        <path id="Trazado_2771" data-name="Trazado 2771" d="M329.517,285.1l10.86-6.368-3.9-3.374-7.162,4.43Z" transform="translate(-301.128 -206.124)" fill="#998675"/>
        <g id="Grupo_1235" data-name="Grupo 1235">
          <g id="Grupo_1234" data-name="Grupo 1234">
            <path id="Trazado_2772" data-name="Trazado 2772" d="M325.633,267.463l-8.387,4.481c-.488,1.2-.414,3.791,0,6.642,1.108,4.321,10.335,7.951,18.323,10.36l.131-2.9c10.214,4.422,13.6,13.925,20.8,18.628,7.68,5.018,19.41,5.557,24.222,3.91,5.158-1.768,7.4-5.945,6.466-10.211-2.233-10.143-19.617-16.838-19.617-16.838Z" transform="translate(-307.179 -209.973)" fill="#1a1a1a"/>
            <path id="Trazado_2773" data-name="Trazado 2773" d="M386.636,320.9c-5.282,2.187-13.42,2.479-22.587-1.422s-11.233-13.529-23.139-18.329c-1.812-.731-3.749-1.342-5.687-1.931-8.134-2.489-16.293-4.676-15.146-14.233,0,0,.271-2.18,1.315-7.894.059-.347.123-.7.195-1.077.179-.958.373-2,.589-3.138,2.912-15.218-11.964-25.569-11.769-39.508,0-.2,53.323,8.2,53.323,8.2,1.152,17.315-8.891,27.294-5.027,41.634,3.718,13.815,28.273,18.35,31.446,31C390.148,314.2,390.565,319.274,386.636,320.9Z" transform="translate(-310.351 -226.61)" fill="#754c24"/>
            <path id="Trazado_2774" data-name="Trazado 2774" d="M310.426,235.579c2.209-13.7,30.556-3.514,37.382,3.882,7.063-1.977,11.468-.333,14.972,2.886,4.516,4.148-9.731,8.589-21.556,4.87C333.64,244.832,309.033,244.215,310.426,235.579Z" transform="translate(-310.369 -228.823)"/>
            <path id="Trazado_2775" data-name="Trazado 2775" d="M323.116,272.2c11.806.333,23.84.089,29.386-5.343,1.985,1.482,2.778,3.959,3.373,6.179-6.657,5.492-17.406,6.039-29.348,4.953Z" transform="translate(-304.15 -210.266)" fill="#42210b"/>
          </g>
          <path id="Trazado_2776" data-name="Trazado 2776" d="M332.088,284.877c-8.134-2.489-16.293-4.676-15.146-14.233,0,0,.271-2.18,1.315-7.894.092,2.387,2.7,6.807,7.457,11.028C330.584,278.1,332.088,284.877,332.088,284.877Z" transform="translate(-307.215 -212.272)" fill="#603813"/>
        </g>
      </g>
      <g id="Grupo_1238" data-name="Grupo 1238" transform="translate(23.602 204.615)">
        <path id="Trazado_2777" data-name="Trazado 2777" d="M138.222,224.546c-4.532,2.6-3.816,5.453-9.567,8.751-2.886,1.745-3.319,4.219-2.1,6.4s3.574,3.122,6.63,1.492c5.751-3.3,7.853-1.239,12.385-3.839,4.995-2.967,5.74-7.5,3.726-10.836C147.352,223.25,143.278,221.846,138.222,224.546Z" transform="translate(-104.171 -223.121)" fill="#754c24"/>
        <path id="Trazado_2778" data-name="Trazado 2778" d="M129.2,239.646a6.04,6.04,0,0,0,2.029-.692,16.775,16.775,0,0,1,7.232-2.306,11.848,11.848,0,0,0,5.143-1.527c4.139-2.458,5.013-5.922,4.066-8.65.055,2.312-1.184,4.837-4.408,6.752a11.824,11.824,0,0,1-5.143,1.525,16.8,16.8,0,0,0-7.232,2.308,6.474,6.474,0,0,1-1.607.614A2.416,2.416,0,0,1,129.2,239.646Z" transform="translate(-102.567 -221.487)" fill="#a67c52"/>
        <g id="Grupo_1237" data-name="Grupo 1237" transform="translate(19.117 12.652)">
          <path id="Trazado_2779" data-name="Trazado 2779" d="M128.106,239.131l2.3-1.33a1.728,1.728,0,0,0,.719-1.589,5.426,5.426,0,0,0-2.455-4.252,1.724,1.724,0,0,0-1.736-.173l-2.3,1.33Z" transform="translate(-123.914 -231.624)" fill="#534741"/>
          <path id="Trazado_2780" data-name="Trazado 2780" d="M124.15,234.27c0-1.565,1.1-2.2,2.455-1.416a5.426,5.426,0,0,1,2.455,4.252c0,1.565-1.1,2.2-2.455,1.416A5.426,5.426,0,0,1,124.15,234.27Z" transform="translate(-124.15 -231.188)" fill="#ccc"/>
        </g>
        <path id="Trazado_2781" data-name="Trazado 2781" d="M120.145,243.119l13.175-7.606a.378.378,0,0,0,.158-.35,1.194,1.194,0,0,0-.539-.934.377.377,0,0,0-.381-.037L119.381,241.8c-1.573.908-8.08,5.545-8.08,5.545S118.609,244.006,120.145,243.119Z" transform="translate(-111.301 -217.738)" fill="#fff"/>
      </g>
    </g>
  </g>
</svg>
