<svg xmlns="http://www.w3.org/2000/svg" width="302" height="252.96" viewBox="0 0 302 252.96">
  <g id="Grupo_1090" data-name="Grupo 1090" transform="translate(-714.689 -718.464)">
    <g id="Grupo_1083" data-name="Grupo 1083" transform="translate(766.316 722)">
      <path id="Trazado_1825" data-name="Trazado 1825" d="M632.325,123.826l16.059-16.059,16.059,16.059" transform="translate(-632.325 -107.767)" fill="none" stroke="#cea774" stroke-miterlimit="10" stroke-width="5"/>
      <path id="Trazado_1826" data-name="Trazado 1826" d="M632.325,139.475l16.059-16.059,16.059,16.059" transform="translate(-632.325 -107.358)" fill="none" stroke="#cea774" stroke-miterlimit="10" stroke-width="5"/>
      <path id="Trazado_1827" data-name="Trazado 1827" d="M632.325,155.125l16.059-16.059,16.059,16.059" transform="translate(-632.325 -106.949)" fill="none" stroke="#cea774" stroke-miterlimit="10" stroke-width="5"/>
      <path id="Trazado_1828" data-name="Trazado 1828" d="M632.325,170.774l16.059-16.059,16.059,16.059" transform="translate(-632.325 -106.539)" fill="none" stroke="#cea774" stroke-miterlimit="10" stroke-width="5"/>
      <path id="Trazado_1829" data-name="Trazado 1829" d="M632.325,186.423l16.059-16.059,16.059,16.059" transform="translate(-632.325 -106.13)" fill="none" stroke="#cea774" stroke-miterlimit="10" stroke-width="5"/>
      <path id="Trazado_1830" data-name="Trazado 1830" d="M632.325,202.073l16.059-16.059,16.059,16.059" transform="translate(-632.325 -105.721)" fill="none" stroke="#cea774" stroke-miterlimit="10" stroke-width="5"/>
      <path id="Trazado_1831" data-name="Trazado 1831" d="M632.325,217.722l16.059-16.059,16.059,16.059" transform="translate(-632.325 -105.312)" fill="none" stroke="#cea774" stroke-miterlimit="10" stroke-width="5"/>
      <path id="Trazado_1832" data-name="Trazado 1832" d="M632.325,233.372l16.059-16.059,16.059,16.059" transform="translate(-632.325 -104.902)" fill="none" stroke="#cea774" stroke-miterlimit="10" stroke-width="5"/>
      <path id="Trazado_1833" data-name="Trazado 1833" d="M632.325,249.021l16.059-16.059,16.059,16.059" transform="translate(-632.325 -104.493)" fill="none" stroke="#cea774" stroke-miterlimit="10" stroke-width="5"/>
      <path id="Trazado_1834" data-name="Trazado 1834" d="M632.325,264.671l16.059-16.059,16.059,16.059" transform="translate(-632.325 -104.084)" fill="none" stroke="#cea774" stroke-miterlimit="10" stroke-width="5"/>
    </g>
    <g id="Grupo_1086" data-name="Grupo 1086" transform="translate(936.657 790.134)">
      <g id="Grupo_1084" data-name="Grupo 1084" transform="translate(22.881)">
        <path id="Trazado_1835" data-name="Trazado 1835" d="M386.03,390.478l5.719,2.912,3.212-1.635a17.926,17.926,0,0,0-1.606-.816l-1.606.817-4.593-2.339c-.372-.023-.745-.039-1.123-.039s-.755.016-1.13.04l-4.591,2.338-1.6-.816a17.911,17.911,0,0,0-1.6.817l3.208,1.634Z" transform="translate(-368.063 -389.378)" fill="#968179"/>
        <path id="Trazado_1836" data-name="Trazado 1836" d="M376.337,400.152l5.718-2.913,5.719,2.913,5.72-2.913,1.619.825a18.092,18.092,0,0,0-2.345-2.089l-4.994,2.543-5.719-2.913-5.718,2.913-4.99-2.542a18.086,18.086,0,0,0-2.34,2.084l1.611-.821Z" transform="translate(-364.087 -392.435)" fill="#968179"/>
        <path id="Trazado_1837" data-name="Trazado 1837" d="M372.888,407.43l5.718-2.913,5.719,2.913,5.72-2.913,5.192,2.644a17.8,17.8,0,0,0-1.077-2.183l-4.115-2.1-5.72,2.914-5.719-2.914-5.718,2.914-5.719-2.914-4.109,2.094a17.8,17.8,0,0,0-1.077,2.183l5.186-2.642Z" transform="translate(-360.638 -396.008)" fill="#968179"/>
        <path id="Trazado_1838" data-name="Trazado 1838" d="M366.138,411.795l5.719,2.912,5.718-2.912,5.719,2.912,5.72-2.912,5.721,2.912.539-.274c-.088-.5-.192-.989-.319-1.472l-.219.111-5.721-2.912-5.72,2.912-5.719-2.912-5.718,2.912-5.719-2.912-5.718,2.912-.218-.11c-.127.483-.232.974-.319,1.472l.536.272Z" transform="translate(-359.608 -399.582)" fill="#968179"/>
        <path id="Trazado_1839" data-name="Trazado 1839" d="M395.242,419.957l-.772.394-5.721-2.913-5.72,2.913-5.719-2.913-5.718,2.913-5.719-2.913-5.718,2.913-.77-.393c-.025.387-.042.775-.042,1.168,0,.151.008.3.012.452l.8.408,5.718-2.914,5.719,2.914,5.718-2.914,5.719,2.914,5.72-2.914,5.721,2.914.8-.409c0-.151.012-.3.012-.451C395.283,420.733,395.266,420.344,395.242,419.957Z" transform="translate(-359.342 -403.155)" fill="#968179"/>
        <path id="Trazado_1840" data-name="Trazado 1840" d="M388.933,424.715l-5.72,2.913-5.719-2.913-5.718,2.913-5.719-2.913-5.718,2.913-.62-.316a18.008,18.008,0,0,0,.361,1.818l.26.132,5.718-2.913,5.719,2.913,5.718-2.913,5.719,2.913,5.72-2.913,5.721,2.913.262-.134a17.979,17.979,0,0,0,.36-1.818l-.623.317Z" transform="translate(-359.527 -406.728)" fill="#968179"/>
        <path id="Trazado_1841" data-name="Trazado 1841" d="M384.18,434.906l-5.719-2.913-5.718,2.913-5.719-2.913-5.337,2.718c.175.456.363.9.574,1.342l4.762-2.425,5.719,2.912,5.718-2.912,5.719,2.912,5.72-2.912,4.767,2.426c.21-.437.4-.886.574-1.341l-5.341-2.72Z" transform="translate(-360.493 -410.301)" fill="#968179"/>
        <path id="Trazado_1842" data-name="Trazado 1842" d="M385.588,442.183l-5.719-2.913-5.718,2.913-5.719-2.913-3.876,1.974q.385.626.82,1.217l3.056-1.557,5.719,2.913,5.718-2.913,5.719,2.913,5.72-2.913,3.06,1.559q.434-.592.82-1.217l-3.88-1.976Z" transform="translate(-361.902 -413.874)" fill="#968179"/>
        <path id="Trazado_1843" data-name="Trazado 1843" d="M387.529,449.461l-5.719-2.913-5.718,2.913-5.719-2.913-1.865.95c.343.378.7.738,1.078,1.085l.787-.4,5.719,2.913,5.718-2.913,5.719,2.913,5.72-2.913.79.4c.374-.347.736-.707,1.079-1.085l-1.869-.951Z" transform="translate(-363.842 -417.448)" fill="#968179"/>
        <path id="Trazado_1844" data-name="Trazado 1844" d="M385.118,456.294a17.761,17.761,0,0,0,2.266.481l2.581-1.315,2.583,1.315a17.8,17.8,0,0,0,2.267-.48l-4.85-2.47Z" transform="translate(-371.998 -421.021)" fill="#968179"/>
      </g>
      <g id="Grupo_1085" data-name="Grupo 1085" transform="translate(0 11.109)">
        <path id="Trazado_1845" data-name="Trazado 1845" d="M341.079,412.3l5.72,2.912,3.211-1.634a18,18,0,0,0-1.605-.818l-1.606.818L342.2,411.24c-.371-.023-.745-.038-1.122-.038s-.755.015-1.129.039l-4.591,2.338-1.6-.817a17.919,17.919,0,0,0-1.6.817l3.208,1.633Z" transform="translate(-323.112 -411.202)" fill="#fe9b2b"/>
        <path id="Trazado_1846" data-name="Trazado 1846" d="M331.386,421.976l5.717-2.913,5.72,2.913,5.72-2.913,1.619.825a18.064,18.064,0,0,0-2.346-2.089l-4.993,2.543-5.72-2.913-5.717,2.913L326.4,417.8a18.05,18.05,0,0,0-2.34,2.083l1.611-.821Z" transform="translate(-319.136 -414.259)" fill="#fe9b2b"/>
        <path id="Trazado_1847" data-name="Trazado 1847" d="M327.937,429.253l5.717-2.913,5.72,2.913,5.72-2.913,5.191,2.643a17.762,17.762,0,0,0-1.077-2.182l-4.115-2.1-5.72,2.913-5.72-2.913-5.717,2.913-5.719-2.913-4.11,2.093a17.9,17.9,0,0,0-1.077,2.183l5.186-2.641Z" transform="translate(-315.687 -417.832)" fill="#fe9b2b"/>
        <path id="Trazado_1848" data-name="Trazado 1848" d="M321.187,433.618l5.719,2.913,5.717-2.913,5.72,2.913,5.72-2.913,5.72,2.913.539-.274c-.088-.5-.192-.989-.319-1.471l-.22.111-5.72-2.913-5.72,2.913-5.72-2.913-5.717,2.913-5.719-2.913-5.719,2.913-.217-.11c-.127.483-.232.974-.319,1.471l.536.273Z" transform="translate(-314.657 -421.406)" fill="#fe9b2b"/>
        <path id="Trazado_1849" data-name="Trazado 1849" d="M350.291,441.781l-.773.393-5.72-2.913-5.72,2.913-5.72-2.913-5.717,2.913-5.719-2.913-5.719,2.913-.77-.393c-.025.387-.042.775-.042,1.168,0,.151.008.3.012.452l.8.408,5.719-2.914,5.719,2.914,5.717-2.914,5.72,2.914,5.72-2.914,5.72,2.914.8-.409c0-.151.012-.3.012-.451C350.332,442.556,350.315,442.167,350.291,441.781Z" transform="translate(-314.391 -424.979)" fill="#fe9b2b"/>
        <path id="Trazado_1850" data-name="Trazado 1850" d="M343.982,446.539l-5.72,2.913-5.72-2.913-5.717,2.913-5.719-2.913-5.719,2.913-.62-.316a17.866,17.866,0,0,0,.361,1.818l.259.132,5.719-2.913,5.719,2.913,5.717-2.913,5.72,2.913,5.72-2.913,5.72,2.913.263-.134a17.953,17.953,0,0,0,.36-1.818l-.623.318Z" transform="translate(-314.576 -428.552)" fill="#fe9b2b"/>
        <path id="Trazado_1851" data-name="Trazado 1851" d="M339.228,456.729l-5.72-2.913-5.717,2.913-5.719-2.913-5.337,2.719c.175.456.364.9.574,1.342l4.763-2.426,5.719,2.913,5.717-2.913,5.72,2.913,5.72-2.913,4.766,2.426c.21-.437.4-.886.574-1.341l-5.341-2.72Z" transform="translate(-315.542 -432.125)" fill="#fe9b2b"/>
        <path id="Trazado_1852" data-name="Trazado 1852" d="M340.637,464.006l-5.72-2.913-5.717,2.913-5.719-2.913-3.877,1.974q.386.627.82,1.217l3.057-1.557,5.719,2.913,5.717-2.913,5.72,2.913,5.72-2.913,3.06,1.559q.433-.592.82-1.217l-3.88-1.976Z" transform="translate(-316.95 -435.698)" fill="#fe9b2b"/>
        <path id="Trazado_1853" data-name="Trazado 1853" d="M342.578,471.285l-5.72-2.913-5.717,2.913-5.719-2.913-1.865.949c.343.378.7.738,1.078,1.086l.787-.4,5.719,2.913,5.717-2.913,5.72,2.913,5.72-2.913.789.4c.374-.347.736-.708,1.079-1.086l-1.868-.95Z" transform="translate(-318.891 -439.272)" fill="#fe9b2b"/>
        <path id="Trazado_1854" data-name="Trazado 1854" d="M340.167,478.118a17.838,17.838,0,0,0,2.266.48l2.581-1.315L347.6,478.6a17.769,17.769,0,0,0,2.267-.48l-4.85-2.469Z" transform="translate(-327.047 -442.845)" fill="#fe9b2b"/>
      </g>
    </g>
    <g id="Grupo_1087" data-name="Grupo 1087" transform="translate(849.864 911.131) rotate(90)">
      <rect id="Rectángulo_705" data-name="Rectángulo 705" width="5.158" height="5.158" transform="translate(0 3.647) rotate(-45)" fill="#f4564b"/>
      <rect id="Rectángulo_706" data-name="Rectángulo 706" width="5.158" height="5.158" transform="translate(0 14.304) rotate(-45)" fill="#f4564b"/>
      <rect id="Rectángulo_707" data-name="Rectángulo 707" width="5.158" height="5.158" transform="translate(0 24.961) rotate(-45)" fill="#f4564b"/>
      <rect id="Rectángulo_708" data-name="Rectángulo 708" width="5.158" height="5.158" transform="translate(0 35.618) rotate(-45)" fill="#f4564b"/>
      <rect id="Rectángulo_709" data-name="Rectángulo 709" width="5.158" height="5.158" transform="translate(0 46.274) rotate(-45)" fill="#f4564b"/>
      <rect id="Rectángulo_710" data-name="Rectángulo 710" width="5.158" height="5.158" transform="translate(0 56.931) rotate(-45)" fill="#f4564b"/>
      <rect id="Rectángulo_711" data-name="Rectángulo 711" width="5.158" height="5.158" transform="translate(0 67.588) rotate(-45)" fill="#f4564b"/>
      <rect id="Rectángulo_712" data-name="Rectángulo 712" width="5.158" height="5.158" transform="translate(0 78.245) rotate(-45)" fill="#f4564b"/>
      <rect id="Rectángulo_713" data-name="Rectángulo 713" width="5.157" height="5.157" transform="translate(0 88.902) rotate(-44.996)" fill="#f4564b"/>
      <rect id="Rectángulo_714" data-name="Rectángulo 714" width="5.157" height="5.157" transform="translate(0 99.559) rotate(-45.004)" fill="#f4564b"/>
      <rect id="Rectángulo_715" data-name="Rectángulo 715" width="5.158" height="5.158" transform="translate(0 110.215) rotate(-45.004)" fill="#f4564b"/>
      <rect id="Rectángulo_716" data-name="Rectángulo 716" width="5.157" height="5.157" transform="translate(0 120.872) rotate(-45.004)" fill="#f4564b"/>
      <rect id="Rectángulo_717" data-name="Rectángulo 717" width="5.157" height="5.157" transform="translate(0 131.528) rotate(-45.004)" fill="#f4564b"/>
    </g>
    <g id="Grupo_1088" data-name="Grupo 1088" transform="translate(876.114 910.812)">
      <path id="Trazado_1855" data-name="Trazado 1855" d="M273.143,65.271l-5.5,5.5v6.561L279.7,65.271Z" transform="translate(-267.644 -65.271)" fill="#e69494"/>
      <path id="Trazado_1856" data-name="Trazado 1856" d="M283.509,65.271,267.644,81.135V87.7l22.427-22.427Z" transform="translate(-267.644 -65.271)" fill="#e69494"/>
      <path id="Trazado_1857" data-name="Trazado 1857" d="M293.876,65.271,267.644,91.5v6.562l32.794-32.793Z" transform="translate(-267.644 -65.271)" fill="#e69494"/>
      <path id="Trazado_1858" data-name="Trazado 1858" d="M304.243,65.271l-36.6,36.6v6.562l43.16-43.16Z" transform="translate(-267.644 -65.271)" fill="#e69494"/>
      <path id="Trazado_1859" data-name="Trazado 1859" d="M314.609,65.271l-46.965,46.964V118.8l53.527-53.527Z" transform="translate(-267.644 -65.271)" fill="#e69494"/>
      <path id="Trazado_1860" data-name="Trazado 1860" d="M328.257,65.271h-3.281L267.644,122.6v3.281h3.281l57.332-57.332Z" transform="translate(-267.644 -65.271)" fill="#e69494"/>
      <path id="Trazado_1861" data-name="Trazado 1861" d="M328.076,72.175,274.549,125.7h6.562l46.965-46.965Z" transform="translate(-267.464 -65.09)" fill="#e69494"/>
      <path id="Trazado_1862" data-name="Trazado 1862" d="M327.812,82.278l-43.161,43.16h6.562l36.6-36.6Z" transform="translate(-267.199 -64.826)" fill="#e69494"/>
      <path id="Trazado_1863" data-name="Trazado 1863" d="M327.548,92.38l-32.794,32.794h6.562l26.232-26.232Z" transform="translate(-266.935 -64.562)" fill="#e69494"/>
      <path id="Trazado_1864" data-name="Trazado 1864" d="M327.284,102.483,304.856,124.91h6.562l15.865-15.865Z" transform="translate(-266.671 -64.297)" fill="#e69494"/>
      <path id="Trazado_1865" data-name="Trazado 1865" d="M327.019,112.585l-12.061,12.061h6.562l5.5-5.5Z" transform="translate(-266.407 -64.033)" fill="#e69494"/>
    </g>
    <g id="Grupo_1082" data-name="Grupo 1082" transform="translate(814.544 745.601)">
      <path id="Trazado_1464" data-name="Trazado 1464" d="M673.575,355.9a43.914,43.914,0,1,1-43.914-43.915A43.913,43.913,0,0,1,673.575,355.9Z" transform="translate(-560.683 -311.987)" fill="#fee38e"/>
      <g id="Grupo_1081" data-name="Grupo 1081" transform="translate(0 29.053)">
        <g id="Grupo_1045" data-name="Grupo 1045" transform="translate(47.549)">
          <path id="Trazado_1465" data-name="Trazado 1465" d="M609.517,341.23a.929.929,0,1,1-.93-.93A.929.929,0,0,1,609.517,341.23Z" transform="translate(-607.659 -340.3)" fill="#011e50"/>
          <path id="Trazado_1466" data-name="Trazado 1466" d="M609.517,344.634a.929.929,0,1,1-.93-.929A.929.929,0,0,1,609.517,344.634Z" transform="translate(-607.659 -340.211)" fill="#011e50"/>
          <path id="Trazado_1467" data-name="Trazado 1467" d="M609.517,348.038a.929.929,0,1,1-.93-.929A.929.929,0,0,1,609.517,348.038Z" transform="translate(-607.659 -340.122)" fill="#011e50"/>
          <path id="Trazado_1468" data-name="Trazado 1468" d="M609.517,351.443a.929.929,0,1,1-.93-.93A.93.93,0,0,1,609.517,351.443Z" transform="translate(-607.659 -340.033)" fill="#011e50"/>
          <path id="Trazado_1469" data-name="Trazado 1469" d="M609.517,354.847a.929.929,0,1,1-.93-.93A.93.93,0,0,1,609.517,354.847Z" transform="translate(-607.659 -339.944)" fill="#011e50"/>
          <path id="Trazado_1470" data-name="Trazado 1470" d="M609.517,358.251a.929.929,0,1,1-.93-.93A.929.929,0,0,1,609.517,358.251Z" transform="translate(-607.659 -339.855)" fill="#011e50"/>
          <path id="Trazado_1471" data-name="Trazado 1471" d="M609.517,361.655a.929.929,0,1,1-.93-.93A.93.93,0,0,1,609.517,361.655Z" transform="translate(-607.659 -339.766)" fill="#011e50"/>
          <path id="Trazado_1472" data-name="Trazado 1472" d="M609.517,365.06a.929.929,0,1,1-.93-.931A.93.93,0,0,1,609.517,365.06Z" transform="translate(-607.659 -339.677)" fill="#011e50"/>
          <path id="Trazado_1473" data-name="Trazado 1473" d="M609.517,368.464a.929.929,0,1,1-.93-.93A.93.93,0,0,1,609.517,368.464Z" transform="translate(-607.659 -339.588)" fill="#011e50"/>
          <path id="Trazado_1474" data-name="Trazado 1474" d="M609.517,371.868a.929.929,0,1,1-.93-.93A.93.93,0,0,1,609.517,371.868Z" transform="translate(-607.659 -339.499)" fill="#011e50"/>
        </g>
        <g id="Grupo_1046" data-name="Grupo 1046" transform="translate(39.292 0.722)">
          <path id="Trazado_1475" data-name="Trazado 1475" d="M601.457,341.772a.929.929,0,1,1-1.076-.753A.93.93,0,0,1,601.457,341.772Z" transform="translate(-599.613 -341.004)" fill="#011e50"/>
          <path id="Trazado_1476" data-name="Trazado 1476" d="M602.048,345.125a.928.928,0,1,1-1.076-.753A.93.93,0,0,1,602.048,345.125Z" transform="translate(-599.597 -340.916)" fill="#011e50"/>
          <path id="Trazado_1477" data-name="Trazado 1477" d="M602.64,348.477a.929.929,0,1,1-1.076-.753A.93.93,0,0,1,602.64,348.477Z" transform="translate(-599.582 -340.829)" fill="#011e50"/>
          <path id="Trazado_1478" data-name="Trazado 1478" d="M603.231,351.83a.929.929,0,1,1-1.076-.753A.93.93,0,0,1,603.231,351.83Z" transform="translate(-599.567 -340.741)" fill="#011e50"/>
          <path id="Trazado_1479" data-name="Trazado 1479" d="M603.821,355.183a.929.929,0,1,1-1.074-.754A.929.929,0,0,1,603.821,355.183Z" transform="translate(-599.551 -340.653)" fill="#011e50"/>
          <path id="Trazado_1480" data-name="Trazado 1480" d="M604.412,358.535a.928.928,0,1,1-1.076-.753A.929.929,0,0,1,604.412,358.535Z" transform="translate(-599.536 -340.566)" fill="#011e50"/>
          <path id="Trazado_1481" data-name="Trazado 1481" d="M605,361.888a.929.929,0,1,1-1.076-.754A.929.929,0,0,1,605,361.888Z" transform="translate(-599.52 -340.478)" fill="#011e50"/>
          <path id="Trazado_1482" data-name="Trazado 1482" d="M605.595,365.24a.928.928,0,1,1-1.075-.753A.929.929,0,0,1,605.595,365.24Z" transform="translate(-599.505 -340.39)" fill="#011e50"/>
          <path id="Trazado_1483" data-name="Trazado 1483" d="M606.187,368.593a.929.929,0,1,1-1.076-.754A.93.93,0,0,1,606.187,368.593Z" transform="translate(-599.489 -340.303)" fill="#011e50"/>
          <path id="Trazado_1484" data-name="Trazado 1484" d="M606.777,371.945a.929.929,0,1,1-1.075-.753A.929.929,0,0,1,606.777,371.945Z" transform="translate(-599.474 -340.215)" fill="#011e50"/>
        </g>
        <g id="Grupo_1047" data-name="Grupo 1047" transform="translate(31.286 2.867)">
          <path id="Trazado_1485" data-name="Trazado 1485" d="M593.613,343.707a.929.929,0,1,1-1.189-.556A.928.928,0,0,1,593.613,343.707Z" transform="translate(-591.811 -343.094)" fill="#011e50"/>
          <path id="Trazado_1486" data-name="Trazado 1486" d="M594.777,346.906a.929.929,0,1,1-1.189-.556A.929.929,0,0,1,594.777,346.906Z" transform="translate(-591.78 -343.01)" fill="#011e50"/>
          <path id="Trazado_1487" data-name="Trazado 1487" d="M595.942,350.1a.929.929,0,1,1-1.19-.555A.93.93,0,0,1,595.942,350.1Z" transform="translate(-591.75 -342.927)" fill="#011e50"/>
          <path id="Trazado_1488" data-name="Trazado 1488" d="M597.107,353.3a.929.929,0,1,1-1.19-.556A.931.931,0,0,1,597.107,353.3Z" transform="translate(-591.719 -342.843)" fill="#011e50"/>
          <path id="Trazado_1489" data-name="Trazado 1489" d="M598.271,356.5a.929.929,0,1,1-1.19-.555A.929.929,0,0,1,598.271,356.5Z" transform="translate(-591.689 -342.76)" fill="#011e50"/>
          <path id="Trazado_1490" data-name="Trazado 1490" d="M599.435,359.7a.929.929,0,1,1-1.19-.555A.93.93,0,0,1,599.435,359.7Z" transform="translate(-591.658 -342.676)" fill="#011e50"/>
          <path id="Trazado_1491" data-name="Trazado 1491" d="M600.6,362.9a.929.929,0,1,1-1.19-.555A.93.93,0,0,1,600.6,362.9Z" transform="translate(-591.628 -342.592)" fill="#011e50"/>
          <path id="Trazado_1492" data-name="Trazado 1492" d="M601.765,366.1a.93.93,0,1,1-1.19-.554A.932.932,0,0,1,601.765,366.1Z" transform="translate(-591.598 -342.509)" fill="#011e50"/>
          <path id="Trazado_1493" data-name="Trazado 1493" d="M602.929,369.3a.929.929,0,1,1-1.19-.555A.93.93,0,0,1,602.929,369.3Z" transform="translate(-591.567 -342.425)" fill="#011e50"/>
          <path id="Trazado_1494" data-name="Trazado 1494" d="M604.093,372.5a.929.929,0,1,1-1.19-.555A.929.929,0,0,1,604.093,372.5Z" transform="translate(-591.537 -342.341)" fill="#011e50"/>
        </g>
        <g id="Grupo_1048" data-name="Grupo 1048" transform="translate(23.775 6.37)">
          <path id="Trazado_1495" data-name="Trazado 1495" d="M586.225,346.973a.929.929,0,1,1-1.269-.342A.929.929,0,0,1,586.225,346.973Z" transform="translate(-584.491 -346.507)" fill="#011e50"/>
          <path id="Trazado_1496" data-name="Trazado 1496" d="M587.927,349.921a.929.929,0,1,1-1.269-.341A.929.929,0,0,1,587.927,349.921Z" transform="translate(-584.446 -346.43)" fill="#011e50"/>
          <path id="Trazado_1497" data-name="Trazado 1497" d="M589.629,352.869a.929.929,0,1,1-1.268-.341A.927.927,0,0,1,589.629,352.869Z" transform="translate(-584.402 -346.353)" fill="#011e50"/>
          <path id="Trazado_1498" data-name="Trazado 1498" d="M591.331,355.817a.929.929,0,1,1-1.268-.341A.929.929,0,0,1,591.331,355.817Z" transform="translate(-584.357 -346.276)" fill="#011e50"/>
          <path id="Trazado_1499" data-name="Trazado 1499" d="M593.033,358.765a.929.929,0,1,1-1.268-.341A.93.93,0,0,1,593.033,358.765Z" transform="translate(-584.313 -346.199)" fill="#011e50"/>
          <path id="Trazado_1500" data-name="Trazado 1500" d="M594.735,361.714a.929.929,0,1,1-1.268-.341A.927.927,0,0,1,594.735,361.714Z" transform="translate(-584.268 -346.122)" fill="#011e50"/>
          <path id="Trazado_1501" data-name="Trazado 1501" d="M596.438,364.662a.929.929,0,1,1-1.269-.341A.928.928,0,0,1,596.438,364.662Z" transform="translate(-584.224 -346.045)" fill="#011e50"/>
          <path id="Trazado_1502" data-name="Trazado 1502" d="M598.14,367.61a.929.929,0,1,1-1.269-.341A.928.928,0,0,1,598.14,367.61Z" transform="translate(-584.179 -345.967)" fill="#011e50"/>
          <path id="Trazado_1503" data-name="Trazado 1503" d="M599.842,370.558a.93.93,0,1,1-1.268-.341A.929.929,0,0,1,599.842,370.558Z" transform="translate(-584.135 -345.89)" fill="#011e50"/>
          <path id="Trazado_1504" data-name="Trazado 1504" d="M601.544,373.507a.929.929,0,1,1-1.268-.341A.927.927,0,0,1,601.544,373.507Z" transform="translate(-584.09 -345.813)" fill="#011e50"/>
        </g>
        <g id="Grupo_1049" data-name="Grupo 1049" transform="translate(16.986 11.124)">
          <path id="Trazado_1505" data-name="Trazado 1505" d="M579.516,351.472a.929.929,0,1,1-1.309-.116A.928.928,0,0,1,579.516,351.472Z" transform="translate(-577.875 -351.14)" fill="#011e50"/>
          <path id="Trazado_1506" data-name="Trazado 1506" d="M581.7,354.082a.928.928,0,1,1-1.308-.118A.926.926,0,0,1,581.7,354.082Z" transform="translate(-577.818 -351.072)" fill="#011e50"/>
          <path id="Trazado_1507" data-name="Trazado 1507" d="M583.892,356.688a.929.929,0,1,1-1.308-.116A.929.929,0,0,1,583.892,356.688Z" transform="translate(-577.761 -351.004)" fill="#011e50"/>
          <path id="Trazado_1508" data-name="Trazado 1508" d="M586.081,359.3a.929.929,0,1,1-1.309-.117A.927.927,0,0,1,586.081,359.3Z" transform="translate(-577.703 -350.935)" fill="#011e50"/>
          <path id="Trazado_1509" data-name="Trazado 1509" d="M588.269,361.9a.929.929,0,1,1-1.309-.116A.927.927,0,0,1,588.269,361.9Z" transform="translate(-577.646 -350.867)" fill="#011e50"/>
          <path id="Trazado_1510" data-name="Trazado 1510" d="M590.457,364.511a.929.929,0,1,1-1.308-.116A.929.929,0,0,1,590.457,364.511Z" transform="translate(-577.589 -350.799)" fill="#011e50"/>
          <path id="Trazado_1511" data-name="Trazado 1511" d="M592.646,367.119a.93.93,0,1,1-1.309-.115A.927.927,0,0,1,592.646,367.119Z" transform="translate(-577.532 -350.731)" fill="#011e50"/>
          <path id="Trazado_1512" data-name="Trazado 1512" d="M594.833,369.727a.929.929,0,1,1-1.308-.116A.929.929,0,0,1,594.833,369.727Z" transform="translate(-577.475 -350.663)" fill="#011e50"/>
          <path id="Trazado_1513" data-name="Trazado 1513" d="M597.021,372.336a.929.929,0,1,1-1.308-.117A.926.926,0,0,1,597.021,372.336Z" transform="translate(-577.417 -350.594)" fill="#011e50"/>
          <path id="Trazado_1514" data-name="Trazado 1514" d="M599.21,374.944a.929.929,0,1,1-1.308-.116A.927.927,0,0,1,599.21,374.944Z" transform="translate(-577.36 -350.526)" fill="#011e50"/>
        </g>
        <g id="Grupo_1050" data-name="Grupo 1050" transform="translate(11.126 16.984)">
          <path id="Trazado_1515" data-name="Trazado 1515" d="M573.69,357.07a.929.929,0,1,1-1.309.112A.927.927,0,0,1,573.69,357.07Z" transform="translate(-572.164 -356.851)" fill="#011e50"/>
          <path id="Trazado_1516" data-name="Trazado 1516" d="M576.3,359.257a.929.929,0,1,1-1.31.114A.929.929,0,0,1,576.3,359.257Z" transform="translate(-572.096 -356.793)" fill="#011e50"/>
          <path id="Trazado_1517" data-name="Trazado 1517" d="M578.906,361.447a.929.929,0,1,1-1.309.112A.926.926,0,0,1,578.906,361.447Z" transform="translate(-572.027 -356.736)" fill="#011e50"/>
          <path id="Trazado_1518" data-name="Trazado 1518" d="M581.514,363.634a.929.929,0,1,1-1.309.114A.93.93,0,0,1,581.514,363.634Z" transform="translate(-571.959 -356.679)" fill="#011e50"/>
          <path id="Trazado_1519" data-name="Trazado 1519" d="M584.122,365.823a.929.929,0,1,1-1.309.113A.928.928,0,0,1,584.122,365.823Z" transform="translate(-571.891 -356.622)" fill="#011e50"/>
          <path id="Trazado_1520" data-name="Trazado 1520" d="M586.729,368.011a.929.929,0,1,1-1.309.113A.929.929,0,0,1,586.729,368.011Z" transform="translate(-571.823 -356.565)" fill="#011e50"/>
          <path id="Trazado_1521" data-name="Trazado 1521" d="M589.338,370.2a.929.929,0,1,1-1.31.112A.927.927,0,0,1,589.338,370.2Z" transform="translate(-571.755 -356.507)" fill="#011e50"/>
          <path id="Trazado_1522" data-name="Trazado 1522" d="M591.945,372.388a.929.929,0,1,1-1.309.113A.928.928,0,0,1,591.945,372.388Z" transform="translate(-571.687 -356.45)" fill="#011e50"/>
          <path id="Trazado_1523" data-name="Trazado 1523" d="M594.554,374.576a.929.929,0,1,1-1.31.113A.928.928,0,0,1,594.554,374.576Z" transform="translate(-571.618 -356.393)" fill="#011e50"/>
          <path id="Trazado_1524" data-name="Trazado 1524" d="M597.161,376.764a.929.929,0,1,1-1.309.114A.927.927,0,0,1,597.161,376.764Z" transform="translate(-571.55 -356.336)" fill="#011e50"/>
        </g>
        <g id="Grupo_1051" data-name="Grupo 1051" transform="translate(6.371 23.772)">
          <path id="Trazado_1525" data-name="Trazado 1525" d="M568.926,363.592a.93.93,0,1,1-1.271.339A.929.929,0,0,1,568.926,363.592Z" transform="translate(-567.531 -363.467)" fill="#011e50"/>
          <path id="Trazado_1526" data-name="Trazado 1526" d="M571.874,365.3a.929.929,0,1,1-1.27.339A.928.928,0,0,1,571.874,365.3Z" transform="translate(-567.453 -363.422)" fill="#011e50"/>
          <path id="Trazado_1527" data-name="Trazado 1527" d="M574.822,367a.929.929,0,1,1-1.27.339A.928.928,0,0,1,574.822,367Z" transform="translate(-567.376 -363.378)" fill="#011e50"/>
          <path id="Trazado_1528" data-name="Trazado 1528" d="M577.77,368.7a.929.929,0,1,1-1.27.339A.929.929,0,0,1,577.77,368.7Z" transform="translate(-567.299 -363.333)" fill="#011e50"/>
          <path id="Trazado_1529" data-name="Trazado 1529" d="M580.719,370.4a.929.929,0,1,1-1.271.339A.93.93,0,0,1,580.719,370.4Z" transform="translate(-567.222 -363.288)" fill="#011e50"/>
          <path id="Trazado_1530" data-name="Trazado 1530" d="M583.666,372.1a.929.929,0,1,1-1.27.34A.929.929,0,0,1,583.666,372.1Z" transform="translate(-567.145 -363.244)" fill="#011e50"/>
          <path id="Trazado_1531" data-name="Trazado 1531" d="M586.614,373.805a.929.929,0,1,1-1.27.34A.928.928,0,0,1,586.614,373.805Z" transform="translate(-567.068 -363.199)" fill="#011e50"/>
          <path id="Trazado_1532" data-name="Trazado 1532" d="M589.563,375.507a.93.93,0,1,1-1.27.341A.928.928,0,0,1,589.563,375.507Z" transform="translate(-566.991 -363.155)" fill="#011e50"/>
          <path id="Trazado_1533" data-name="Trazado 1533" d="M592.512,377.21a.93.93,0,1,1-1.271.34A.928.928,0,0,1,592.512,377.21Z" transform="translate(-566.914 -363.11)" fill="#011e50"/>
          <path id="Trazado_1534" data-name="Trazado 1534" d="M595.459,378.912a.929.929,0,1,1-1.27.34A.928.928,0,0,1,595.459,378.912Z" transform="translate(-566.837 -363.066)" fill="#011e50"/>
        </g>
        <g id="Grupo_1052" data-name="Grupo 1052" transform="translate(2.868 31.284)">
          <path id="Trazado_1535" data-name="Trazado 1535" d="M565.365,370.843a.929.929,0,1,1-1.192.554A.929.929,0,0,1,565.365,370.843Z" transform="translate(-564.117 -370.786)" fill="#011e50"/>
          <path id="Trazado_1536" data-name="Trazado 1536" d="M568.564,372.007a.929.929,0,1,1-1.192.554A.929.929,0,0,1,568.564,372.007Z" transform="translate(-564.033 -370.756)" fill="#011e50"/>
          <path id="Trazado_1537" data-name="Trazado 1537" d="M571.763,373.172a.93.93,0,1,1-1.192.555A.929.929,0,0,1,571.763,373.172Z" transform="translate(-563.95 -370.725)" fill="#011e50"/>
          <path id="Trazado_1538" data-name="Trazado 1538" d="M574.962,374.337a.929.929,0,1,1-1.192.554A.927.927,0,0,1,574.962,374.337Z" transform="translate(-563.866 -370.695)" fill="#011e50"/>
          <path id="Trazado_1539" data-name="Trazado 1539" d="M578.161,375.5a.93.93,0,1,1-1.192.556A.93.93,0,0,1,578.161,375.5Z" transform="translate(-563.782 -370.664)" fill="#011e50"/>
          <path id="Trazado_1540" data-name="Trazado 1540" d="M581.36,376.666a.929.929,0,1,1-1.192.554A.928.928,0,0,1,581.36,376.666Z" transform="translate(-563.699 -370.634)" fill="#011e50"/>
          <path id="Trazado_1541" data-name="Trazado 1541" d="M584.559,377.83a.93.93,0,1,1-1.192.555A.927.927,0,0,1,584.559,377.83Z" transform="translate(-563.615 -370.604)" fill="#011e50"/>
          <path id="Trazado_1542" data-name="Trazado 1542" d="M587.759,378.994a.93.93,0,1,1-1.193.555A.929.929,0,0,1,587.759,378.994Z" transform="translate(-563.531 -370.573)" fill="#011e50"/>
          <path id="Trazado_1543" data-name="Trazado 1543" d="M590.957,380.158a.93.93,0,1,1-1.191.555A.929.929,0,0,1,590.957,380.158Z" transform="translate(-563.448 -370.543)" fill="#011e50"/>
          <path id="Trazado_1544" data-name="Trazado 1544" d="M594.156,381.323a.93.93,0,1,1-1.191.555A.927.927,0,0,1,594.156,381.323Z" transform="translate(-563.364 -370.512)" fill="#011e50"/>
        </g>
        <g id="Grupo_1053" data-name="Grupo 1053" transform="translate(0.723 39.289)">
          <path id="Trazado_1545" data-name="Trazado 1545" d="M563.119,378.6a.929.929,0,1,1-1.078.753A.928.928,0,0,1,563.119,378.6Z" transform="translate(-562.026 -378.588)" fill="#011e50"/>
          <path id="Trazado_1546" data-name="Trazado 1546" d="M566.471,379.194a.929.929,0,1,1-1.077.752A.928.928,0,0,1,566.471,379.194Z" transform="translate(-561.939 -378.573)" fill="#011e50"/>
          <path id="Trazado_1547" data-name="Trazado 1547" d="M569.824,379.785a.93.93,0,1,1-1.079.753A.928.928,0,0,1,569.824,379.785Z" transform="translate(-561.851 -378.557)" fill="#011e50"/>
          <path id="Trazado_1548" data-name="Trazado 1548" d="M573.176,380.376a.93.93,0,1,1-1.077.754A.928.928,0,0,1,573.176,380.376Z" transform="translate(-561.763 -378.542)" fill="#011e50"/>
          <path id="Trazado_1549" data-name="Trazado 1549" d="M576.529,380.967a.929.929,0,1,1-1.077.754A.928.928,0,0,1,576.529,380.967Z" transform="translate(-561.676 -378.526)" fill="#011e50"/>
          <path id="Trazado_1550" data-name="Trazado 1550" d="M579.882,381.559a.929.929,0,1,1-1.077.753A.929.929,0,0,1,579.882,381.559Z" transform="translate(-561.588 -378.511)" fill="#011e50"/>
          <path id="Trazado_1551" data-name="Trazado 1551" d="M583.234,382.15a.93.93,0,1,1-1.077.753A.928.928,0,0,1,583.234,382.15Z" transform="translate(-561.5 -378.495)" fill="#011e50"/>
          <path id="Trazado_1552" data-name="Trazado 1552" d="M586.587,382.741a.93.93,0,1,1-1.078.753A.927.927,0,0,1,586.587,382.741Z" transform="translate(-561.413 -378.48)" fill="#011e50"/>
          <path id="Trazado_1553" data-name="Trazado 1553" d="M589.939,383.332a.93.93,0,1,1-1.077.753A.929.929,0,0,1,589.939,383.332Z" transform="translate(-561.325 -378.464)" fill="#011e50"/>
          <path id="Trazado_1554" data-name="Trazado 1554" d="M593.292,383.923a.93.93,0,1,1-1.077.754A.927.927,0,0,1,593.292,383.923Z" transform="translate(-561.237 -378.449)" fill="#011e50"/>
        </g>
        <g id="Grupo_1054" data-name="Grupo 1054" transform="translate(0 47.547)">
          <path id="Trazado_1555" data-name="Trazado 1555" d="M562.253,386.635a.93.93,0,1,1-.931.929A.928.928,0,0,1,562.253,386.635Z" transform="translate(-561.322 -386.635)" fill="#011e50"/>
          <path id="Trazado_1556" data-name="Trazado 1556" d="M565.658,386.635a.93.93,0,1,1-.931.929A.926.926,0,0,1,565.658,386.635Z" transform="translate(-561.233 -386.635)" fill="#011e50"/>
          <path id="Trazado_1557" data-name="Trazado 1557" d="M569.062,386.635a.93.93,0,1,1-.931.929A.926.926,0,0,1,569.062,386.635Z" transform="translate(-561.144 -386.635)" fill="#011e50"/>
          <path id="Trazado_1558" data-name="Trazado 1558" d="M572.466,386.635a.93.93,0,1,1-.931.93A.927.927,0,0,1,572.466,386.635Z" transform="translate(-561.055 -386.635)" fill="#011e50"/>
          <path id="Trazado_1559" data-name="Trazado 1559" d="M575.871,386.635a.93.93,0,1,1-.932.929A.926.926,0,0,1,575.871,386.635Z" transform="translate(-560.966 -386.635)" fill="#011e50"/>
          <path id="Trazado_1560" data-name="Trazado 1560" d="M579.275,386.635a.93.93,0,1,1-.931.93A.927.927,0,0,1,579.275,386.635Z" transform="translate(-560.877 -386.635)" fill="#011e50"/>
          <path id="Trazado_1561" data-name="Trazado 1561" d="M582.679,386.635a.93.93,0,1,1-.931.93A.928.928,0,0,1,582.679,386.635Z" transform="translate(-560.788 -386.635)" fill="#011e50"/>
          <path id="Trazado_1562" data-name="Trazado 1562" d="M586.084,386.635a.93.93,0,1,1-.932.93A.928.928,0,0,1,586.084,386.635Z" transform="translate(-560.699 -386.635)" fill="#011e50"/>
          <path id="Trazado_1563" data-name="Trazado 1563" d="M589.488,386.635a.93.93,0,1,1-.931.93A.928.928,0,0,1,589.488,386.635Z" transform="translate(-560.61 -386.635)" fill="#011e50"/>
          <path id="Trazado_1564" data-name="Trazado 1564" d="M592.892,386.635a.93.93,0,1,1-.931.93A.928.928,0,0,1,592.892,386.635Z" transform="translate(-560.521 -386.635)" fill="#011e50"/>
        </g>
        <g id="Grupo_1055" data-name="Grupo 1055" transform="translate(0.723 50.343)">
          <path id="Trazado_1565" data-name="Trazado 1565" d="M562.8,394.7a.929.929,0,1,1-.755,1.076A.927.927,0,0,1,562.8,394.7Z" transform="translate(-562.026 -389.221)" fill="#011e50"/>
          <path id="Trazado_1566" data-name="Trazado 1566" d="M566.149,394.1a.93.93,0,1,1-.755,1.077A.929.929,0,0,1,566.149,394.1Z" transform="translate(-561.939 -389.237)" fill="#011e50"/>
          <path id="Trazado_1567" data-name="Trazado 1567" d="M569.5,393.513a.929.929,0,1,1-.755,1.075A.929.929,0,0,1,569.5,393.513Z" transform="translate(-561.851 -389.252)" fill="#011e50"/>
          <path id="Trazado_1568" data-name="Trazado 1568" d="M572.854,392.921A.93.93,0,1,1,572.1,394,.931.931,0,0,1,572.854,392.921Z" transform="translate(-561.763 -389.268)" fill="#011e50"/>
          <path id="Trazado_1569" data-name="Trazado 1569" d="M576.207,392.33a.93.93,0,1,1-.756,1.076A.929.929,0,0,1,576.207,392.33Z" transform="translate(-561.676 -389.283)" fill="#011e50"/>
          <path id="Trazado_1570" data-name="Trazado 1570" d="M579.559,391.739a.93.93,0,1,1-.755,1.076A.929.929,0,0,1,579.559,391.739Z" transform="translate(-561.588 -389.299)" fill="#011e50"/>
          <path id="Trazado_1571" data-name="Trazado 1571" d="M582.912,391.148a.93.93,0,1,1-.756,1.076A.926.926,0,0,1,582.912,391.148Z" transform="translate(-561.5 -389.314)" fill="#011e50"/>
          <path id="Trazado_1572" data-name="Trazado 1572" d="M586.264,390.557a.93.93,0,1,1-.755,1.076A.928.928,0,0,1,586.264,390.557Z" transform="translate(-561.413 -389.329)" fill="#011e50"/>
          <path id="Trazado_1573" data-name="Trazado 1573" d="M589.617,389.965a.93.93,0,1,1-.756,1.076A.928.928,0,0,1,589.617,389.965Z" transform="translate(-561.325 -389.345)" fill="#011e50"/>
          <path id="Trazado_1574" data-name="Trazado 1574" d="M592.969,389.374a.931.931,0,1,1-.755,1.076A.93.93,0,0,1,592.969,389.374Z" transform="translate(-561.237 -389.36)" fill="#011e50"/>
        </g>
        <g id="Grupo_1056" data-name="Grupo 1056" transform="translate(2.868 53.056)">
          <path id="Trazado_1575" data-name="Trazado 1575" d="M564.73,402.538a.93.93,0,1,1-.556,1.191A.928.928,0,0,1,564.73,402.538Z" transform="translate(-564.117 -391.729)" fill="#011e50"/>
          <path id="Trazado_1576" data-name="Trazado 1576" d="M567.929,401.374a.93.93,0,1,1-.556,1.191A.927.927,0,0,1,567.929,401.374Z" transform="translate(-564.033 -391.76)" fill="#011e50"/>
          <path id="Trazado_1577" data-name="Trazado 1577" d="M571.127,400.209a.93.93,0,1,1-.556,1.191A.93.93,0,0,1,571.127,400.209Z" transform="translate(-563.95 -391.79)" fill="#011e50"/>
          <path id="Trazado_1578" data-name="Trazado 1578" d="M574.327,399.045a.93.93,0,1,1-.556,1.191A.931.931,0,0,1,574.327,399.045Z" transform="translate(-563.866 -391.821)" fill="#011e50"/>
          <path id="Trazado_1579" data-name="Trazado 1579" d="M577.526,397.88a.93.93,0,1,1-.557,1.192A.931.931,0,0,1,577.526,397.88Z" transform="translate(-563.782 -391.851)" fill="#011e50"/>
          <path id="Trazado_1580" data-name="Trazado 1580" d="M580.725,396.716a.93.93,0,1,1-.557,1.19A.931.931,0,0,1,580.725,396.716Z" transform="translate(-563.699 -391.882)" fill="#011e50"/>
          <path id="Trazado_1581" data-name="Trazado 1581" d="M583.924,395.552a.929.929,0,1,1-.557,1.191A.929.929,0,0,1,583.924,395.552Z" transform="translate(-563.615 -391.912)" fill="#011e50"/>
          <path id="Trazado_1582" data-name="Trazado 1582" d="M587.122,394.388a.93.93,0,1,1-.556,1.19A.931.931,0,0,1,587.122,394.388Z" transform="translate(-563.531 -391.943)" fill="#011e50"/>
          <path id="Trazado_1583" data-name="Trazado 1583" d="M590.322,393.223a.93.93,0,1,1-.557,1.19A.93.93,0,0,1,590.322,393.223Z" transform="translate(-563.448 -391.973)" fill="#011e50"/>
          <path id="Trazado_1584" data-name="Trazado 1584" d="M593.521,392.059a.93.93,0,1,1-.557,1.19A.929.929,0,0,1,593.521,392.059Z" transform="translate(-563.364 -392.003)" fill="#011e50"/>
        </g>
        <g id="Grupo_1057" data-name="Grupo 1057" transform="translate(6.37 55.601)">
          <path id="Trazado_1585" data-name="Trazado 1585" d="M567.995,409.926a.93.93,0,1,1-.34,1.27A.93.93,0,0,1,567.995,409.926Z" transform="translate(-567.53 -394.083)" fill="#011e50"/>
          <path id="Trazado_1586" data-name="Trazado 1586" d="M570.944,408.224a.93.93,0,1,1-.34,1.269A.93.93,0,0,1,570.944,408.224Z" transform="translate(-567.453 -394.128)" fill="#011e50"/>
          <path id="Trazado_1587" data-name="Trazado 1587" d="M573.892,406.522a.93.93,0,1,1-.34,1.269A.928.928,0,0,1,573.892,406.522Z" transform="translate(-567.376 -394.172)" fill="#011e50"/>
          <path id="Trazado_1588" data-name="Trazado 1588" d="M576.84,404.82a.93.93,0,1,1-.34,1.269A.928.928,0,0,1,576.84,404.82Z" transform="translate(-567.299 -394.217)" fill="#011e50"/>
          <path id="Trazado_1589" data-name="Trazado 1589" d="M579.788,403.118a.93.93,0,1,1-.34,1.269A.93.93,0,0,1,579.788,403.118Z" transform="translate(-567.222 -394.261)" fill="#011e50"/>
          <path id="Trazado_1590" data-name="Trazado 1590" d="M582.737,401.416a.93.93,0,1,1-.341,1.269A.929.929,0,0,1,582.737,401.416Z" transform="translate(-567.145 -394.306)" fill="#011e50"/>
          <path id="Trazado_1591" data-name="Trazado 1591" d="M585.685,399.714a.93.93,0,1,1-.341,1.269A.929.929,0,0,1,585.685,399.714Z" transform="translate(-567.067 -394.35)" fill="#011e50"/>
          <path id="Trazado_1592" data-name="Trazado 1592" d="M588.633,398.011a.93.93,0,1,1-.341,1.27A.93.93,0,0,1,588.633,398.011Z" transform="translate(-566.99 -394.395)" fill="#011e50"/>
          <path id="Trazado_1593" data-name="Trazado 1593" d="M591.581,396.309a.93.93,0,1,1-.341,1.27A.931.931,0,0,1,591.581,396.309Z" transform="translate(-566.913 -394.439)" fill="#011e50"/>
          <path id="Trazado_1594" data-name="Trazado 1594" d="M594.53,394.607a.93.93,0,1,1-.341,1.269A.929.929,0,0,1,594.53,394.607Z" transform="translate(-566.836 -394.484)" fill="#011e50"/>
        </g>
        <g id="Grupo_1058" data-name="Grupo 1058" transform="translate(11.124 57.901)">
          <path id="Trazado_1595" data-name="Trazado 1595" d="M572.494,416.636a.93.93,0,1,1-.114,1.309A.93.93,0,0,1,572.494,416.636Z" transform="translate(-572.163 -396.21)" fill="#011e50"/>
          <path id="Trazado_1596" data-name="Trazado 1596" d="M575.1,414.448a.929.929,0,1,1-.116,1.309A.928.928,0,0,1,575.1,414.448Z" transform="translate(-572.094 -396.268)" fill="#011e50"/>
          <path id="Trazado_1597" data-name="Trazado 1597" d="M577.71,412.259a.93.93,0,1,1-.114,1.31A.93.93,0,0,1,577.71,412.259Z" transform="translate(-572.026 -396.325)" fill="#011e50"/>
          <path id="Trazado_1598" data-name="Trazado 1598" d="M580.319,410.071a.93.93,0,1,1-.115,1.309A.929.929,0,0,1,580.319,410.071Z" transform="translate(-571.958 -396.382)" fill="#011e50"/>
          <path id="Trazado_1599" data-name="Trazado 1599" d="M582.926,407.882a.93.93,0,1,1-.114,1.31A.928.928,0,0,1,582.926,407.882Z" transform="translate(-571.89 -396.439)" fill="#011e50"/>
          <path id="Trazado_1600" data-name="Trazado 1600" d="M585.534,405.695a.929.929,0,1,1-.115,1.309A.93.93,0,0,1,585.534,405.695Z" transform="translate(-571.822 -396.496)" fill="#011e50"/>
          <path id="Trazado_1601" data-name="Trazado 1601" d="M588.142,403.505a.93.93,0,1,1-.115,1.31A.929.929,0,0,1,588.142,403.505Z" transform="translate(-571.753 -396.554)" fill="#011e50"/>
          <path id="Trazado_1602" data-name="Trazado 1602" d="M590.75,401.317a.93.93,0,1,1-.115,1.31A.929.929,0,0,1,590.75,401.317Z" transform="translate(-571.685 -396.611)" fill="#011e50"/>
          <path id="Trazado_1603" data-name="Trazado 1603" d="M593.358,399.129a.93.93,0,1,1-.115,1.31A.929.929,0,0,1,593.358,399.129Z" transform="translate(-571.617 -396.668)" fill="#011e50"/>
          <path id="Trazado_1604" data-name="Trazado 1604" d="M595.966,396.94a.93.93,0,1,1-.115,1.31A.93.93,0,0,1,595.966,396.94Z" transform="translate(-571.549 -396.725)" fill="#011e50"/>
        </g>
        <g id="Grupo_1059" data-name="Grupo 1059" transform="translate(16.984 59.886)">
          <path id="Trazado_1605" data-name="Trazado 1605" d="M578.092,422.461a.93.93,0,1,1,.114,1.309A.928.928,0,0,1,578.092,422.461Z" transform="translate(-577.873 -398.046)" fill="#011e50"/>
          <path id="Trazado_1606" data-name="Trazado 1606" d="M580.279,419.853a.93.93,0,1,1,.115,1.309A.931.931,0,0,1,580.279,419.853Z" transform="translate(-577.816 -398.115)" fill="#011e50"/>
          <path id="Trazado_1607" data-name="Trazado 1607" d="M582.469,417.245a.929.929,0,1,1,.114,1.309A.93.93,0,0,1,582.469,417.245Z" transform="translate(-577.758 -398.183)" fill="#011e50"/>
          <path id="Trazado_1608" data-name="Trazado 1608" d="M584.656,414.637a.93.93,0,1,1,.116,1.31A.93.93,0,0,1,584.656,414.637Z" transform="translate(-577.701 -398.251)" fill="#011e50"/>
          <path id="Trazado_1609" data-name="Trazado 1609" d="M586.845,412.029a.93.93,0,1,1,.115,1.31A.927.927,0,0,1,586.845,412.029Z" transform="translate(-577.644 -398.319)" fill="#011e50"/>
          <path id="Trazado_1610" data-name="Trazado 1610" d="M589.032,409.422a.93.93,0,1,1,.115,1.309A.93.93,0,0,1,589.032,409.422Z" transform="translate(-577.587 -398.387)" fill="#011e50"/>
          <path id="Trazado_1611" data-name="Trazado 1611" d="M591.221,406.813a.93.93,0,1,1,.116,1.31A.929.929,0,0,1,591.221,406.813Z" transform="translate(-577.53 -398.456)" fill="#011e50"/>
          <path id="Trazado_1612" data-name="Trazado 1612" d="M593.41,404.206a.929.929,0,1,1,.115,1.309A.93.93,0,0,1,593.41,404.206Z" transform="translate(-577.472 -398.524)" fill="#011e50"/>
          <path id="Trazado_1613" data-name="Trazado 1613" d="M595.6,401.6a.929.929,0,1,1,.115,1.31A.93.93,0,0,1,595.6,401.6Z" transform="translate(-577.415 -398.592)" fill="#011e50"/>
          <path id="Trazado_1614" data-name="Trazado 1614" d="M597.786,398.99a.93.93,0,1,1,.116,1.31A.93.93,0,0,1,597.786,398.99Z" transform="translate(-577.358 -398.66)" fill="#011e50"/>
        </g>
        <g id="Grupo_1060" data-name="Grupo 1060" transform="translate(23.772 61.497)">
          <path id="Trazado_1615" data-name="Trazado 1615" d="M584.614,427.226a.931.931,0,1,1,.34,1.271A.929.929,0,0,1,584.614,427.226Z" transform="translate(-584.489 -399.536)" fill="#011e50"/>
          <path id="Trazado_1616" data-name="Trazado 1616" d="M586.316,424.278a.93.93,0,1,1,.341,1.27A.929.929,0,0,1,586.316,424.278Z" transform="translate(-584.444 -399.613)" fill="#011e50"/>
          <path id="Trazado_1617" data-name="Trazado 1617" d="M588.019,421.33a.93.93,0,1,1,.34,1.27A.928.928,0,0,1,588.019,421.33Z" transform="translate(-584.4 -399.69)" fill="#011e50"/>
          <path id="Trazado_1618" data-name="Trazado 1618" d="M589.721,418.382a.93.93,0,1,1,.34,1.271A.929.929,0,0,1,589.721,418.382Z" transform="translate(-584.355 -399.767)" fill="#011e50"/>
          <path id="Trazado_1619" data-name="Trazado 1619" d="M591.423,415.433a.93.93,0,1,1,.341,1.271A.93.93,0,0,1,591.423,415.433Z" transform="translate(-584.31 -399.844)" fill="#011e50"/>
          <path id="Trazado_1620" data-name="Trazado 1620" d="M593.125,412.485a.93.93,0,1,1,.341,1.271A.928.928,0,0,1,593.125,412.485Z" transform="translate(-584.266 -399.921)" fill="#011e50"/>
          <path id="Trazado_1621" data-name="Trazado 1621" d="M594.827,409.537a.93.93,0,1,1,.341,1.271A.929.929,0,0,1,594.827,409.537Z" transform="translate(-584.221 -399.998)" fill="#011e50"/>
          <path id="Trazado_1622" data-name="Trazado 1622" d="M596.529,406.59a.93.93,0,1,1,.341,1.27A.929.929,0,0,1,596.529,406.59Z" transform="translate(-584.177 -400.075)" fill="#011e50"/>
          <path id="Trazado_1623" data-name="Trazado 1623" d="M598.232,403.641a.93.93,0,1,1,.342,1.271A.929.929,0,0,1,598.232,403.641Z" transform="translate(-584.132 -400.153)" fill="#011e50"/>
          <path id="Trazado_1624" data-name="Trazado 1624" d="M599.934,400.693a.93.93,0,1,1,.342,1.27A.93.93,0,0,1,599.934,400.693Z" transform="translate(-584.088 -400.23)" fill="#011e50"/>
        </g>
        <g id="Grupo_1061" data-name="Grupo 1061" transform="translate(31.284 62.683)">
          <path id="Trazado_1625" data-name="Trazado 1625" d="M591.866,430.787a.93.93,0,1,1,.554,1.192A.925.925,0,0,1,591.866,430.787Z" transform="translate(-591.809 -400.633)" fill="#011e50"/>
          <path id="Trazado_1626" data-name="Trazado 1626" d="M593.03,427.587a.93.93,0,1,1,.555,1.192A.927.927,0,0,1,593.03,427.587Z" transform="translate(-591.778 -400.716)" fill="#011e50"/>
          <path id="Trazado_1627" data-name="Trazado 1627" d="M594.2,424.389a.93.93,0,1,1,.554,1.192A.929.929,0,0,1,594.2,424.389Z" transform="translate(-591.748 -400.8)" fill="#011e50"/>
          <path id="Trazado_1628" data-name="Trazado 1628" d="M595.358,421.19a.931.931,0,1,1,.556,1.193A.928.928,0,0,1,595.358,421.19Z" transform="translate(-591.717 -400.884)" fill="#011e50"/>
          <path id="Trazado_1629" data-name="Trazado 1629" d="M596.523,417.991a.93.93,0,1,1,.556,1.192A.928.928,0,0,1,596.523,417.991Z" transform="translate(-591.687 -400.967)" fill="#011e50"/>
          <path id="Trazado_1630" data-name="Trazado 1630" d="M597.688,414.792a.93.93,0,1,1,.556,1.192A.926.926,0,0,1,597.688,414.792Z" transform="translate(-591.656 -401.051)" fill="#011e50"/>
          <path id="Trazado_1631" data-name="Trazado 1631" d="M598.852,411.594a.93.93,0,1,1,.556,1.191A.928.928,0,0,1,598.852,411.594Z" transform="translate(-591.626 -401.135)" fill="#011e50"/>
          <path id="Trazado_1632" data-name="Trazado 1632" d="M600.017,408.394a.93.93,0,1,1,.556,1.193A.929.929,0,0,1,600.017,408.394Z" transform="translate(-591.596 -401.218)" fill="#011e50"/>
          <path id="Trazado_1633" data-name="Trazado 1633" d="M601.181,405.194a.93.93,0,1,1,.557,1.192A.929.929,0,0,1,601.181,405.194Z" transform="translate(-591.565 -401.302)" fill="#011e50"/>
          <path id="Trazado_1634" data-name="Trazado 1634" d="M602.345,402a.93.93,0,1,1,.557,1.192A.929.929,0,0,1,602.345,402Z" transform="translate(-591.535 -401.386)" fill="#011e50"/>
        </g>
        <g id="Grupo_1062" data-name="Grupo 1062" transform="translate(39.29 63.411)">
          <path id="Trazado_1635" data-name="Trazado 1635" d="M599.626,433.032a.929.929,0,1,1,.752,1.078A.926.926,0,0,1,599.626,433.032Z" transform="translate(-599.611 -401.306)" fill="#011e50"/>
          <path id="Trazado_1636" data-name="Trazado 1636" d="M600.217,429.681a.929.929,0,1,1,.753,1.078A.928.928,0,0,1,600.217,429.681Z" transform="translate(-599.595 -401.393)" fill="#011e50"/>
          <path id="Trazado_1637" data-name="Trazado 1637" d="M600.809,426.327a.929.929,0,1,1,.752,1.078A.926.926,0,0,1,600.809,426.327Z" transform="translate(-599.58 -401.481)" fill="#011e50"/>
          <path id="Trazado_1638" data-name="Trazado 1638" d="M601.4,422.975a.93.93,0,1,1,.754,1.078A.928.928,0,0,1,601.4,422.975Z" transform="translate(-599.564 -401.569)" fill="#011e50"/>
          <path id="Trazado_1639" data-name="Trazado 1639" d="M601.99,419.622a.93.93,0,1,1,.754,1.078A.928.928,0,0,1,601.99,419.622Z" transform="translate(-599.549 -401.656)" fill="#011e50"/>
          <path id="Trazado_1640" data-name="Trazado 1640" d="M602.582,416.27a.929.929,0,1,1,.753,1.077A.928.928,0,0,1,602.582,416.27Z" transform="translate(-599.534 -401.744)" fill="#011e50"/>
          <path id="Trazado_1641" data-name="Trazado 1641" d="M603.173,412.918a.93.93,0,1,1,.753,1.077A.927.927,0,0,1,603.173,412.918Z" transform="translate(-599.518 -401.832)" fill="#011e50"/>
          <path id="Trazado_1642" data-name="Trazado 1642" d="M603.764,409.565a.93.93,0,1,1,.754,1.077A.928.928,0,0,1,603.764,409.565Z" transform="translate(-599.503 -401.919)" fill="#011e50"/>
          <path id="Trazado_1643" data-name="Trazado 1643" d="M604.355,406.214a.929.929,0,1,1,.755,1.077A.927.927,0,0,1,604.355,406.214Z" transform="translate(-599.487 -402.007)" fill="#011e50"/>
          <path id="Trazado_1644" data-name="Trazado 1644" d="M604.946,402.86a.93.93,0,1,1,.755,1.077A.928.928,0,0,1,604.946,402.86Z" transform="translate(-599.472 -402.095)" fill="#011e50"/>
        </g>
        <g id="Grupo_1063" data-name="Grupo 1063" transform="translate(47.548 63.655)">
          <path id="Trazado_1645" data-name="Trazado 1645" d="M607.658,433.9a.929.929,0,1,1,.929.932A.925.925,0,0,1,607.658,433.9Z" transform="translate(-607.658 -401.532)" fill="#011e50"/>
          <path id="Trazado_1646" data-name="Trazado 1646" d="M607.658,430.494a.929.929,0,1,1,.929.931A.928.928,0,0,1,607.658,430.494Z" transform="translate(-607.658 -401.621)" fill="#011e50"/>
          <path id="Trazado_1647" data-name="Trazado 1647" d="M607.658,427.09a.929.929,0,1,1,.929.931A.927.927,0,0,1,607.658,427.09Z" transform="translate(-607.658 -401.71)" fill="#011e50"/>
          <path id="Trazado_1648" data-name="Trazado 1648" d="M607.658,423.686a.93.93,0,1,1,.929.931A.928.928,0,0,1,607.658,423.686Z" transform="translate(-607.658 -401.799)" fill="#011e50"/>
          <path id="Trazado_1649" data-name="Trazado 1649" d="M607.658,420.281a.93.93,0,1,1,.93.932A.927.927,0,0,1,607.658,420.281Z" transform="translate(-607.658 -401.888)" fill="#011e50"/>
          <path id="Trazado_1650" data-name="Trazado 1650" d="M607.658,416.877a.93.93,0,1,1,.93.931A.927.927,0,0,1,607.658,416.877Z" transform="translate(-607.658 -401.977)" fill="#011e50"/>
          <path id="Trazado_1651" data-name="Trazado 1651" d="M607.658,413.474a.93.93,0,1,1,.93.93A.928.928,0,0,1,607.658,413.474Z" transform="translate(-607.658 -402.066)" fill="#011e50"/>
          <path id="Trazado_1652" data-name="Trazado 1652" d="M607.658,410.069a.93.93,0,1,1,.93.931A.931.931,0,0,1,607.658,410.069Z" transform="translate(-607.658 -402.155)" fill="#011e50"/>
          <path id="Trazado_1653" data-name="Trazado 1653" d="M607.658,406.665a.93.93,0,1,1,.93.93A.931.931,0,0,1,607.658,406.665Z" transform="translate(-607.658 -402.244)" fill="#011e50"/>
          <path id="Trazado_1654" data-name="Trazado 1654" d="M607.658,403.261a.93.93,0,1,1,.93.93A.929.929,0,0,1,607.658,403.261Z" transform="translate(-607.658 -402.333)" fill="#011e50"/>
        </g>
        <g id="Grupo_1064" data-name="Grupo 1064" transform="translate(50.345 63.411)">
          <path id="Trazado_1655" data-name="Trazado 1655" d="M615.718,433.356a.929.929,0,1,1,1.076.755A.926.926,0,0,1,615.718,433.356Z" transform="translate(-610.245 -401.306)" fill="#011e50"/>
          <path id="Trazado_1656" data-name="Trazado 1656" d="M615.127,430a.929.929,0,1,1,1.076.756A.927.927,0,0,1,615.127,430Z" transform="translate(-610.26 -401.393)" fill="#011e50"/>
          <path id="Trazado_1657" data-name="Trazado 1657" d="M614.535,426.651a.929.929,0,1,1,1.078.755A.927.927,0,0,1,614.535,426.651Z" transform="translate(-610.275 -401.481)" fill="#011e50"/>
          <path id="Trazado_1658" data-name="Trazado 1658" d="M613.944,423.3a.93.93,0,1,1,1.076.754A.928.928,0,0,1,613.944,423.3Z" transform="translate(-610.291 -401.569)" fill="#011e50"/>
          <path id="Trazado_1659" data-name="Trazado 1659" d="M613.354,419.946a.929.929,0,1,1,1.075.755A.927.927,0,0,1,613.354,419.946Z" transform="translate(-610.306 -401.656)" fill="#011e50"/>
          <path id="Trazado_1660" data-name="Trazado 1660" d="M612.762,416.594a.93.93,0,1,1,1.077.754A.929.929,0,0,1,612.762,416.594Z" transform="translate(-610.322 -401.744)" fill="#011e50"/>
          <path id="Trazado_1661" data-name="Trazado 1661" d="M612.171,413.241a.929.929,0,1,1,1.077.755A.926.926,0,0,1,612.171,413.241Z" transform="translate(-610.337 -401.832)" fill="#011e50"/>
          <path id="Trazado_1662" data-name="Trazado 1662" d="M611.58,409.889a.929.929,0,1,1,1.077.753A.928.928,0,0,1,611.58,409.889Z" transform="translate(-610.353 -401.919)" fill="#011e50"/>
          <path id="Trazado_1663" data-name="Trazado 1663" d="M610.988,406.536a.93.93,0,1,1,1.077.754A.928.928,0,0,1,610.988,406.536Z" transform="translate(-610.368 -402.007)" fill="#011e50"/>
          <path id="Trazado_1664" data-name="Trazado 1664" d="M610.4,403.184a.93.93,0,1,1,1.078.753A.93.93,0,0,1,610.4,403.184Z" transform="translate(-610.384 -402.095)" fill="#011e50"/>
        </g>
        <g id="Grupo_1065" data-name="Grupo 1065" transform="translate(53.057 62.684)">
          <path id="Trazado_1665" data-name="Trazado 1665" d="M623.562,431.422a.928.928,0,1,1,1.19.557A.925.925,0,0,1,623.562,431.422Z" transform="translate(-612.753 -400.634)" fill="#011e50"/>
          <path id="Trazado_1666" data-name="Trazado 1666" d="M622.4,428.223a.929.929,0,1,1,1.191.557A.928.928,0,0,1,622.4,428.223Z" transform="translate(-612.783 -400.717)" fill="#011e50"/>
          <path id="Trazado_1667" data-name="Trazado 1667" d="M621.233,425.024a.929.929,0,1,1,1.191.557A.929.929,0,0,1,621.233,425.024Z" transform="translate(-612.814 -400.801)" fill="#011e50"/>
          <path id="Trazado_1668" data-name="Trazado 1668" d="M620.068,421.826a.93.93,0,1,1,1.191.556A.929.929,0,0,1,620.068,421.826Z" transform="translate(-612.844 -400.885)" fill="#011e50"/>
          <path id="Trazado_1669" data-name="Trazado 1669" d="M618.9,418.626a.929.929,0,1,1,1.191.556A.929.929,0,0,1,618.9,418.626Z" transform="translate(-612.875 -400.968)" fill="#011e50"/>
          <path id="Trazado_1670" data-name="Trazado 1670" d="M617.739,415.428a.93.93,0,1,1,1.191.555A.927.927,0,0,1,617.739,415.428Z" transform="translate(-612.905 -401.052)" fill="#011e50"/>
          <path id="Trazado_1671" data-name="Trazado 1671" d="M616.575,412.229a.93.93,0,1,1,1.19.556A.927.927,0,0,1,616.575,412.229Z" transform="translate(-612.936 -401.135)" fill="#011e50"/>
          <path id="Trazado_1672" data-name="Trazado 1672" d="M615.411,409.03a.93.93,0,1,1,1.191.556A.929.929,0,0,1,615.411,409.03Z" transform="translate(-612.966 -401.219)" fill="#011e50"/>
          <path id="Trazado_1673" data-name="Trazado 1673" d="M614.246,405.83a.93.93,0,1,1,1.191.556A.929.929,0,0,1,614.246,405.83Z" transform="translate(-612.996 -401.303)" fill="#011e50"/>
          <path id="Trazado_1674" data-name="Trazado 1674" d="M613.082,402.632a.93.93,0,1,1,1.191.555A.928.928,0,0,1,613.082,402.632Z" transform="translate(-613.027 -401.386)" fill="#011e50"/>
        </g>
        <g id="Grupo_1066" data-name="Grupo 1066" transform="translate(55.602 61.497)">
          <path id="Trazado_1675" data-name="Trazado 1675" d="M630.95,428.157a.929.929,0,1,1,1.27.341A.927.927,0,0,1,630.95,428.157Z" transform="translate(-615.107 -399.536)" fill="#011e50"/>
          <path id="Trazado_1676" data-name="Trazado 1676" d="M629.248,425.207a.928.928,0,1,1,1.269.341A.928.928,0,0,1,629.248,425.207Z" transform="translate(-615.151 -399.613)" fill="#011e50"/>
          <path id="Trazado_1677" data-name="Trazado 1677" d="M627.546,422.259a.929.929,0,1,1,1.269.341A.928.928,0,0,1,627.546,422.259Z" transform="translate(-615.196 -399.69)" fill="#011e50"/>
          <path id="Trazado_1678" data-name="Trazado 1678" d="M625.844,419.311a.929.929,0,1,1,1.269.341A.928.928,0,0,1,625.844,419.311Z" transform="translate(-615.24 -399.767)" fill="#011e50"/>
          <path id="Trazado_1679" data-name="Trazado 1679" d="M624.142,416.363a.929.929,0,1,1,1.269.341A.927.927,0,0,1,624.142,416.363Z" transform="translate(-615.285 -399.844)" fill="#011e50"/>
          <path id="Trazado_1680" data-name="Trazado 1680" d="M622.44,413.414a.929.929,0,1,1,1.269.342A.929.929,0,0,1,622.44,413.414Z" transform="translate(-615.329 -399.922)" fill="#011e50"/>
          <path id="Trazado_1681" data-name="Trazado 1681" d="M620.737,410.466a.93.93,0,1,1,1.27.341A.928.928,0,0,1,620.737,410.466Z" transform="translate(-615.374 -399.999)" fill="#011e50"/>
          <path id="Trazado_1682" data-name="Trazado 1682" d="M619.035,407.518a.93.93,0,1,1,1.27.341A.928.928,0,0,1,619.035,407.518Z" transform="translate(-615.418 -400.076)" fill="#011e50"/>
          <path id="Trazado_1683" data-name="Trazado 1683" d="M617.333,404.57a.93.93,0,1,1,1.269.341A.93.93,0,0,1,617.333,404.57Z" transform="translate(-615.463 -400.153)" fill="#011e50"/>
          <path id="Trazado_1684" data-name="Trazado 1684" d="M615.631,401.622a.93.93,0,1,1,1.269.341A.929.929,0,0,1,615.631,401.622Z" transform="translate(-615.507 -400.23)" fill="#011e50"/>
        </g>
        <g id="Grupo_1067" data-name="Grupo 1067" transform="translate(57.903 59.887)">
          <path id="Trazado_1685" data-name="Trazado 1685" d="M637.66,423.657a.928.928,0,1,1,1.31.115A.926.926,0,0,1,637.66,423.657Z" transform="translate(-617.234 -398.047)" fill="#011e50"/>
          <path id="Trazado_1686" data-name="Trazado 1686" d="M635.471,421.048a.929.929,0,1,1,1.309.116A.926.926,0,0,1,635.471,421.048Z" transform="translate(-617.291 -398.115)" fill="#011e50"/>
          <path id="Trazado_1687" data-name="Trazado 1687" d="M633.282,418.441a.929.929,0,1,1,1.311.115A.929.929,0,0,1,633.282,418.441Z" transform="translate(-617.348 -398.183)" fill="#011e50"/>
          <path id="Trazado_1688" data-name="Trazado 1688" d="M631.1,415.833a.929.929,0,1,1,1.308.116A.93.93,0,0,1,631.1,415.833Z" transform="translate(-617.406 -398.251)" fill="#011e50"/>
          <path id="Trazado_1689" data-name="Trazado 1689" d="M628.906,413.225a.929.929,0,1,1,1.31.115A.928.928,0,0,1,628.906,413.225Z" transform="translate(-617.463 -398.319)" fill="#011e50"/>
          <path id="Trazado_1690" data-name="Trazado 1690" d="M626.719,410.617a.929.929,0,1,1,1.309.116A.929.929,0,0,1,626.719,410.617Z" transform="translate(-617.52 -398.388)" fill="#011e50"/>
          <path id="Trazado_1691" data-name="Trazado 1691" d="M624.529,408.009a.929.929,0,1,1,1.31.115A.929.929,0,0,1,624.529,408.009Z" transform="translate(-617.577 -398.456)" fill="#011e50"/>
          <path id="Trazado_1692" data-name="Trazado 1692" d="M622.342,405.4a.93.93,0,1,1,1.309.116A.93.93,0,0,1,622.342,405.4Z" transform="translate(-617.635 -398.524)" fill="#011e50"/>
          <path id="Trazado_1693" data-name="Trazado 1693" d="M620.153,402.793a.93.93,0,1,1,1.31.116A.93.93,0,0,1,620.153,402.793Z" transform="translate(-617.692 -398.592)" fill="#011e50"/>
          <path id="Trazado_1694" data-name="Trazado 1694" d="M617.966,400.185a.93.93,0,1,1,1.309.116A.929.929,0,0,1,617.966,400.185Z" transform="translate(-617.749 -398.66)" fill="#011e50"/>
        </g>
        <g id="Grupo_1068" data-name="Grupo 1068" transform="translate(59.888 57.901)">
          <path id="Trazado_1695" data-name="Trazado 1695" d="M643.485,418.06a.928.928,0,1,1,1.31-.113A.925.925,0,0,1,643.485,418.06Z" transform="translate(-619.07 -396.21)" fill="#011e50"/>
          <path id="Trazado_1696" data-name="Trazado 1696" d="M640.876,415.872a.929.929,0,1,1,1.311-.114A.928.928,0,0,1,640.876,415.872Z" transform="translate(-619.138 -396.267)" fill="#011e50"/>
          <path id="Trazado_1697" data-name="Trazado 1697" d="M638.27,413.683a.928.928,0,1,1,1.309-.113A.926.926,0,0,1,638.27,413.683Z" transform="translate(-619.206 -396.325)" fill="#011e50"/>
          <path id="Trazado_1698" data-name="Trazado 1698" d="M635.661,411.495a.929.929,0,1,1,1.311-.114A.93.93,0,0,1,635.661,411.495Z" transform="translate(-619.274 -396.382)" fill="#011e50"/>
          <path id="Trazado_1699" data-name="Trazado 1699" d="M633.053,409.307a.929.929,0,1,1,1.31-.114A.928.928,0,0,1,633.053,409.307Z" transform="translate(-619.343 -396.439)" fill="#011e50"/>
          <path id="Trazado_1700" data-name="Trazado 1700" d="M630.445,407.118a.929.929,0,1,1,1.311-.113A.93.93,0,0,1,630.445,407.118Z" transform="translate(-619.411 -396.496)" fill="#011e50"/>
          <path id="Trazado_1701" data-name="Trazado 1701" d="M627.838,404.93a.929.929,0,1,1,1.31-.113A.927.927,0,0,1,627.838,404.93Z" transform="translate(-619.479 -396.553)" fill="#011e50"/>
          <path id="Trazado_1702" data-name="Trazado 1702" d="M625.231,402.742a.929.929,0,1,1,1.309-.114A.93.93,0,0,1,625.231,402.742Z" transform="translate(-619.547 -396.611)" fill="#011e50"/>
          <path id="Trazado_1703" data-name="Trazado 1703" d="M622.622,400.553a.93.93,0,1,1,1.311-.113A.928.928,0,0,1,622.622,400.553Z" transform="translate(-619.615 -396.668)" fill="#011e50"/>
          <path id="Trazado_1704" data-name="Trazado 1704" d="M620.015,398.365a.93.93,0,1,1,1.309-.114A.928.928,0,0,1,620.015,398.365Z" transform="translate(-619.684 -396.725)" fill="#011e50"/>
        </g>
        <g id="Grupo_1069" data-name="Grupo 1069" transform="translate(61.498 55.6)">
          <path id="Trazado_1705" data-name="Trazado 1705" d="M648.25,411.537a.929.929,0,1,1,1.273-.339A.925.925,0,0,1,648.25,411.537Z" transform="translate(-620.559 -394.082)" fill="#011e50"/>
          <path id="Trazado_1706" data-name="Trazado 1706" d="M645.3,409.835a.929.929,0,1,1,1.271-.339A.927.927,0,0,1,645.3,409.835Z" transform="translate(-620.636 -394.127)" fill="#011e50"/>
          <path id="Trazado_1707" data-name="Trazado 1707" d="M642.354,408.132a.929.929,0,1,1,1.271-.34A.927.927,0,0,1,642.354,408.132Z" transform="translate(-620.713 -394.171)" fill="#011e50"/>
          <path id="Trazado_1708" data-name="Trazado 1708" d="M639.406,406.43a.929.929,0,1,1,1.271-.34A.927.927,0,0,1,639.406,406.43Z" transform="translate(-620.791 -394.216)" fill="#011e50"/>
          <path id="Trazado_1709" data-name="Trazado 1709" d="M636.457,404.728a.93.93,0,1,1,1.272-.34A.928.928,0,0,1,636.457,404.728Z" transform="translate(-620.868 -394.26)" fill="#011e50"/>
          <path id="Trazado_1710" data-name="Trazado 1710" d="M633.51,403.025a.929.929,0,1,1,1.27-.339A.928.928,0,0,1,633.51,403.025Z" transform="translate(-620.945 -394.305)" fill="#011e50"/>
          <path id="Trazado_1711" data-name="Trazado 1711" d="M630.562,401.323a.929.929,0,1,1,1.27-.339A.928.928,0,0,1,630.562,401.323Z" transform="translate(-621.022 -394.349)" fill="#011e50"/>
          <path id="Trazado_1712" data-name="Trazado 1712" d="M627.614,399.621a.929.929,0,1,1,1.27-.34A.928.928,0,0,1,627.614,399.621Z" transform="translate(-621.099 -394.394)" fill="#011e50"/>
          <path id="Trazado_1713" data-name="Trazado 1713" d="M624.665,397.918a.93.93,0,1,1,1.271-.339A.929.929,0,0,1,624.665,397.918Z" transform="translate(-621.176 -394.438)" fill="#011e50"/>
          <path id="Trazado_1714" data-name="Trazado 1714" d="M621.717,396.216a.93.93,0,1,1,1.27-.34A.929.929,0,0,1,621.717,396.216Z" transform="translate(-621.253 -394.483)" fill="#011e50"/>
        </g>
        <g id="Grupo_1070" data-name="Grupo 1070" transform="translate(62.685 53.054)">
          <path id="Trazado_1715" data-name="Trazado 1715" d="M651.81,404.286a.929.929,0,1,1,1.193-.555A.926.926,0,0,1,651.81,404.286Z" transform="translate(-621.656 -391.728)" fill="#011e50"/>
          <path id="Trazado_1716" data-name="Trazado 1716" d="M648.612,403.121a.929.929,0,1,1,1.193-.555A.927.927,0,0,1,648.612,403.121Z" transform="translate(-621.74 -391.759)" fill="#011e50"/>
          <path id="Trazado_1717" data-name="Trazado 1717" d="M645.412,401.957a.929.929,0,1,1,1.194-.555A.929.929,0,0,1,645.412,401.957Z" transform="translate(-621.824 -391.789)" fill="#011e50"/>
          <path id="Trazado_1718" data-name="Trazado 1718" d="M642.214,400.793a.93.93,0,1,1,1.192-.556A.929.929,0,0,1,642.214,400.793Z" transform="translate(-621.907 -391.819)" fill="#011e50"/>
          <path id="Trazado_1719" data-name="Trazado 1719" d="M639.016,399.628a.929.929,0,1,1,1.192-.555A.929.929,0,0,1,639.016,399.628Z" transform="translate(-621.991 -391.85)" fill="#011e50"/>
          <path id="Trazado_1720" data-name="Trazado 1720" d="M635.817,398.464a.93.93,0,1,1,1.192-.556A.93.93,0,0,1,635.817,398.464Z" transform="translate(-622.074 -391.88)" fill="#011e50"/>
          <path id="Trazado_1721" data-name="Trazado 1721" d="M632.617,397.3a.929.929,0,1,1,1.192-.555A.928.928,0,0,1,632.617,397.3Z" transform="translate(-622.158 -391.911)" fill="#011e50"/>
          <path id="Trazado_1722" data-name="Trazado 1722" d="M629.417,396.134a.93.93,0,1,1,1.192-.555A.929.929,0,0,1,629.417,396.134Z" transform="translate(-622.242 -391.941)" fill="#011e50"/>
          <path id="Trazado_1723" data-name="Trazado 1723" d="M626.22,394.969a.929.929,0,1,1,1.191-.555A.927.927,0,0,1,626.22,394.969Z" transform="translate(-622.325 -391.972)" fill="#011e50"/>
          <path id="Trazado_1724" data-name="Trazado 1724" d="M623.021,393.8a.93.93,0,0,1,.637-1.746.938.938,0,0,1,.554,1.191A.928.928,0,0,1,623.021,393.8Z" transform="translate(-622.409 -392.002)" fill="#011e50"/>
        </g>
        <g id="Grupo_1071" data-name="Grupo 1071" transform="translate(63.412 50.342)">
          <path id="Trazado_1725" data-name="Trazado 1725" d="M654.056,396.526a.929.929,0,1,1,1.08-.754A.926.926,0,0,1,654.056,396.526Z" transform="translate(-622.329 -389.22)" fill="#011e50"/>
          <path id="Trazado_1726" data-name="Trazado 1726" d="M650.7,395.934a.929.929,0,1,1,1.078-.753A.927.927,0,0,1,650.7,395.934Z" transform="translate(-622.416 -389.235)" fill="#011e50"/>
          <path id="Trazado_1727" data-name="Trazado 1727" d="M647.351,395.343a.929.929,0,1,1,1.08-.754A.927.927,0,0,1,647.351,395.343Z" transform="translate(-622.504 -389.251)" fill="#011e50"/>
          <path id="Trazado_1728" data-name="Trazado 1728" d="M644,394.753a.93.93,0,1,1,1.078-.755A.929.929,0,0,1,644,394.753Z" transform="translate(-622.592 -389.266)" fill="#011e50"/>
          <path id="Trazado_1729" data-name="Trazado 1729" d="M640.646,394.161a.93.93,0,1,1,1.08-.755A.927.927,0,0,1,640.646,394.161Z" transform="translate(-622.679 -389.282)" fill="#011e50"/>
          <path id="Trazado_1730" data-name="Trazado 1730" d="M637.294,393.57a.93.93,0,1,1,1.077-.754A.927.927,0,0,1,637.294,393.57Z" transform="translate(-622.767 -389.297)" fill="#011e50"/>
          <path id="Trazado_1731" data-name="Trazado 1731" d="M633.943,392.978a.929.929,0,1,1,1.078-.753A.929.929,0,0,1,633.943,392.978Z" transform="translate(-622.855 -389.313)" fill="#011e50"/>
          <path id="Trazado_1732" data-name="Trazado 1732" d="M630.589,392.387a.93.93,0,1,1,1.077-.754A.927.927,0,0,1,630.589,392.387Z" transform="translate(-622.942 -389.328)" fill="#011e50"/>
          <path id="Trazado_1733" data-name="Trazado 1733" d="M627.238,391.8a.931.931,0,0,1,.324-1.833.931.931,0,0,1-.324,1.833Z" transform="translate(-623.03 -389.344)" fill="#011e50"/>
          <path id="Trazado_1734" data-name="Trazado 1734" d="M623.885,391.2a.93.93,0,0,1,.325-1.832.939.939,0,0,1,.752,1.076A.929.929,0,0,1,623.885,391.2Z" transform="translate(-623.118 -389.359)" fill="#011e50"/>
        </g>
        <g id="Grupo_1072" data-name="Grupo 1072" transform="translate(63.656 47.543)">
          <path id="Trazado_1735" data-name="Trazado 1735" d="M654.922,388.494a.929.929,0,1,1,.933-.93A.925.925,0,0,1,654.922,388.494Z" transform="translate(-622.555 -386.632)" fill="#011e50"/>
          <path id="Trazado_1736" data-name="Trazado 1736" d="M651.518,388.494a.93.93,0,1,1,.932-.93A.927.927,0,0,1,651.518,388.494Z" transform="translate(-622.644 -386.632)" fill="#011e50"/>
          <path id="Trazado_1737" data-name="Trazado 1737" d="M648.114,388.494a.93.93,0,1,1,.932-.93A.928.928,0,0,1,648.114,388.494Z" transform="translate(-622.733 -386.632)" fill="#011e50"/>
          <path id="Trazado_1738" data-name="Trazado 1738" d="M644.71,388.494a.93.93,0,1,1,.932-.931A.928.928,0,0,1,644.71,388.494Z" transform="translate(-622.822 -386.632)" fill="#011e50"/>
          <path id="Trazado_1739" data-name="Trazado 1739" d="M641.3,388.493a.93.93,0,1,1,.932-.93A.927.927,0,0,1,641.3,388.493Z" transform="translate(-622.911 -386.632)" fill="#011e50"/>
          <path id="Trazado_1740" data-name="Trazado 1740" d="M637.9,388.493a.93.93,0,1,1,.932-.93A.926.926,0,0,1,637.9,388.493Z" transform="translate(-623 -386.632)" fill="#011e50"/>
          <path id="Trazado_1741" data-name="Trazado 1741" d="M634.5,388.493a.93.93,0,1,1,.93-.931A.93.93,0,0,1,634.5,388.493Z" transform="translate(-623.089 -386.632)" fill="#011e50"/>
          <path id="Trazado_1742" data-name="Trazado 1742" d="M631.093,388.493a.93.93,0,0,1,0-1.86.943.943,0,0,1,.931.931A.932.932,0,0,1,631.093,388.493Z" transform="translate(-623.178 -386.632)" fill="#011e50"/>
          <path id="Trazado_1743" data-name="Trazado 1743" d="M627.689,388.493a.931.931,0,0,1,0-1.861.943.943,0,0,1,.928.931A.928.928,0,0,1,627.689,388.493Z" transform="translate(-623.267 -386.632)" fill="#011e50"/>
          <path id="Trazado_1744" data-name="Trazado 1744" d="M624.285,388.493a.931.931,0,0,1,0-1.861.942.942,0,0,1,.928.931A.928.928,0,0,1,624.285,388.493Z" transform="translate(-623.356 -386.632)" fill="#011e50"/>
        </g>
        <g id="Grupo_1073" data-name="Grupo 1073" transform="translate(63.412 39.29)">
          <path id="Trazado_1745" data-name="Trazado 1745" d="M654.38,380.434a.929.929,0,1,1,.756-1.077A.926.926,0,0,1,654.38,380.434Z" transform="translate(-622.329 -378.589)" fill="#011e50"/>
          <path id="Trazado_1746" data-name="Trazado 1746" d="M651.027,381.025a.929.929,0,1,1,.756-1.077A.928.928,0,0,1,651.027,381.025Z" transform="translate(-622.417 -378.573)" fill="#011e50"/>
          <path id="Trazado_1747" data-name="Trazado 1747" d="M647.674,381.616a.929.929,0,1,1,.757-1.077A.926.926,0,0,1,647.674,381.616Z" transform="translate(-622.505 -378.558)" fill="#011e50"/>
          <path id="Trazado_1748" data-name="Trazado 1748" d="M644.322,382.207a.929.929,0,1,1,.756-1.077A.928.928,0,0,1,644.322,382.207Z" transform="translate(-622.592 -378.542)" fill="#011e50"/>
          <path id="Trazado_1749" data-name="Trazado 1749" d="M640.969,382.8a.93.93,0,1,1,.757-1.077A.927.927,0,0,1,640.969,382.8Z" transform="translate(-622.68 -378.527)" fill="#011e50"/>
          <path id="Trazado_1750" data-name="Trazado 1750" d="M637.618,383.389a.93.93,0,1,1,.754-1.076A.929.929,0,0,1,637.618,383.389Z" transform="translate(-622.768 -378.512)" fill="#011e50"/>
          <path id="Trazado_1751" data-name="Trazado 1751" d="M634.264,383.98a.93.93,0,1,1,.756-1.079A.929.929,0,0,1,634.264,383.98Z" transform="translate(-622.855 -378.496)" fill="#011e50"/>
          <path id="Trazado_1752" data-name="Trazado 1752" d="M630.913,384.571a.93.93,0,1,1,.754-1.077A.929.929,0,0,1,630.913,384.571Z" transform="translate(-622.943 -378.481)" fill="#011e50"/>
          <path id="Trazado_1753" data-name="Trazado 1753" d="M627.56,385.163a.931.931,0,1,1,.755-1.078A.93.93,0,0,1,627.56,385.163Z" transform="translate(-623.031 -378.465)" fill="#011e50"/>
          <path id="Trazado_1754" data-name="Trazado 1754" d="M624.208,385.754a.931.931,0,0,1-.322-1.835.944.944,0,0,1,1.076.756A.929.929,0,0,1,624.208,385.754Z" transform="translate(-623.118 -378.45)" fill="#011e50"/>
        </g>
        <g id="Grupo_1074" data-name="Grupo 1074" transform="translate(62.685 31.283)">
          <path id="Trazado_1755" data-name="Trazado 1755" d="M652.446,372.591A.929.929,0,1,1,653,371.4.926.926,0,0,1,652.446,372.591Z" transform="translate(-621.657 -370.786)" fill="#011e50"/>
          <path id="Trazado_1756" data-name="Trazado 1756" d="M649.247,373.755a.929.929,0,1,1,.557-1.193A.927.927,0,0,1,649.247,373.755Z" transform="translate(-621.741 -370.756)" fill="#011e50"/>
          <path id="Trazado_1757" data-name="Trazado 1757" d="M646.049,374.92a.93.93,0,1,1,.556-1.193A.929.929,0,0,1,646.049,374.92Z" transform="translate(-621.824 -370.725)" fill="#011e50"/>
          <path id="Trazado_1758" data-name="Trazado 1758" d="M642.849,376.085a.93.93,0,1,1,.557-1.194A.931.931,0,0,1,642.849,376.085Z" transform="translate(-621.908 -370.695)" fill="#011e50"/>
          <path id="Trazado_1759" data-name="Trazado 1759" d="M639.65,377.248a.93.93,0,1,1,.557-1.192A.928.928,0,0,1,639.65,377.248Z" transform="translate(-621.992 -370.664)" fill="#011e50"/>
          <path id="Trazado_1760" data-name="Trazado 1760" d="M636.452,378.413a.93.93,0,1,1,.556-1.193A.929.929,0,0,1,636.452,378.413Z" transform="translate(-622.075 -370.634)" fill="#011e50"/>
          <path id="Trazado_1761" data-name="Trazado 1761" d="M633.253,379.577a.93.93,0,1,1,.557-1.193A.93.93,0,0,1,633.253,379.577Z" transform="translate(-622.159 -370.604)" fill="#011e50"/>
          <path id="Trazado_1762" data-name="Trazado 1762" d="M630.053,380.741a.93.93,0,1,1,.557-1.192A.929.929,0,0,1,630.053,380.741Z" transform="translate(-622.243 -370.573)" fill="#011e50"/>
          <path id="Trazado_1763" data-name="Trazado 1763" d="M626.855,381.9a.931.931,0,1,1,.556-1.192A.93.93,0,0,1,626.855,381.9Z" transform="translate(-622.326 -370.543)" fill="#011e50"/>
          <path id="Trazado_1764" data-name="Trazado 1764" d="M623.656,383.069a.931.931,0,0,1-.635-1.75.943.943,0,0,1,1.191.557A.929.929,0,0,1,623.656,383.069Z" transform="translate(-622.41 -370.512)" fill="#011e50"/>
        </g>
        <g id="Grupo_1075" data-name="Grupo 1075" transform="translate(61.499 23.771)">
          <path id="Trazado_1765" data-name="Trazado 1765" d="M649.181,365.2a.93.93,0,1,1,.341-1.272A.928.928,0,0,1,649.181,365.2Z" transform="translate(-620.559 -363.465)" fill="#011e50"/>
          <path id="Trazado_1766" data-name="Trazado 1766" d="M646.231,366.905a.929.929,0,1,1,.341-1.271A.928.928,0,0,1,646.231,366.905Z" transform="translate(-620.637 -363.421)" fill="#011e50"/>
          <path id="Trazado_1767" data-name="Trazado 1767" d="M643.283,368.607a.929.929,0,1,1,.341-1.271A.928.928,0,0,1,643.283,368.607Z" transform="translate(-620.714 -363.376)" fill="#011e50"/>
          <path id="Trazado_1768" data-name="Trazado 1768" d="M640.337,370.308a.93.93,0,1,1,.34-1.271A.931.931,0,0,1,640.337,370.308Z" transform="translate(-620.791 -363.332)" fill="#011e50"/>
          <path id="Trazado_1769" data-name="Trazado 1769" d="M637.387,372.01a.93.93,0,1,1,.341-1.27A.93.93,0,0,1,637.387,372.01Z" transform="translate(-620.868 -363.287)" fill="#011e50"/>
          <path id="Trazado_1770" data-name="Trazado 1770" d="M634.439,373.713a.93.93,0,1,1,.34-1.272A.929.929,0,0,1,634.439,373.713Z" transform="translate(-620.945 -363.243)" fill="#011e50"/>
          <path id="Trazado_1771" data-name="Trazado 1771" d="M631.491,375.415a.931.931,0,1,1,.34-1.272A.931.931,0,0,1,631.491,375.415Z" transform="translate(-621.022 -363.198)" fill="#011e50"/>
          <path id="Trazado_1772" data-name="Trazado 1772" d="M628.544,377.116a.93.93,0,1,1,.34-1.271A.93.93,0,0,1,628.544,377.116Z" transform="translate(-621.099 -363.154)" fill="#011e50"/>
          <path id="Trazado_1773" data-name="Trazado 1773" d="M625.6,378.818a.931.931,0,1,1,.34-1.27A.932.932,0,0,1,625.6,378.818Z" transform="translate(-621.176 -363.109)" fill="#011e50"/>
          <path id="Trazado_1774" data-name="Trazado 1774" d="M622.646,380.52a.931.931,0,0,1-.931-1.612.943.943,0,0,1,1.27.342A.928.928,0,0,1,622.646,380.52Z" transform="translate(-621.253 -363.065)" fill="#011e50"/>
        </g>
        <g id="Grupo_1076" data-name="Grupo 1076" transform="translate(59.888 16.982)">
          <path id="Trazado_1775" data-name="Trazado 1775" d="M644.681,358.494a.929.929,0,1,1,.115-1.312A.927.927,0,0,1,644.681,358.494Z" transform="translate(-619.07 -356.849)" fill="#011e50"/>
          <path id="Trazado_1776" data-name="Trazado 1776" d="M642.072,360.682a.93.93,0,1,1,.116-1.311A.926.926,0,0,1,642.072,360.682Z" transform="translate(-619.138 -356.792)" fill="#011e50"/>
          <path id="Trazado_1777" data-name="Trazado 1777" d="M639.465,362.87a.929.929,0,1,1,.115-1.312A.928.928,0,0,1,639.465,362.87Z" transform="translate(-619.207 -356.735)" fill="#011e50"/>
          <path id="Trazado_1778" data-name="Trazado 1778" d="M636.857,365.058a.93.93,0,1,1,.115-1.311A.928.928,0,0,1,636.857,365.058Z" transform="translate(-619.275 -356.677)" fill="#011e50"/>
          <path id="Trazado_1779" data-name="Trazado 1779" d="M634.249,367.247a.93.93,0,1,1,.115-1.313A.929.929,0,0,1,634.249,367.247Z" transform="translate(-619.343 -356.62)" fill="#011e50"/>
          <path id="Trazado_1780" data-name="Trazado 1780" d="M631.641,369.434a.93.93,0,1,1,.115-1.31A.929.929,0,0,1,631.641,369.434Z" transform="translate(-619.411 -356.563)" fill="#011e50"/>
          <path id="Trazado_1781" data-name="Trazado 1781" d="M629.033,371.622a.93.93,0,1,1,.114-1.311A.929.929,0,0,1,629.033,371.622Z" transform="translate(-619.479 -356.506)" fill="#011e50"/>
          <path id="Trazado_1782" data-name="Trazado 1782" d="M626.426,373.81a.931.931,0,1,1,.114-1.311A.931.931,0,0,1,626.426,373.81Z" transform="translate(-619.548 -356.448)" fill="#011e50"/>
          <path id="Trazado_1783" data-name="Trazado 1783" d="M623.817,376a.931.931,0,0,1-1.2-1.426.931.931,0,1,1,1.2,1.426Z" transform="translate(-619.616 -356.391)" fill="#011e50"/>
          <path id="Trazado_1784" data-name="Trazado 1784" d="M621.21,378.186a.931.931,0,0,1-1.2-1.426.943.943,0,0,1,1.31.116A.929.929,0,0,1,621.21,378.186Z" transform="translate(-619.684 -356.334)" fill="#011e50"/>
        </g>
        <g id="Grupo_1077" data-name="Grupo 1077" transform="translate(57.902 11.121)">
          <path id="Trazado_1785" data-name="Trazado 1785" d="M639.084,352.667a.929.929,0,1,1-.114-1.31A.925.925,0,0,1,639.084,352.667Z" transform="translate(-617.233 -351.138)" fill="#011e50"/>
          <path id="Trazado_1786" data-name="Trazado 1786" d="M636.9,355.275a.929.929,0,1,1-.115-1.311A.926.926,0,0,1,636.9,355.275Z" transform="translate(-617.291 -351.069)" fill="#011e50"/>
          <path id="Trazado_1787" data-name="Trazado 1787" d="M634.708,357.883a.93.93,0,1,1-.114-1.311A.928.928,0,0,1,634.708,357.883Z" transform="translate(-617.348 -351.001)" fill="#011e50"/>
          <path id="Trazado_1788" data-name="Trazado 1788" d="M632.519,360.49a.929.929,0,1,1-.115-1.311A.927.927,0,0,1,632.519,360.49Z" transform="translate(-617.405 -350.933)" fill="#011e50"/>
          <path id="Trazado_1789" data-name="Trazado 1789" d="M630.331,363.1a.93.93,0,1,1-.114-1.31A.928.928,0,0,1,630.331,363.1Z" transform="translate(-617.462 -350.865)" fill="#011e50"/>
          <path id="Trazado_1790" data-name="Trazado 1790" d="M628.143,365.706a.93.93,0,1,1-.116-1.311A.929.929,0,0,1,628.143,365.706Z" transform="translate(-617.519 -350.796)" fill="#011e50"/>
          <path id="Trazado_1791" data-name="Trazado 1791" d="M625.954,368.313a.93.93,0,0,1-1.425-1.2.93.93,0,1,1,1.425,1.2Z" transform="translate(-617.577 -350.728)" fill="#011e50"/>
          <path id="Trazado_1792" data-name="Trazado 1792" d="M623.767,370.921a.931.931,0,1,1-.116-1.31A.93.93,0,0,1,623.767,370.921Z" transform="translate(-617.634 -350.66)" fill="#011e50"/>
          <path id="Trazado_1793" data-name="Trazado 1793" d="M621.578,373.529a.931.931,0,0,1-1.426-1.2.941.941,0,0,1,1.311-.115A.931.931,0,0,1,621.578,373.529Z" transform="translate(-617.691 -350.592)" fill="#011e50"/>
          <path id="Trazado_1794" data-name="Trazado 1794" d="M619.39,376.136a.931.931,0,0,1-1.426-1.2.943.943,0,0,1,1.31-.114A.929.929,0,0,1,619.39,376.136Z" transform="translate(-617.748 -350.524)" fill="#011e50"/>
        </g>
        <g id="Grupo_1078" data-name="Grupo 1078" transform="translate(55.601 6.367)">
          <path id="Trazado_1795" data-name="Trazado 1795" d="M632.561,347.9a.93.93,0,1,1-.34-1.271A.926.926,0,0,1,632.561,347.9Z" transform="translate(-615.106 -346.505)" fill="#011e50"/>
          <path id="Trazado_1796" data-name="Trazado 1796" d="M630.858,350.85a.929.929,0,1,1-.34-1.269A.927.927,0,0,1,630.858,350.85Z" transform="translate(-615.15 -346.427)" fill="#011e50"/>
          <path id="Trazado_1797" data-name="Trazado 1797" d="M629.156,353.8a.93.93,0,1,1-.341-1.271A.927.927,0,0,1,629.156,353.8Z" transform="translate(-615.195 -346.35)" fill="#011e50"/>
          <path id="Trazado_1798" data-name="Trazado 1798" d="M627.454,356.747a.93.93,0,1,1-.341-1.271A.929.929,0,0,1,627.454,356.747Z" transform="translate(-615.239 -346.273)" fill="#011e50"/>
          <path id="Trazado_1799" data-name="Trazado 1799" d="M625.751,359.694a.929.929,0,1,1-.34-1.271A.928.928,0,0,1,625.751,359.694Z" transform="translate(-615.284 -346.196)" fill="#011e50"/>
          <path id="Trazado_1800" data-name="Trazado 1800" d="M624.049,362.641a.929.929,0,1,1-.34-1.27A.927.927,0,0,1,624.049,362.641Z" transform="translate(-615.328 -346.119)" fill="#011e50"/>
          <path id="Trazado_1801" data-name="Trazado 1801" d="M622.347,365.589a.93.93,0,1,1-.341-1.27A.93.93,0,0,1,622.347,365.589Z" transform="translate(-615.373 -346.042)" fill="#011e50"/>
          <path id="Trazado_1802" data-name="Trazado 1802" d="M620.645,368.537a.93.93,0,1,1-.341-1.27A.929.929,0,0,1,620.645,368.537Z" transform="translate(-615.417 -345.965)" fill="#011e50"/>
          <path id="Trazado_1803" data-name="Trazado 1803" d="M618.942,371.485a.93.93,0,0,1-1.611-.93.94.94,0,0,1,1.27-.341A.929.929,0,0,1,618.942,371.485Z" transform="translate(-615.462 -345.888)" fill="#011e50"/>
          <path id="Trazado_1804" data-name="Trazado 1804" d="M617.24,374.433a.93.93,0,0,1-1.611-.93.945.945,0,0,1,1.27-.341A.929.929,0,0,1,617.24,374.433Z" transform="translate(-615.506 -345.81)" fill="#011e50"/>
        </g>
        <g id="Grupo_1079" data-name="Grupo 1079" transform="translate(53.055 2.864)">
          <path id="Trazado_1805" data-name="Trazado 1805" d="M625.309,344.342a.929.929,0,1,1-.554-1.192A.923.923,0,0,1,625.309,344.342Z" transform="translate(-612.751 -343.091)" fill="#011e50"/>
          <path id="Trazado_1806" data-name="Trazado 1806" d="M624.145,347.541a.93.93,0,1,1-.555-1.193A.928.928,0,0,1,624.145,347.541Z" transform="translate(-612.781 -343.008)" fill="#011e50"/>
          <path id="Trazado_1807" data-name="Trazado 1807" d="M622.98,350.739a.929.929,0,1,1-.554-1.192A.927.927,0,0,1,622.98,350.739Z" transform="translate(-612.812 -342.924)" fill="#011e50"/>
          <path id="Trazado_1808" data-name="Trazado 1808" d="M621.816,353.939a.93.93,0,1,1-.555-1.193A.93.93,0,0,1,621.816,353.939Z" transform="translate(-612.843 -342.84)" fill="#011e50"/>
          <path id="Trazado_1809" data-name="Trazado 1809" d="M620.651,357.137a.93.93,0,1,1-.555-1.192A.928.928,0,0,1,620.651,357.137Z" transform="translate(-612.873 -342.757)" fill="#011e50"/>
          <path id="Trazado_1810" data-name="Trazado 1810" d="M619.487,360.336a.93.93,0,1,1-.556-1.192A.929.929,0,0,1,619.487,360.336Z" transform="translate(-612.903 -342.673)" fill="#011e50"/>
          <path id="Trazado_1811" data-name="Trazado 1811" d="M618.322,363.535a.93.93,0,1,1-.555-1.193A.929.929,0,0,1,618.322,363.535Z" transform="translate(-612.934 -342.589)" fill="#011e50"/>
          <path id="Trazado_1812" data-name="Trazado 1812" d="M617.157,366.734a.93.93,0,1,1-.555-1.192A.93.93,0,0,1,617.157,366.734Z" transform="translate(-612.964 -342.506)" fill="#011e50"/>
          <path id="Trazado_1813" data-name="Trazado 1813" d="M615.993,369.933a.93.93,0,0,1-1.749-.636.941.941,0,0,1,1.193-.557A.931.931,0,0,1,615.993,369.933Z" transform="translate(-612.995 -342.422)" fill="#011e50"/>
          <path id="Trazado_1814" data-name="Trazado 1814" d="M614.829,373.131a.93.93,0,1,1-1.749-.636.945.945,0,0,1,1.192-.556A.929.929,0,0,1,614.829,373.131Z" transform="translate(-613.025 -342.338)" fill="#011e50"/>
        </g>
        <g id="Grupo_1080" data-name="Grupo 1080" transform="translate(50.343 0.719)">
          <path id="Trazado_1815" data-name="Trazado 1815" d="M617.549,342.095a.929.929,0,1,1-.752-1.078A.923.923,0,0,1,617.549,342.095Z" transform="translate(-610.243 -341.001)" fill="#011e50"/>
          <path id="Trazado_1816" data-name="Trazado 1816" d="M616.957,345.447a.928.928,0,1,1-.752-1.077A.926.926,0,0,1,616.957,345.447Z" transform="translate(-610.258 -340.913)" fill="#011e50"/>
          <path id="Trazado_1817" data-name="Trazado 1817" d="M616.366,348.8a.929.929,0,1,1-.752-1.078A.927.927,0,0,1,616.366,348.8Z" transform="translate(-610.274 -340.826)" fill="#011e50"/>
          <path id="Trazado_1818" data-name="Trazado 1818" d="M615.776,352.152a.93.93,0,1,1-.754-1.077A.929.929,0,0,1,615.776,352.152Z" transform="translate(-610.289 -340.738)" fill="#011e50"/>
          <path id="Trazado_1819" data-name="Trazado 1819" d="M615.184,355.5a.929.929,0,1,1-.753-1.078A.931.931,0,0,1,615.184,355.5Z" transform="translate(-610.305 -340.65)" fill="#011e50"/>
          <path id="Trazado_1820" data-name="Trazado 1820" d="M614.593,358.857a.93.93,0,1,1-.753-1.077A.929.929,0,0,1,614.593,358.857Z" transform="translate(-610.32 -340.563)" fill="#011e50"/>
          <path id="Trazado_1821" data-name="Trazado 1821" d="M614,362.209a.93.93,0,1,1-.753-1.078A.931.931,0,0,1,614,362.209Z" transform="translate(-610.336 -340.475)" fill="#011e50"/>
          <path id="Trazado_1822" data-name="Trazado 1822" d="M613.41,365.561a.93.93,0,0,1-1.832-.323.94.94,0,0,1,1.079-.754A.928.928,0,0,1,613.41,365.561Z" transform="translate(-610.351 -340.387)" fill="#011e50"/>
          <path id="Trazado_1823" data-name="Trazado 1823" d="M612.818,368.913a.929.929,0,1,1-.752-1.076A.931.931,0,0,1,612.818,368.913Z" transform="translate(-610.367 -340.3)" fill="#011e50"/>
          <path id="Trazado_1824" data-name="Trazado 1824" d="M612.228,372.266a.93.93,0,1,1-1.832-.323.944.944,0,0,1,1.077-.754A.93.93,0,0,1,612.228,372.266Z" transform="translate(-610.382 -340.212)" fill="#011e50"/>
        </g>
      </g>
    </g>
    <g id="Grupo_1089" data-name="Grupo 1089" transform="translate(946.335 910.812)">
      <path id="Trazado_1866" data-name="Trazado 1866" d="M687.706,440.936v-3.022h-3.131v-3.132h-3.023v3.13h-3.132v3.022h3.133v3.13h3.023v-3.13Z" transform="translate(-678.422 -434.782)" fill="#fe524d"/>
      <path id="Trazado_1867" data-name="Trazado 1867" d="M700.838,440.936v-3.022h-3.13v-3.132h-3.022v3.132h-3.133l0,3.022h3.13v3.131h3.021l0-3.13Z" transform="translate(-676.286 -434.782)" fill="#fe524d"/>
      <path id="Trazado_1868" data-name="Trazado 1868" d="M713.969,440.936v-3.022h-3.13v-3.13h-3.021v3.132h-3.132v3.021h3.13v3.131h3.022v-3.13Z" transform="translate(-674.149 -434.782)" fill="#fe9b2b"/>
      <path id="Trazado_1869" data-name="Trazado 1869" d="M727.1,440.936l0-3.021h-3.128l0-3.13h-3.021v3.131h-3.131v3.022h3.13v3.13l3.021,0v-3.133Z" transform="translate(-672.013 -434.782)" fill="#011e50"/>
      <path id="Trazado_1870" data-name="Trazado 1870" d="M740.232,440.936v-3.022H737.1v-3.13h-3.021v3.13h-3.132v3.022h3.13v3.129H737.1v-3.131Z" transform="translate(-669.877 -434.782)" fill="#cea774"/>
      <path id="Trazado_1871" data-name="Trazado 1871" d="M687.706,455.651v-3.021h-3.131V449.5h-3.023v3.131h-3.132v3.021h3.13v3.131h3.02v-3.13Z" transform="translate(-678.422 -432.388)" fill="#fe524d"/>
      <path id="Trazado_1872" data-name="Trazado 1872" d="M700.838,455.651v-3.021h-3.129V449.5h-3.022v3.131h-3.133l0,3.02,3.13,0v3.13h3.021v-3.131Z" transform="translate(-676.286 -432.388)" fill="#fe524d"/>
      <path id="Trazado_1873" data-name="Trazado 1873" d="M713.969,455.649v-3.02h-3.13V449.5h-3.022v3.131h-3.132v3.021h3.132v3.131h3.022v-3.131Z" transform="translate(-674.15 -432.388)" fill="#fe9b2b"/>
      <path id="Trazado_1874" data-name="Trazado 1874" d="M727.1,455.651l0-3.021h-3.13V449.5h-3.021v3.131h-3.131v3.023h3.131v3.131h3.023v-3.131Z" transform="translate(-672.013 -432.388)" fill="#011e50"/>
      <path id="Trazado_1875" data-name="Trazado 1875" d="M740.232,455.652v-3.023H737.1V449.5h-3.021v3.13h-3.13v3.021h3.132v3.133H737.1v-3.131Z" transform="translate(-669.877 -432.388)" fill="#cea774"/>
      <path id="Trazado_1876" data-name="Trazado 1876" d="M687.706,470.365v-3.02h-3.129l0-3.13h-3.019v3.133h-3.133v3.02h3.13V473.5h3.021v-3.133Z" transform="translate(-678.422 -429.994)" fill="#fe9b2b"/>
      <path id="Trazado_1877" data-name="Trazado 1877" d="M700.84,470.365v-3.02h-3.13v-3.132h-3.024l0,3.13h-3.133v3.023h3.133V473.5h3.022v-3.133Z" transform="translate(-676.286 -429.994)" fill="#fe9b2b"/>
      <path id="Trazado_1878" data-name="Trazado 1878" d="M713.968,470.366v-3.023h-3.13v-3.132h-3.022v3.132h-3.132v3.023h3.132V473.5h3.022v-3.132Z" transform="translate(-674.149 -429.994)" fill="#fe9b2b"/>
      <path id="Trazado_1879" data-name="Trazado 1879" d="M727.1,470.366v-3.023h-3.133v-3.133h-3.021v3.132h-3.13v3.02h3.131V473.5h3.021v-3.132Z" transform="translate(-672.013 -429.994)" fill="#011e50"/>
      <path id="Trazado_1880" data-name="Trazado 1880" d="M740.232,470.365v-3.02H737.1v-3.132h-3.021v3.133h-3.132v3.021h3.13V473.5H737.1v-3.13Z" transform="translate(-669.877 -429.994)" fill="#cea774"/>
      <path id="Trazado_1881" data-name="Trazado 1881" d="M687.706,485.08v-3.02h-3.131v-3.133h-3.021v3.132h-3.132v3.023h3.132v3.133h3.021v-3.13Z" transform="translate(-678.422 -427.6)" fill="#011e50"/>
      <path id="Trazado_1882" data-name="Trazado 1882" d="M700.838,485.081v-3.023h-3.131v-3.132h-3.022v3.133l-3.13,0v3.023h3.13v3.131h3.022l0-3.13Z" transform="translate(-676.286 -427.6)" fill="#011e50"/>
      <path id="Trazado_1883" data-name="Trazado 1883" d="M713.969,485.081V482.06h-3.13v-3.132h-3.021v3.132h-3.13v3.019h3.13v3.131h3.021v-3.132Z" transform="translate(-674.149 -427.6)" fill="#011e50"/>
      <path id="Trazado_1884" data-name="Trazado 1884" d="M727.1,485.08v-3.02h-3.13l0-3.132h-3.021v3.132h-3.131v3.021h3.129l0,3.13h3.018v-3.132Z" transform="translate(-672.013 -427.6)" fill="#011e50"/>
      <path id="Trazado_1885" data-name="Trazado 1885" d="M740.232,485.081V482.06H737.1v-3.13h-3.021v3.132h-3.132v3.021h3.13v3.13H737.1v-3.132Z" transform="translate(-669.877 -427.6)" fill="#cea774"/>
    </g>
  </g>
</svg>
