<svg xmlns="http://www.w3.org/2000/svg" width="378.836" height="238" viewBox="0 0 378.836 238">
  <g id="Grupo_1128" data-name="Grupo 1128" transform="translate(-732 -350)">
    <g id="Grupo_1126" data-name="Grupo 1126" transform="translate(732 437.888)">
      <path id="Trazado_1929" data-name="Trazado 1929" d="M446.513,644q-.053-.69-.1-1.379c-.38-6-.755-11.934-1.455-17.951-.722-6.211-1.32-12.394-2.085-18.593-.51-4.138-.9-10.76-3.964-13.94-1.542-1.6-3.985-2.2-6.109-2.46-2.894-.348-5.862-.6-8.756-.9-2.392-.245-4.786-.474-7.183-.743-2.853-.321-5.736-.166-8.535-.832-.075-.529-.143-1.063-.205-1.605a5.061,5.061,0,0,0-.766-2.669.976.976,0,0,0-.093-.107c1.2-3.3.3-8-.456-11.07-1.317-5.332-3.383-10.265-7.12-14.278-3.415-3.667-6.84-7.375-10.587-10.714-2.61-2.326-6.457-4.731-10.11-5a7.021,7.021,0,0,0-.551-1.3c-1.1-1.928-5.213-3.047-6.779-1.164-.452.544.126,1.485.808,1.048.811-.522,2.281-.214,3.127.016,1.276.345,1.656,1.232,1.946,2.458a12.411,12.411,0,0,1,.462,3.953c-.035.395.095,1.868-.12,2.061a16.616,16.616,0,0,0-1.986-.6,10.923,10.923,0,0,0-1.612.22c-1.3.164-1.6.305-2.6-.674-.933-.916-.856-1.1-.921-2.3a15.735,15.735,0,0,1-.029-1.855c.084-1.333.651-2.518.638-3.86,0-.415-.672-.539-.75-.1a12.929,12.929,0,0,1-.713,2.14.252.252,0,0,0-.181.021c-4.181,2.1-8.463,3.488-12.472,6.075a41.059,41.059,0,0,0-9.065,8.027c-3.595,4.258-5.989,9.558-7.958,14.72-.953,2.5-1.855,5.077-2.713,7.605-.477,1.407-1.009,2.89-.413,4.355-.486,1.5-.912,3.038-1.29,4.59-4.5-.154-9.026,1.619-13.465,2.238-1.991.278-3.926.676-5.887,1.116-2.346.526-4.893.414-7.157,1.126-7.12,2.238-7.218,10.151-8.248,16.041a111.1,111.1,0,0,0-1.269,18.907c-2.291,2.332-4.381,4.922-4.932,8.261-.006.038-.01.076-.016.115a2.34,2.34,0,0,0-2.241.693,16.408,16.408,0,0,0-3.368,3.949,16.6,16.6,0,0,0-1.3,5.392c-.185,1.574-.724,3.842.195,5.28a3.227,3.227,0,0,0,.372.474c-2.627,8.776-13.45,20.535-7.346,29.944a8.918,8.918,0,0,0,9.1,4.269c3.067-.464,7.865-2.681,7.511-6.454.04-.035.071-.076.108-.114a9.062,9.062,0,0,0,1.565,4.338c1.523,2.121,4.706,2.988,7.207,3.346a74.188,74.188,0,0,0,13.635.171c4.016-.2,8.162-.387,12.151-.81a140.138,140.138,0,0,1,15.7-.595c10.541.05,21.082.132,31.624.177,10.665.046,21.273.434,31.945.433,4.854,0,9.725.305,14.535.042,4.285-.234,8.414.393,12.511-.558,1.714.1,3.645.658,5.213,0a6.2,6.2,0,0,0,3.158-4.011c.76-2.521.054-4.887-.02-7.426a75.775,75.775,0,0,1,.081-11.275,42.142,42.142,0,0,0,.245-6.43,11.963,11.963,0,0,0,1.393-2.524,10.772,10.772,0,0,0,.343-2.322c.183-1.1.667-2.111.884-3.2C450.633,644.936,448.838,643.679,446.513,644ZM406.3,584.586c.728,1.893.69,5.127,1.149,6.834a51.849,51.849,0,0,1,2.053,10.115,25.834,25.834,0,0,1-.587,8.581c-.4,1.55-1.908,5.058-3.7,2.966-.623-.729-.522-2.209-.645-3.087-.363-2.6-.773-5.327-.912-7.943-.147-2.795.291-5.535-.077-8.337-.154-1.171.084-3.687-.246-5.723a3.7,3.7,0,0,0,.581-1.293c.052-.259-.341-.372-.4-.11a2.582,2.582,0,0,1-.314.755,4.856,4.856,0,0,0-.441-1.195A4.019,4.019,0,0,0,406.3,584.586ZM379.472,543.94c3.219.6,7.018,3.176,9.2,5.392,2.885,2.932,6.142,5.572,8.78,8.729a35.348,35.348,0,0,1,7.125,12.887,24.587,24.587,0,0,1,1.162,7.161c0,1.049-.71,9.3-3.656,4.719-1.606-2.5-1.387-8.24-1.655-10.912a20.681,20.681,0,0,0-3.372-9.038c-3.927-6.235-10.435-10.132-16.851-13.318a4.379,4.379,0,0,0-.152-1.088.727.727,0,0,0-.781-.465h-.025a14.006,14.006,0,0,0,.34-2.643C379.569,544.964,379.531,544.39,379.472,543.94Zm.7,6.187c1.634,1.255,3.135,2.652,4.8,3.88a40.329,40.329,0,0,1,6.217,4.97,34.04,34.04,0,0,1,5.487,7.144c1.468,2.738,1.5,5.595,1.811,8.593.282,2.7.472,8.155,2.4,10.387.057.066.117.12.176.179a.228.228,0,0,0,.072.152,2.419,2.419,0,0,1,.647,1.282c-3.892-1.036-8.018-.468-11.945-.6-5.408-.181-10.736-.369-16.182-.361-5.8.008-11.576.43-17.4.365-2.508-.028-4.86.342-7.345.459-1.566.074-3.73.447-5.257-.064.071-.672.142-1.344.229-2.016a.726.726,0,0,0-.5-.843,35.887,35.887,0,0,0,2.28-4.955c1.185-2.423,2.347-4.877,3.469-7.331,2.58-5.651,4.525-10.856,8.9-15.443a22.514,22.514,0,0,1,6.509-5.021c.885-.425,1.825-.747,2.712-1.194a2.861,2.861,0,0,0,1.519,2.013c1.56.982,3.127,2.047,4.991,2.109C376.658,553.928,379.834,552.943,380.173,550.126Zm-10-1.179a2.159,2.159,0,0,0,.934.806c1.71.77,3.81-.347,5.552-.046.7.122,1.349.415,1.865.114-.045.255-.095.489-.1.516a2.691,2.691,0,0,1-1.638,1.671,7.637,7.637,0,0,1-3.752.14c-.813-.178-3.717-1.414-4.242-2.573a2.984,2.984,0,0,0,.96-.259A1.268,1.268,0,0,0,370.174,548.948Zm-30.468,27.929c.3-.782.548-1.549.8-2.352.7-2.255,1.559-4.42,2.48-6.594,1.89-4.46,4.329-8.981,7.859-12.3,3.017-2.839,5.565-5.424,9.163-7.629,3.187-1.953,6.594-3.54,9.715-5.567-.043.155-.095.307-.123.467a13.452,13.452,0,0,0-.071,2.9,9.226,9.226,0,0,0,.31,2.432c-.6-.042-1.225-.023-1.825-.053a.67.67,0,0,0-.373.113.606.606,0,0,0-.212.013,18.029,18.029,0,0,0-6.591,2.558,32.248,32.248,0,0,0-8.267,8.748c-2.447,3.657-3.728,7.86-5.633,11.814-1.007,2.089-1.957,4.2-2.938,6.3-.418.895-.853,1.775-1.249,2.681-.954,2.179-.474,3.232-2.668.951C338.068,579.261,338.807,579.219,339.706,576.876Zm-1.961,6.777a3.75,3.75,0,0,0,4.214,1.267,119.457,119.457,0,0,0-1.024,12.447c-.04,2.57.084,5.142.042,7.711-.029,1.8-.135,6.763-1.327,7.909-3.173,3.05-4.213-6.185-4.278-7.8a73.451,73.451,0,0,1,.04-7.687,56.3,56.3,0,0,1,.706-5.718c.321-.52.646-1.037.982-1.547.072-.109-.1-.206-.174-.1-.241.343-.471.694-.7,1.044C336.669,588.655,337.221,586.147,337.745,583.653Zm-16.392,7.984c4.6-.767,9.226-2.27,13.833-2.9a31.876,31.876,0,0,0-2.124,2.822c-.908,1.329-1.715,2.844-2.717,4.087-.092.115.025.311.169.219,1.038-.661,1.518-2.059,2.23-3.037.882-1.211,1.69-2.449,2.634-3.6q-.463,2.2-.788,4.431a35.092,35.092,0,0,1-2.071,2.88,15.821,15.821,0,0,0-3.26,5.222.181.181,0,0,0,.33.14,36.478,36.478,0,0,1,1.768-3.212c.618-.918,1.421-1.689,2.048-2.6.372-.541.728-1.094,1.078-1.651q-.217,1.621-.36,3.247a57.858,57.858,0,0,0-4.321,6.067c-.095.163.114.3.246.19.911-.738,1.377-2.023,2.046-2.972.651-.925,1.321-1.837,1.988-2.75-.122,1.546-.2,3.09-.214,4.622-.042,3.656-.882,11.563,4.091,12.423,5.021.868,4.522-5.645,4.705-8.988.333-6.1.31-12.124.844-18.174a23.975,23.975,0,0,0,3.2.326c2.56.04,4.883-.263,7.437-.36,5.749-.219,11.5.017,17.248-.272,5.32-.268,10.569.465,15.832.427,2.411-.017,4.639.083,7.021-.016,2.583-.107,5.049.653,7.609.124-.018.248-.047.489-.074.73-.079.089-.156.179-.227.268-.54.678-1.129,1.306-1.7,1.954-.815.917-1.99,2.125-1.848,3.453a.155.155,0,0,0,.3.04c.694-1.844,1.945-3.036,3.158-4.529.072-.089.153-.18.232-.271,0,.065-.016.139-.019.2a16.165,16.165,0,0,0,.056,2.232c-.668.966-1.438,1.848-2.174,2.783-1.03,1.31-1.991,2.678-3.011,4-.086.11.021.3.161.21,1.3-.8,2.023-2.335,2.9-3.539.71-.973,1.482-1.868,2.177-2.825.091.941.2,1.88.224,2.831-.333,1.522-1.7,2.472-2.676,3.6-1.015,1.182-1.79,2.558-2.793,3.759-.093.112.03.316.168.218,1.529-1.078,2.2-2.953,3.454-4.3a10.324,10.324,0,0,0,1.861-2.3c.039,3.541-.093,6.978.188,10.526.222,2.809.417,9.206,4.662,8.814a4.4,4.4,0,0,0,3.587-3.5,31.822,31.822,0,0,0,.608-9.916,56.012,56.012,0,0,0-1.729-10.459c-.335-1.251-.588-2.478-.8-3.715,3.206,1.886,7.58,1.268,11.168,1.84,1.832.292,3.648.556,5.468.815,2.793.4,5.7.146,8.453.706,6.31,1.281,6.509,10.024,7.137,15.264.607,5.066,1.13,10.111,1.709,15.181.356,3.117.638,6.224.888,9.328-5.191-.739-10.322.276-15.476-.151-4.995-.413-10.468.271-15.447,1.009-6.036.9-12.173.631-18.239,1.225-6.123.6-12.467-.03-18.637-.028-2.66,0-5.325-.224-7.991-.483a9.908,9.908,0,0,1,1.935-2.53c.223-.2-.1-.506-.323-.323a12.234,12.234,0,0,0-2.2,2.8c-1.29-.127-2.58-.258-3.871-.374a4.173,4.173,0,0,0,1.436-2.261c.038-.288-.469-.36-.512-.069-.138.953-.971,1.588-1.629,2.27q-1.445-.122-2.89-.2c.7-1.1,1.335-2.244,1.98-3.379a.279.279,0,0,0-.481-.281c-.609,1.054-1.2,2.118-1.86,3.145-.1.162-.221.319-.335.477-.078,0-.155-.01-.233-.013-.623-.023-1.244-.041-1.867-.062.081-.1.163-.205.243-.313a7.686,7.686,0,0,0,1.549-4.1c.027-.374-.552-.37-.58,0a7.492,7.492,0,0,1-2.144,4.386q-1.507-.049-3.014-.092a30.057,30.057,0,0,1,2.487-3.718c.076-.078-.027-.229-.122-.158-1.317.99-2.05,2.519-3.01,3.86-1.146-.03-2.292-.06-3.437-.083.406-.81.782-1.635,1.189-2.482.546-1.138,1.656-1.888,1.332-3.248-.017-.073-.141-.059-.134.018.118,1.226-1.468,2.821-1.981,3.985a11.218,11.218,0,0,1-1.042,1.717q-1.956-.036-3.914-.058a5.489,5.489,0,0,1,.393-.428c.423-.413.979-.685,1.27-1.219a13.083,13.083,0,0,0,.477-1.419c.082-.2-.268-.353-.357-.151a5.088,5.088,0,0,1-.861,1.73A13.716,13.716,0,0,0,343.607,632c-.051.066-.1.137-.144.2q-2-.018-4-.019a37.643,37.643,0,0,0,2.328-3.969.267.267,0,0,0-.46-.269,38.473,38.473,0,0,1-2.5,4.1l-.1.132q-1.8,0-3.594-.041c.093-.161.188-.318.279-.487a11.977,11.977,0,0,1,2.261-3.415c.207-.193-.1-.5-.31-.31a15.327,15.327,0,0,0-2.533,3.84c-.071.118-.15.24-.233.363-1.026-.023-2.051-.054-3.076-.086a12.167,12.167,0,0,1,1.619-3.288c.192-.236-.134-.576-.339-.339a13.433,13.433,0,0,0-1.868,3.611q-1.292-.041-2.584-.086c.137-.3.271-.6.392-.9.445-1.087.951-2.425.289-3.525a.119.119,0,0,0-.2.12c.7,1.408-.045,2.882-.944,4.29q-1.886-.066-3.774-.122a17.608,17.608,0,0,1,1.932-4.083c.161-.2-.12-.493-.29-.289-.934,1.121-1.219,2.51-1.882,3.783-.1.193-.2.382-.3.572-.524-.016-1.046-.035-1.57-.048-1.182-.03-2.377.027-3.577.113a13.768,13.768,0,0,1,2.076-4.618c.188-.227-.132-.554-.327-.327a12.125,12.125,0,0,0-1.915,3.913c-.109.294-.222.667-.346,1.071-1.047.081-2.1.176-3.144.249.027-.078.055-.155.081-.233.733-2.173,1.953-5.07,3.621-6.7.2-.2-.106-.5-.309-.31a17.111,17.111,0,0,0-3.3,5.417c-.273.635-.527,1.257-.784,1.872-.623.037-1.246.065-1.865.071.079-.172.158-.344.24-.515a.247.247,0,0,0-.125-.333c.081-.212.157-.413.227-.582.925-2.221,2.281-4.309,2.3-6.785a.083.083,0,0,0-.166,0c-.141,2.2-1.314,4.033-2.184,5.993-.253.568-.52,1.434-.882,2.228q-1.64.015-3.282.04c.308-.57.622-1.133.954-1.676a21.977,21.977,0,0,0,1.562-2.325c.4-.9.357-1.775,1.036-2.592.176-.212-.125-.519-.306-.306a3.757,3.757,0,0,0-.741,1.34,9.849,9.849,0,0,1-1.487,2.948,22.229,22.229,0,0,0-1.636,2.621q-1.357.024-2.713.065c.425-.818.845-1.638,1.255-2.463.847-1.706,1.831-3.367,2.628-5.092.653-1.41.827-3.045,1.976-4.179.183-.18-.095-.456-.28-.281a8.508,8.508,0,0,0-1.788,3.4,64.076,64.076,0,0,1-3.217,6.159q-.647,1.24-1.307,2.478c-.709.025-1.416.052-2.124.087-.025-1.023-.057-2.042-.086-3.064,1.354-2.181,2.5-4.576,3.825-6.756a54.722,54.722,0,0,0,4.012-7.674c.093-.23-.277-.327-.372-.1a59.6,59.6,0,0,1-4.618,8.359c-.921,1.477-2.041,3.042-2.89,4.677-.052-1.756-.089-3.5-.122-5.242.232-.377.455-.762.678-1.155.774-1.367,1.608-2.688,2.352-4.074,1.724-3.209,3.6-6.356,5.414-9.516a.142.142,0,0,0-.246-.144c-1.741,2.942-3.6,5.826-5.293,8.8-.941,1.653-1.854,3.553-2.923,5.276,0-.3-.016-.6-.02-.9q-.027-2.3.052-4.576a14.054,14.054,0,0,0,.968-1.777c.759-1.44,1.719-2.8,2.538-4.209a39.7,39.7,0,0,1,2.788-4.52c.822-1.048,1.762-1.717,2.177-3.025.067-.212-.262-.3-.331-.091-.473,1.43-1.719,2.172-2.55,3.354-.893,1.269-1.71,2.7-2.509,4.033-1.007,1.682-2.04,3.333-3.03,5.017.09-1.826.243-3.645.471-5.464,2.639-4.286,5.489-8.458,7.953-12.86a.2.2,0,0,0-.338-.2c-1.437,2.48-3.09,4.827-4.55,7.295-.823,1.392-2.047,2.694-2.843,4.154.052-.34.1-.68.157-1.019.13-.777.236-1.533.34-2.272.114-.164.226-.335.343-.508.934-1.38,1.687-2.842,2.5-4.29.764-1.354,1.436-2.725,2.159-4.091.323-.61.747-1.1.994-1.666a15.824,15.824,0,0,1,4.468-1C316.237,592.9,318.76,592.071,321.353,591.637Zm-11.094,42.611a1.64,1.64,0,0,0,.731-.425,30.059,30.059,0,0,1-1.972,3.918c-1.341,2.139-2.674,4.276-3.827,6.526-1.106,2.158-2.366,4.193-3.62,6.266.092-1.1.179-2.205.28-3.3.083-.9.14-1.8.193-2.7,1.567-2.763,2.9-5.648,4.363-8.471.411-.791.817-1.6,1.232-2.41q1.56,0,3.117-.027a1.914,1.914,0,0,1-.58.435C310.062,634.1,310.146,634.275,310.258,634.248Zm-8.074-.72c.486.023.969.036,1.453.052-.362.663-.721,1.326-1.1,1.979-.1.171-.207.339-.32.5C302.211,635.219,302.2,634.374,302.184,633.529Zm.046,3.7c.532-.844,1.092-1.654,1.225-1.9.308-.571.609-1.145.913-1.719q1.325.035,2.647.042c-.321.616-.638,1.229-.96,1.821-1.047,1.931-1.88,3.958-2.963,5.872-.311.549-.64,1.094-.97,1.64Q302.244,640.117,302.23,637.226Zm4.68-41.405a8.315,8.315,0,0,1,1.813-1.344c-.321.6-.786,1.157-1.075,1.713-.591,1.14-1.2,2.206-1.854,3.31-.759,1.28-1.508,3.113-2.516,4.539C303.725,601.011,304.322,598.3,306.91,595.821Zm-11.375,50.988c.1,3.661-.455,7.1-.035,10.8.074.651.176,1.333.3,2.025a32.811,32.811,0,0,1-1.913-4.166c-.593-1.66-.055-4.348-1.162-5.774a5.861,5.861,0,0,0,.387-.581,8.63,8.63,0,0,0,.951-4.881,7.575,7.575,0,0,0-1.133-3.409c.008-.01.018-.017.026-.027a8.517,8.517,0,0,0,.69-1.168,5.758,5.758,0,0,1,1.06-1.527C294.81,641,295.46,643.989,295.535,646.809Zm-6.4-.661c.329-3.757,1.972-8.669,5.627-10.478-.033.318-.042.639-.055.96a3.347,3.347,0,0,0-1.786,1.744,10.986,10.986,0,0,0-.613,1.254c-.013-.028-.027-.052-.04-.08-.3-.622-1.106-.14-1.023.431.274,1.887,1.467,3.2,1.424,5.281a8.9,8.9,0,0,1-1.059,3.828.61.61,0,0,0-.445.452,1.034,1.034,0,0,1-.147.085C288.473,650.7,289.068,646.935,289.137,646.148Zm3.4,14.1c2.913,5.274,3.219,12.995-.857,17.816-1.33,1.573-3.878,3.929-5.829-.547-.6-1.38-.125-3.241.047-4.646a62.435,62.435,0,0,1,1.683-7.351c.809-3.326,1.911-6.908,2.472-10.429A25.477,25.477,0,0,0,292.534,660.246Zm5.427,12.795a35.321,35.321,0,0,0-.163,4.309,4.465,4.465,0,0,1-.272.673.631.631,0,0,0-1.094.283c-1.008,4.5-7.248,6.536-10.813,4.5-4.259-2.438-5.422-7.772-4.114-12.349,1.872-6.555,6.363-12.422,7.92-19.053a1.749,1.749,0,0,0,.563.061c-1.33,6.189-11.071,33.08-.641,30.26,1.836-.5,3.74-2.909,4.654-4.469a16.818,16.818,0,0,0,1.908-8,16.313,16.313,0,0,0-1.429-8.148c-.883-1.907-2.153-3.559-2.808-5.581a6.483,6.483,0,0,1-.284-1.364,8.319,8.319,0,0,0,.178.858c.578,2.111,1.857,3.9,2.881,5.806,1.471,2.732,3.084,5.517,3.43,8.656.056.509.134,1.19.2,1.951C298.041,671.965,298,672.5,297.961,673.041Zm.566-10.747a12.8,12.8,0,0,1-.468-1.389,31.953,31.953,0,0,1-1-11.07,48.444,48.444,0,0,0-.349-9.049c-.278-3.365-.958-5.667.6-8.923.722-1.5,1.618-2.954,2.487-4.392,0,2.319.009,4.638,0,6.955-.025,4.685-.056,9.312-.4,13.973-.2,2.681-.446,5.412-.626,8.136l-.016.031a.272.272,0,0,0-.008.335c-.093,1.469-.17,2.937-.193,4.39C298.547,661.626,298.535,661.96,298.527,662.294Zm19.981,21.857c-1.205.072-2.415.125-3.633.151.016-.013.036-.021.046-.045,1.528-3.6,2.919-7.266,4.39-10.89.857-2.112,1.767-4.2,2.691-6.274q2.037.007,4.074.009c-.154.37-.314.74-.493,1.1a47.046,47.046,0,0,1-2.478,5.336,19.967,19.967,0,0,0-2.141,4.619c-.7,1.986-1.874,3.767-2.465,5.79A.243.243,0,0,0,318.508,684.151Zm.546-.035s.006-.007.008-.012c.72-1.98,1.823-3.782,2.5-5.78a18.547,18.547,0,0,1,1.3-3.314c.517-.91,1.181-1.722,1.626-2.674.787-1.682,1.446-3.5,2.133-5.232q1.942,0,3.883.006a20.412,20.412,0,0,0-.95,2.376c-.658,1.8-1.743,3.366-2.459,5.131-.854,2.107-1.141,4.377-2.321,6.361a4.922,4.922,0,0,0-1.109,2.809C322.125,683.9,320.592,684.018,319.055,684.116Zm125.886-3.742c-.543,1.613-2.058,2.115-3.7,2.409a.8.8,0,0,0-.884-.425,93.336,93.336,0,0,1-13.907.545c.98-.813,1.412-2.338,2.146-3.34.626-.854,1.421-1.562,2.046-2.42a11.388,11.388,0,0,1,3.012-3.376c.258-.161.022-.569-.239-.409-1.809,1.106-2.653,2.954-4.072,4.46a13.823,13.823,0,0,0-1.712,2.064c-.687,1.082-1.084,2.284-2.2,3l-2.671-.054a33.016,33.016,0,0,1,2.543-3.973,63.387,63.387,0,0,1,4.353-5.133.231.231,0,0,0-.326-.326,69.868,69.868,0,0,0-5.158,5.929c-.672.847-1.954,2.265-1.925,3.495-1.507-.03-3.011-.057-4.508-.058-4.321,0-8.633,0-12.943-.023.818-1.031,1.3-2.3,2.076-3.388a29.069,29.069,0,0,0,1.7-3.171c.837-1.516,2.46-2.783,2.435-4.641a.21.21,0,0,0-.42,0c-.006,1.862-2.1,3.544-2.892,5.143a25.459,25.459,0,0,1-2.078,3.173c-.591.856-.882,1.85-1.451,2.718h0a.248.248,0,0,0-.036.16q-3.625-.025-7.248-.1a.337.337,0,0,0,.023-.047l.357-.876a.122.122,0,0,0-.081-.178c.275-.693.694-1.336,1.035-1.995.58-1.119,1.077-2.283,1.7-3.381.51-.9,1.155-1.724,1.634-2.643a14.473,14.473,0,0,1,1.334-2.812c.2-.237-.136-.581-.343-.343a11.564,11.564,0,0,0-1.342,2.589c-.624,1.215-1.515,2.27-2.174,3.468-.932,1.693-2.708,4.083-2.741,6.088a.306.306,0,0,0,.021.117q-1.78-.038-3.558-.093c.242-.381.429-.816.619-1.163.849-1.555,2.087-2.847,2.941-4.406.689-1.258,3.721-5.146,1.98-6.549-.168-.136-.4.081-.243.243,1.27,1.3-2.235,5.962-2.968,7.055-.659.984-1.513,1.852-2.1,2.886a14.356,14.356,0,0,1-.985,1.915c-.228-.008-.456-.01-.685-.018-.5-.018-1.007-.026-1.511-.04,1.1-1.833,2.09-3.757,3.2-5.573,1.346-2.2,2.127-4.7,3.808-6.7.181-.214-.125-.524-.309-.309-1.6,1.867-2.413,4.167-3.675,6.25s-2.64,4.133-3.762,6.311c-2.639-.059-5.283-.066-7.931-.043a.233.233,0,0,0,.054-.038c1.283-1.367,1.727-3.224,2.835-4.719,1.459-1.968,2.974-3.879,4.332-5.921.239-.36-.339-.694-.578-.338-1.416,2.109-3.049,4.045-4.521,6.11-1.01,1.418-1.479,3.122-2.505,4.53a.254.254,0,0,0,.119.379c-5.008.046-10.022.18-15.01.208-3.6.021-7.2,0-10.8-.023-.107-1.54,2.994-6.236,3.413-7.008.628-1.155,1.39-2.252,2-3.414a19.086,19.086,0,0,1,1.412-3.089c.069-.09-.084-.207-.159-.122-.835.959-1.075,2.16-1.712,3.242-.8,1.356-1.694,2.661-2.5,4.018-1.183,2-2.914,3.973-3.043,6.37-5.322-.028-10.645-.044-15.953.105-3.793.107-7.563.672-11.357.878-1.012.055-2.016.124-3.018.2.294-1.36,1.137-2.339,1.712-3.62.736-1.638,1.012-3.414,1.625-5.09.583-1.593,1.555-3.006,2.17-4.586a32.491,32.491,0,0,1,1.245-3.347q9.988,0,19.989-.041c-1.484,1.811-1.809,4.1-2.758,6.2-1.208,2.676-2.876,4.951-3.66,7.836a.152.152,0,0,0,.276.116,20.259,20.259,0,0,0,1.735-3.745c.572-1.2,1.338-2.29,1.916-3.482,1.1-2.262,1.245-4.888,2.922-6.864.016-.019.011-.04.019-.06q8.248-.028,16.507-.042c1.568,0,3.13-.064,4.693-.137-1.864,2.563-2.972,5.574-4.553,8.3a40.534,40.534,0,0,1-2.146,3.658,5.885,5.885,0,0,0-1.377,3.15c-.026.4.52.406.648.088a4.729,4.729,0,0,0,.342-1.271,19.987,19.987,0,0,1,1.722-2.731c.668-1.049,1.1-2.247,1.667-3.352,1.345-2.635,2.461-5.289,3.941-7.855,2.761-.132,5.523-.3,8.31-.3,4.8,0,9.581,1.058,14.386.827,5.133-.246,10.277-.076,15.415-.346,5.162-.271,10.3-.887,15.462-1.2a.258.258,0,0,0,0-.515c-4.961-.447-9.786.183-14.741.466-5.371.307-10.768.014-16.136.283-4.6.23-9.173-.783-13.774-.711-4.617.071-9.267.452-13.856.421-10.8-.073-21.55.165-32.327.355-1.326.024-2.646,0-3.963-.033.011-.013.018-.025.029-.038.126-.145-.081-.358-.214-.213-.07.077-.132.159-.2.239-1.353-.042-2.7-.1-4.055-.147a14.169,14.169,0,0,0,1.489-4.533c.014-.211-.307-.207-.326,0a10.229,10.229,0,0,1-1.2,3.276c-.182.409-.349.823-.514,1.237-1.33-.047-2.662-.078-4-.078.806-1.8,1.616-3.595,2.412-5.4.045-.1-.095-.191-.154-.09-1.023,1.78-1.947,3.626-2.826,5.5-.256,0-.511,0-.767.005-1.1.022-2.2.066-3.292.117a8.135,8.135,0,0,1,1.564-3.39c.2-.216-.121-.537-.323-.322a7.79,7.79,0,0,0-1.624,3.725c-.754.036-1.508.08-2.261.122.1-.231.188-.464.29-.694.836-1.876,2.08-3.539,2.942-5.4.122-.264-.269-.5-.394-.23-.871,1.862-2.112,3.522-2.972,5.387-.148.322-.286.647-.425.972q-1.935.109-3.872.205c.608-1.621,1.235-3.233,1.991-4.8a13.773,13.773,0,0,0,.949-2.5,13.654,13.654,0,0,1,1.682-3.594.216.216,0,0,0-.374-.218,16.617,16.617,0,0,0-1.367,2.376c-.441,1.123-.618,2.273-1.142,3.374-.846,1.775-1.593,3.567-2.31,5.385-.621.028-1.245.04-1.867.061a18.994,18.994,0,0,1,.932-2.042,59.754,59.754,0,0,0,2.99-5.52,45.873,45.873,0,0,0,1.7-5.979.279.279,0,0,0-.537-.148,35.311,35.311,0,0,1-2.257,7.047c-.993,1.964-2.308,3.747-3.219,5.755-.136.3-.251.606-.37.911-.362.009-.723.03-1.086.035a.222.222,0,0,0,0,.444l.891.01c-.49,1.338-.886,2.711-1.451,4.021-.672,1.557-1.867,2.873-2.083,4.591-.037.291.387.3.477.064.671-1.761,1.816-3.249,2.5-5.008.47-1.217.859-2.449,1.312-3.659l1.834.02c-.142.365-.285.73-.426,1.1-1.026,2.676-2.116,5.323-3.1,8.014-.424,1.153-.858,2.3-1.287,3.453-.4,1.078-.527,2.587-1.187,3.524-.1.142.114.29.233.179,1.192-1.111,1.542-3.457,2.1-4.94,1.054-2.819,2.058-5.654,3.158-8.458.372-.951.728-1.908,1.084-2.863,1.244.013,2.489.03,3.733.04-.547,1.315-1.077,2.637-1.725,3.917-.9,1.765-1.726,3.54-2.442,5.386-.466,1.2-.915,2.405-1.434,3.587-.188.43-.769,2.432-1.085,2.543-.183.064-.171.378.049.361l.407-.032a.25.25,0,0,0,.23-.175,108.01,108.01,0,0,1,5.053-11.952c.582-1.189,1.032-2.414,1.51-3.632l2.309.014c-.714,2-1.915,3.885-2.81,5.8-.863,1.844-1.685,3.725-2.38,5.641-.461,1.271-.658,3.746-1.891,4.49a.2.2,0,0,0,.151.357c.924-.185,1.266-1.183,1.553-1.98.642-1.779,1.143-3.578,1.872-5.335,1-2.414,2.173-4.739,3.272-7.108a12.483,12.483,0,0,0,.646-1.862c1.264.008,2.528.018,3.793.023-.828,1.817-1.62,3.65-2.4,5.475-.808,1.9-1.748,3.747-2.509,5.666-.72,1.817-1.824,3.975-1.9,5.943a.149.149,0,0,0,.085.131c-.37.007-.74.016-1.113.016-3.764,0-9.366.446-12.191-2.676-2.14-2.364-1.379-6.757-1.016-10.142.259-.545.519-1.092.74-1.661.571-1.471.911-3.028,1.422-4.521.568-1.659,1.276-3.271,1.981-4.874a25.4,25.4,0,0,0,1.841-4.017.181.181,0,0,0-.348-.1c-.469,1.744-1.7,3.415-2.443,5.074-.6,1.347-1.19,2.7-1.668,4.1s-.858,2.784-1.382,4.142c0-.015,0-.03,0-.045q.066-2.767.184-5.551c1.337-4.584,4.4-8.548,6.388-12.831,1.029-2.223,1.7-4.6,2.906-6.745a39.371,39.371,0,0,0,2.869-6.761c.048-.142-.171-.2-.223-.062a43.794,43.794,0,0,1-1.724,4.3c-.585,1.169-1.348,2.231-1.937,3.4-1.153,2.284-1.914,4.734-3.2,6.957a72.4,72.4,0,0,0-3.975,7.2c-.288.663-.65,1.37-.982,2.1q.233-4.641.588-9.276A13.049,13.049,0,0,1,302.1,651c1.272-2.116,2.538-4.195,3.643-6.405,1.129-2.26,2.446-4.409,3.749-6.571a35.968,35.968,0,0,0,2.121-4.414q.932-.018,1.865-.041a19.9,19.9,0,0,1-1.352,2.53c-.091.142.108.275.224.173a7.718,7.718,0,0,0,1.87-2.72q1.562-.039,3.125-.076a3.1,3.1,0,0,1-1.14,1.536.173.173,0,0,0,.132.314c.836-.224,1.23-1.068,1.525-1.862,1.169-.026,2.34-.05,3.514-.062.443,0,.887,0,1.331,0-.312.563-.636,1.121-1,1.675-.094.145.086.292.223.223a3.5,3.5,0,0,0,1.485-1.9c1.149.011,2.3.04,3.455.076a8.567,8.567,0,0,0-.614,1.135h0l-.121.307c-.108.272.3.4.445.188a17.97,17.97,0,0,0,.98-1.608q1.168.039,2.337.086a2.545,2.545,0,0,0-.634,1.572c0,.151.241.243.309.084a8.04,8.04,0,0,1,1.055-1.627q1.483.058,2.967.111a2.332,2.332,0,0,0-.248,1.467c.027.132.216.115.251,0a8.458,8.458,0,0,1,.623-1.445q1.685.054,3.367.076a5.746,5.746,0,0,0-.738,1.8c-.028.144.166.3.277.161a19.2,19.2,0,0,0,1.273-1.949c.214,0,.428.006.642.006,1.12,0,2.237.006,3.354.013-.052.075-.1.153-.156.226a3.586,3.586,0,0,0-.857,1.54c-.03.164.17.319.3.176a11.981,11.981,0,0,0,1.357-1.938q2.051.015,4.1.049a3.53,3.53,0,0,0-.205.7.188.188,0,0,0,.341.144c.19-.277.354-.557.522-.837.95.016,1.9.041,2.849.064-.023.018-.041.039-.064.056-.094.069-.082.272.069.253a1.627,1.627,0,0,0,.721-.292q1.566.04,3.134.1a2.122,2.122,0,0,0-.494,2.184.206.206,0,0,0,.373-.049,6.094,6.094,0,0,1,1.048-2.1c.617.023,1.232.04,1.85.067.11,0,.22.013.331.018a7.3,7.3,0,0,0-.537.87c-.072.14.079.32.226.227a4.543,4.543,0,0,0,1.111-1.053q1.411.079,2.821.19a3.1,3.1,0,0,1-1.081,1.059c-.161.084-.095.382.1.359a2.46,2.46,0,0,0,1.637-1.365c1.409.118,2.818.25,4.227.38a2.94,2.94,0,0,1-.931,1.09c-.183.117-.131.474.121.447.75-.082,1.141-.808,1.45-1.478,2.454.224,4.908.43,7.365.508,11.465.367,22.853.028,34.309-.438,5.637-.229,11.259-1.1,16.89-1.258,1.728-.048,3.407.515,5.133.5,1.275-.011,2.575-.307,3.84-.358a46.2,46.2,0,0,1,8.746.359,1.367,1.367,0,0,0,.523-.019c.5,6.664.855,13.323,1.378,20.035.037.465.057.933.082,1.4a.9.9,0,0,0,.034.588c.231,5.293-.176,10.685-.173,16.005C444.888,674.823,445.762,677.933,444.941,680.375Zm3.225-31.188c-.224.731-.306,1.479-.5,2.209a6.784,6.784,0,0,1-.4,1.088c-.18-2.448-.445-4.9-.653-7.328.972.029,1.656.9,2.042,2.635Q448.422,648.494,448.166,649.187Z" transform="translate(-279.325 -538.334)" fill="#977c72"/>
      <path id="Trazado_1930" data-name="Trazado 1930" d="M397.7,622.73a.417.417,0,0,0-.246.258,3.015,3.015,0,0,0,1.431,3.314c.823.429,2.575.1,3.479.173,1.717.144,3.438.413,5.159.5a35.318,35.318,0,0,0,5.339-.338c.795-.081,2.246.037,2.893-.436,1.375-1.007,1.077-3.048.866-4.562a.612.612,0,0,0-.594-.452,74.308,74.308,0,0,1-9.478.554,32.144,32.144,0,0,0-4.244.045c-1.462.193-3.246,1.137-4.7.365a.222.222,0,0,0-.224.384A3.383,3.383,0,0,0,397.7,622.73Zm7.044.188c1.523-.012,10.453-.87,10.809.755.6,2.727-9.454,2.072-10.4,2-1.284-.093-3.8.12-5.011-.449a4.787,4.787,0,0,1-1.847-2.236C400.251,623.657,402.886,622.932,404.746,622.918Z" transform="translate(-313.785 -562.539)" fill="#977c72"/>
      <path id="Trazado_1931" data-name="Trazado 1931" d="M321.954,697.719c-.866,1.751-1.565,3.587-2.473,5.318-.948,1.809-2.226,3.424-3.22,5.21-.8,1.433-1.174,3.033-1.945,4.456-.521.963-1.232,1.751-.942,2.893.067.26.409.175.437-.059.166-1.424,1.2-2.705,1.685-4.053a23.725,23.725,0,0,1,2.122-4.331c.84-1.378,1.79-2.676,2.509-4.126.819-1.652,1.472-3.384,2.277-5.044C322.55,697.682,322.1,697.418,321.954,697.719Z" transform="translate(-289.252 -584.858)" fill="#977c72"/>
      <path id="Trazado_1932" data-name="Trazado 1932" d="M354.541,720.63a46.281,46.281,0,0,0-3.457,7.589c-.551,1.383-.955,2.794-1.446,4.2a14.732,14.732,0,0,0-1.1,3.47c-.011.12.162.128.2.027.847-2.418,1.719-4.893,2.654-7.278a48.051,48.051,0,0,1,3.478-7.811C355,720.612,354.672,720.42,354.541,720.63Z" transform="translate(-299.546 -591.564)" fill="#977c72"/>
      <path id="Trazado_1933" data-name="Trazado 1933" d="M359.4,720.632a71.705,71.705,0,0,1-3.663,9.009c-.5,1.14-.89,2.073-1.355,3.227a12.243,12.243,0,0,0-1.053,2.834h0c-.014.708.437.578.475.244a15.647,15.647,0,0,1,1.339-3.433c.583-1.547,1.2-3,1.885-4.5a52.245,52.245,0,0,0,2.855-7.276C359.974,720.423,359.49,720.321,359.4,720.632Z" transform="translate(-300.944 -591.536)" fill="#977c72"/>
      <path id="Trazado_1934" data-name="Trazado 1934" d="M364.432,725.618c-1.062,2.1-1.976,4.258-2.886,6.426-.64,1.523-1.583,3.1-1.615,4.792a.125.125,0,0,0,.244.033,75.986,75.986,0,0,1,4.6-11.05C364.888,725.591,364.548,725.39,364.432,725.618Z" transform="translate(-302.873 -593.018)" fill="#977c72"/>
      <path id="Trazado_1935" data-name="Trazado 1935" d="M371.047,722.765c-.909,2.381-2.245,4.569-3.141,6.954a24.628,24.628,0,0,1-1.511,3.875c-.391.672-.845,1.086-.791,1.878.009.138.208.219.281.076.472-.927,1.143-1.714,1.557-2.673s.659-2.011,1.026-3c.886-2.385,2.213-4.578,3.111-6.962C371.7,722.579,371.172,722.438,371.047,722.765Z" transform="translate(-304.529 -592.16)" fill="#977c72"/>
      <path id="Trazado_1936" data-name="Trazado 1936" d="M382.394,722.291c.172-.21-.124-.513-.3-.3-1.53,1.821-2.263,4.023-3.335,6.111-1.244,2.422-2.268,4.872-3.388,7.356a.3.3,0,0,0,.508.3c.278-.428.274-.384.345-.653,1.025-2.01,1.721-4.191,2.756-6.2C380.127,726.671,380.78,724.26,382.394,722.291Z" transform="translate(-307.374 -591.966)" fill="#977c72"/>
      <path id="Trazado_1937" data-name="Trazado 1937" d="M386.624,724.135a7.426,7.426,0,0,0-1.31,2.128,19.7,19.7,0,0,1-1.753,3.357c-1.214,1.91-1.726,4.24-2.867,6.151a.13.13,0,0,0-.125.1l-.093.287c-.071.222.2.328.356.207a2.967,2.967,0,0,0,.945-1.618,31.217,31.217,0,0,1,1.77-3.962c.474-.906,1.218-1.69,1.649-2.6.63-1.333.706-2.547,1.725-3.746C387.1,724.228,386.8,723.929,386.624,724.135Z" transform="translate(-308.871 -592.594)" fill="#977c72"/>
      <path id="Trazado_1938" data-name="Trazado 1938" d="M400.212,722c-1.578,2.518-2.972,5.152-4.525,7.687-.979,1.6-2.655,3.57-3.054,5.431-.043.2.144.476.378.379.781-.328.692-1.271,1.428-1.626.144-.069.042-.3-.107-.255a1.132,1.132,0,0,0-.506.389c.811-1.559,1.856-3.06,2.726-4.542,1.4-2.38,2.662-4.854,4.1-7.207C400.824,721.977,400.386,721.724,400.212,722Z" transform="translate(-312.424 -591.956)" fill="#977c72"/>
      <path id="Trazado_1939" data-name="Trazado 1939" d="M410.385,728.678a40.032,40.032,0,0,0,3.3-6.425c.14-.314-.322-.588-.465-.272a52.8,52.8,0,0,1-4.117,7.449c-1.114,1.692-3.1,4.056-3.035,6.178l.007,0a.287.287,0,0,0,.573,0c.007-.058.023-.112.032-.169l.268-.58c.118-.055.051-.227-.063-.229a17.166,17.166,0,0,1,1.625-2.926C409.118,730.677,409.71,729.666,410.385,728.678Z" transform="translate(-316.352 -591.944)" fill="#977c72"/>
      <path id="Trazado_1940" data-name="Trazado 1940" d="M418.557,720.611c-.847,2.775-2.478,5.017-4.094,7.382-1.411,2.065-2.129,4.581-3.738,6.483l0,0c-.217.208.074.639.338.44,1.93-1.452,2.485-4.366,3.8-6.33,1.676-2.509,3.385-4.9,4.254-7.823A.291.291,0,0,0,418.557,720.611Z" transform="translate(-317.691 -591.525)" fill="#977c72"/>
      <path id="Trazado_1941" data-name="Trazado 1941" d="M423.14,726.969c-1.122,1.76-2.264,3.507-3.443,5.229-.807,1.179-1.861,2.311-2.11,3.756a.315.315,0,0,0,.573.242l.31-.412a.149.149,0,0,0-.062-.209,25.769,25.769,0,0,1,2.227-3.623c1.014-1.555,2.02-3.115,3-4.692C423.831,726.943,423.337,726.658,423.14,726.969Z" transform="translate(-319.715 -593.403)" fill="#977c72"/>
      <path id="Trazado_1942" data-name="Trazado 1942" d="M435.433,724.155c-.895,1.186-1.368,2.6-2.247,3.8-.792,1.086-1.717,2.055-2.468,3.173-.788,1.174-2.657,3.257-2.259,4.8.026.1.207.117.223,0a6.726,6.726,0,0,1,1.278-2.55,38.8,38.8,0,0,1,2.365-3.508,26.617,26.617,0,0,0,1.688-2.165c.689-1.073,1.08-2.278,1.845-3.306C436.047,724.149,435.621,723.906,435.433,724.155Z" transform="translate(-322.877 -592.589)" fill="#977c72"/>
      <path id="Trazado_1943" data-name="Trazado 1943" d="M456.634,725.13c.665.752-.909,2.606-1.312,3.289-.607,1.031-1.12,2.118-1.709,3.159-.956,1.691-2.574,3.144-3.166,5.01-.067.211.244.416.391.227a45.322,45.322,0,0,0,4.348-6.99c.556-1.071,2.766-3.831,1.653-4.9A.145.145,0,0,0,456.634,725.13Z" transform="translate(-329.314 -592.832)" fill="#977c72"/>
      <path id="Trazado_1944" data-name="Trazado 1944" d="M471.262,723.637c.068-.215-.268-.306-.337-.093-.924,2.835-3.2,5.141-4.911,7.5-.727,1-1.479,2.043-2.169,3.071a2.281,2.281,0,0,0-.491,2.153.167.167,0,0,0,.319,0,8.555,8.555,0,0,1,1.763-3.231c.823-1.215,1.6-2.4,2.478-3.586A20.919,20.919,0,0,0,471.262,723.637Z" transform="translate(-333.059 -592.406)" fill="#977c72"/>
      <path id="Trazado_1945" data-name="Trazado 1945" d="M475.119,727.748a38.308,38.308,0,0,1-4.267,6.049c-.714.812-1.916,1.925-1.83,3.114a.287.287,0,0,0,.482.2,3.111,3.111,0,0,0,.825-1.124c.061-.1-.089-.184-.159-.092-.806,1.071-.137-.135-.035-.285.223-.328.472-.641.724-.947.368-.449.761-.876,1.121-1.331a41.129,41.129,0,0,0,3.507-5.368A.213.213,0,0,0,475.119,727.748Z" transform="translate(-334.741 -593.639)" fill="#977c72"/>
      <path id="Trazado_1946" data-name="Trazado 1946" d="M482.2,728.522a90.259,90.259,0,0,0-6.536,9c-.193.306.276.566.479.28.122-.173.235-.35.344-.53.795-1.226,1.474-2.488,2.2-3.755a44.67,44.67,0,0,1,3.68-4.827C482.46,728.571,482.3,728.4,482.2,728.522Z" transform="translate(-336.67 -593.884)" fill="#977c72"/>
      <path id="Trazado_1947" data-name="Trazado 1947" d="M500.083,727.7a14.53,14.53,0,0,1-1.933,3.215c-.638.69-1.158,1.362-1.743,2.1-.888,1.122-2.483,2.325-2.309,3.915.014.13.213.229.281.076a25.4,25.4,0,0,1,3.035-4.363c.464-.641,1.031-1.141,1.527-1.748a17.058,17.058,0,0,0,1.6-2.926C500.7,727.665,500.245,727.4,500.083,727.7Z" transform="translate(-342.064 -593.616)" fill="#977c72"/>
      <path id="Trazado_1948" data-name="Trazado 1948" d="M501.18,734.156a39.7,39.7,0,0,1-3.425,4.614c-.07.091.081.205.158.122a25.193,25.193,0,0,0,3.666-4.5A.231.231,0,0,0,501.18,734.156Z" transform="translate(-343.132 -595.509)" fill="#977c72"/>
      <path id="Trazado_1949" data-name="Trazado 1949" d="M445.135,632.628a23.323,23.323,0,0,1,2.329-2.865c.978-.978,1.857-2.059,2.732-3.128.18-.22-.117-.534-.318-.319-1.088,1.173-2.108,2.375-3.261,3.487a6.922,6.922,0,0,0-1.8,2.69C444.744,632.694,445.027,632.776,445.135,632.628Z" transform="translate(-327.668 -564.016)" fill="#977c72"/>
      <path id="Trazado_1950" data-name="Trazado 1950" d="M448.258,634.349c.093,1.411-1.531,1.982-1.629,3.292-.086.037-.167.073-.27.125a.141.141,0,0,0,.07.26,2.305,2.305,0,0,0,.408-.021.225.225,0,0,0,.209-.159c.365-1.321,1.784-2,1.6-3.5C448.613,634.109,448.242,634.1,448.258,634.349Z" transform="translate(-328.102 -566.33)" fill="#977c72"/>
      <path id="Trazado_1951" data-name="Trazado 1951" d="M353.062,634.646a1.267,1.267,0,0,1,.479-.875c.193-.156-.081-.428-.272-.272a1.311,1.311,0,0,0-.532,1.147A.163.163,0,0,0,353.062,634.646Z" transform="translate(-300.77 -566.122)" fill="#977c72"/>
    </g>
    <g id="Grupo_1127" data-name="Grupo 1127" transform="translate(908.582 350)">
      <path id="Trazado_1952" data-name="Trazado 1952" d="M746,710.851c.006-.032.016-.063.021-.094a.319.319,0,0,0-.327-.375c-4.01-6.079-5.195-12.737-4.473-19.99.4-3.986,2.084-9.178,1.056-13.122a.44.44,0,0,0-.137-.2,41.512,41.512,0,0,0,2.9-6.967c1.506-4.1,4.553-9.357,2.653-13.607.979-1.932,2.05-3.85,3.274-5.8,2.027-3.219,2.754-5.955-.254-8.727a16.745,16.745,0,0,0-4.028-2.486.244.244,0,0,0-.344-.17c-.539-.265-1.071-.528-1.573-.8a97.2,97.2,0,0,0-8.917-4.738c-2.621-1.1-5.441-1.463-8.167-2.162.761.2-7.381-2.164-7.012-1.405a.5.5,0,0,0-.421-.3,5.7,5.7,0,0,0-3.35-2.074c-.061-.007-.1,0-.162,0a5.193,5.193,0,0,0,.149-.558c.607-3.525-2.446-8.577-3.781-11.646-3.179-7.311-6.8-14.765-9.128-22.405-5.208-17.061-10.894-35.586-22.136-49.82-5.025-6.362-10.59-13.447-18.782-15.75-7.236-2.034-14.672-1.067-20.263,4.081-11.3,10.406-17.5,25.4-23.771,39.1-2.162,4.729-3.317,9.306-4.9,14.252-1.476,4.622-3.447,9.04-4.717,13.723-1.475,5.436-3.007,10.879-4.53,16.3-1.193,4.244-2.134,9.317-3.924,13.585-.006,0-.009,0-.015,0-6.441,1.3-13.049,1.261-19.4,3-6.214,1.705-14.165,2.766-19.392,6.816-4.361,3.381-3.212,7.1-.057,10.872q1.93,2.3,3.632,4.7a2.425,2.425,0,0,0,.091.459c.007.026.027.039.039.061-.251.471-.755,2.254-.877,2.615a23.5,23.5,0,0,0-.949,3.831c-.173,1.073-.274,2.17-.458,3.221a6.609,6.609,0,0,1-.362,1.9.365.365,0,0,0-.074.3c-3.728.3-5.112,3.711-6.214,7.49a33.963,33.963,0,0,0-.438,15.872c-2.331.235-4.473,1.177-5.391,3.426a9.2,9.2,0,0,0,.8,8.23c-.247,2.7-.88,13.456-.83,14.5.248,5.145.782,10.318,1.18,15.463.773,10.016,3.8,21.281,12.166,27.625,3.319,2.515,7.458,2.566,11.384,3.467a14.857,14.857,0,0,0,9.7-1.088c.01.008.015.022.025.029,1.127.843,3.264.167,4.541-.569a1.771,1.771,0,0,0,.8.048,1,1,0,0,0,.611.021c3.582-.985,7.212.819,10.879.666,3.2-.133,6.225-.446,9.452-.431,7.377.036,14.655.578,22.058.512,1.717-.014,3.411.116,5.1.26-.06.294.158.654.5.527a5.588,5.588,0,0,0,.839-.421c1.5.129,3,.249,4.523.265.42.005.839,0,1.259-.007a.441.441,0,0,0,.355.183,2.9,2.9,0,0,0,.845-.19c2.628-.048,5.26-.173,7.879-.095q11.9.352,23.889.359c7.768-.006,15.641.112,23.348.592,3.451.214,6.837,1.022,10.269,1.344,3.033.285,6.069-.13,9.141.047,3.168.183,6.145-.329,9.281-.443,2.432-.089,4.469.149,6.26-1.742a18.279,18.279,0,0,0,4.157-8.383,4.955,4.955,0,0,0,1.071,1.549,1.248,1.248,0,0,0,1.235.326c3.03-1.216,4.6-4.291,5.176-7.413.39-2.1-.194-3.9-.555-5.943a54.039,54.039,0,0,1-.5-7.239.865.865,0,0,0,.517-.144c1.758-1.262,1.934-4.145,1.624-6.411C754.544,725.042,748.665,714.772,746,710.851Zm-.911,2.518a15.67,15.67,0,0,1,1.546,2.948c-.424.684-.782,1.41-1.153,2.137-.3.6-.648,1.161-1.005,1.72-.567-.961-1.1-1.929-1.626-2.9.321-.7.654-1.4,1.032-2.074.364-.653.772-1.281,1.14-1.926C745.044,713.3,745.063,713.336,745.086,713.369Zm-36.392-22.918a124.1,124.1,0,0,1-.608-12.742c-.02-1.844.135-3.673-.042-5.47,2.823.417,5.959.451,8.094-1.281,1.868.481,4.015,1.02,4.557,1.965.556.972-.054,3.77-.058,5.037q-.009,2.931-.028,5.862c-.024,3.736-.068,7.474-.072,11.211,0,.281.044.754.086,1.284a22.365,22.365,0,0,1-1.813,2.241.4.4,0,0,0,.561.558l.011.013a17.273,17.273,0,0,0,1.316-1.445,3.968,3.968,0,0,1-.177,1.484c-1.371,3.128-1.658.848-3.292,1.306-2.72.761-6.341,1.49-7.831-1.213C708.255,697.191,708.973,692.9,708.694,690.451Zm7.132-47.149a18.9,18.9,0,0,1,.357,3.7c-.159,1.584-.3,3.426-.527,4.981-.541,3.66-2.457,1.311-4.435,1.374-1.369.044-3.224,1.481-4.279-.166.295.459-.145-2.067-.15-2.063a23.365,23.365,0,0,1-.323-3.866c-.011-.734-.124-1.587-.174-2.444.007-.024.017-.041.024-.066a.3.3,0,0,0-.038-.235c-.054-1.424.125-2.818,1.315-3.639,2.177-1.5,5.224-.423,7.738-.984a2.589,2.589,0,0,0,.319,1.122,4.168,4.168,0,0,0,.27.4A14.158,14.158,0,0,0,715.826,643.3ZM708.6,656.139c1.729-.149,2.556-.55,4.23.086,1.995.758,3.677.625,4.713-1.508a7.4,7.4,0,0,0,.506-3.2c.053-1.6.445-3.151.5-4.753a11.5,11.5,0,0,0-.089-1.769c6.82.7,6.194,11.746,6.005,16.8-.178,4.784.817,10.467-1.211,14.779.184-2.415.207-5-.788-6.305a3.2,3.2,0,0,0-1.329-.973c.682-2.751,1.617-5.3,1.592-8.243a18.887,18.887,0,0,0-.839-3.949,3.237,3.237,0,0,0-1.071-2.239.192.192,0,0,0-.3.232c.369.842-.025,2.161.051,3.091a19.5,19.5,0,0,1-.171,5.418,16.545,16.545,0,0,0-.232,5.378,18.96,18.96,0,0,0-6.188.066.645.645,0,0,0-.465.781c-.628.037-1.258.088-1.9.165a16.768,16.768,0,0,1-4.054-.116c-.026-.078-.043-.158-.07-.235a.537.537,0,0,0-.5-.38l-.451-.009a.45.45,0,0,0-.167.025,47.552,47.552,0,0,1-.665-7.166c-.016-.436-.084-6.094.376-6.252.027-.009.039-.037.061-.052l.007.005A4.131,4.131,0,0,0,708.6,656.139ZM733.348,668.6a92.123,92.123,0,0,1,10.559-11c-.411.908-.806,1.819-1.176,2.71s-.728,1.794-1.087,2.719c-4.08,3.97-7.976,8.136-11.693,12.45-1.777,2.062-3.692,4.028-5.409,6.138a20.232,20.232,0,0,0-1.576,2.3c-.014-1.009-.03-2.019-.035-3.027,0-.2.008-.426.02-.664a4.628,4.628,0,0,0,4.329-4.513c.019-.19.024-.386.035-.58A39.415,39.415,0,0,0,733.348,668.6ZM717.96,727.632c-.014-.248-.014-.5-.026-.745a.368.368,0,0,0,.545-.165c1.947-5.3,6.06-9.819,8.837-14.693a36.045,36.045,0,0,1,5.15-6.445c.682-.75,1.318-1.541,1.943-2.343.01,1.742.085,3.468.2,5.184-.636.894-1.362,1.741-1.965,2.562-1.926,2.62-3.927,5.186-5.791,7.852-1.852,2.648-3.549,5.387-5.364,8.058a46.6,46.6,0,0,0-3.323,6.268C718.126,731.321,718.07,729.478,717.96,727.632Zm16.978-35.438c-3.631,5.105-7.41,10.1-10.855,15.341-1.38,2.1-2.784,4.109-4.256,6.14-1.041,1.436-2.2,3.056-2.011,4.911a.412.412,0,0,0,.4.4l.655-.026a.312.312,0,0,0,.083-.61c-1.349-.336,2.27-5.1,2.708-5.688,1.522-2.048,2.79-4.267,4.2-6.395,2.892-4.372,5.958-8.628,8.964-12.921-.244,2.834-.385,5.675-.407,8.5a37.5,37.5,0,0,1-3.131,3.693,30.58,30.58,0,0,0-5.035,6.395c-1.58,2.675-3.473,5.134-5.051,7.812-1.143,1.938-2.887,4.023-3.3,6.3-.236-5.615-.018-11.277-.06-16.892-.012-1.675.459-4.065-.321-5.679a8.677,8.677,0,0,0,2.89.082,2.873,2.873,0,0,0,1.414-.765c-.335.471-.664.944-1,1.414-1.292,1.789-3.127,4.124-2.916,6.463.019.213.341.364.451.123,2.309-5.048,5.621-9.347,8.708-13.971,2.777-4.161,5.668-8.242,8.808-12.129Q735.3,688.406,734.938,692.193Zm2.131-14.238c-.349,1.711-.66,3.457-.95,5.216a158.871,158.871,0,0,0-9.829,13.2c-1.275,1.886-2.569,3.747-3.879,5.6a9.976,9.976,0,0,0,.638-4.03c.03-1.229.036-2.46.037-3.693q.367-.59.734-1.186a64.635,64.635,0,0,1,6.25-7.867c2.007-2.365,3.949-4.8,5.848-7.251.578-.748,1.123-1.525,1.67-2.3C737.4,676.419,737.223,677.193,737.069,677.955Zm.929-3.912c-.572.756-1.131,1.527-1.7,2.3-2.115,2.862-4.423,5.639-6.759,8.32a66.235,66.235,0,0,0-5.361,6.211c-.377.559-.738,1.125-1.1,1.692-.015-2.3-.055-4.6-.092-6.9.551-.9,1.009-1.879,1.632-2.724,1.782-2.422,3.939-4.616,5.865-6.929,3.5-4.2,7.071-8.309,10.871-12.232A104.3,104.3,0,0,0,738,674.043Zm-19.8,61.6.092-.071a.269.269,0,0,0-.059-.483,84.379,84.379,0,0,1,4.023-7.742c1.966-2.942,3.8-5.964,5.77-8.9,1.729-2.576,3.643-5.04,5.457-7.557.383-.531.794-1.063,1.19-1.607.052.692.086,1.39.156,2.075.165,1.623.337,3.21.527,4.781-.948,1.8-2.588,3.514-3.48,5.079a79.926,79.926,0,0,1-5.941,8.266c-2.507,3.324-5.427,6.671-7.775,10.284Q718.2,737.706,718.2,735.643Zm20.879-19.714.013.024-.006.022Zm.169-6.151c.692-1.231,1.245-2.523,1.944-3.741a28.135,28.135,0,0,0,1.566,3.527.35.35,0,0,0-.215.108,13.508,13.508,0,0,0-2.064,2.851C740.057,711.626,739.649,710.707,739.244,709.778Zm3.848.446.007-.012q.666,1.2,1.5,2.438c-.569,1.064-1.282,2.065-1.835,3.135-.112.216-.235.439-.36.665-.508-.974-.994-1.963-1.472-2.965A11.394,11.394,0,0,1,743.092,710.224Zm-4.052-14.434a47.315,47.315,0,0,0,1.88,9.469c-.754,1.191-1.36,2.466-2.026,3.712-.066-.154-.133-.3-.2-.458a.535.535,0,0,0-.276-.289c-.182-5.769.259-11.444.128-17.219a48.759,48.759,0,0,1,.934-10.565.36.36,0,0,0,.069-.291,11.114,11.114,0,0,0,1.628-1.7C740.751,681.711,738.87,694.347,739.039,695.789Zm3.222-24.5c-.512,1.152-.95,2.422-1.464,3.631.5-1.808,1.072-3.633,1.686-5.515a96.82,96.82,0,0,1,3.849-10.075C746.274,663.221,743.229,669.11,742.261,671.285ZM721.67,632.173c4.744,1.438,9.911,2.593,14.267,4.813,2.572,1.312,4.984,3,7.426,4.521a41.088,41.088,0,0,0-7,6.4,47.179,47.179,0,0,1-4.335,4.648,4.642,4.642,0,0,0-1.776,2.989c-.027.259.389.309.45.061.451-1.834,2.176-2.734,3.436-3.926a50.842,50.842,0,0,0,3.33-4.041,41.669,41.669,0,0,1,6.434-5.8,40.866,40.866,0,0,1,3.692,2.1c-1.234,1.214-2.54,2.015-3.678,3.363a19.423,19.423,0,0,1-2.775,2.379c-.89.73-1.5,1.722-2.309,2.531-1.8,1.791-3.847,3.341-5.653,5.143a66.819,66.819,0,0,0-5.054,5.986.255.255,0,0,0,.361.361c1.835-1.608,3.161-3.73,4.876-5.469,1.905-1.932,4.08-3.593,5.974-5.518.709-.72,1.229-1.628,1.969-2.315.775-.72,1.818-1.093,2.533-1.889a25.785,25.785,0,0,1,1.994-2.629c.709-.621,1.435-1.024,2.088-1.7a4.935,4.935,0,0,1,.466.442c3.254,3.532-.508,5.749-2.237,8.609-.5.826-.961,1.705-1.4,2.6-2.588,2.3-5.251,4.532-7.646,7.033-2.533,2.647-4.535,5.738-6.962,8.478a25.309,25.309,0,0,1-2.812,2.638c-.037-1.254-.2-2.554-.33-3.827,1.261-1.524,2.278-3.274,3.611-4.737,1.978-2.172,4.357-3.932,6.36-6.082,3.905-4.187,8.53-7.54,12.559-11.592a.259.259,0,0,0-.367-.366c-4.19,4.113-8.883,7.6-12.974,11.827-1.935,2-4.2,3.657-6.086,5.7a40.621,40.621,0,0,0-3.211,4.084c-.031-.391-.055-.779-.063-1.158-.079-3.4.048-6.83-.148-10.217-.325-5.638-.851-16.273-8.324-13.424-.082-.5-.178-1-.286-1.49a3.926,3.926,0,0,0,3.678-2.413A10.013,10.013,0,0,0,721.67,632.173Zm-6.138-1.94a3.6,3.6,0,0,1,4.1,2.214,8.22,8.22,0,0,1,.9,5.735c-.234.842-1.106,2.931-2.45,2.384-1.29-.525-.564-1.838-.382-2.613.422-1.8.708-4.535-.06-6.283a2.02,2.02,0,0,0-2.155-1.379Zm-1.178,1.47c2.992.654,1.469,4.014,1.06,6.758-3.012-1.146-7.975-1.272-10.064,1.19a7.772,7.772,0,0,1-.345-2.554c0-.038,0-.059,0-.094a6.8,6.8,0,0,0,5.913-2.117,1.517,1.517,0,0,0,.469-.853,1.3,1.3,0,0,0,1.036-.362C713.028,633.092,713.708,632.425,714.355,631.7ZM608.066,612.13q3.174-11.782,7.394-23.214c1.369-3.685,2.063-7.531,3.33-11.227,1.425-4.152,3.874-8.045,5.83-11.912,2.763-5.464,5.111-11.086,8.314-16.381,4.428-7.319,8.7-15.395,16.835-19.072,10.394-4.7,20.4.834,26.632,9.346a153.106,153.106,0,0,1,13.4,21.9c3.923,7.795,5.939,16.719,8.792,24.928,2.477,7.132,4.686,14.22,7.486,21.271,1.545,3.892,3.213,7.689,4.834,11.549.861,2.049,2.5,4.673,2.306,6.99-.168,1.942-1.828,4.038-2.981,5.683a1.367,1.367,0,0,0-.161.313,1.559,1.559,0,0,0-1.381.368c-5.7,4.9-7.609-5.536-8.577-8.879-1.261-4.352-3.04-8.442-4.057-12.838-2.1-9.069-5.252-17.8-7.135-26.962-1.726-8.406-5.022-16.806-7.943-24.871-2.231-6.16-5.4-13.76-9.914-18.584-3.6-3.847-9.869-7.586-15.317-6.785-6.659.979-12.349,6.679-15.369,12.378-3.827,7.221-6.581,15.516-8.749,23.359-2.591,9.373-5.416,18.683-8.2,27.994-1.558,5.22-2.779,10.534-4.1,15.82-1.1,4.384-3.1,8.452-4.41,12.752-.447,1.466-.9,2.94-1.388,4.392a1.352,1.352,0,0,0-.691,1.775c-.816,1.624-1.763,1.729-3.967,1.727-.7,0-7.024-.939-7.585-2.19C605.148,626.26,606.359,618.468,608.066,612.13Zm93.679,23.353a7.16,7.16,0,0,0,1.931,1.145c-.4,1.465.391,3.191.221,4.635-.081-.024-.152-.055-.242-.075-1.2-.262-1.974.328-2.163-1.282a12.955,12.955,0,0,1,.285-3.193A4.111,4.111,0,0,0,701.745,635.483Zm-48.188,2.979a1.056,1.056,0,0,0-.233.415c-1.443-.205-2.827.322-4.531.427-5.07.312-10.144-1.232-14.8-3.029-5.855-2.259-10.982-5.389-17.116-5.926.948-2.7,1.719-5.551,2.677-8.207,3.041-8.43,4.431-17.321,7.3-25.8,3.564-10.543,5.556-21.636,9.633-32.006,3.424-8.709,5.125-18.062,12.509-24.531,9.584-8.4,20.4-.674,24.792,9.182,7.7,17.269,12.273,35.187,16.392,53.59a233.381,233.381,0,0,0,8.353,27.529.717.717,0,0,0-.142-.016c-5.736.361-11.883,2.248-17.322,4.014-4.868,1.579-9.83,2.546-14.6,4.316C664.547,636.011,655.32,636.542,653.557,638.462Zm-43.7,29.182a2.634,2.634,0,0,0-1.52-2.577c-1.129-.648-3.12-.239-4.331-.208-2.672.069-5.437-.206-8.069.276a.857.857,0,0,0-.608.607,16.579,16.579,0,0,0-.6,3.311l-.007.009a51.482,51.482,0,0,0-1.621,8.661c-2.045.763-2.822.3-2.3-1.41-.469-1.337-.069-4.017-.057-5.476.051-6.133-.691-19.808,4.819-24.2-.063,1.77-.63,4.805.634,6.118,1.282,1.332,3.677.463,5.292.772,2.093.4,4.92.955,7.037.547,1.658-.32,2.325-1.751,2.383-3.318a29.874,29.874,0,0,0-.181-4.078.848.848,0,0,0,.891-.451c.457-.773,2.662,1.677,3.036,2.522a9.963,9.963,0,0,1,.429,3.571c.066,1.8-.112,3.6-.112,5.4a89.4,89.4,0,0,1-.528,9.774c-.143,1.32-.744,12.453-4.933,9.415a.4.4,0,0,0-.053-.04c-.081-.061-.161-.116-.244-.187C607.459,675.2,610.045,669.525,609.857,667.644ZM606.9,697.322c-2.633-.5-4.395-2.815-6.2-4.827-2.056-2.287-4.553-4.88-5.764-7.806.064-1.593.148-3.193.24-4.8a5.339,5.339,0,0,0,.7-1.3c1.019-2.735-1.508-9.47.516-11.076,1.686-1.337,4.849-.634,6.814-.625q1.241.052,2.48-.014,2.457.954,1.337,2.76c.476,2.887-1.936,9.742,1.373,11.346a38.629,38.629,0,0,1-.415,5.823,49.838,49.838,0,0,0-1.2,7.38C606.765,694.81,606.9,696.1,606.9,697.322Zm-12.088-9.664c.178.356.364.7.528,1.014,1.29,2.484,3.386,4.373,5.09,6.556,1.23,1.575,3.868,4.056,6.21,4.169a1.416,1.416,0,0,1-.245.434c-1.053,1.165-2.72.427-3.95.6-1.3.189-7.177,1.746-8.126.59-.432-.526.224-4.724.193-5.649C594.429,692.774,594.686,690.233,594.812,687.658Zm2.844-44.682.005-.007a3.039,3.039,0,0,0,.905-.485,3.89,3.89,0,0,0,.649.024,48.167,48.167,0,0,0,9.087-1.648,1.007,1.007,0,0,0-.165.536c-.033,1.987.309,3.936.425,5.915a18.365,18.365,0,0,1,.12,2.605,2.033,2.033,0,0,1-.84,1.994c-.3-.021-.594-.05-.89-.087-2.053.226-3.985-.4-5.981-.6-1.007-.1-2.847.625-3.33-.539a15.265,15.265,0,0,1,.086-2.219c.015-1.078.014-2.16.008-3.238A20.489,20.489,0,0,1,597.656,642.976Zm16.351.493a6.428,6.428,0,0,1-2.513-.129c-1.242-.682-.424-1.863-.143-2.824a17.289,17.289,0,0,0,.594-3.193,1.494,1.494,0,0,0,.2-.016,4.238,4.238,0,0,0,2.577-2.112c.15.574.341,1.148.484,1.725C615.571,638.385,616.03,642.657,614.007,643.469Zm-12.89-9.476A10.575,10.575,0,0,0,604.5,636.2c1.609.584,2.705.332,4.387.485.718.065,1.753.514,2.609.62a25.98,25.98,0,0,1-1.25,4.178c-.016.044-.032.09-.047.135-.006-.076-.014-.151-.019-.227a1.009,1.009,0,0,0-.664-.911c.286-.1.576-.189.851-.291a.451.451,0,0,0,0-.861c-2.609-.962-4.845-.352-7.488.085-.962.16-1.929.3-2.894.431a10.183,10.183,0,0,0,.1-1.983,6.073,6.073,0,0,1,.618-3.2A4.311,4.311,0,0,1,601.117,633.993Zm-4.859,4.4a11.617,11.617,0,0,0,.261-2.245c.156-2.781.786-5.286,3.736-5.921-.139.28-.266.573-.416.842a.7.7,0,0,0-.149.327l-.015.089a.693.693,0,0,0-.014.079c-.031.183-.064.367-.1.551a.921.921,0,0,0,.4.987c.04.028.073.056.113.083-2.292,1.476-.43,4.713-1.743,6.877-.106.012-.211.028-.317.041a6.546,6.546,0,0,0-1.347.2c-.016-.022-.029-.038-.047-.062C595.851,639.128,596.006,639.4,596.258,638.389ZM565.6,661.49c.328-1.638,1.176-3.42,1.617-5.174.453.713.879,1.442,1.294,2.177a54.947,54.947,0,0,0-1.667,5.838c-.121.454-.677,1.5-.96,2.45a5.842,5.842,0,0,0-.9-.217,8.626,8.626,0,0,0-1.113-.1C565.05,665.2,565.277,663.118,565.6,661.49Zm10.731,35.949a88.489,88.489,0,0,1-1.717,17.333c-.572,2.8-1.18,5.58-1.8,8.361a21.582,21.582,0,0,0-1.554-3.4c2.539-5.483,3.2-11.332,4.188-17.249C575.725,700.838,576.032,699.15,576.333,697.44Zm-.6-11.506c-1.885,1.721-2.677,4.471-3.925,6.651-.052.089-.112.184-.167.276.155-1.524.339-3.031.542-4.529.173-.29.335-.584.479-.888.555-1.177.9-2.444,1.533-3.586A19.017,19.017,0,0,0,575.248,682Q575.523,683.961,575.734,685.934Zm-.756-5.077c-.208,1.475-1.239,2.58-1.855,3.9-.231.492-.439.972-.646,1.449.354-2.367.758-4.719,1.2-7.089.172-.909.381-1.975.571-3.1.3,1.559.567,3.132.808,4.711A.206.206,0,0,0,574.978,680.857Zm-4.037-.876a88.942,88.942,0,0,0-1.515,11.352,4.725,4.725,0,0,0-.89,3.429c.042.22.352.148.367-.05a5.9,5.9,0,0,1,.37-1.578A75.159,75.159,0,0,1,567.6,706.1c-.854,3.29-2.208,6.4-2.4,9.828a.437.437,0,0,0,.808.219,36.981,36.981,0,0,0,2.627-6.042c.724-1.34,1.5-2.648,2.2-4a5.278,5.278,0,0,0,.87-3.436.09.09,0,0,0-.176.024c.069,1.826-1.051,3.337-2.121,4.84a62.04,62.04,0,0,0,1.517-8.073c.133-.249.265-.5.39-.748a17.825,17.825,0,0,1,2.7-4.5c.273-.29-.161-.727-.439-.439a14.8,14.8,0,0,0-2.406,3.646q.154-1.378.292-2.783c.42-.878.858-1.771,1.256-2.495,1.015-1.84,1.622-4.1,3.083-5.634q.189,1.881.314,3.769c-.716,4.227-1.541,8.448-2.432,12.585-.624,2.9-1.005,6-1.711,8.851-.11.445-.99,4.38-1.624,6.643a4.444,4.444,0,0,0-3.5-1.84c-1.412,0-3.083.457-3.376,2a.588.588,0,0,0,.025.31,6.984,6.984,0,0,0-1.864,3.495c-.048-2.046-.081-4.09-.078-6.127a100.911,100.911,0,0,1,1.038-16.356,25.873,25.873,0,0,0,.5-8.453,1.366,1.366,0,0,0-.97-.97c-.291-.082-.6-.158-.92-.229,3.249-5.241,10.521-18.448,6.237-22.5a21.976,21.976,0,0,0,1.3-4.6c.219-.992.409-1.988.61-2.983a37.53,37.53,0,0,1,2.749,6.9c.292,1.034.566,2.078.83,3.129C572.459,673.192,571.077,679.356,570.941,679.981Zm-4.813,43.895a5.285,5.285,0,0,0-1.387-.09c-.778.076-1.272.76-1.439-.463-.172-1.255,1.369-3.519,2.167-4.291a.509.509,0,0,0,.043-.663,4.13,4.13,0,0,1,2.042.331c-.022.682.4,1.439.377,2.172a33.465,33.465,0,0,0,.134,3.673A5.505,5.505,0,0,0,566.128,723.876Zm-.249,6.145c-1.377.546-2.862-.836-3.757-1.873a.35.35,0,0,0-.276-.111q-.06-1.259-.106-2.517c.011.021.017.048.029.068a.911.911,0,0,0,.791.454c1.612-.032,3.671-1.035,4.687.646A2.474,2.474,0,0,1,565.879,730.021Zm-5.284-59.227c5.233-5.908,6.767,1.267,5.23,5.087-.769,1.911-1.621,3.9-2.462,5.76-1.246,2.755-2.777,5.356-3.824,8.182-.032-.491-.067-1-.056-1.579.006-.289.021-.589.043-.9a.294.294,0,0,0,.271.006c2.017-1.139,2.261-4.962,2.888-6.974.946-3.028,1.836-5.916,1.684-9.017.083-.188.171-.372.25-.564.024-.059-.061-.126-.112-.086s-.11.1-.169.141c-.035-.4-.079-.8-.152-1.214a.193.193,0,0,0-.369,0c-.136.67-.261,1.324-.387,1.977-2.5,2.285-3.678,4.944-4.4,8.473-.636,3.121-1.442,6.525-.992,9.708-.221-.005-.443-.015-.665-.009C558.457,683.925,556.384,675.55,560.595,670.794Zm-.958,15.362c.216-1.934.616-4.045.918-5.651a22.068,22.068,0,0,1,2.3-6.034,42.467,42.467,0,0,1-1.345,5.017C560.758,681.673,560.325,683.97,559.636,686.156Zm.737,65.344c-5.389-8.235-6.159-18.7-6.9-28.239-.3-3.882-.867-7.675-.8-11.581.046-2.88.5-6.07.278-9.014a5.012,5.012,0,0,0,2.888,1.178c1.236.1,1.252-1.883,0-1.938-1.339-.059-3.044-3.747-3.1-4.864-.044-.946-.441.519.4-2.223.8-2.594.741-2.169,2.971-2.326a6.285,6.285,0,0,1,2.833.277.234.234,0,0,0,.06.028c1.074.494,1.551,1.589,1.344,3.708-.818,8.373-1.925,16.675-1.456,25.144.466,8.433.707,16.753,1.747,25.14a24.573,24.573,0,0,0,2.062,7.631A19.756,19.756,0,0,1,560.373,751.5Zm2.84-6.988c-.561-4.5-.961-9.052-1.232-13.614a3.8,3.8,0,0,0,1.474,1.111c-.041,1.727-.584,3.926-.607,5.162a26.251,26.251,0,0,0,.959,7.344c.5,1.846.965,5.612,3.089,6.328a21.35,21.35,0,0,0,.142,4.273C564.47,752.82,563.747,748.8,563.213,744.512Zm4.064,3.01a27.626,27.626,0,0,1-2.256-9.664,39.478,39.478,0,0,0-.151-5.5,4.234,4.234,0,0,0,.987-.031c2.057-.323,3.65-2.7,3.78-4.676a3.664,3.664,0,0,0-.171-1.424c.66-.908.479-2.653.476-3.678,0-.256.014-.518.034-.781.157.412.3.816.438,1.176a24.863,24.863,0,0,1,1.232,4.45,2.661,2.661,0,0,0,.128.373q-1.247,5.437-2.545,10.873C568.568,741.416,567.762,744.457,567.277,747.522Zm6.711-13.565c1.677-7.028,3.395-14.016,4.973-21.058,1.507-6.727,1.162-12.951.683-19.761-.41-5.81-.491-11.455-2.013-17.11a114.552,114.552,0,0,0-5.84-17.451,39.307,39.307,0,0,0-3.806-7.05c-1.675-2.287-7.6-6.026-4.512-9.846,2.231-2.759,8.187-3.664,11.344-4.7,3.387-1.11,6.9-2.307,10.374-3.1,2.054-.466,4.248-.484,6.277-1.036a35.95,35.95,0,0,0,4.583-1.658,7.859,7.859,0,0,0-.613,1.362c-.641,1.854-.521,3.784-1.005,5.658-.316,1.227-.734,2.2-.131,3.417a2.694,2.694,0,0,0,1.059,1.15,17.148,17.148,0,0,0,.122,2.3c-5.147,1.388-5.242,5.876-5.877,11.413-.464,4.05-.892,8.053-1.227,12.1-.232,2.792-1.094,7.906-.157,10.568.866,2.461,2.785,3.093,4.527,2.528-.254,3.606-.366,7.216-.553,10.608-.109,1.96.227,3.953.044,5.913-.048.509-.834,2.7-.541,3.522.563,1.566,1.133,1.546,2.759,1.829a19.092,19.092,0,0,0,4.524-.031c-.709,2.328-1.93,12.591-1.971,13.332-.334,6-.7,11.938-.522,17.952.031,1.031,1.473.747,1.4-.036.169-5.687.4-11.34.64-17.023.206-4.835,1.344-9.508,1.658-14.27,1.9.013,4.329.335,5.873-.133,1.77-.537,2.224-.991,2.858-2.827a14.9,14.9,0,0,0,.4-4.712,63.281,63.281,0,0,1,.766-8.43,29.785,29.785,0,0,0,.126-6.069c6.26-.136,6.431-9.494,6.875-13.815.334-3.252,2.572-19.347-1.933-23.086,1.009-.728,1.419-2.228,1.7-3.459a14.444,14.444,0,0,0-.761-7.059c1.731.457,3.6.592,5.374,1.12,4.3,1.275,8.334,3.088,12.575,4.539,4.666,1.6,10.527,2.98,15.774,2.189-11.537,8.122-18.51,21.467-24.259,34.3-3.821,8.531-7.7,17.086-11.523,25.65-1.874,4.2-3.946,8.316-5.813,12.5-1.965,4.4-3.231,8.89-5.6,13.2-5.1,9.291-10.286,18.053-18.532,24.821-3.326,2.729-6.358,4.774-10.685,4.872a12.345,12.345,0,0,1-2.853-.247C568.9,749.615,572.322,740.935,573.988,733.957ZM586,758.854a21.058,21.058,0,0,1-13.746,1.068c5.3.083,8.96-1.772,13.572-5.461,6.6-5.276,10.836-10.67,15.141-17.948,9.355-15.814,14.921-33.21,22.7-49.827,3.987-8.515,7.29-17.385,12.279-25.389,3.02-4.843,5.422-9.669,9.627-13.668a100.8,100.8,0,0,1,8.015-6.913c.365-.151.723-.322,1.074-.5a1.033,1.033,0,0,0,.185-.067c1.913-1.1,4.471-.891,6.6-.741,3.538.252,2.472-.36-.063,1.255a28.815,28.815,0,0,0-9.239,9.553c-.163.267-.32.538-.482.806a22.756,22.756,0,0,1-3.957,2.945c-.146.076-.044.332.115.271a13.566,13.566,0,0,0,2.871-1.588c-1.168,1.944-2.333,3.889-3.478,5.845-1.038.679-2.074,1.365-3.116,2.029a.115.115,0,0,0,.116.2c.81-.361,1.612-.77,2.408-1.2q-1.3,2.234-2.579,4.48c-.724.506-1.45,1.011-2.168,1.518a.209.209,0,0,0,.161.381,6.287,6.287,0,0,0,1.193-.483c-3.025,5.357-5.947,10.773-8.716,16.278-3.056,6.074-6.307,12.055-9.215,18.216-2.736,5.8-6.534,11.025-9.51,16.705-2.808,5.357-5.919,10.205-9.177,15.274-1.834,2.854-3.369,5.89-5.292,8.688a16.8,16.8,0,0,0-1.105,1.875c-1.043,1.628-1.63,3.539-2.484,5.139-.141.073.019.213.019.441v.019c-1.016.141-.428.3-.507.433A24.119,24.119,0,0,1,586,758.854Zm5.033.112c-.007-.012-.018-.016-.024-.029a1.136,1.136,0,0,0-.275-.315,22.382,22.382,0,0,0,5.277-4.9,23.726,23.726,0,0,0,1.426-2.109c.009.273.021.548.009.826a6.654,6.654,0,0,0,.252,2.055,20.232,20.232,0,0,1-4.469,3.8c-.007,0-.006.011-.012.015A14.992,14.992,0,0,0,591.038,758.966Zm123.819,1.282a76.141,76.141,0,0,1-7.7-.223c-4.63-.426-9.1-.378-13.665-.413a18.131,18.131,0,0,1,1.66-1.657,14.646,14.646,0,0,0,2.532-2.656c2.412-3.314,5.441-6,8.333-8.883a.281.281,0,0,0-.4-.4c-2.7,2.64-5.655,5.108-8,8.08a17.371,17.371,0,0,1-1.6,2.223c-.759.783-1.878,1.2-2.627,1.95a8.184,8.184,0,0,0-1.023,1.328c-1.057-.012-2.117-.029-3.188-.062-.525-.016-1.052-.014-1.577-.025a49.644,49.644,0,0,1,3.494-3.892c2.52-2.65,4.388-5.84,6.95-8.471.263-.271-.148-.684-.415-.416-2.491,2.507-4.334,5.511-6.732,8.079-1.061,1.137-2.287,2.108-3.261,3.326-.078.1-.537.7-1.053,1.357q-2.826-.046-5.657-.039c2.03-1.237,3.465-3.612,5.152-5.17a42,42,0,0,0,4.508-4.2c1.147-1.412,2.165-2.929,3.217-4.412.276-.389-.364-.755-.639-.373a43.982,43.982,0,0,1-7.327,8.115c-2.3,1.969-3.994,4.282-6.461,6.045-4.338.031-8.679.1-13.008.062-.458,0-.917-.02-1.375-.027a19.11,19.11,0,0,0,1.989-2.236c2.325-2.675,4.717-5.333,7.123-7.938.256-.276-.158-.692-.415-.415-2.009,2.164-3.879,4.454-5.907,6.6-.5.527-4.181,4.907-4.636,3.728a.137.137,0,0,0-.267.036l-.008.184q-4-.1-8.007-.286a30.16,30.16,0,0,0,2.939-2.778c1.354-1.239,2.919-2.158,4.181-3.5,2.885-3.075,5.553-6.327,8.493-9.369a.294.294,0,0,0-.416-.414c-2.872,2.712-5.4,5.646-8.015,8.6a27.318,27.318,0,0,1-3.885,3.314c-.421.327-3.7,3.169-3.6,3.385a.291.291,0,0,0-.539.145l.037.479a.392.392,0,0,0,.036.109c-1.065-.051-2.129-.1-3.193-.153.934-1.018,1.869-2.035,2.774-3.074,3.739-4.286,7.3-8.792,10.947-13.162.18-.216-.116-.524-.312-.313-3.213,3.46-6.356,7-9.364,10.644-1.406,1.7-2.9,3.236-4.4,4.849-.3.321-.576.659-.857.994q-2.927-.151-5.855-.3a35.284,35.284,0,0,1,2.462-3.079c3.085-3.193,6.025-6.5,9-9.8.315-.349-.2-.866-.516-.517-2.547,2.783-5.023,5.635-7.665,8.328-1.253,1.277-2.521,2.525-3.671,3.9-.288.343-.569.72-.854,1.1q-2.55-.122-5.1-.217c1.636-1.138,2.849-3.566,3.729-4.926,1.25-1.933,3.06-3.242,4.467-5.033,1.563-1.988,2.8-4.377,5.163-5.518.375-.181.048-.736-.326-.558-3.314,1.573-5.045,5.444-7.671,7.865A17.781,17.781,0,0,0,640,753.758c-.341.525-4,5.573-4.3,3.341a.248.248,0,0,0-.485-.066c-.239.78-.247.629-.161,1.239-1.3-.039-2.59-.072-3.887-.091,1.6-1.15,3.006-3.366,3.955-4.448,3.63-4.137,7.432-8.019,10.714-12.46.2-.274-.253-.53-.455-.265a145.169,145.169,0,0,1-10.239,11.468c-.636.674-5.751,6.222-6.121,5.269-.117-.3-.786-.282-.786.08v.342s-1.05-.015-1.672-.01c-.98.006-1.863-.013-2.843-.045.17-.184.391-.371.58-.557,1.313-1.3,2.821-2.348,4.067-3.723,2.8-3.092,5.439-6.274,8.1-9.493.341-.415-.241-1.013-.589-.6-2.377,2.853-4.687,5.777-7.229,8.479a44.666,44.666,0,0,1-3.684,3.565,31.819,31.819,0,0,0-2.3,2.28c-1.953-.081-3.906-.2-5.86-.318a27.776,27.776,0,0,0,2.617-2.847c3.665-4.082,7.4-8.106,11.26-12a.434.434,0,0,0-.614-.614c-3,3.011-5.912,6.1-8.789,9.228-1.3,1.412-3.563,4.733-5.8,6.167-1.627-.086-3.254-.146-4.883-.156.278-.266.553-.553.856-.887,1.251-1.381,2.628-2.6,3.926-3.939a93.087,93.087,0,0,0,7.389-8.438c.335-.441-.409-.866-.741-.433a100.265,100.265,0,0,1-6.986,7.922c-.894.941-1.889,1.78-2.814,2.69-.2.194-2.191,2.387-3.041,3.08-.85.013-1.7.044-2.552.1-.888.056-1.744.135-2.586.216a9.538,9.538,0,0,0,1.149-1.083,37.989,37.989,0,0,0,3.372-4.526c2.844-4.426,6.518-8.106,9.761-12.246.317-.4-.25-.981-.571-.571-2.876,3.668-6.5,6.921-8.994,10.863a46.674,46.674,0,0,1-4.145,5.9,13.1,13.1,0,0,1-2.121,1.8l-.141.013a12.324,12.324,0,0,0,1.149-1.544,34.96,34.96,0,0,1,3.187-4.891c.3-.352-.2-.863-.511-.511a32.8,32.8,0,0,0-3.218,4.74c-.458.757-1.113,1.5-1.647,2.285a29.108,29.108,0,0,1-3.995.038,19.417,19.417,0,0,0-2.16-.037,13.03,13.03,0,0,0,2.9-2.484c.074.2.15.4.231.606-.223.266-.448.531-.668.8-.125.155.083.375.223.223.212-.233.426-.463.639-.7a.466.466,0,0,0,.767-.072,2.482,2.482,0,0,0,.291-1.08,49.39,49.39,0,0,0,4.952-6.1,45.685,45.685,0,0,0,6.559-5.684c.309-.356-.192-.871-.523-.522-2.789,2.934-6.224,5.036-9.221,7.726-.758.681-1.457,1.405-2.142,2.138-.008-.065-.019-.127-.025-.193a22.14,22.14,0,0,0-.565-3.02,52.264,52.264,0,0,1,4.158-3.6c1.45-1.106,2.712-2.329,4.067-3.538,1.606-1.436,3.423-2.561,4.971-4.07.333-.325-.178-.835-.511-.511-3.694,3.6-7.862,6.611-11.776,9.922.242-.463.488-.929.73-1.387.364-.689.734-1.7,1.137-2.7a22.427,22.427,0,0,0,2.308-1.737c1.53-1.15,2.973-2.312,4.435-3.556,3.3-2.809,7.1-4.963,10.185-8.03a.331.331,0,0,0-.469-.468c-2.673,2.62-5.87,4.5-8.8,6.791-1.687,1.317-3.229,2.791-4.958,4.06-.46.338-.954.758-1.465,1.177.3-.375.61-.74.9-1.125a63.1,63.1,0,0,0,3.554-5.414.187.187,0,0,0,.124.049c1.118-.044,1.733-.8,2.47-1.571,1.417-1.485,3.289-1.849,4.863-3.085,1.629-1.28,2.874-3.055,4.478-4.4a49.169,49.169,0,0,1,6.48-4.685.31.31,0,0,0-.313-.535,42.166,42.166,0,0,0-9.291,7.209,13.2,13.2,0,0,1-2.428,2.321c-.935.588-2.084.795-2.982,1.444-1.092.791-1.743,2.415-3.12,2.794.9-1.468,1.8-2.932,2.812-4.316a112.311,112.311,0,0,0,6.988-11.232.246.246,0,0,0,.265.117c3.094-.671,4.895-3.653,7.371-5.37,1.515-1.051,3.228-1.769,4.681-2.919a37.089,37.089,0,0,0,3.375-3.3.37.37,0,0,0-.523-.522,29.055,29.055,0,0,1-4,3.693c-1.389.951-2.952,1.617-4.325,2.593-2.312,1.644-4.133,3.735-6.573,5.233,1.216-2.158,2.428-4.323,3.7-6.459.2-.333.382-.676.578-1.011a4.062,4.062,0,0,0-.2.509.21.21,0,0,0,.381.161c1.72-2.417,4.427-4.441,6.734-6.323,2.528-2.066,5.312-3.786,7.795-5.913.279-.239-.125-.638-.4-.4-2.831,2.4-6.088,4.24-8.882,6.686-1.376,1.205-3.457,2.425-4.7,4.015q1.855-3.23,3.6-6.528c1.63-.986,2.994-2.834,4.34-4,2.857-2.464,5.585-5.06,8.24-7.739a.306.306,0,0,0-.433-.433q-3.448,3.462-7.154,6.652c-1.346,1.164-2.653,2.434-4,3.638,2.313-4.457,4.535-8.965,6.8-13.451l.223.022a.274.274,0,0,0,.137-.507,24.92,24.92,0,0,1,2.491-2.093A24.586,24.586,0,0,1,638,688.74c-.758.638-1.506,1.289-2.223,1.974-.953.914-1.728,2.014-2.727,2.88-1.026.889-2.069,1.352-2.847,2.467-.114.163.115.4.278.278a50.583,50.583,0,0,0,5.751-5.17c.648-.637,1.323-1.246,2.01-1.841a15.333,15.333,0,0,0,3.708,6.041A16.373,16.373,0,0,0,652,699.558c7.572.767,16.968-.808,22.143-6.778a.344.344,0,0,0-.487-.487c-2.872,2.585-6.171,2.938-9.663,3.735.49-2.366,1.781-4.285,2.877-6.419a49.157,49.157,0,0,1,2.824-5.06c4.021-2.488,7.124-4.742,10.156-8.737a74.579,74.579,0,0,0,5.848-8.45c1.8-3.166,3.378-7.34,5.746-10.054.161-.184-.095-.446-.27-.27-4.506,4.488-7.13,10.96-11.341,15.789-1.864,2.137-3.458,4.489-5.587,6.379-2.154,1.91-4.767,3.2-6.765,5.281a.615.615,0,0,0,.742.961l.271-.166c-.951,1.533-1.769,3.151-2.636,4.762-.969,1.8-2.8,3.924-2.33,6.092-.1.024-.2.045-.3.07a37.19,37.19,0,0,1-5.764.959c1.9-3.146,3.446-6.538,5.4-9.66s4.694-5.964,6.179-9.352c.127-.291-.3-.548-.433-.253-1.591,3.446-4.55,6.439-6.6,9.66-1.911,3-4.192,6.248-5.39,9.67a28.918,28.918,0,0,1-3.486.006l.006-.011a42.275,42.275,0,0,1,2.983-5.815,125.994,125.994,0,0,0,8.7-14.629c.228-.464-.463-.874-.7-.407a136.661,136.661,0,0,1-7.284,12.21c-1.134,1.77-2.521,3.459-3.486,5.327-.494.954-.676,2.278-1.259,3.237a20.65,20.65,0,0,1-2.833-.468c-4.554-1.128-7.644-4.381-9.839-8.347,1.674-1.4,3.375-2.776,4.931-4.309.25-.246-.134-.629-.384-.384-1.522,1.489-3.184,2.814-4.827,4.159-.632-1.261-.8-1.991-1.687-2.594l.137-.11c1.628-1.323,2.931-2.959,4.572-4.288a62.951,62.951,0,0,0,7.854-7.8.076.076,0,0,0-.108-.108c-1.613,1.419-3.056,3.02-4.622,4.489-1.536,1.442-3.278,2.594-4.881,3.951-1.32,1.117-2.373,2.39-3.716,3.456-.089-.04-.161-.079-.261-.119-.207-.082-.4.2-.288.375.026.041.05.082.076.123l-.018.015c-.43.3-.833.588-1.22.882,2.549-5,5.182-9.95,8.108-14.722.33-.54.642-1.089.965-1.632.841-.706,1.706-1.388,2.51-2.185a44.465,44.465,0,0,1,6.987-5.9c.69-.453,5.921-3.686,5.225-4.7a.123.123,0,0,0-.212.125c.258.575-4.249,3.312-4.513,3.478a34.926,34.926,0,0,0-5.556,3.914c-1.021.96-2,1.912-3.006,2.844q1.716-2.965,3.39-5.951c1.659-1.11,3.359-2.171,4.948-3.373,3.651-2.762,8.138-5.063,10.94-8.784.264-.35-.325-.688-.587-.343-2.777,3.657-7.443,6.126-11.123,8.8-1.146.832-2.315,1.648-3.477,2.469q1.032-1.823,2.086-3.632c1.69-1.108,3.351-2.247,4.983-3.314a38.119,38.119,0,0,0,9.544-8.345c.214-.276-.263-.648-.488-.376a45.669,45.669,0,0,1-10.518,8.806q-1.323.87-2.645,1.749c.407-.687.8-1.38,1.22-2.062a30.561,30.561,0,0,1,6.656-8.211c1.249-1.031,5.084-2.65,5.959-4.047.039-.061.062-.118.1-.178,5.029.292,11.02-1.995,15.426-3.369,5.2-1.621,12.975-1.771,17.174-5.386.015-.013.021-.031.036-.045a9.4,9.4,0,0,0,1.638,2.78c-.446,2.075-1.518,3.974-1.23,6.192A2.89,2.89,0,0,0,700.8,642.9c.83.5,2.2.033,2.877.632a1.092,1.092,0,0,0,.453.245c-.019.454-.016.918,0,1.381-3.017,1.029-5.826.442-6.524,4.888-.764,4.869.315,10.676.778,15.507.321,3.34-.481,22.183,7.179,16.2a.922.922,0,0,0-.405-1.534c-3.656-.679-3.814-4.472-3.985-7.991-.183-3.725-.225-7.434-.48-11.177-.341-5-2.105-10.4,2.644-13.653a7.179,7.179,0,0,1,.881-.508c.069.94.157,1.844.213,2.636a22.633,22.633,0,0,0,.564,4.678,3.615,3.615,0,0,0,.539,1.038.4.4,0,0,0-.359.28,36.856,36.856,0,0,0-.651,15.449,1.036,1.036,0,0,0,.747.747c.469.1.969.2,1.487.3.053,3.959-.929,12.721-.933,13.618a90.642,90.642,0,0,0,.969,13.786c.424,2.776.628,3.707,3.547,4.212a21.419,21.419,0,0,0,5.464-.17c-.067,2.046.1,10.93.1,11.6-.008,5.823.17,11.51.55,17.308a96.525,96.525,0,0,1,.1,10.1,25.888,25.888,0,0,0-1.621,3.653c-.125.361.42.573.607.255.3-.512.6-1.024.892-1.535q-.11,1.87-.266,3.74a12.512,12.512,0,0,0-1.207,2.626.307.307,0,0,0,.559.236c.151-.247.3-.486.457-.729C715.662,753.908,715.276,757.086,714.857,760.248Zm-115.348-5.514c-.03-.219-.072-.44-.123-.664.522-.609,1.041-1.207,1.577-1.75.619-.626,1.276-1.207,1.947-1.773C601.84,751.992,600.675,753.364,599.509,754.734Zm139.4-4.359a20.426,20.426,0,0,1-3.436,7.353,8.075,8.075,0,0,1-4.95,2.573c3.419-3.662,4.289-9.177,7.508-13.061.343-.413-.243-1.01-.6-.595-3.422,4.029-4.98,9.34-7.8,13.794-1.253.17-2.56.237-3.848.33-.111.008-.22.006-.33.011,1.184-2.452,2.4-4.839,3.8-7.191a49.9,49.9,0,0,1,2.923-4.3c-.773,1.331-1.536,2.665-2.246,4.014-.957,1.818-2.663,3.867-2.657,5.975a.3.3,0,0,0,.592.08,31.2,31.2,0,0,1,3.291-6.463c1.4-2.377,2.688-4.781,4.017-7.2a.374.374,0,0,0-.039-.437c.3-.447.608-.894.875-1.367a20.319,20.319,0,0,1,1.245-2.5c.276-.352-.212-.854-.5-.5-1.081,1.336-1.627,3.063-2.657,4.488-1.319,1.824-2.794,3.53-4.085,5.375a62.841,62.841,0,0,0-3.45,5.773c-.515.937-1.137,2.813-1.928,4.274-2.33-.022-4.6-.552-6.929-.561-.274,0-.533,0-.8,0q.185-2.166.357-4.331a.294.294,0,0,0,.445-.1c2.545-4.769,5.836-9.124,8.815-13.636,3.2-4.847,6.24-9.737,9.338-14.645.244-.385-.365-.738-.609-.356-3.225,5.033-6.465,10.008-9.791,14.978-1.513,2.262-2.971,4.544-4.581,6.739a23.066,23.066,0,0,0-3.53,5.836c.179-2.32.343-4.64.477-6.961.639-1.028,1.26-2.071,1.822-3.181a16.551,16.551,0,0,1,2.644-4.079,15.862,15.862,0,0,0,2.274-2.539c1.6-2.571,2.775-5.289,4.519-7.792,1.9-2.733,3.648-5.572,5.332-8.445a.362.362,0,0,0-.624-.365c-1.69,2.874-3.469,5.685-5.394,8.41-1.829,2.59-2.974,5.6-4.805,8.155-.843,1.174-2.069,1.995-2.934,3.158a21.254,21.254,0,0,0-1.795,3.04c-.275.539-.6,1.08-.938,1.624q.093-1.876.154-3.753c.988-1.673,2.008-3.325,3.152-4.928,2.225-3.12,4.615-6.12,6.871-9.219,1.968-2.7,3.586-5.527,5.422-8.3.606-.914,1.325-1.8,1.905-2.739a113.24,113.24,0,0,0,2.074,11.942c.231.983.427,1.957.6,2.927-4.307,4.312-6.75,10.1-10.681,14.683-.91,1.062-2.156,1.554-3.055,2.567a11.735,11.735,0,0,0-1.5,3.144c-.716,1.616-2.828,3.126-2.893,4.96a.417.417,0,0,0,.521.4c1.632-.3,2.7-2.452,2.849-3.969.014-.146-.237-.182-.258-.035a4.1,4.1,0,0,1-1.181,2.334c-.686.532-.584.275-.359-.245.411-.946,1.406-1.721,1.87-2.689.793-1.653,1.206-3.038,2.663-4.281a12.993,12.993,0,0,0,1.929-1.772c3.682-4.564,6.114-10.167,10.2-14.425a111.035,111.035,0,0,1,1.244,17.281A1.352,1.352,0,0,0,738.911,750.375Zm2.161-23.031c-.726-3.55-1.386-7.065-1.885-10.64a.172.172,0,0,0,.163-.066c.018-.023.031-.052.051-.075a34.962,34.962,0,0,0,1.769,3.026,3.212,3.212,0,0,0-.006.514c.014.177.282.3.372.1l.017-.037c.485.731.982,1.456,1.481,2.181-.126.188-.253.374-.377.565-.112.172.149.378.288.221.12-.137.217-.292.333-.431.651.946,1.3,1.894,1.9,2.856a2.8,2.8,0,0,0-1.112-.094A4.287,4.287,0,0,0,741.073,727.344Zm5.095,15.524c.389,3.3.784,8.024-2.375,10.193a12.153,12.153,0,0,1-1.365-4.345,44.937,44.937,0,0,0-.282-16.1,26.224,26.224,0,0,0,4.333,2.105A22.029,22.029,0,0,0,746.168,742.868Zm1.839-12.206a11.437,11.437,0,0,1-.33,2.327c-.04-.018-.081-.033-.122-.051l-.022-.009a30.839,30.839,0,0,1-4.079-1.8c-1.063-.657-1.6-1.586-.9-2.828.418-.74,2.161-1.74,3.069-1.319a.2.2,0,0,0,.261-.069.891.891,0,0,0,.033-.089,23.656,23.656,0,0,1,1.243,2.46.98.98,0,0,0,1.106.45l.045-.016A8.117,8.117,0,0,0,748.007,730.662Zm1.573-3.577a.289.289,0,0,0-.338.194c-.026.094-.065.185-.1.278a.776.776,0,0,1-.36-.069c-.728-.3-1.391-2.529-1.814-3.329l.321-.3c.168-.159-.094-.421-.253-.253l-.243.258c-.72-1.075-1.394-2.144-2.036-3.215.281-.448.571-.892.818-1.361.432-.819.81-1.669,1.264-2.468.191.463.381.93.58,1.4C747.583,718.588,750.034,725.234,749.58,727.085Z" transform="translate(-550.481 -526.664)" fill="#977c72"/>
      <path id="Trazado_1953" data-name="Trazado 1953" d="M674.521,644.5c.166-.444-.512-.7-.746-.314-2.932,4.808-8.808,9.67-13.73,12.268-2.287,1.208-4.475,2.487-6.721,3.759-1.744.989-3.711,1.427-5.172,2.816a.578.578,0,0,0,.558.959c1.214-.364,2.453-.769,3.7-1.216a22.982,22.982,0,0,0-2.583,2.261c-1.205,1.171-2.6,2.132-3.765,3.338-2.766,2.871-6.022,5.194-8.529,8.34a.2.2,0,0,0,.289.289c1.578-1.258,2.842-2.82,4.377-4.12a34.014,34.014,0,0,0,3.866-3.5c1.028-1.159,2.246-2.011,3.368-3.068a23.013,23.013,0,0,1,4.356-3.7.278.278,0,0,0,.106-.394C662.523,658.883,671.215,653.383,674.521,644.5Z" transform="translate(-549.076 -524.769)" fill="#977c72"/>
      <path id="Trazado_1954" data-name="Trazado 1954" d="M701.475,625.558c.79.636,1.971,1.39,2.936.705a3.511,3.511,0,0,0,.752-.919c.475-.711,1-1.352,1.5-2.042a3.111,3.111,0,0,0,.491-3.148,2.813,2.813,0,0,0-3.347-1.894.253.253,0,0,0-.153-.341c-.819-.258-1.35-.5-2.028.161a6.457,6.457,0,0,0-1.776,3.82A4.342,4.342,0,0,0,701.475,625.558Zm.38-4.391a15.544,15.544,0,0,1,.55-1.67.312.312,0,0,0,.17.025c1.506-.238,3.828-.12,3.745,2.016-.031.81-.719,1.429-1.139,2.043-.3.434-.531,1.311-1.008,1.459-.623.2-1.129-.544-1.538-.987A2.736,2.736,0,0,1,701.855,621.167Z" transform="translate(-548.068 -525.195)" fill="#977c72"/>
      <path id="Trazado_1955" data-name="Trazado 1955" d="M607.809,627.781c2.092.3,4.943-1.558,5.1-3.777a4.745,4.745,0,0,0-3.846-4.538.708.708,0,0,0-.232.02c-2.2-.4-4.12.483-4.534,3.014A4.5,4.5,0,0,0,607.809,627.781Zm-1.661-5.276a3.177,3.177,0,0,1,2.143-2.174.855.855,0,0,0,.771.792c.943.094,2.5,1.746,2.324,2.759-.194,1.134-2.747,2.224-3.713,1.89A2.763,2.763,0,0,1,606.147,622.505Z" transform="translate(-549.613 -525.167)" fill="#977c72"/>
      <path id="Trazado_1956" data-name="Trazado 1956" d="M627.686,711.108c-1.628,1.365-3.355,2.588-5.024,3.9a51.991,51.991,0,0,1-4.085,3.317c-1.6,1.01-4.028,1.839-4.621,3.835-.052.176.225.3.3.128.97-2.149,4.173-2.733,5.9-4.163,2.643-2.185,5.347-4.349,7.948-6.589C628.41,711.28,627.982,710.861,627.686,711.108Z" transform="translate(-549.456 -523.687)" fill="#977c72"/>
      <path id="Trazado_1957" data-name="Trazado 1957" d="M711.072,747.478c-2.135,2.162-4.094,4.489-6.235,6.644a.144.144,0,0,0-.152.026,7.449,7.449,0,0,0-.953,1.073l-.006.005h0c-.017.024-.038.043-.054.068-.225.335.259.664.535.414,2.647-2.389,4.867-5.193,7.369-7.726C711.9,747.655,711.4,747.15,711.072,747.478Z" transform="translate(-548.007 -523.099)" fill="#977c72"/>
      <path id="Trazado_1958" data-name="Trazado 1958" d="M710.831,742.959c.307-.146.04-.6-.266-.454-2.077.975-3.266,3.232-4.831,4.826-2.715,2.765-5.8,5.3-8.22,8.332a.179.179,0,0,0,.253.253,94.376,94.376,0,0,0,7.721-7.52C707.17,746.7,708.65,744,710.831,742.959Z" transform="translate(-548.107 -523.179)" fill="#977c72"/>
      <path id="Trazado_1959" data-name="Trazado 1959" d="M687.081,738.33c-2.876,3.387-6.126,6.369-9.256,9.51-2.275,2.282-4.249,5.2-7.366,6.365a.21.21,0,0,0,.055.409c2.634.328,5-3.174,6.508-4.858,3.391-3.772,7.088-7.254,10.294-11.192C687.448,738.4,687.221,738.166,687.081,738.33Z" transform="translate(-548.545 -523.247)" fill="#977c72"/>
      <path id="Trazado_1960" data-name="Trazado 1960" d="M669.723,741.744c-3.769,3.8-6.922,8.585-11.145,11.945.047-.167-.116-.363-.292-.246a1.8,1.8,0,0,0-.994,1.341c-.067.325.284.676.6.463,4.916-3.259,8.284-8.794,12.381-12.951A.391.391,0,0,0,669.723,741.744Z" transform="translate(-548.756 -523.192)" fill="#977c72"/>
      <path id="Trazado_1961" data-name="Trazado 1961" d="M576.469,750.312c5.169-4.5,8.01-10.758,12.4-15.894.3-.347-.2-.854-.5-.5a83.929,83.929,0,0,0-5.4,7.5,101.17,101.17,0,0,1-6.861,8.522A.263.263,0,0,0,576.469,750.312Z" transform="translate(-550.068 -523.319)" fill="#977c72"/>
      <path id="Trazado_1962" data-name="Trazado 1962" d="M581.035,739.364c.268-.435-.415-.832-.683-.4-2.278,3.684-5.128,6.807-7.839,10.153a.285.285,0,0,0,.4.4A44.129,44.129,0,0,0,581.035,739.364Z" transform="translate(-550.126 -523.238)" fill="#977c72"/>
      <path id="Trazado_1963" data-name="Trazado 1963" d="M652.01,673.166c1.207-1.908,1.816-4.114,3.22-5.9.224-.285-.173-.691-.4-.4a30.826,30.826,0,0,0-2.668,4.844c-1.141,2.1-2.785,3.857-4.066,5.863s-2.579,3.933-4,5.85a16.432,16.432,0,0,0-3.069,5.345.235.235,0,0,0,.428.18c2.264-3.594,4.821-7.007,7.009-10.646C649.532,676.508,650.9,674.926,652.01,673.166Z" transform="translate(-549.018 -524.402)" fill="#977c72"/>
      <path id="Trazado_1964" data-name="Trazado 1964" d="M651.766,679.012c3.045-4.284,5.515-8.962,8.582-13.2.261-.362-.334-.7-.594-.348-1.738,2.348-3.054,4.965-4.687,7.385s-3.437,4.738-5.065,7.167c-1.227,1.83-2.493,3.6-3.78,5.378-.847,1.174-2.093,2.734-1.719,4.268a.33.33,0,0,0,.631,0,15.945,15.945,0,0,1,2.925-5.16C649.387,682.731,650.485,680.812,651.766,679.012Z" transform="translate(-548.963 -524.425)" fill="#977c72"/>
      <path id="Trazado_1965" data-name="Trazado 1965" d="M661.065,670.4a105.012,105.012,0,0,1-8.052,12.422c-2.285,3.119-4.53,6.4-5.68,10.129-.011.024-.036.03-.043.06q-.069.253-.138.508a.487.487,0,0,0,.938.259c2.892-8.44,9.613-15.085,13.761-22.919C662.124,670.346,661.343,669.886,661.065,670.4Z" transform="translate(-548.92 -524.346)" fill="#977c72"/>
      <path id="Trazado_1966" data-name="Trazado 1966" d="M675.956,652.236a.328.328,0,0,0-.565-.331c-3.628,5.945-8.121,12.215-10.107,18.961a.243.243,0,0,0,.443.187c1.957-2.982,3.22-6.513,4.86-9.687C672.21,658.225,674.141,655.265,675.956,652.236Z" transform="translate(-548.627 -524.644)" fill="#977c72"/>
      <path id="Trazado_1967" data-name="Trazado 1967" d="M677.557,654.074c-1.714,3.34-3.822,6.441-5.6,9.742-1.129,2.1-2.957,4.65-3.114,7.08-.019.291.386.3.476.064,2.2-5.863,5.935-11.024,8.706-16.611C678.181,654.037,677.718,653.761,677.557,654.074Z" transform="translate(-548.569 -524.609)" fill="#977c72"/>
      <path id="Trazado_1968" data-name="Trazado 1968" d="M683.355,653.437c-1.135,4.674-4.78,7.947-7.232,11.914-1.039,1.68-2.524,3.082-3.464,4.8-.552,1.013-.818,2.117-1.43,3.1a4.568,4.568,0,0,0-.968,1.937.264.264,0,0,0,.508.14c.324-1.026,1.424-1.914,1.929-2.909a15.9,15.9,0,0,1,1.723-3.232c1.247-1.524,2.127-3.141,3.223-4.773,2.349-3.5,5.308-6.6,6.146-10.858C683.845,653.275,683.424,653.152,683.355,653.437Z" transform="translate(-548.546 -524.619)" fill="#977c72"/>
      <path id="Trazado_1969" data-name="Trazado 1969" d="M618.611,658.158a17.728,17.728,0,0,1,2.8-2.824c.024.11.046.217.071.326.276,1.184.7,2.346,1.094,3.5a2,2,0,0,1-.721.75c-.291.146-.168.687.174.641a1.827,1.827,0,0,0,.911-.3,11.654,11.654,0,0,0,1.46,2.658,7.151,7.151,0,0,1-1.012.764.184.184,0,0,0,.141.334,4.512,4.512,0,0,0,1.189-.566c.065.115.131.23.2.355.368.713,1.28.169,1.188-.5a8.717,8.717,0,0,0-.184-.937c.11-.129.22-.249.328-.39,1.3-1.686,2.443-3.409,3.8-5.063,1.25-1.53,2.194-3.265,3.327-4.877,1.321-1.88,2.956-3.494,4.21-5.422.258-.4-.375-.763-.631-.37-1.1,1.691-2.5,3.112-3.706,4.72-1.161,1.553-2.088,3.265-3.256,4.814-.931,1.237-2.042,2.289-2.9,3.583-.5.749-.934,1.47-1.425,2.14a35.487,35.487,0,0,0-1.386-3.338,3.345,3.345,0,0,1,.578-.813c.622-.617,1.4-1.11,2.05-1.7a43.4,43.4,0,0,0,7.768-9.762c.242-.4-.38-.759-.624-.364a44.05,44.05,0,0,1-7.084,8.917c-.987.935-2.216,1.688-3.147,2.672-.18-.424-.351-.847-.495-1.268-.215-.626-.39-1.258-.55-1.894,1.024-1.1,2.015-2.21,2.963-3.384,2.239-2.769,4.448-5.564,6.6-8.4.122-.16-.153-.374-.281-.216q-3.94,4.931-8.158,9.616c-.439.49-.9.966-1.349,1.445-.362-1.667-.594-3.358-.836-5.049,1.863-1.506,2.933-3.748,4.286-5.683.3-.422-.4-.822-.69-.4a45.108,45.108,0,0,1-3.719,5.239c-.082-.551-.166-1.1-.26-1.649a.219.219,0,0,0-.419,0,23.773,23.773,0,0,0,.3,8.949q-.594.611-1.187,1.224a6.589,6.589,0,0,0-1.856,2.334C618.07,658.242,618.466,658.374,618.611,658.158Z" transform="translate(-549.388 -524.806)" fill="#977c72"/>
      <path id="Trazado_1970" data-name="Trazado 1970" d="M710.19,733.62c.229-.363-.346-.7-.572-.335-1.188,1.891-2.887,3.189-4.4,4.793a48.642,48.642,0,0,0-3.455,4.713c-.124.169.145.367.288.221,1.554-1.592,2.663-3.542,4.259-5.105A24.328,24.328,0,0,0,710.19,733.62Z" transform="translate(-548.038 -523.33)" fill="#977c72"/>
      <path id="Trazado_1971" data-name="Trazado 1971" d="M704.486,729.644c-2.5,3.834-4.3,8.051-7.078,11.71-.189.249.216.546.428.329,3.238-3.32,4.936-7.738,7.473-11.559C705.648,729.614,704.821,729.132,704.486,729.644Z" transform="translate(-548.108 -523.389)" fill="#977c72"/>
    </g>
  </g>
</svg>
