<svg xmlns="http://www.w3.org/2000/svg" width="269.246" height="282.902" viewBox="0 0 269.246 282.902">
  <g id="Grupo_1111" data-name="Grupo 1111" transform="translate(-733.541 -320.262)">
    <g id="Grupo_1103" data-name="Grupo 1103" transform="translate(788.096 320.773)" opacity="0.76">
      <path id="Trazado_1891" data-name="Trazado 1891" d="M400.708,474.89l-21.529-125.5H208.245L187.157,474.964a20.8,20.8,0,0,0,.409,8.847c3.56,13.467,20.322,23.922,40.9,23.922H359.418C384.369,507.733,403.7,492.351,400.708,474.89ZM227.036,375.5a8.309,8.309,0,1,1,7.915-8.3A8.114,8.114,0,0,1,227.036,375.5Zm136.62,0a8.309,8.309,0,1,1,7.916-8.3A8.114,8.114,0,0,1,363.657,375.5Z" transform="translate(-186.864 -225.843)" fill="none" stroke="#c18b52" stroke-miterlimit="10" stroke-width="1"/>
      <path id="Trazado_1892" data-name="Trazado 1892" d="M400.614,474.89l-21.529-125.5h-26.8c7.588,43.217,16.865,110.37,4.122,123.674-17.779,18.555-109.662,29.447-168.932,10.745,3.56,13.467,20.322,23.922,40.9,23.922H359.324C384.275,507.733,403.61,492.351,400.614,474.89ZM363.562,375.5a8.309,8.309,0,1,1,7.916-8.3A8.114,8.114,0,0,1,363.562,375.5Z" transform="translate(-186.77 -225.843)" fill="none" stroke="#c18b52" stroke-miterlimit="10" stroke-width="1" opacity="0.35" style="mix-blend-mode: multiply;isolation: isolate"/>
      <path id="Trazado_1893" data-name="Trazado 1893" d="M315.344,375.153h-59.6a6.345,6.345,0,0,1-6.345-6.345h0a6.345,6.345,0,0,1,6.345-6.345h59.6a6.344,6.344,0,0,1,6.344,6.345h0A6.344,6.344,0,0,1,315.344,375.153Z" transform="translate(-177.173 -223.817)" fill="none" stroke="#c18b52" stroke-miterlimit="10" stroke-width="1" opacity="0.35" style="mix-blend-mode: multiply;isolation: isolate"/>
      <path id="Trazado_1894" data-name="Trazado 1894" d="M318.479,366.731v2.48c0,2.357-2.712,4.269-6.058,4.269h-56.97a7.859,7.859,0,0,1-3.257-.673,4.175,4.175,0,0,1-2.8-3.6v-2.48c0-2.356,2.711-4.268,6.058-4.268h56.97C315.767,362.463,318.479,364.374,318.479,366.731Z" transform="translate(-177.173 -223.817)" fill="none" stroke="#c18b52" stroke-miterlimit="10" stroke-width="1"/>
      <path id="Trazado_1895" data-name="Trazado 1895" d="M272.092,362.463,259.4,373.479h-4.325a7.859,7.859,0,0,1-3.257-.673l11.914-10.343Z" transform="translate(-176.797 -223.817)" fill="none" stroke="#c18b52" stroke-miterlimit="10" stroke-width="1" style="mix-blend-mode: overlay;isolation: isolate"/>
      <path id="Trazado_1896" data-name="Trazado 1896" d="M278.012,362.463l-12.688,11.016h-5.683l12.692-11.016Z" transform="translate(-175.585 -223.817)" fill="none" stroke="#c18b52" stroke-miterlimit="10" stroke-width="1" style="mix-blend-mode: overlay;isolation: isolate"/>
      <path id="Trazado_1897" data-name="Trazado 1897" d="M282.9,362.463l-12.693,11.016H266.4L279.1,362.463Z" transform="translate(-174.537 -223.817)" fill="none" stroke="#c18b52" stroke-miterlimit="10" stroke-width="1" style="mix-blend-mode: overlay;isolation: isolate"/>
      <path id="Trazado_1898" data-name="Trazado 1898" d="M215.825,358.714c.016-.017.036-.034.053-.052h-.064C215.82,358.679,215.821,358.7,215.825,358.714Z" transform="translate(-182.377 -224.406)" fill="none" stroke="#c18b52" stroke-miterlimit="10" stroke-width="1"/>
      <path id="Trazado_1899" data-name="Trazado 1899" d="M217.776,350.179H215.4a28.49,28.49,0,0,1,1.143-5.857,11.772,11.772,0,0,0,1.632,3.092C218.01,348.288,217.872,349.212,217.776,350.179Z" transform="translate(-182.442 -226.629)" fill="none" stroke="#c18b52" stroke-miterlimit="10" stroke-width="1"/>
      <path id="Trazado_1900" data-name="Trazado 1900" d="M230.281,354.727a35.062,35.062,0,0,1-.75,7.4c-.152.7-.329,1.365-.523,2-.105.342-.217.673-.332.992-.494,1.328-1.993,5.379-5.992,5.379s-5.5-4.051-5.993-5.379c-.159-.442-.312-.911-.45-1.393a8.126,8.126,0,0,1,1.937-1.869c.908,4.168,2.587,6.967,4.507,6.967,1.88,0,3.532-2.689,4.449-6.715.127-.566.243-1.158.342-1.775a35.141,35.141,0,0,0,.431-5.606,34.591,34.591,0,0,0-.583-6.482,22.255,22.255,0,0,0-.812-3.1c-.949-2.774-2.312-4.511-3.826-4.511s-2.878,1.737-3.828,4.511a18.047,18.047,0,0,1-.955-3.333,5.434,5.434,0,0,1,9.563,0,12.451,12.451,0,0,1,1.212,2.527c.1.264.189.536.278.818A32.16,32.16,0,0,1,230.281,354.727Z" transform="translate(-182.311 -227.46)" fill="none" stroke="#c18b52" stroke-miterlimit="10" stroke-width="1"/>
      <path id="Trazado_1901" data-name="Trazado 1901" d="M230.436,339.062a25.2,25.2,0,0,1-1.326,8.206c-.089-.282-.179-.553-.278-.818a12.452,12.452,0,0,0-1.212-2.527,25.964,25.964,0,0,0,.441-4.861c0-6.655-2.334-12.05-5.222-12.05s-5.224,5.395-5.224,12.05a26.06,26.06,0,0,0,.441,4.861,18.048,18.048,0,0,0,.955,3.333c.949,2.374,2.312,3.856,3.828,3.856s2.877-1.483,3.826-3.856a22.255,22.255,0,0,1,.812,3.1,5.643,5.643,0,0,1-9.279,0,11.772,11.772,0,0,1-1.632-3.092,25.166,25.166,0,0,1-1.325-8.2c0-5.1,1.6-13.725,7.6-13.725S230.436,333.964,230.436,339.062Z" transform="translate(-182.466 -229.571)" fill="none" stroke="#c18b52" stroke-miterlimit="10" stroke-width="1"/>
      <path id="Trazado_1902" data-name="Trazado 1902" d="M345.786,358.729c-.017-.017-.036-.033-.054-.051h.064C345.791,358.694,345.79,358.712,345.786,358.729Z" transform="translate(-162.243 -224.404)" fill="none" stroke="#c18b52" stroke-miterlimit="10" stroke-width="1"/>
      <path id="Trazado_1903" data-name="Trazado 1903" d="M344.2,350.2h2.377a28.332,28.332,0,0,0-1.143-5.858,11.733,11.733,0,0,1-1.633,3.093C343.964,348.3,344.1,349.227,344.2,350.2Z" transform="translate(-162.542 -226.626)" fill="none" stroke="#c18b52" stroke-miterlimit="10" stroke-width="1"/>
      <path id="Trazado_1904" data-name="Trazado 1904" d="M333.2,354.742a34.982,34.982,0,0,0,.751,7.4c.151.7.328,1.365.522,2,.105.342.217.672.331.99.494,1.329,1.995,5.38,5.992,5.38s5.5-4.05,5.993-5.38c.162-.441.312-.91.45-1.392a8.063,8.063,0,0,0-1.937-1.869c-.908,4.168-2.587,6.967-4.507,6.967-1.88,0-3.532-2.689-4.449-6.715-.127-.566-.241-1.158-.342-1.774a35.307,35.307,0,0,1-.431-5.607,34.567,34.567,0,0,1,.583-6.481,22.125,22.125,0,0,1,.812-3.1c.949-2.775,2.313-4.513,3.826-4.513s2.878,1.737,3.829,4.513a18.091,18.091,0,0,0,.954-3.334,5.435,5.435,0,0,0-9.563,0,12.487,12.487,0,0,0-1.212,2.527c-.1.265-.188.536-.28.818A32.2,32.2,0,0,0,333.2,354.742Z" transform="translate(-164.184 -227.457)" fill="none" stroke="#c18b52" stroke-miterlimit="10" stroke-width="1"/>
      <path id="Trazado_1905" data-name="Trazado 1905" d="M333.26,339.062a25.2,25.2,0,0,0,1.326,8.206c.089-.282.179-.553.28-.818a12.373,12.373,0,0,1,1.21-2.527,26.06,26.06,0,0,1-.441-4.861c0-6.655,2.336-12.05,5.223-12.05s5.223,5.395,5.223,12.05a26.06,26.06,0,0,1-.441,4.861,17.962,17.962,0,0,1-.954,3.333c-.949,2.374-2.312,3.856-3.828,3.856s-2.878-1.483-3.826-3.856a22.42,22.42,0,0,0-.812,3.1,5.641,5.641,0,0,0,9.278,0,11.775,11.775,0,0,0,1.634-3.092,25.225,25.225,0,0,0,1.324-8.2c0-5.1-1.6-13.725-7.6-13.725S333.26,333.964,333.26,339.062Z" transform="translate(-164.176 -229.571)" fill="none" stroke="#c18b52" stroke-miterlimit="10" stroke-width="1"/>
      <path id="Trazado_1906" data-name="Trazado 1906" d="M217.815,346.621l-.209-.008c3.244-15.627,6.5-31.3,12.275-46.554,7.989-21.1,20.186-42.455,40.986-52.428,12.722-6.1,38.6-10.71,59.575,9.441a72.459,72.459,0,0,1,10.842,13.557c14.492,23.106,20.271,49.945,22.3,75.025l-9.076.164c-.828-13.8-1.665-27.641-4.753-41.283s-8.493-27.151-17.977-39.239c-11.166-14.235-32.414-25.533-55.315-16.022-10.128,4.209-17.374,11.161-23.086,18.406-18.867,23.928-23.541,52-26.415,79.3Z" transform="translate(-182.1 -242.421)" fill="none" stroke="#c18b52" stroke-miterlimit="10" stroke-width="1"/>
    </g>
    <g id="Grupo_1102" data-name="Grupo 1102" transform="translate(743 407.772)">
      <path id="Trazado_1886" data-name="Trazado 1886" d="M544.245,448.586c-44.736.787-90.893-.088-136.666-.619,5.9-1.224,17.489-1.129,27.513-.939,40.708.771,63.121.922,103.829,1.693-28.724-.613-39.154-.6-67.878-1.218" transform="translate(-407.579 -288.885)" fill="none" stroke="#d3c0be" stroke-miterlimit="10" stroke-width="2.051" opacity="0.2"/>
      <g id="Grupo_1101" data-name="Grupo 1101" transform="translate(9.396 0)">
        <g id="Grupo_1100" data-name="Grupo 1100">
          <g id="Grupo_1093" data-name="Grupo 1093" transform="translate(0 10.702)">
            <rect id="Rectángulo_718" data-name="Rectángulo 718" width="116.052" height="147.856" fill="#bbcdd9"/>
            <rect id="Rectángulo_719" data-name="Rectángulo 719" width="105.059" height="133.85" rx="11.936" transform="translate(5.497 7.003)" fill="#f9f8f4"/>
          </g>
          <path id="Trazado_1887" data-name="Trazado 1887" d="M541.148,130.672h-5.73a3.6,3.6,0,0,1-3.6-3.6v-.509a3.6,3.6,0,0,0-3.6-3.6h-8.688a3.6,3.6,0,0,0-3.6,3.6v.509a3.6,3.6,0,0,1-3.6,3.6h-5.73a3.6,3.6,0,0,0-3.6,3.6v6.509a3.6,3.6,0,0,0,3.6,3.6h34.535a3.6,3.6,0,0,0,3.6-3.6v-6.509A3.6,3.6,0,0,0,541.148,130.672Zm-17.268-1.356a2.048,2.048,0,1,1,2.048-2.048A2.048,2.048,0,0,1,523.88,129.316Z" transform="translate(-465.855 -122.97)" fill="#977c72"/>
          <g id="Grupo_1095" data-name="Grupo 1095" transform="translate(20.076 37.085)">
            <ellipse id="Elipse_500" data-name="Elipse 500" cx="10.313" cy="10.313" rx="10.313" ry="10.313" fill="none" stroke="#ffd072" stroke-miterlimit="10" stroke-width="4.143"/>
            <g id="Grupo_1094" data-name="Grupo 1094" transform="translate(29.925 5.542)">
              <line id="Línea_53" data-name="Línea 53" x2="42.702" fill="none" stroke="#c69f91" stroke-linecap="round" stroke-miterlimit="10" stroke-width="4.143"/>
              <line id="Línea_54" data-name="Línea 54" x2="33.607" transform="translate(0 7.632)" fill="none" stroke="#c69f91" stroke-linecap="round" stroke-miterlimit="10" stroke-width="4.143"/>
            </g>
          </g>
          <g id="Grupo_1097" data-name="Grupo 1097" transform="translate(20.076 69.062)">
            <ellipse id="Elipse_501" data-name="Elipse 501" cx="10.313" cy="10.313" rx="10.313" ry="10.313" fill="none" stroke="#c69f91" stroke-linecap="round" stroke-miterlimit="10" stroke-width="4.143"/>
            <g id="Grupo_1096" data-name="Grupo 1096" transform="translate(29.925 5.542)">
              <line id="Línea_55" data-name="Línea 55" x2="42.702" fill="none" stroke="#c69f91" stroke-linecap="round" stroke-miterlimit="10" stroke-width="4.143"/>
              <line id="Línea_56" data-name="Línea 56" x2="33.607" transform="translate(0 7.632)" fill="none" stroke="#c69f91" stroke-linecap="round" stroke-miterlimit="10" stroke-width="4.143"/>
            </g>
          </g>
          <g id="Grupo_1099" data-name="Grupo 1099" transform="translate(20.076 101.04)">
            <ellipse id="Elipse_502" data-name="Elipse 502" cx="10.313" cy="10.313" rx="10.313" ry="10.313" fill="none" stroke="#c69f91" stroke-linecap="round" stroke-miterlimit="10" stroke-width="4.143"/>
            <g id="Grupo_1098" data-name="Grupo 1098" transform="translate(29.925 5.542)">
              <line id="Línea_57" data-name="Línea 57" x2="42.702" fill="none" stroke="#c69f91" stroke-linecap="round" stroke-miterlimit="10" stroke-width="4.143"/>
              <line id="Línea_58" data-name="Línea 58" x2="33.607" transform="translate(0 7.632)" fill="none" stroke="#c69f91" stroke-linecap="round" stroke-miterlimit="10" stroke-width="4.143"/>
            </g>
          </g>
        </g>
        <path id="Trazado_1888" data-name="Trazado 1888" d="M480.767,207.676l4.206,4.071,12.781-12.568" transform="translate(-454.46 -162.002)" fill="none" stroke="#ed6562" stroke-linecap="round" stroke-miterlimit="10" stroke-width="3.107"/>
        <path id="Trazado_1889" data-name="Trazado 1889" d="M480.767,271.138l4.206,4.071,12.781-12.568" transform="translate(-454.46 -194.506)" fill="none" stroke="#ed6562" stroke-linecap="round" stroke-miterlimit="10" stroke-width="3.107"/>
        <path id="Trazado_1890" data-name="Trazado 1890" d="M480.767,335.635l4.206,4.071,12.781-12.568" transform="translate(-454.46 -227.54)" fill="none" stroke="#ed6562" stroke-linecap="round" stroke-miterlimit="10" stroke-width="3.107"/>
      </g>
    </g>
  </g>
</svg>
