<svg xmlns="http://www.w3.org/2000/svg" width="453.367" height="326.89" viewBox="0 0 453.367 326.89">
  <g id="Grupo_1459" data-name="Grupo 1459" transform="translate(-576.633 -9.475)">
    <path id="Trazado_7449" data-name="Trazado 7449" d="M193.529,90.837c106.883,0,193.529-42.923,193.529,43.264S300.412,290.156,193.529,290.156,0,220.288,0,134.1,86.646,90.837,193.529,90.837Z" transform="matrix(0.996, 0.087, -0.087, 0.996, 604.62, 10.947)" fill="#ebebeb" opacity="0.468"/>
    <path id="Trazado_7450" data-name="Trazado 7450" d="M146.228,90.164c80.759,0,146.228-40.22,146.228,40.539s-40.249,146.79-121.008,146.79S29.039,212.688,29.039,131.929,65.468,90.164,146.228,90.164Z" transform="matrix(0.469, -0.883, 0.883, 0.469, 492.233, 230.07)" fill="#fff" opacity="0.278"/>
    <path id="Trazado_7451" data-name="Trazado 7451" d="M673.1-960.635H1122" transform="translate(-92 1296)" fill="none" stroke="#745f57" stroke-width="2"/>
    <rect id="Rectángulo_1018" data-name="Rectángulo 1018" width="3" height="11" transform="translate(606 201) rotate(90)" fill="#745f57" opacity="0.427"/>
    <rect id="Rectángulo_1019" data-name="Rectángulo 1019" width="3" height="11" transform="translate(825 112)" fill="#745f57" opacity="0.427"/>
    <rect id="Rectángulo_1020" data-name="Rectángulo 1020" width="3" height="11" transform="translate(832 116) rotate(90)" fill="#745f57" opacity="0.427"/>
    <rect id="Rectángulo_1021" data-name="Rectángulo 1021" width="3" height="11" transform="translate(667 95) rotate(90)" fill="#745f57" opacity="0.427"/>
    <rect id="Rectángulo_1022" data-name="Rectángulo 1022" width="3" height="11" transform="translate(663 102) rotate(180)" fill="#745f57" opacity="0.427"/>
    <g id="Grupo_1025" data-name="Grupo 1025" transform="translate(622.911 57.935)">
      <g id="Grupo_980" data-name="Grupo 980" transform="translate(155.94 86.405)">
        <rect id="Rectángulo_661" data-name="Rectángulo 661" width="5.889" height="2.297" transform="translate(0.911 15.628) rotate(-9.21)" fill="#5e5e60"/>
        <path id="Trazado_1210" data-name="Trazado 1210" d="M270.706,45.278l2.69-.437,2.473,14.936-2.693.433Z" transform="translate(-270.706 -44.84)" fill="#5e5e60"/>
      </g>
      <path id="Trazado_1211" data-name="Trazado 1211" d="M266.433,48.12c2.927.222,7.71-1.878,9.4-2.6,2.442-1.042,4.384-5.068,6.137-5.5a11.341,11.341,0,0,1,6.216.621c.911.312,1.547,12.086.072,13.527a2.087,2.087,0,0,1-.542.373,2.044,2.044,0,0,0-.365.143l-.075.019a1.376,1.376,0,0,1-.2.075,10.047,10.047,0,0,1-1.626.252.192.192,0,0,1-.094,0c-2.615.188-6-.271-7.123-.12-1.659.218-6.792,4.03-9.023,6.133S263.528,47.89,266.433,48.12Z" transform="translate(-129.65 27.673)" fill="#d9bf9b"/>
      <path id="Trazado_1212" data-name="Trazado 1212" d="M269.415,38.3q1.93-.3,3.846-.625a104.848,104.848,0,0,1,4.391,27.149c-1.291.211-2.57.418-3.857.625A104.613,104.613,0,0,1,269.415,38.3Z" transform="translate(-118.333 21.769)" fill="#9f7851"/>
      <path id="Trazado_1213" data-name="Trazado 1213" d="M271.163,54.654a50.479,50.479,0,0,1-1.787-7.089c-.278-1.592,1.148-3.872,2.585-5.727a7.535,7.535,0,0,1,1.374-1.452,2.945,2.945,0,0,1,2.468-.6h.019a6.717,6.717,0,0,1,1.727.6l.026,0c1.938,2.066,2.754,9.223,2.491,11.266a2.026,2.026,0,0,1-.192.625,2.868,2.868,0,0,0-.2.346c-.023.019-.023.034-.045.06a.847.847,0,0,1-.113.181,3.859,3.859,0,0,1-1.114,1.208c-.007.026-.045.041-.075.064C275.735,56.028,271.483,55.2,271.163,54.654Z" transform="translate(-118.539 27.453)" fill="#ccaf87"/>
      <path id="Trazado_1214" data-name="Trazado 1214" d="M327.984,47.6c-6.3,2.578-27.487,9.268-32.42,9.5-2.547.113-33.391-17.523-36.721-17.982-3.838-.546-9.851-1.483-12.173,3.172-3.123,6.314-.783,12.583,6.9,16.394,6.935,3.454,40.051,18.942,44.442,18.265,9.972-1.524,35.024-15.966,35.615-16.406Z" transform="translate(-184.88 24.498)" fill="#608eb7"/>
      <path id="Trazado_1215" data-name="Trazado 1215" d="M294.108,60.958c-4.368.685-40.19-13.93-47.441-17.5a20.2,20.2,0,0,0,3.206,2.006c6.935,3.454,40.051,18.942,44.442,18.265,9.972-1.524,35.024-15.966,35.615-16.406l-1-2.292C324.53,47.6,303.128,59.58,294.108,60.958Z" transform="translate(-181.181 37.732)" opacity="0.2"/>
      <path id="Sustracción_1" data-name="Sustracción 1" d="M26.505,115.993H0c2.474-7.345,6.528-18.162,10.843-28.936,4.839-12.08,9.266-22.26,12.465-28.666a146.359,146.359,0,0,1,3.6-19.765c1.657-6.883,3.647-13.952,5.4-20.189.569-2.021,1.107-3.93,1.62-5.786C35.351,7.432,36.42,3.283,37.02,0a.339.339,0,0,1,.039.031C38.247,1.041,44.476,6.374,50.42,12.25a96.241,96.241,0,0,1,8.772,9.67c2.508,3.307,3.538,5.667,3.061,7.017C60.93,32.555,54.52,48.4,49.087,61.631l-1.262,3.031c-2.923,7.022-5.232,12.569-6.1,14.432-1.25,2.719-5.8,13.844-10.19,24.6l-.007.016c-1.711,4.188-3.48,8.518-5.025,12.28Z" transform="translate(0 160.625)" fill="#47484a" stroke="rgba(0,0,0,0)" stroke-miterlimit="10" stroke-width="1"/>
      <path id="Trazado_1219" data-name="Trazado 1219" d="M264.219,49.752a18.164,18.164,0,0,0-.749,2.164,26.319,26.319,0,0,0-.583,8.282s-12.628-7.349-15.39-11.774c1.336-1.641,2.751-4.79,3.985-8,1.61-4.1,2.991-8.414,3.484-10.088.124-.436.2-.738.2-.738S271.587,41.285,266.7,45.978a5.086,5.086,0,0,0-.76.862A10.53,10.53,0,0,0,264.219,49.752Z" transform="translate(-178.888 -0.535)" fill="#d9bf9b"/>
      <path id="Trazado_1220" data-name="Trazado 1220" d="M274.575,136.517h-37.09s21.614-70.466,25.76-85.942c1.9-7.115,11.454-15.51,12.466-16.895,2.833,3.078,14.035,12.056,15.051,11.992s4.252,10.107,4.956,14.931c.689,4.839-4.47,20.372-6.969,25.993C286.236,92.222,274.421,132.848,274.575,136.517Z" transform="translate(-206.549 10.731)" fill="#608eb7"/>
      <path id="Trazado_1221" data-name="Trazado 1221" d="M265.247,43.289a25.832,25.832,0,0,1,3.409-7.563c-2.352,2.867-4.591,6.13-5.411,9.2-4.147,15.476-25.76,85.942-25.76,85.942h5.309C243.588,112.532,262.026,57.437,265.247,43.289Z" transform="translate(-206.549 16.384)" opacity="0.2"/>
      <path id="Trazado_1222" data-name="Trazado 1222" d="M261.832,45.978a5.081,5.081,0,0,0-.76.862,10.528,10.528,0,0,0-1.72,2.912c-2.879-2.258-8.015-7.9-9.463-10.5-1.3-2.45-.26-7.134.211-8.91.124-.436.2-.738.2-.738S266.72,41.285,261.832,45.978Z" transform="translate(-174.022 -0.535)" opacity="0.2"/>
      <path id="Trazado_1223" data-name="Trazado 1223" d="M278.271,29.184c2.036,2.461,2.028,6.182,2.073,9.08s.44,4.877-.1,5.592a16.862,16.862,0,0,1-1.264,1.7c-.44.436,1.283,9.934.73,10.513s-2.679.192-3.127.2c-1.012.019-1.245,1.054-1.4,1.716s.666,1.889.5,2.337c-.162.38-2.4.075-2.4.075s1.415,1.343,1.185,1.746c-.252.467-1.046.151-1.637.474-.576.35.079,3.627-.783,4.293-3.146,2.363-10.532-1.483-14.6-5.911-3.62-3.958-5.836-7.243-6.532-8.019-1.5-1.693-5.415-16.711-1.494-21.93,3.943-5.249,9.749-9,15.168-8.252S275.359,25.662,278.271,29.184Z" transform="translate(-178.258 -19.608)" fill="#d9bf9b"/>
      <path id="Trazado_1224" data-name="Trazado 1224" d="M283.4,32.766c-1.614-1.547-5.121-6.724-11.578-9.2-6.611-2.506-13.076-2.559-18.788,2.152a18.538,18.538,0,0,0-5.987,12.425c-.173,5.426,1.674,10.423,2.8,13.745,1.516,4.5,3.684,8.365,3.164,9.2,3.1-2.25,4.85-9.606,5.509-11.221-.8-1.155-2.641-7.729.738-8.831,3.4-1.125,5.667,3.236,6.077,7.857,2.318-4.128,3.673-9.057,6.732-11.71,2.243-1.2,8.771.975,10.908.579C286.3,37.157,285.018,34.308,283.4,32.766Z" transform="translate(-180.162 -21.877)" fill="#2d2d2d"/>
      <path id="Trazado_1225" data-name="Trazado 1225" d="M283.4,32.766c-1.614-1.547-5.121-6.724-11.578-9.2-6.611-2.506-13.076-2.559-18.788,2.152a18.538,18.538,0,0,0-5.987,12.425c-.173,5.426,1.674,10.423,2.8,13.745,1.516,4.5,3.684,8.365,3.164,9.2,3.1-2.25,4.85-9.606,5.509-11.221-.8-1.155-2.641-7.729.738-8.831,3.4-1.125,5.667,3.236,6.077,7.857,2.318-4.128,3.673-9.057,6.732-11.71,2.243-1.2,8.771.975,10.908.579C286.3,37.157,285.018,34.308,283.4,32.766Z" transform="translate(-180.162 -21.877)" fill="#2d2d2d"/>
      <path id="Trazado_1226" data-name="Trazado 1226" d="M280.715,75.9c-3.808.286,3.413-4.956-2.845-7.5-2-.805-4.944,2.942-10.141.929-.632-.252-4.293-2.585-4.655-2.7-1.035-.293-3.191-.805-5.953-1.434l4.353-9.58c4.233,2.277,5.351,4.207,7.432,3.9,4.579-.681,11.262.282,14.419,2.713C289.177,66.718,287.5,75.369,280.715,75.9Z" transform="translate(-152.296 71.33)" fill="#d9bf9b"/>
      <path id="Trazado_1227" data-name="Trazado 1227" d="M302.313,104.269c-6.02-3.161-24.763-15.1-28.112-18.724-1.731-1.878-8.049-36.842-9.84-39.69-2.036-3.289-5.189-8.5-10.242-7.281-6.848,1.659-10.152,7.5-8.131,15.819,1.814,7.537,11.236,42.862,14.577,45.789,7.582,6.656,34.742,16.56,35.457,16.741Z" transform="translate(-184.683 23.755)" fill="#608eb7"/>
      <path id="Trazado_1228" data-name="Trazado 1228" d="M262.5,89.25c-3.33-2.9-15.164-39.743-17.083-47.6a19.9,19.9,0,0,0,.519,3.744c1.814,7.537,11.236,42.862,14.577,45.789,7.582,6.656,34.742,16.56,35.457,16.741l1.117-2.243C292.291,103.97,269.349,95.271,262.5,89.25Z" transform="translate(-184.632 32.753)" opacity="0.2"/>
      <path id="Trazado_1229" data-name="Trazado 1229" d="M266.6,93.5c-1.332,3.642-7.8,19.638-13.166,32.695-3.168-14.6-5.81-26.328-7.1-29.937-3.048-8.568-5.11-13.934-8.052-19.043,1.332-4.9,2.465-9.23,3.089-12.651C241.37,64.565,268.692,87.586,266.6,93.5Z" transform="translate(-204.35 96.06)" opacity="0.2"/>
      <path id="Sustracción_2" data-name="Sustracción 2" d="M67.956,129.371H40.078C36.117,116.1,31.19,98.684,26.843,83.315,21.619,64.849,17.109,48.9,15.506,44.449,12.647,36.5,9.1,31.694,5.67,27.041,4.514,25.473,3.423,23.993,2.363,22.4-1.446,16.7.254,7.325,1.27,1.726,1.383,1.105,1.489.518,1.576,0h37.09c.417,4.691,6.926,40.637,9.046,49.951,1.6,7.032,13.1,54.323,20.243,79.419Z" transform="translate(29.359 147.248)" fill="#565759" stroke="rgba(0,0,0,0)" stroke-miterlimit="10" stroke-width="1"/>
      <g id="Grupo_982" data-name="Grupo 982" transform="translate(73.838 143.896)">
        <rect id="Rectángulo_662" data-name="Rectángulo 662" width="324.693" height="26.514" transform="translate(8.558 9.556)" fill="#ba9168"/>
        <rect id="Rectángulo_663" data-name="Rectángulo 663" width="298.262" height="9.543" fill="#9f7851"/>
        <rect id="Rectángulo_664" data-name="Rectángulo 664" width="324.693" height="2.692" transform="translate(8.551 9.543)" opacity="0.2"/>
        <rect id="Rectángulo_1014" data-name="Rectángulo 1014" width="29.228" height="96.492" transform="translate(269.033 36.07)" fill="#ba9168"/>
        <rect id="Rectángulo_1016" data-name="Rectángulo 1016" width="29.228" height="111.071" transform="translate(37.716 22.463)" fill="#ba9168"/>
      </g>
      <g id="Grupo_988" data-name="Grupo 988" transform="translate(258.513 82.766)">
        <g id="Grupo_985" data-name="Grupo 985" transform="translate(20.332)">
          <g id="Grupo_983" data-name="Grupo 983" transform="translate(0 2.172)">
            <path id="Trazado_1231" data-name="Trazado 1231" d="M326.811,54.07h-2.28V50.181a2.66,2.66,0,0,0-2.652-2.656H302.258a2.664,2.664,0,0,0-2.656,2.656V54.07h-2.275V50.181a4.945,4.945,0,0,1,4.932-4.935H321.88a4.943,4.943,0,0,1,4.931,4.935Z" transform="translate(-297.326 -45.246)" fill="#ffc300"/>
            <path id="Trazado_1232" data-name="Trazado 1232" d="M303.019,45.246h-.761a4.945,4.945,0,0,0-4.932,4.935V54.07h.765V50.181A4.942,4.942,0,0,1,303.019,45.246Z" transform="translate(-297.326 -45.246)" fill="#fff" opacity="0.2"/>
            <path id="Trazado_1233" data-name="Trazado 1233" d="M304.277,45.821h-.757a2.66,2.66,0,0,1,2.652,2.656v3.889h.757V48.477A2.66,2.66,0,0,0,304.277,45.821Z" transform="translate(-278.966 -43.542)" opacity="0.2"/>
          </g>
          <g id="Grupo_984" data-name="Grupo 984" transform="translate(4.216)">
            <path id="Rectángulo_667" data-name="Rectángulo 667" d="M.384,0H20.672a.384.384,0,0,1,.384.384V6.205a.382.382,0,0,1-.382.382H.384A.384.384,0,0,1,0,6.2V.384A.384.384,0,0,1,.384,0Z" fill="#7f5026"/>
            <path id="Trazado_1234" data-name="Trazado 1234" d="M299.586,46.179H316a2.519,2.519,0,0,1,.813.143,2.039,2.039,0,0,0-1.97-1.506h-14.1a2.044,2.044,0,0,0-1.974,1.506A2.542,2.542,0,0,1,299.586,46.179Z" transform="translate(-297.265 -44.352)" fill="#fff" opacity="0.2"/>
          </g>
        </g>
        <path id="Trazado_1235" data-name="Trazado 1235" d="M297.5,99.171a5.305,5.305,0,0,1-5.3-5.312V48.47a1.517,1.517,0,0,1,1.514-1.526h67.109a1.519,1.519,0,0,1,1.514,1.526V93.859a5.309,5.309,0,0,1-5.308,5.312Z" transform="translate(-292.191 -38.041)" fill="#6f543c"/>
        <path id="Trazado_1236" data-name="Trazado 1236" d="M360.979,46.956a.644.644,0,0,0-.151-.012H293.719a.6.6,0,0,0-.15.012c-.765.044-1.372.424-1.372.9V84.211c3.251-2.811,7.623-5.542,12.88-6.125,9.728-1.082,29.441-1.154,39.162,0A22.064,22.064,0,0,1,362.35,92.413V47.852C362.35,47.38,361.74,47,360.979,46.956Z" transform="translate(-292.197 -38.041)" opacity="0.15"/>
        <path id="Trazado_1237" data-name="Trazado 1237" d="M292.2,68.3V47.784c0-.46.674-.84,1.514-.84h67.109c.837,0,1.514.381,1.514.84V68.3a7.58,7.58,0,0,1-7.583,7.579H299.774A7.576,7.576,0,0,1,292.2,68.3Z" transform="translate(-292.191 -38.041)" fill="#9f7851"/>
        <rect id="Rectángulo_668" data-name="Rectángulo 668" width="4.738" height="10.11" transform="translate(31.66 36.74)" fill="#ffb600"/>
        <rect id="Rectángulo_669" data-name="Rectángulo 669" width="4.034" height="5.491" transform="translate(32.012 41.039)" fill="#ff9f00"/>
        <path id="Trazado_1238" data-name="Trazado 1238" d="M304.5,60.743h-4.254v-5.72H304.5Zm-4.028-.23h3.8V55.245h-3.8Z" transform="translate(-268.345 -14.094)" fill="#a43f16"/>
        <path id="Trazado_1239" data-name="Trazado 1239" d="M302.551,52.6a2.558,2.558,0,0,0-2.367,2.719V58.03h4.737V55.314A2.563,2.563,0,0,0,302.551,52.6Z" transform="translate(-268.523 -21.291)" fill="#7f5026"/>
        <rect id="Rectángulo_670" data-name="Rectángulo 670" width="5.315" height="1.893" transform="translate(31.37 38.95)" opacity="0.2"/>
        <rect id="Rectángulo_671" data-name="Rectángulo 671" width="5.315" height="1.514" transform="translate(31.37 39.14)" fill="#ffc300"/>
        <path id="Trazado_1240" data-name="Trazado 1240" d="M301.777,57.434l-.309-1.245a.389.389,0,0,0,.147-.3.412.412,0,1,0-.825,0,.4.4,0,0,0,.147.3l-.3,1.245Z" transform="translate(-267.174 -12.763)" fill="#be6b00"/>
        <g id="Grupo_986" data-name="Grupo 986" transform="translate(6.001 7.048)">
          <rect id="Rectángulo_672" data-name="Rectángulo 672" width="7.87" height="1.821" fill="#ffc300"/>
          <rect id="Rectángulo_673" data-name="Rectángulo 673" width="7.87" height="0.532" transform="translate(0 1.289)" fill="#ff9f00"/>
        </g>
        <g id="Grupo_987" data-name="Grupo 987" transform="translate(55.479 7.048)">
          <rect id="Rectángulo_674" data-name="Rectángulo 674" width="7.87" height="1.821" fill="#ffc300"/>
          <rect id="Rectángulo_675" data-name="Rectángulo 675" width="7.87" height="0.532" transform="translate(0 1.289)" fill="#ff9f00"/>
        </g>
      </g>
      <path id="Trazado_1242" data-name="Trazado 1242" d="M255.988,96.192c3.533-6.912,3.9-16.327,3.42-23.826-.03-.922-.109-1.84-.177-2.687a91.194,91.194,0,0,0-1.434-9.561H387.7s.188,3.977,1,9.561c.109.884.215,1.765.365,2.687,1.249,7.5,3.526,16.914,7.65,23.826Z" transform="translate(-137.935 83.774)" opacity="0.2"/>
      <path id="Trazado_1243" data-name="Trazado 1243" d="M418.658,99.952c-10.415-12.263-7.97-39.833-7.97-39.833H280.771s2.446,27.57-7.973,39.833-17.158,20.225-25.124,25.741c6.747,9.192,19.615,31.258,19.615,31.258s25.433-13.855,42.591-11.405,29.719,16.3,35.848,25.5c6.13-9.193,18.694-23.04,35.852-25.5s42.595,11.405,42.595,11.405,12.869-22.065,19.612-31.258C435.824,120.177,429.081,112.207,418.658,99.952Z" transform="translate(-162.851 83.777)" fill="#9b8278"/>
      <path id="Trazado_1244" data-name="Trazado 1244" d="M251.349,125.693c7.97-5.516,14.712-13.486,25.124-25.741s4.3-39.833,4.3-39.833,2.446,27.57-7.973,39.833-17.158,20.225-25.124,25.741c6.747,9.192,19.615,31.258,19.615,31.258S257.08,133.5,251.349,125.693Z" transform="translate(-162.851 83.777)" fill="#765d53"/>
      <path id="Trazado_1397" data-name="Trazado 1397" d="M370.47,88.726c-7.48-8.807-5.724-28.607-5.724-28.607h-93.3s1.757,19.8-5.726,28.607-12.323,14.525-18.043,18.487c4.845,6.6,14.087,22.448,14.087,22.448s18.265-9.95,30.588-8.191,21.343,11.709,25.745,18.311c4.4-6.6,13.425-16.546,25.748-18.311s30.59,8.191,30.59,8.191,9.242-15.847,14.085-22.448C382.8,103.251,377.956,97.528,370.47,88.726Z" transform="translate(-135.217 92.604)" fill="none" stroke="#f2c282" stroke-width="1" stroke-dasharray="6"/>
    </g>
  </g>
</svg>
